G75*
G70*
%OFA0B0*%
%FSLAX24Y24*%
%IPPOS*%
%LPD*%
%AMOC8*
5,1,8,0,0,1.08239X$1,22.5*
%
%ADD10C,0.0080*%
%ADD11C,0.0740*%
%ADD12R,0.0740X0.0740*%
%ADD13C,0.0000*%
%ADD14C,0.0516*%
%ADD15C,0.0570*%
%ADD16C,0.0300*%
%ADD17C,0.0100*%
D10*
X004650Y010000D02*
X004650Y024000D01*
X022650Y024000D01*
X022650Y010000D01*
X004650Y010000D01*
X006143Y010200D02*
X021157Y010200D01*
X020927Y010393D01*
X020927Y010393D01*
X020763Y010677D01*
X020763Y010677D01*
X020706Y011000D01*
X020706Y011000D01*
X020763Y011323D01*
X020763Y011323D01*
X020927Y011607D01*
X020927Y011607D01*
X021178Y011818D01*
X021178Y011818D01*
X021486Y011930D01*
X021814Y011930D01*
X022122Y011818D01*
X022122Y011818D01*
X022373Y011607D01*
X022373Y011607D01*
X022450Y011474D01*
X022450Y022526D01*
X022373Y022393D01*
X022373Y022393D01*
X022122Y022182D01*
X022122Y022182D01*
X021814Y022070D01*
X021486Y022070D01*
X021178Y022182D01*
X021178Y022182D01*
X020927Y022393D01*
X020927Y022393D01*
X020763Y022677D01*
X020763Y022677D01*
X020706Y023000D01*
X020706Y023000D01*
X020763Y023323D01*
X020763Y023323D01*
X020927Y023607D01*
X020927Y023607D01*
X021157Y023800D01*
X006143Y023800D01*
X006373Y023607D01*
X006373Y023607D01*
X006537Y023323D01*
X006537Y023323D01*
X006594Y023000D01*
X006594Y023000D01*
X006537Y022677D01*
X006373Y022393D01*
X006373Y022393D01*
X006122Y022182D01*
X006122Y022182D01*
X005814Y022070D01*
X005486Y022070D01*
X005178Y022182D01*
X005178Y022182D01*
X004927Y022393D01*
X004927Y022393D01*
X004850Y022526D01*
X004850Y011474D01*
X004927Y011607D01*
X004927Y011607D01*
X005178Y011818D01*
X005178Y011818D01*
X005486Y011930D01*
X005814Y011930D01*
X006122Y011818D01*
X006122Y011818D01*
X006373Y011607D01*
X006373Y011607D01*
X006537Y011323D01*
X006537Y011323D01*
X006594Y011000D01*
X006594Y011000D01*
X006537Y010677D01*
X006537Y010677D01*
X006373Y010393D01*
X006373Y010393D01*
X006143Y010200D01*
X006186Y010236D02*
X021114Y010236D01*
X021021Y010314D02*
X006279Y010314D01*
X006373Y010393D02*
X020927Y010393D01*
X020882Y010471D02*
X006418Y010471D01*
X006373Y010393D02*
X006373Y010393D01*
X006464Y010550D02*
X020836Y010550D01*
X020791Y010628D02*
X006509Y010628D01*
X006543Y010707D02*
X020757Y010707D01*
X020744Y010785D02*
X006556Y010785D01*
X006570Y010864D02*
X020730Y010864D01*
X020716Y010942D02*
X006584Y010942D01*
X006591Y011021D02*
X020709Y011021D01*
X020723Y011099D02*
X006577Y011099D01*
X006563Y011178D02*
X020737Y011178D01*
X020751Y011256D02*
X014844Y011256D01*
X014826Y011237D02*
X015326Y011737D01*
X015413Y011824D01*
X015460Y011938D01*
X015460Y012060D01*
X015599Y012200D01*
X015680Y012395D01*
X015680Y012605D01*
X015599Y012800D01*
X015450Y012949D01*
X015255Y013030D01*
X015045Y013030D01*
X014850Y012949D01*
X014701Y012800D01*
X014620Y012605D01*
X014620Y012395D01*
X014701Y012200D01*
X014806Y012094D01*
X014522Y011810D01*
X007278Y011810D01*
X005960Y013128D01*
X005960Y018372D01*
X006172Y018584D01*
X006831Y018584D01*
X006898Y018516D01*
X006965Y018489D01*
X006927Y018470D01*
X006873Y018430D01*
X006826Y018383D01*
X006787Y018329D01*
X006756Y018269D01*
X006735Y018206D01*
X006725Y018140D01*
X006725Y018135D01*
X007121Y018135D01*
X007121Y018077D01*
X007179Y018077D01*
X007179Y017681D01*
X007183Y017681D01*
X007250Y017692D01*
X007313Y017712D01*
X007373Y017743D01*
X007427Y017782D01*
X007474Y017829D01*
X007513Y017884D01*
X007544Y017943D01*
X007565Y018007D01*
X009455Y018007D01*
X009545Y017970D02*
X009755Y017970D01*
X009950Y018051D01*
X010099Y018200D01*
X010150Y018322D01*
X010201Y018200D01*
X010350Y018051D01*
X010545Y017970D01*
X010755Y017970D01*
X010950Y018051D01*
X011099Y018200D01*
X011180Y018395D01*
X011180Y018605D01*
X011099Y018800D01*
X010950Y018949D01*
X010828Y019000D01*
X010950Y019051D01*
X011099Y019200D01*
X011180Y019395D01*
X011180Y019605D01*
X011099Y019800D01*
X010950Y019949D01*
X010755Y020030D01*
X010545Y020030D01*
X010350Y019949D01*
X010201Y019800D01*
X010150Y019678D01*
X010099Y019800D01*
X009950Y019949D01*
X009755Y020030D01*
X009545Y020030D01*
X009350Y019949D01*
X009201Y019800D01*
X009120Y019605D01*
X009120Y019395D01*
X009201Y019200D01*
X009350Y019051D01*
X009472Y019000D01*
X009350Y018949D01*
X009201Y018800D01*
X009120Y018605D01*
X009120Y018395D01*
X009201Y018200D01*
X009350Y018051D01*
X009545Y017970D01*
X009315Y018086D02*
X007179Y018086D01*
X007179Y018077D02*
X007179Y018135D01*
X007575Y018135D01*
X007575Y018140D01*
X007565Y018206D01*
X007544Y018269D01*
X007513Y018329D01*
X007474Y018383D01*
X007427Y018430D01*
X007373Y018470D01*
X007335Y018489D01*
X007402Y018516D01*
X007527Y018642D01*
X007595Y018805D01*
X007595Y018982D01*
X007527Y019146D01*
X007402Y019271D01*
X007239Y019339D01*
X007061Y019339D01*
X006898Y019271D01*
X006831Y019204D01*
X005982Y019204D01*
X005868Y019157D01*
X005781Y019069D01*
X005474Y018763D01*
X005387Y018676D01*
X005340Y018562D01*
X005340Y012938D01*
X005387Y012824D01*
X006887Y011324D01*
X006974Y011237D01*
X007088Y011190D01*
X014712Y011190D01*
X014826Y011237D01*
X014923Y011335D02*
X020769Y011335D01*
X020815Y011413D02*
X015001Y011413D01*
X015080Y011492D02*
X020860Y011492D01*
X020905Y011570D02*
X015158Y011570D01*
X015237Y011649D02*
X020976Y011649D01*
X020927Y011607D02*
X020927Y011607D01*
X021070Y011727D02*
X015315Y011727D01*
X015394Y011806D02*
X021163Y011806D01*
X021360Y011884D02*
X015437Y011884D01*
X015460Y011963D02*
X022450Y011963D01*
X022450Y012041D02*
X015460Y012041D01*
X015519Y012120D02*
X022450Y012120D01*
X022450Y012198D02*
X015598Y012198D01*
X015631Y012277D02*
X022450Y012277D01*
X022450Y012355D02*
X015664Y012355D01*
X015680Y012434D02*
X022450Y012434D01*
X022450Y012512D02*
X015680Y012512D01*
X015680Y012591D02*
X022450Y012591D01*
X022450Y012669D02*
X015654Y012669D01*
X015621Y012748D02*
X022450Y012748D01*
X022450Y012826D02*
X015574Y012826D01*
X015495Y012905D02*
X022450Y012905D01*
X022450Y012983D02*
X016787Y012983D01*
X016755Y012970D02*
X016950Y013051D01*
X017099Y013200D01*
X017180Y013395D01*
X017180Y013605D01*
X017104Y013790D01*
X019737Y013790D01*
X020237Y014290D01*
X020360Y014413D01*
X020360Y016087D01*
X019987Y016460D01*
X019637Y016460D01*
X019599Y016550D01*
X019450Y016699D01*
X019328Y016750D01*
X019450Y016801D01*
X019599Y016950D01*
X019680Y017145D01*
X019680Y017355D01*
X019599Y017550D01*
X019450Y017699D01*
X019299Y017762D01*
X019346Y017777D01*
X019417Y017814D01*
X019482Y017861D01*
X019539Y017918D01*
X019586Y017983D01*
X019623Y018054D01*
X019647Y018131D01*
X019660Y018210D01*
X019190Y018210D01*
X019190Y018290D01*
X019110Y018290D01*
X019110Y018760D01*
X019110Y018760D01*
X019031Y018747D01*
X018954Y018723D01*
X018883Y018686D01*
X018818Y018639D01*
X018761Y018582D01*
X018714Y018517D01*
X018677Y018446D01*
X018653Y018369D01*
X018640Y018290D01*
X019110Y018290D01*
X019110Y018210D01*
X018640Y018210D01*
X018640Y018210D01*
X018653Y018131D01*
X018677Y018054D01*
X018714Y017983D01*
X018761Y017918D01*
X018818Y017861D01*
X018883Y017814D01*
X018954Y017777D01*
X019001Y017762D01*
X018850Y017699D01*
X018701Y017550D01*
X018620Y017355D01*
X018620Y017145D01*
X018701Y016950D01*
X018850Y016801D01*
X018972Y016750D01*
X018850Y016699D01*
X018701Y016550D01*
X018620Y016355D01*
X018620Y016145D01*
X018701Y015950D01*
X018850Y015801D01*
X018900Y015780D01*
X018714Y015780D01*
X018680Y015746D01*
X018680Y015855D01*
X018599Y016050D01*
X018450Y016199D01*
X018328Y016250D01*
X018450Y016301D01*
X018599Y016450D01*
X018680Y016645D01*
X018680Y016855D01*
X018599Y017050D01*
X018450Y017199D01*
X018328Y017250D01*
X018450Y017301D01*
X018599Y017450D01*
X018680Y017645D01*
X018680Y017855D01*
X018599Y018050D01*
X018450Y018199D01*
X018299Y018262D01*
X018346Y018277D01*
X018417Y018314D01*
X018482Y018361D01*
X018539Y018418D01*
X018586Y018483D01*
X018623Y018554D01*
X018647Y018631D01*
X018660Y018710D01*
X018190Y018710D01*
X018190Y018790D01*
X018110Y018790D01*
X018110Y019260D01*
X018110Y019260D01*
X018031Y019247D01*
X017954Y019223D01*
X017883Y019186D01*
X017818Y019139D01*
X017761Y019082D01*
X017714Y019017D01*
X017677Y018946D01*
X017653Y018869D01*
X017642Y018805D01*
X017143Y019304D01*
X017180Y019395D01*
X017180Y019605D01*
X017099Y019800D01*
X016950Y019949D01*
X016755Y020030D01*
X016545Y020030D01*
X016350Y019949D01*
X016201Y019800D01*
X016120Y019605D01*
X016120Y019395D01*
X016201Y019200D01*
X016350Y019051D01*
X016472Y019000D01*
X016350Y018949D01*
X016201Y018800D01*
X016120Y018605D01*
X016120Y018395D01*
X016201Y018200D01*
X016350Y018051D01*
X016545Y017970D01*
X016755Y017970D01*
X016950Y018051D01*
X017099Y018200D01*
X017180Y018395D01*
X017180Y018605D01*
X017132Y018721D01*
X017440Y018413D01*
X017440Y016913D01*
X017563Y016790D01*
X017620Y016733D01*
X017620Y016645D01*
X017701Y016450D01*
X017850Y016301D01*
X017972Y016250D01*
X017850Y016199D01*
X017701Y016050D01*
X017620Y015855D01*
X017620Y015645D01*
X017701Y015450D01*
X017850Y015301D01*
X018045Y015220D01*
X018073Y015220D01*
X018063Y015210D01*
X017104Y015210D01*
X017180Y015395D01*
X017180Y015605D01*
X017099Y015800D01*
X016950Y015949D01*
X016755Y016030D01*
X016545Y016030D01*
X016350Y015949D01*
X016201Y015800D01*
X016120Y015605D01*
X016120Y015395D01*
X016196Y015210D01*
X010070Y015210D01*
X010086Y015233D01*
X010123Y015304D01*
X010147Y015381D01*
X010160Y015460D01*
X009690Y015460D01*
X009690Y015540D01*
X009610Y015540D01*
X009610Y016010D01*
X009610Y016010D01*
X009531Y015997D01*
X009454Y015973D01*
X009383Y015936D01*
X009318Y015889D01*
X009261Y015832D01*
X009214Y015767D01*
X009177Y015696D01*
X009153Y015619D01*
X009140Y015540D01*
X009610Y015540D01*
X009610Y015460D01*
X009140Y015460D01*
X009140Y015460D01*
X009153Y015381D01*
X009177Y015304D01*
X009214Y015233D01*
X009230Y015210D01*
X007887Y015210D01*
X007525Y015571D01*
X007536Y015598D01*
X007536Y015764D01*
X007473Y015918D01*
X007355Y016035D01*
X007202Y016099D01*
X007035Y016099D01*
X006882Y016035D01*
X006764Y015918D01*
X006701Y015764D01*
X006701Y015598D01*
X006764Y015444D01*
X006882Y015327D01*
X007004Y015276D01*
X007002Y015276D01*
X006930Y015246D01*
X006865Y015203D01*
X006810Y015147D01*
X006766Y015082D01*
X006736Y015010D01*
X006721Y014933D01*
X006721Y014923D01*
X007090Y014923D01*
X007090Y014865D01*
X006721Y014865D01*
X006721Y014855D01*
X006736Y014778D01*
X006766Y014705D01*
X006810Y014640D01*
X006865Y014585D01*
X006930Y014541D01*
X007002Y014511D01*
X007004Y014511D01*
X006882Y014460D01*
X006764Y014343D01*
X006701Y014189D01*
X006701Y014023D01*
X006764Y013870D01*
X006882Y013752D01*
X007004Y013702D01*
X007002Y013701D01*
X006930Y013671D01*
X006865Y013628D01*
X006810Y013572D01*
X006766Y013507D01*
X006736Y013435D01*
X006721Y013358D01*
X006721Y013348D01*
X007090Y013348D01*
X007090Y013290D01*
X007147Y013290D01*
X007147Y012921D01*
X007158Y012921D01*
X007235Y012936D01*
X007307Y012966D01*
X007372Y013010D01*
X007427Y013065D01*
X007471Y013130D01*
X007501Y013203D01*
X007516Y013280D01*
X007516Y013290D01*
X007147Y013290D01*
X007147Y013348D01*
X007516Y013348D01*
X007516Y013358D01*
X007501Y013435D01*
X007471Y013507D01*
X007427Y013572D01*
X007372Y013628D01*
X007307Y013671D01*
X007235Y013701D01*
X007233Y013702D01*
X007355Y013752D01*
X007473Y013870D01*
X007536Y014023D01*
X007536Y014189D01*
X007473Y014343D01*
X007355Y014460D01*
X007233Y014511D01*
X007235Y014511D01*
X007307Y014541D01*
X007372Y014585D01*
X007427Y014640D01*
X007471Y014705D01*
X007501Y014778D01*
X007516Y014855D01*
X007516Y014865D01*
X007147Y014865D01*
X007147Y014923D01*
X007516Y014923D01*
X007516Y014933D01*
X007503Y015000D01*
X007713Y014790D01*
X009040Y014790D01*
X008974Y014763D01*
X008887Y014676D01*
X008387Y014176D01*
X008340Y014062D01*
X008340Y012938D01*
X008387Y012824D01*
X008474Y012737D01*
X008974Y012237D01*
X009088Y012190D01*
X011710Y012190D01*
X011850Y012051D01*
X012045Y011970D01*
X012255Y011970D01*
X012450Y012051D01*
X012599Y012200D01*
X012680Y012395D01*
X012680Y012605D01*
X012599Y012800D01*
X012450Y012949D01*
X012255Y013030D01*
X012045Y013030D01*
X011850Y012949D01*
X011710Y012810D01*
X009278Y012810D01*
X008960Y013128D01*
X008960Y013872D01*
X009244Y014156D01*
X009350Y014051D01*
X009472Y014000D01*
X009350Y013949D01*
X009201Y013800D01*
X009120Y013605D01*
X009120Y013395D01*
X009201Y013200D01*
X009350Y013051D01*
X009545Y012970D01*
X009755Y012970D01*
X009950Y013051D01*
X010099Y013200D01*
X010137Y013290D01*
X014237Y013290D01*
X014737Y013790D01*
X016196Y013790D01*
X016120Y013605D01*
X016120Y013395D01*
X016201Y013200D01*
X016350Y013051D01*
X016545Y012970D01*
X016755Y012970D01*
X016961Y013062D02*
X022450Y013062D01*
X022450Y013140D02*
X017040Y013140D01*
X017107Y013219D02*
X022450Y013219D01*
X022450Y013297D02*
X017140Y013297D01*
X017172Y013376D02*
X022450Y013376D01*
X022450Y013454D02*
X017180Y013454D01*
X017180Y013533D02*
X022450Y013533D01*
X022450Y013611D02*
X017178Y013611D01*
X017145Y013690D02*
X022450Y013690D01*
X022450Y013768D02*
X017113Y013768D01*
X016187Y013768D02*
X014715Y013768D01*
X014636Y013690D02*
X016155Y013690D01*
X016122Y013611D02*
X014558Y013611D01*
X014479Y013533D02*
X016120Y013533D01*
X016120Y013454D02*
X014401Y013454D01*
X014322Y013376D02*
X016128Y013376D01*
X016160Y013297D02*
X014244Y013297D01*
X014726Y012826D02*
X012574Y012826D01*
X012621Y012748D02*
X014679Y012748D01*
X014646Y012669D02*
X012654Y012669D01*
X012680Y012591D02*
X014620Y012591D01*
X014620Y012512D02*
X012680Y012512D01*
X012680Y012434D02*
X014620Y012434D01*
X014636Y012355D02*
X012664Y012355D01*
X012631Y012277D02*
X014669Y012277D01*
X014702Y012198D02*
X012598Y012198D01*
X012519Y012120D02*
X014781Y012120D01*
X014753Y012041D02*
X012427Y012041D01*
X011873Y012041D02*
X007047Y012041D01*
X006969Y012120D02*
X011781Y012120D01*
X011726Y012826D02*
X009262Y012826D01*
X009184Y012905D02*
X011805Y012905D01*
X011931Y012983D02*
X009787Y012983D01*
X009961Y013062D02*
X016339Y013062D01*
X016260Y013140D02*
X010040Y013140D01*
X010107Y013219D02*
X016193Y013219D01*
X016513Y012983D02*
X015369Y012983D01*
X014931Y012983D02*
X012369Y012983D01*
X012495Y012905D02*
X014805Y012905D01*
X014674Y011963D02*
X007126Y011963D01*
X007204Y011884D02*
X014596Y011884D01*
X009513Y012983D02*
X009105Y012983D01*
X009027Y013062D02*
X009339Y013062D01*
X009260Y013140D02*
X008960Y013140D01*
X008960Y013219D02*
X009193Y013219D01*
X009160Y013297D02*
X008960Y013297D01*
X008960Y013376D02*
X009128Y013376D01*
X009120Y013454D02*
X008960Y013454D01*
X008960Y013533D02*
X009120Y013533D01*
X009122Y013611D02*
X008960Y013611D01*
X008960Y013690D02*
X009155Y013690D01*
X009187Y013768D02*
X008960Y013768D01*
X008960Y013847D02*
X009247Y013847D01*
X009325Y013925D02*
X009013Y013925D01*
X009092Y014004D02*
X009464Y014004D01*
X009318Y014082D02*
X009170Y014082D01*
X008529Y014318D02*
X007483Y014318D01*
X007516Y014239D02*
X008451Y014239D01*
X008381Y014161D02*
X007536Y014161D01*
X007536Y014082D02*
X008348Y014082D01*
X008340Y014004D02*
X007528Y014004D01*
X007496Y013925D02*
X008340Y013925D01*
X008340Y013847D02*
X007450Y013847D01*
X007371Y013768D02*
X008340Y013768D01*
X008340Y013690D02*
X007263Y013690D01*
X007389Y013611D02*
X008340Y013611D01*
X008340Y013533D02*
X007454Y013533D01*
X007493Y013454D02*
X008340Y013454D01*
X008340Y013376D02*
X007513Y013376D01*
X007504Y013219D02*
X008340Y013219D01*
X008340Y013297D02*
X007147Y013297D01*
X007090Y013297D02*
X005960Y013297D01*
X005960Y013219D02*
X006733Y013219D01*
X006736Y013203D02*
X006766Y013130D01*
X006810Y013065D01*
X006865Y013010D01*
X006930Y012966D01*
X007002Y012936D01*
X007079Y012921D01*
X007090Y012921D01*
X007090Y013290D01*
X006721Y013290D01*
X006721Y013280D01*
X006736Y013203D01*
X006762Y013140D02*
X005960Y013140D01*
X006027Y013062D02*
X006813Y013062D01*
X006905Y012983D02*
X006105Y012983D01*
X006184Y012905D02*
X008354Y012905D01*
X008340Y012983D02*
X007332Y012983D01*
X007424Y013062D02*
X008340Y013062D01*
X008340Y013140D02*
X007475Y013140D01*
X007147Y013140D02*
X007090Y013140D01*
X007090Y013062D02*
X007147Y013062D01*
X007147Y012983D02*
X007090Y012983D01*
X007090Y013219D02*
X007147Y013219D01*
X006724Y013376D02*
X005960Y013376D01*
X005960Y013454D02*
X006744Y013454D01*
X006783Y013533D02*
X005960Y013533D01*
X005960Y013611D02*
X006848Y013611D01*
X006974Y013690D02*
X005960Y013690D01*
X005960Y013768D02*
X006866Y013768D01*
X006787Y013847D02*
X005960Y013847D01*
X005960Y013925D02*
X006741Y013925D01*
X006709Y014004D02*
X005960Y014004D01*
X005960Y014082D02*
X006701Y014082D01*
X006701Y014161D02*
X005960Y014161D01*
X005960Y014239D02*
X006721Y014239D01*
X006754Y014318D02*
X005960Y014318D01*
X005960Y014396D02*
X006817Y014396D01*
X006916Y014475D02*
X005960Y014475D01*
X005960Y014553D02*
X006912Y014553D01*
X006818Y014632D02*
X005960Y014632D01*
X005960Y014710D02*
X006764Y014710D01*
X006734Y014789D02*
X005960Y014789D01*
X005960Y014867D02*
X007090Y014867D01*
X007147Y014867D02*
X007636Y014867D01*
X007557Y014946D02*
X007514Y014946D01*
X007503Y014789D02*
X009036Y014789D01*
X008922Y014710D02*
X007473Y014710D01*
X007419Y014632D02*
X008843Y014632D01*
X008765Y014553D02*
X007325Y014553D01*
X007321Y014475D02*
X008686Y014475D01*
X008608Y014396D02*
X007420Y014396D01*
X006723Y014946D02*
X005960Y014946D01*
X005960Y015024D02*
X006742Y015024D01*
X006780Y015103D02*
X005960Y015103D01*
X005960Y015181D02*
X006843Y015181D01*
X006962Y015260D02*
X005960Y015260D01*
X005960Y015338D02*
X006871Y015338D01*
X006792Y015417D02*
X005960Y015417D01*
X005960Y015495D02*
X006743Y015495D01*
X006711Y015574D02*
X005960Y015574D01*
X005960Y015652D02*
X006701Y015652D01*
X006701Y015731D02*
X005960Y015731D01*
X005960Y015809D02*
X006719Y015809D01*
X006752Y015888D02*
X005960Y015888D01*
X005960Y015966D02*
X006813Y015966D01*
X006904Y016045D02*
X005960Y016045D01*
X005960Y016123D02*
X017773Y016123D01*
X017698Y016045D02*
X007333Y016045D01*
X007424Y015966D02*
X009441Y015966D01*
X009316Y015888D02*
X007485Y015888D01*
X007518Y015809D02*
X009244Y015809D01*
X009195Y015731D02*
X007536Y015731D01*
X007536Y015652D02*
X009163Y015652D01*
X009145Y015574D02*
X007526Y015574D01*
X007602Y015495D02*
X009610Y015495D01*
X009610Y015574D02*
X009690Y015574D01*
X009690Y015540D02*
X009690Y016010D01*
X009690Y016010D01*
X009769Y015997D01*
X009846Y015973D01*
X009917Y015936D01*
X009982Y015889D01*
X010039Y015832D01*
X010086Y015767D01*
X010123Y015696D01*
X010147Y015619D01*
X010160Y015540D01*
X010160Y015540D01*
X009690Y015540D01*
X009690Y015495D02*
X016120Y015495D01*
X016120Y015417D02*
X010153Y015417D01*
X010160Y015460D02*
X010160Y015460D01*
X010155Y015574D02*
X016120Y015574D01*
X016139Y015652D02*
X010137Y015652D01*
X010105Y015731D02*
X016172Y015731D01*
X016209Y015809D02*
X010056Y015809D01*
X009984Y015888D02*
X016288Y015888D01*
X016390Y015966D02*
X009859Y015966D01*
X009690Y015966D02*
X009610Y015966D01*
X009610Y015888D02*
X009690Y015888D01*
X009690Y015809D02*
X009610Y015809D01*
X009610Y015731D02*
X009690Y015731D01*
X009690Y015652D02*
X009610Y015652D01*
X009140Y015540D02*
X009140Y015540D01*
X009147Y015417D02*
X007680Y015417D01*
X007759Y015338D02*
X009166Y015338D01*
X009200Y015260D02*
X007837Y015260D01*
X005960Y016202D02*
X017855Y016202D01*
X017900Y016280D02*
X005960Y016280D01*
X005960Y016359D02*
X017792Y016359D01*
X017713Y016437D02*
X005960Y016437D01*
X005960Y016516D02*
X017673Y016516D01*
X017641Y016594D02*
X005960Y016594D01*
X005960Y016673D02*
X017620Y016673D01*
X017602Y016751D02*
X005960Y016751D01*
X005960Y016830D02*
X017523Y016830D01*
X017445Y016908D02*
X005960Y016908D01*
X005960Y016987D02*
X017440Y016987D01*
X017440Y017065D02*
X005960Y017065D01*
X005960Y017144D02*
X017440Y017144D01*
X017440Y017222D02*
X005960Y017222D01*
X005960Y017301D02*
X017440Y017301D01*
X017440Y017379D02*
X005960Y017379D01*
X005960Y017458D02*
X017440Y017458D01*
X017440Y017536D02*
X005960Y017536D01*
X005960Y017615D02*
X017440Y017615D01*
X017440Y017693D02*
X007253Y017693D01*
X007179Y017693D02*
X007121Y017693D01*
X007121Y017681D02*
X007121Y018077D01*
X006725Y018077D01*
X006725Y018073D01*
X006735Y018007D01*
X005960Y018007D01*
X005960Y017929D02*
X006764Y017929D01*
X006756Y017943D02*
X006787Y017884D01*
X006826Y017829D01*
X006873Y017782D01*
X006927Y017743D01*
X006987Y017712D01*
X007050Y017692D01*
X007117Y017681D01*
X007121Y017681D01*
X007047Y017693D02*
X005960Y017693D01*
X005960Y017772D02*
X006888Y017772D01*
X006811Y017850D02*
X005960Y017850D01*
X005960Y018086D02*
X007121Y018086D01*
X007179Y018077D02*
X007575Y018077D01*
X007575Y018073D01*
X007565Y018007D01*
X007536Y017929D02*
X017440Y017929D01*
X017440Y018007D02*
X016845Y018007D01*
X016985Y018086D02*
X017440Y018086D01*
X017440Y018164D02*
X017064Y018164D01*
X017117Y018243D02*
X017440Y018243D01*
X017440Y018321D02*
X017150Y018321D01*
X017180Y018400D02*
X017440Y018400D01*
X017375Y018478D02*
X017180Y018478D01*
X017180Y018557D02*
X017296Y018557D01*
X017218Y018635D02*
X017168Y018635D01*
X017139Y018714D02*
X017135Y018714D01*
X017498Y018949D02*
X017679Y018949D01*
X017653Y018871D02*
X017576Y018871D01*
X017721Y019028D02*
X017419Y019028D01*
X017341Y019106D02*
X017785Y019106D01*
X017880Y019185D02*
X017262Y019185D01*
X017184Y019263D02*
X020860Y019263D01*
X020860Y019185D02*
X018420Y019185D01*
X018417Y019186D02*
X018346Y019223D01*
X018269Y019247D01*
X018190Y019260D01*
X018190Y018790D01*
X018660Y018790D01*
X018660Y018790D01*
X018647Y018869D01*
X018623Y018946D01*
X018586Y019017D01*
X018539Y019082D01*
X018482Y019139D01*
X018417Y019186D01*
X018515Y019106D02*
X020860Y019106D01*
X020860Y019093D02*
X020980Y018803D01*
X021203Y018580D01*
X021493Y018460D01*
X021807Y018460D01*
X022097Y018580D01*
X022320Y018803D01*
X022440Y019093D01*
X022440Y019407D01*
X022320Y019697D01*
X022097Y019920D01*
X021807Y020040D01*
X021493Y020040D01*
X021203Y019920D01*
X020980Y019697D01*
X020860Y019407D01*
X020860Y019093D01*
X020887Y019028D02*
X018579Y019028D01*
X018621Y018949D02*
X020920Y018949D01*
X020952Y018871D02*
X018647Y018871D01*
X018660Y018792D02*
X020991Y018792D01*
X021069Y018714D02*
X019364Y018714D01*
X019346Y018723D02*
X019269Y018747D01*
X019190Y018760D01*
X019190Y018290D01*
X019660Y018290D01*
X019660Y018290D01*
X019647Y018369D01*
X019623Y018446D01*
X019586Y018517D01*
X019539Y018582D01*
X019482Y018639D01*
X019417Y018686D01*
X019346Y018723D01*
X019190Y018714D02*
X019110Y018714D01*
X019110Y018635D02*
X019190Y018635D01*
X019190Y018557D02*
X019110Y018557D01*
X019110Y018478D02*
X019190Y018478D01*
X019190Y018400D02*
X019110Y018400D01*
X019110Y018321D02*
X019190Y018321D01*
X019190Y018243D02*
X022450Y018243D01*
X022450Y018321D02*
X019655Y018321D01*
X019638Y018400D02*
X022450Y018400D01*
X022450Y018478D02*
X021850Y018478D01*
X022040Y018557D02*
X022450Y018557D01*
X022450Y018635D02*
X022152Y018635D01*
X022231Y018714D02*
X022450Y018714D01*
X022450Y018792D02*
X022309Y018792D01*
X022348Y018871D02*
X022450Y018871D01*
X022450Y018949D02*
X022380Y018949D01*
X022413Y019028D02*
X022450Y019028D01*
X022440Y019106D02*
X022450Y019106D01*
X022440Y019185D02*
X022450Y019185D01*
X022440Y019263D02*
X022450Y019263D01*
X022440Y019342D02*
X022450Y019342D01*
X022450Y019420D02*
X022435Y019420D01*
X022450Y019499D02*
X022402Y019499D01*
X022370Y019577D02*
X022450Y019577D01*
X022450Y019656D02*
X022337Y019656D01*
X022283Y019734D02*
X022450Y019734D01*
X022450Y019813D02*
X022205Y019813D01*
X022126Y019891D02*
X022450Y019891D01*
X022450Y019970D02*
X021977Y019970D01*
X022450Y020048D02*
X004850Y020048D01*
X004850Y019970D02*
X009399Y019970D01*
X009291Y019891D02*
X004850Y019891D01*
X004850Y019813D02*
X009213Y019813D01*
X009173Y019734D02*
X004850Y019734D01*
X004850Y019656D02*
X009141Y019656D01*
X009120Y019577D02*
X004850Y019577D01*
X004850Y019499D02*
X009120Y019499D01*
X009120Y019420D02*
X004850Y019420D01*
X004850Y019342D02*
X009142Y019342D01*
X009174Y019263D02*
X007410Y019263D01*
X007488Y019185D02*
X009216Y019185D01*
X009294Y019106D02*
X007544Y019106D01*
X007576Y019028D02*
X009406Y019028D01*
X009349Y018949D02*
X007595Y018949D01*
X007595Y018871D02*
X009271Y018871D01*
X009197Y018792D02*
X007590Y018792D01*
X007557Y018714D02*
X009165Y018714D01*
X009132Y018635D02*
X007521Y018635D01*
X007442Y018557D02*
X009120Y018557D01*
X009120Y018478D02*
X007357Y018478D01*
X007458Y018400D02*
X009120Y018400D01*
X009150Y018321D02*
X007518Y018321D01*
X007553Y018243D02*
X009183Y018243D01*
X009236Y018164D02*
X007571Y018164D01*
X007489Y017850D02*
X017440Y017850D01*
X017440Y017772D02*
X007412Y017772D01*
X007179Y017772D02*
X007121Y017772D01*
X007121Y017850D02*
X007179Y017850D01*
X007179Y017929D02*
X007121Y017929D01*
X007121Y018007D02*
X007179Y018007D01*
X006756Y017943D02*
X006735Y018007D01*
X006729Y018164D02*
X005960Y018164D01*
X005960Y018243D02*
X006747Y018243D01*
X006782Y018321D02*
X005960Y018321D01*
X005988Y018400D02*
X006842Y018400D01*
X006943Y018478D02*
X006066Y018478D01*
X006145Y018557D02*
X006858Y018557D01*
X005936Y019185D02*
X004850Y019185D01*
X004850Y019263D02*
X006890Y019263D01*
X007061Y020161D02*
X007239Y020161D01*
X007402Y020229D01*
X007527Y020354D01*
X007595Y020518D01*
X007595Y020695D01*
X007527Y020858D01*
X007402Y020984D01*
X007362Y021000D01*
X007402Y021016D01*
X007527Y021142D01*
X007595Y021305D01*
X007595Y021482D01*
X007527Y021646D01*
X007402Y021771D01*
X007239Y021839D01*
X007061Y021839D01*
X006898Y021771D01*
X006773Y021646D01*
X006705Y021482D01*
X006705Y021305D01*
X006773Y021142D01*
X006898Y021016D01*
X006938Y021000D01*
X006898Y020984D01*
X006773Y020858D01*
X006705Y020695D01*
X006705Y020518D01*
X006773Y020354D01*
X006898Y020229D01*
X007061Y020161D01*
X006956Y020205D02*
X004850Y020205D01*
X004850Y020127D02*
X022450Y020127D01*
X022450Y020205D02*
X007344Y020205D01*
X007457Y020284D02*
X022450Y020284D01*
X022450Y020362D02*
X007530Y020362D01*
X007563Y020441D02*
X022450Y020441D01*
X022450Y020519D02*
X007595Y020519D01*
X007595Y020598D02*
X022450Y020598D01*
X022450Y020676D02*
X007595Y020676D01*
X007570Y020755D02*
X022450Y020755D01*
X022450Y020833D02*
X007538Y020833D01*
X007474Y020912D02*
X022450Y020912D01*
X022450Y020990D02*
X007386Y020990D01*
X007454Y021069D02*
X022450Y021069D01*
X022450Y021147D02*
X007529Y021147D01*
X007562Y021226D02*
X022450Y021226D01*
X022450Y021304D02*
X007595Y021304D01*
X007595Y021383D02*
X022450Y021383D01*
X022450Y021461D02*
X007595Y021461D01*
X007571Y021540D02*
X022450Y021540D01*
X022450Y021618D02*
X007539Y021618D01*
X007476Y021697D02*
X022450Y021697D01*
X022450Y021775D02*
X007392Y021775D01*
X006908Y021775D02*
X004850Y021775D01*
X004850Y021697D02*
X006824Y021697D01*
X006761Y021618D02*
X004850Y021618D01*
X004850Y021540D02*
X006729Y021540D01*
X006705Y021461D02*
X004850Y021461D01*
X004850Y021383D02*
X006705Y021383D01*
X006705Y021304D02*
X004850Y021304D01*
X004850Y021226D02*
X006738Y021226D01*
X006771Y021147D02*
X004850Y021147D01*
X004850Y021069D02*
X006846Y021069D01*
X006914Y020990D02*
X004850Y020990D01*
X004850Y020912D02*
X006826Y020912D01*
X006762Y020833D02*
X004850Y020833D01*
X004850Y020755D02*
X006730Y020755D01*
X006705Y020676D02*
X004850Y020676D01*
X004850Y020598D02*
X006705Y020598D01*
X006705Y020519D02*
X004850Y020519D01*
X004850Y020441D02*
X006737Y020441D01*
X006770Y020362D02*
X004850Y020362D01*
X004850Y020284D02*
X006843Y020284D01*
X005818Y019106D02*
X004850Y019106D01*
X004850Y019028D02*
X005739Y019028D01*
X005781Y019069D02*
X005781Y019069D01*
X005661Y018949D02*
X004850Y018949D01*
X004850Y018871D02*
X005582Y018871D01*
X005504Y018792D02*
X004850Y018792D01*
X004850Y018714D02*
X005425Y018714D01*
X005474Y018763D02*
X005474Y018763D01*
X005370Y018635D02*
X004850Y018635D01*
X004850Y018557D02*
X005340Y018557D01*
X005340Y018478D02*
X004850Y018478D01*
X004850Y018400D02*
X005340Y018400D01*
X005340Y018321D02*
X004850Y018321D01*
X004850Y018243D02*
X005340Y018243D01*
X005340Y018164D02*
X004850Y018164D01*
X004850Y018086D02*
X005340Y018086D01*
X005340Y018007D02*
X004850Y018007D01*
X004850Y017929D02*
X005340Y017929D01*
X005340Y017850D02*
X004850Y017850D01*
X004850Y017772D02*
X005340Y017772D01*
X005340Y017693D02*
X004850Y017693D01*
X004850Y017615D02*
X005340Y017615D01*
X005340Y017536D02*
X004850Y017536D01*
X004850Y017458D02*
X005340Y017458D01*
X005340Y017379D02*
X004850Y017379D01*
X004850Y017301D02*
X005340Y017301D01*
X005340Y017222D02*
X004850Y017222D01*
X004850Y017144D02*
X005340Y017144D01*
X005340Y017065D02*
X004850Y017065D01*
X004850Y016987D02*
X005340Y016987D01*
X005340Y016908D02*
X004850Y016908D01*
X004850Y016830D02*
X005340Y016830D01*
X005340Y016751D02*
X004850Y016751D01*
X004850Y016673D02*
X005340Y016673D01*
X005340Y016594D02*
X004850Y016594D01*
X004850Y016516D02*
X005340Y016516D01*
X005340Y016437D02*
X004850Y016437D01*
X004850Y016359D02*
X005340Y016359D01*
X005340Y016280D02*
X004850Y016280D01*
X004850Y016202D02*
X005340Y016202D01*
X005340Y016123D02*
X004850Y016123D01*
X004850Y016045D02*
X005340Y016045D01*
X005340Y015966D02*
X004850Y015966D01*
X004850Y015888D02*
X005340Y015888D01*
X005340Y015809D02*
X004850Y015809D01*
X004850Y015731D02*
X005340Y015731D01*
X005340Y015652D02*
X004850Y015652D01*
X004850Y015574D02*
X005340Y015574D01*
X005340Y015495D02*
X004850Y015495D01*
X004850Y015417D02*
X005340Y015417D01*
X005340Y015338D02*
X004850Y015338D01*
X004850Y015260D02*
X005340Y015260D01*
X005340Y015181D02*
X004850Y015181D01*
X004850Y015103D02*
X005340Y015103D01*
X005340Y015024D02*
X004850Y015024D01*
X004850Y014946D02*
X005340Y014946D01*
X005340Y014867D02*
X004850Y014867D01*
X004850Y014789D02*
X005340Y014789D01*
X005340Y014710D02*
X004850Y014710D01*
X004850Y014632D02*
X005340Y014632D01*
X005340Y014553D02*
X004850Y014553D01*
X004850Y014475D02*
X005340Y014475D01*
X005340Y014396D02*
X004850Y014396D01*
X004850Y014318D02*
X005340Y014318D01*
X005340Y014239D02*
X004850Y014239D01*
X004850Y014161D02*
X005340Y014161D01*
X005340Y014082D02*
X004850Y014082D01*
X004850Y014004D02*
X005340Y014004D01*
X005340Y013925D02*
X004850Y013925D01*
X004850Y013847D02*
X005340Y013847D01*
X005340Y013768D02*
X004850Y013768D01*
X004850Y013690D02*
X005340Y013690D01*
X005340Y013611D02*
X004850Y013611D01*
X004850Y013533D02*
X005340Y013533D01*
X005340Y013454D02*
X004850Y013454D01*
X004850Y013376D02*
X005340Y013376D01*
X005340Y013297D02*
X004850Y013297D01*
X004850Y013219D02*
X005340Y013219D01*
X005340Y013140D02*
X004850Y013140D01*
X004850Y013062D02*
X005340Y013062D01*
X005340Y012983D02*
X004850Y012983D01*
X004850Y012905D02*
X005354Y012905D01*
X005387Y012826D02*
X004850Y012826D01*
X004850Y012748D02*
X005464Y012748D01*
X005543Y012669D02*
X004850Y012669D01*
X004850Y012591D02*
X005621Y012591D01*
X005700Y012512D02*
X004850Y012512D01*
X004850Y012434D02*
X005778Y012434D01*
X005857Y012355D02*
X004850Y012355D01*
X004850Y012277D02*
X005935Y012277D01*
X006014Y012198D02*
X004850Y012198D01*
X004850Y012120D02*
X006092Y012120D01*
X006171Y012041D02*
X004850Y012041D01*
X004850Y011963D02*
X006249Y011963D01*
X006328Y011884D02*
X005940Y011884D01*
X006137Y011806D02*
X006406Y011806D01*
X006485Y011727D02*
X006230Y011727D01*
X006324Y011649D02*
X006563Y011649D01*
X006642Y011570D02*
X006395Y011570D01*
X006440Y011492D02*
X006720Y011492D01*
X006799Y011413D02*
X006485Y011413D01*
X006531Y011335D02*
X006877Y011335D01*
X006887Y011324D02*
X006887Y011324D01*
X006956Y011256D02*
X006549Y011256D01*
X005360Y011884D02*
X004850Y011884D01*
X004850Y011806D02*
X005163Y011806D01*
X005070Y011727D02*
X004850Y011727D01*
X004850Y011649D02*
X004976Y011649D01*
X004927Y011607D02*
X004927Y011607D01*
X004905Y011570D02*
X004850Y011570D01*
X004850Y011492D02*
X004860Y011492D01*
X006576Y012512D02*
X008700Y012512D01*
X008778Y012434D02*
X006655Y012434D01*
X006733Y012355D02*
X008857Y012355D01*
X008935Y012277D02*
X006812Y012277D01*
X006890Y012198D02*
X009069Y012198D01*
X008621Y012591D02*
X006498Y012591D01*
X006419Y012669D02*
X008543Y012669D01*
X008464Y012748D02*
X006341Y012748D01*
X006262Y012826D02*
X008387Y012826D01*
X010100Y015260D02*
X016176Y015260D01*
X016143Y015338D02*
X010134Y015338D01*
X009845Y018007D02*
X010455Y018007D01*
X010315Y018086D02*
X009985Y018086D01*
X010064Y018164D02*
X010236Y018164D01*
X010183Y018243D02*
X010117Y018243D01*
X010150Y018321D02*
X010150Y018321D01*
X010845Y018007D02*
X016455Y018007D01*
X016315Y018086D02*
X010985Y018086D01*
X011064Y018164D02*
X016236Y018164D01*
X016183Y018243D02*
X011117Y018243D01*
X011150Y018321D02*
X016150Y018321D01*
X016120Y018400D02*
X011180Y018400D01*
X011180Y018478D02*
X016120Y018478D01*
X016120Y018557D02*
X011180Y018557D01*
X011168Y018635D02*
X016132Y018635D01*
X016165Y018714D02*
X011135Y018714D01*
X011103Y018792D02*
X016197Y018792D01*
X016271Y018871D02*
X011029Y018871D01*
X010951Y018949D02*
X016349Y018949D01*
X016406Y019028D02*
X010894Y019028D01*
X011006Y019106D02*
X016294Y019106D01*
X016216Y019185D02*
X011084Y019185D01*
X011126Y019263D02*
X016174Y019263D01*
X016142Y019342D02*
X011158Y019342D01*
X011180Y019420D02*
X016120Y019420D01*
X016120Y019499D02*
X011180Y019499D01*
X011180Y019577D02*
X016120Y019577D01*
X016141Y019656D02*
X011159Y019656D01*
X011127Y019734D02*
X016173Y019734D01*
X016213Y019813D02*
X011087Y019813D01*
X011009Y019891D02*
X016291Y019891D01*
X016399Y019970D02*
X010901Y019970D01*
X010399Y019970D02*
X009901Y019970D01*
X010009Y019891D02*
X010291Y019891D01*
X010213Y019813D02*
X010087Y019813D01*
X010127Y019734D02*
X010173Y019734D01*
X006198Y022246D02*
X021102Y022246D01*
X021008Y022325D02*
X006292Y022325D01*
X006379Y022403D02*
X020921Y022403D01*
X020875Y022482D02*
X006425Y022482D01*
X006470Y022560D02*
X020830Y022560D01*
X020785Y022639D02*
X006515Y022639D01*
X006544Y022717D02*
X020756Y022717D01*
X020742Y022796D02*
X006558Y022796D01*
X006572Y022874D02*
X020728Y022874D01*
X020714Y022953D02*
X006586Y022953D01*
X006589Y023031D02*
X020711Y023031D01*
X020725Y023110D02*
X006575Y023110D01*
X006561Y023188D02*
X020739Y023188D01*
X020753Y023267D02*
X006547Y023267D01*
X006525Y023345D02*
X020775Y023345D01*
X020821Y023424D02*
X006479Y023424D01*
X006434Y023502D02*
X020866Y023502D01*
X020911Y023581D02*
X006389Y023581D01*
X006311Y023659D02*
X020989Y023659D01*
X021082Y023738D02*
X006218Y023738D01*
X004875Y022482D02*
X004850Y022482D01*
X004850Y022403D02*
X004921Y022403D01*
X004850Y022325D02*
X005008Y022325D01*
X005102Y022246D02*
X004850Y022246D01*
X004850Y022168D02*
X005218Y022168D01*
X005434Y022089D02*
X004850Y022089D01*
X004850Y022011D02*
X022450Y022011D01*
X022450Y022089D02*
X021866Y022089D01*
X022082Y022168D02*
X022450Y022168D01*
X022450Y022246D02*
X022198Y022246D01*
X022292Y022325D02*
X022450Y022325D01*
X022450Y022403D02*
X022379Y022403D01*
X022373Y022393D02*
X022373Y022393D01*
X022425Y022482D02*
X022450Y022482D01*
X022450Y021932D02*
X004850Y021932D01*
X004850Y021854D02*
X022450Y021854D01*
X021434Y022089D02*
X005866Y022089D01*
X006082Y022168D02*
X021218Y022168D01*
X021323Y019970D02*
X016901Y019970D01*
X017009Y019891D02*
X021174Y019891D01*
X021095Y019813D02*
X017087Y019813D01*
X017127Y019734D02*
X021017Y019734D01*
X020963Y019656D02*
X017159Y019656D01*
X017180Y019577D02*
X020930Y019577D01*
X020898Y019499D02*
X017180Y019499D01*
X017180Y019420D02*
X020865Y019420D01*
X020860Y019342D02*
X017158Y019342D01*
X018110Y019185D02*
X018190Y019185D01*
X018190Y019260D02*
X018190Y019260D01*
X018190Y019106D02*
X018110Y019106D01*
X018110Y019028D02*
X018190Y019028D01*
X018190Y018949D02*
X018110Y018949D01*
X018110Y018871D02*
X018190Y018871D01*
X018190Y018792D02*
X018110Y018792D01*
X018190Y018714D02*
X018936Y018714D01*
X018814Y018635D02*
X018648Y018635D01*
X018660Y018710D02*
X018660Y018710D01*
X018623Y018557D02*
X018742Y018557D01*
X018694Y018478D02*
X018583Y018478D01*
X018521Y018400D02*
X018662Y018400D01*
X018645Y018321D02*
X018427Y018321D01*
X018346Y018243D02*
X019110Y018243D01*
X018647Y018164D02*
X018486Y018164D01*
X018564Y018086D02*
X018667Y018086D01*
X018701Y018007D02*
X018617Y018007D01*
X018650Y017929D02*
X018753Y017929D01*
X018680Y017850D02*
X018833Y017850D01*
X018843Y017693D02*
X018680Y017693D01*
X018680Y017772D02*
X018972Y017772D01*
X018765Y017615D02*
X018668Y017615D01*
X018695Y017536D02*
X018635Y017536D01*
X018662Y017458D02*
X018603Y017458D01*
X018630Y017379D02*
X018529Y017379D01*
X018450Y017301D02*
X018620Y017301D01*
X018620Y017222D02*
X018395Y017222D01*
X018506Y017144D02*
X018620Y017144D01*
X018653Y017065D02*
X018585Y017065D01*
X018626Y016987D02*
X018685Y016987D01*
X018658Y016908D02*
X018742Y016908D01*
X018680Y016830D02*
X018821Y016830D01*
X018823Y016673D02*
X018680Y016673D01*
X018680Y016751D02*
X018970Y016751D01*
X018744Y016594D02*
X018659Y016594D01*
X018686Y016516D02*
X018627Y016516D01*
X018654Y016437D02*
X018587Y016437D01*
X018621Y016359D02*
X018508Y016359D01*
X018400Y016280D02*
X018620Y016280D01*
X018620Y016202D02*
X018445Y016202D01*
X018527Y016123D02*
X018629Y016123D01*
X018602Y016045D02*
X018661Y016045D01*
X018634Y015966D02*
X018694Y015966D01*
X018667Y015888D02*
X018763Y015888D01*
X018841Y015809D02*
X018680Y015809D01*
X017949Y015260D02*
X017124Y015260D01*
X017157Y015338D02*
X017812Y015338D01*
X017734Y015417D02*
X017180Y015417D01*
X017180Y015495D02*
X017682Y015495D01*
X017649Y015574D02*
X017180Y015574D01*
X017161Y015652D02*
X017620Y015652D01*
X017620Y015731D02*
X017128Y015731D01*
X017091Y015809D02*
X017620Y015809D01*
X017633Y015888D02*
X017012Y015888D01*
X016910Y015966D02*
X017666Y015966D01*
X019330Y016751D02*
X022450Y016751D01*
X022450Y016673D02*
X019477Y016673D01*
X019556Y016594D02*
X022450Y016594D01*
X022450Y016516D02*
X019614Y016516D01*
X019479Y016830D02*
X022450Y016830D01*
X022450Y016908D02*
X019558Y016908D01*
X019615Y016987D02*
X022450Y016987D01*
X022450Y017065D02*
X019647Y017065D01*
X019680Y017144D02*
X022450Y017144D01*
X022450Y017222D02*
X019680Y017222D01*
X019680Y017301D02*
X022450Y017301D01*
X022450Y017379D02*
X019670Y017379D01*
X019638Y017458D02*
X022450Y017458D01*
X022450Y017536D02*
X019605Y017536D01*
X019535Y017615D02*
X022450Y017615D01*
X022450Y017693D02*
X019457Y017693D01*
X019328Y017772D02*
X022450Y017772D01*
X022450Y017850D02*
X019467Y017850D01*
X019547Y017929D02*
X022450Y017929D01*
X022450Y018007D02*
X019599Y018007D01*
X019633Y018086D02*
X022450Y018086D01*
X022450Y018164D02*
X019653Y018164D01*
X019660Y018210D02*
X019660Y018210D01*
X019606Y018478D02*
X021450Y018478D01*
X021260Y018557D02*
X019558Y018557D01*
X019486Y018635D02*
X021148Y018635D01*
X019190Y018760D02*
X019190Y018760D01*
X018640Y018290D02*
X018640Y018290D01*
X020010Y016437D02*
X022450Y016437D01*
X022450Y016359D02*
X020088Y016359D01*
X020167Y016280D02*
X022450Y016280D01*
X022450Y016202D02*
X020245Y016202D01*
X020324Y016123D02*
X022450Y016123D01*
X022450Y016045D02*
X020360Y016045D01*
X020360Y015966D02*
X022450Y015966D01*
X022450Y015888D02*
X020360Y015888D01*
X020360Y015809D02*
X022450Y015809D01*
X022450Y015731D02*
X020360Y015731D01*
X020360Y015652D02*
X022450Y015652D01*
X022450Y015574D02*
X020360Y015574D01*
X020360Y015495D02*
X021384Y015495D01*
X021493Y015540D02*
X021203Y015420D01*
X020980Y015197D01*
X020860Y014907D01*
X020860Y014593D01*
X020980Y014303D01*
X021203Y014080D01*
X021493Y013960D01*
X021807Y013960D01*
X022097Y014080D01*
X022320Y014303D01*
X022440Y014593D01*
X022440Y014907D01*
X022320Y015197D01*
X022097Y015420D01*
X021807Y015540D01*
X021493Y015540D01*
X021199Y015417D02*
X020360Y015417D01*
X020360Y015338D02*
X021121Y015338D01*
X021042Y015260D02*
X020360Y015260D01*
X020360Y015181D02*
X020974Y015181D01*
X020941Y015103D02*
X020360Y015103D01*
X020360Y015024D02*
X020908Y015024D01*
X020876Y014946D02*
X020360Y014946D01*
X020360Y014867D02*
X020860Y014867D01*
X020860Y014789D02*
X020360Y014789D01*
X020360Y014710D02*
X020860Y014710D01*
X020860Y014632D02*
X020360Y014632D01*
X020360Y014553D02*
X020877Y014553D01*
X020909Y014475D02*
X020360Y014475D01*
X020343Y014396D02*
X020942Y014396D01*
X020974Y014318D02*
X020264Y014318D01*
X020186Y014239D02*
X021044Y014239D01*
X021122Y014161D02*
X020107Y014161D01*
X020029Y014082D02*
X021201Y014082D01*
X021388Y014004D02*
X019950Y014004D01*
X019872Y013925D02*
X022450Y013925D01*
X022450Y013847D02*
X019793Y013847D01*
X021912Y014004D02*
X022450Y014004D01*
X022450Y014082D02*
X022099Y014082D01*
X022178Y014161D02*
X022450Y014161D01*
X022450Y014239D02*
X022256Y014239D01*
X022326Y014318D02*
X022450Y014318D01*
X022450Y014396D02*
X022358Y014396D01*
X022391Y014475D02*
X022450Y014475D01*
X022450Y014553D02*
X022423Y014553D01*
X022440Y014632D02*
X022450Y014632D01*
X022440Y014710D02*
X022450Y014710D01*
X022440Y014789D02*
X022450Y014789D01*
X022440Y014867D02*
X022450Y014867D01*
X022450Y014946D02*
X022424Y014946D01*
X022450Y015024D02*
X022392Y015024D01*
X022359Y015103D02*
X022450Y015103D01*
X022450Y015181D02*
X022326Y015181D01*
X022258Y015260D02*
X022450Y015260D01*
X022450Y015338D02*
X022179Y015338D01*
X022101Y015417D02*
X022450Y015417D01*
X022450Y015495D02*
X021916Y015495D01*
X021940Y011884D02*
X022450Y011884D01*
X022450Y011806D02*
X022137Y011806D01*
X022230Y011727D02*
X022450Y011727D01*
X022450Y011649D02*
X022324Y011649D01*
X022395Y011570D02*
X022450Y011570D01*
X022440Y011492D02*
X022450Y011492D01*
D11*
X016650Y013500D03*
X016650Y014500D03*
X016650Y015500D03*
X018150Y015750D03*
X019150Y016250D03*
X018150Y016750D03*
X019150Y017250D03*
X018150Y017750D03*
X019150Y018250D03*
X018150Y018750D03*
X016650Y018500D03*
X016650Y019500D03*
X010650Y019500D03*
X009650Y019500D03*
X009650Y018500D03*
X010650Y018500D03*
X009650Y015500D03*
X009650Y014500D03*
X009650Y013500D03*
X012150Y012500D03*
X015150Y012500D03*
D12*
X019150Y015250D03*
D13*
X021020Y014750D02*
X021022Y014800D01*
X021028Y014850D01*
X021038Y014899D01*
X021052Y014947D01*
X021069Y014994D01*
X021090Y015039D01*
X021115Y015083D01*
X021143Y015124D01*
X021175Y015163D01*
X021209Y015200D01*
X021246Y015234D01*
X021286Y015264D01*
X021328Y015291D01*
X021372Y015315D01*
X021418Y015336D01*
X021465Y015352D01*
X021513Y015365D01*
X021563Y015374D01*
X021612Y015379D01*
X021663Y015380D01*
X021713Y015377D01*
X021762Y015370D01*
X021811Y015359D01*
X021859Y015344D01*
X021905Y015326D01*
X021950Y015304D01*
X021993Y015278D01*
X022034Y015249D01*
X022073Y015217D01*
X022109Y015182D01*
X022141Y015144D01*
X022171Y015104D01*
X022198Y015061D01*
X022221Y015017D01*
X022240Y014971D01*
X022256Y014923D01*
X022268Y014874D01*
X022276Y014825D01*
X022280Y014775D01*
X022280Y014725D01*
X022276Y014675D01*
X022268Y014626D01*
X022256Y014577D01*
X022240Y014529D01*
X022221Y014483D01*
X022198Y014439D01*
X022171Y014396D01*
X022141Y014356D01*
X022109Y014318D01*
X022073Y014283D01*
X022034Y014251D01*
X021993Y014222D01*
X021950Y014196D01*
X021905Y014174D01*
X021859Y014156D01*
X021811Y014141D01*
X021762Y014130D01*
X021713Y014123D01*
X021663Y014120D01*
X021612Y014121D01*
X021563Y014126D01*
X021513Y014135D01*
X021465Y014148D01*
X021418Y014164D01*
X021372Y014185D01*
X021328Y014209D01*
X021286Y014236D01*
X021246Y014266D01*
X021209Y014300D01*
X021175Y014337D01*
X021143Y014376D01*
X021115Y014417D01*
X021090Y014461D01*
X021069Y014506D01*
X021052Y014553D01*
X021038Y014601D01*
X021028Y014650D01*
X021022Y014700D01*
X021020Y014750D01*
X021000Y011000D02*
X021002Y011050D01*
X021008Y011100D01*
X021018Y011150D01*
X021031Y011198D01*
X021048Y011246D01*
X021069Y011292D01*
X021093Y011336D01*
X021121Y011378D01*
X021152Y011418D01*
X021186Y011455D01*
X021223Y011490D01*
X021262Y011521D01*
X021303Y011550D01*
X021347Y011575D01*
X021393Y011597D01*
X021440Y011615D01*
X021488Y011629D01*
X021537Y011640D01*
X021587Y011647D01*
X021637Y011650D01*
X021688Y011649D01*
X021738Y011644D01*
X021788Y011635D01*
X021836Y011623D01*
X021884Y011606D01*
X021930Y011586D01*
X021975Y011563D01*
X022018Y011536D01*
X022058Y011506D01*
X022096Y011473D01*
X022131Y011437D01*
X022164Y011398D01*
X022193Y011357D01*
X022219Y011314D01*
X022242Y011269D01*
X022261Y011222D01*
X022276Y011174D01*
X022288Y011125D01*
X022296Y011075D01*
X022300Y011025D01*
X022300Y010975D01*
X022296Y010925D01*
X022288Y010875D01*
X022276Y010826D01*
X022261Y010778D01*
X022242Y010731D01*
X022219Y010686D01*
X022193Y010643D01*
X022164Y010602D01*
X022131Y010563D01*
X022096Y010527D01*
X022058Y010494D01*
X022018Y010464D01*
X021975Y010437D01*
X021930Y010414D01*
X021884Y010394D01*
X021836Y010377D01*
X021788Y010365D01*
X021738Y010356D01*
X021688Y010351D01*
X021637Y010350D01*
X021587Y010353D01*
X021537Y010360D01*
X021488Y010371D01*
X021440Y010385D01*
X021393Y010403D01*
X021347Y010425D01*
X021303Y010450D01*
X021262Y010479D01*
X021223Y010510D01*
X021186Y010545D01*
X021152Y010582D01*
X021121Y010622D01*
X021093Y010664D01*
X021069Y010708D01*
X021048Y010754D01*
X021031Y010802D01*
X021018Y010850D01*
X021008Y010900D01*
X021002Y010950D01*
X021000Y011000D01*
X021020Y019250D02*
X021022Y019300D01*
X021028Y019350D01*
X021038Y019399D01*
X021052Y019447D01*
X021069Y019494D01*
X021090Y019539D01*
X021115Y019583D01*
X021143Y019624D01*
X021175Y019663D01*
X021209Y019700D01*
X021246Y019734D01*
X021286Y019764D01*
X021328Y019791D01*
X021372Y019815D01*
X021418Y019836D01*
X021465Y019852D01*
X021513Y019865D01*
X021563Y019874D01*
X021612Y019879D01*
X021663Y019880D01*
X021713Y019877D01*
X021762Y019870D01*
X021811Y019859D01*
X021859Y019844D01*
X021905Y019826D01*
X021950Y019804D01*
X021993Y019778D01*
X022034Y019749D01*
X022073Y019717D01*
X022109Y019682D01*
X022141Y019644D01*
X022171Y019604D01*
X022198Y019561D01*
X022221Y019517D01*
X022240Y019471D01*
X022256Y019423D01*
X022268Y019374D01*
X022276Y019325D01*
X022280Y019275D01*
X022280Y019225D01*
X022276Y019175D01*
X022268Y019126D01*
X022256Y019077D01*
X022240Y019029D01*
X022221Y018983D01*
X022198Y018939D01*
X022171Y018896D01*
X022141Y018856D01*
X022109Y018818D01*
X022073Y018783D01*
X022034Y018751D01*
X021993Y018722D01*
X021950Y018696D01*
X021905Y018674D01*
X021859Y018656D01*
X021811Y018641D01*
X021762Y018630D01*
X021713Y018623D01*
X021663Y018620D01*
X021612Y018621D01*
X021563Y018626D01*
X021513Y018635D01*
X021465Y018648D01*
X021418Y018664D01*
X021372Y018685D01*
X021328Y018709D01*
X021286Y018736D01*
X021246Y018766D01*
X021209Y018800D01*
X021175Y018837D01*
X021143Y018876D01*
X021115Y018917D01*
X021090Y018961D01*
X021069Y019006D01*
X021052Y019053D01*
X021038Y019101D01*
X021028Y019150D01*
X021022Y019200D01*
X021020Y019250D01*
X021000Y023000D02*
X021002Y023050D01*
X021008Y023100D01*
X021018Y023150D01*
X021031Y023198D01*
X021048Y023246D01*
X021069Y023292D01*
X021093Y023336D01*
X021121Y023378D01*
X021152Y023418D01*
X021186Y023455D01*
X021223Y023490D01*
X021262Y023521D01*
X021303Y023550D01*
X021347Y023575D01*
X021393Y023597D01*
X021440Y023615D01*
X021488Y023629D01*
X021537Y023640D01*
X021587Y023647D01*
X021637Y023650D01*
X021688Y023649D01*
X021738Y023644D01*
X021788Y023635D01*
X021836Y023623D01*
X021884Y023606D01*
X021930Y023586D01*
X021975Y023563D01*
X022018Y023536D01*
X022058Y023506D01*
X022096Y023473D01*
X022131Y023437D01*
X022164Y023398D01*
X022193Y023357D01*
X022219Y023314D01*
X022242Y023269D01*
X022261Y023222D01*
X022276Y023174D01*
X022288Y023125D01*
X022296Y023075D01*
X022300Y023025D01*
X022300Y022975D01*
X022296Y022925D01*
X022288Y022875D01*
X022276Y022826D01*
X022261Y022778D01*
X022242Y022731D01*
X022219Y022686D01*
X022193Y022643D01*
X022164Y022602D01*
X022131Y022563D01*
X022096Y022527D01*
X022058Y022494D01*
X022018Y022464D01*
X021975Y022437D01*
X021930Y022414D01*
X021884Y022394D01*
X021836Y022377D01*
X021788Y022365D01*
X021738Y022356D01*
X021688Y022351D01*
X021637Y022350D01*
X021587Y022353D01*
X021537Y022360D01*
X021488Y022371D01*
X021440Y022385D01*
X021393Y022403D01*
X021347Y022425D01*
X021303Y022450D01*
X021262Y022479D01*
X021223Y022510D01*
X021186Y022545D01*
X021152Y022582D01*
X021121Y022622D01*
X021093Y022664D01*
X021069Y022708D01*
X021048Y022754D01*
X021031Y022802D01*
X021018Y022850D01*
X021008Y022900D01*
X021002Y022950D01*
X021000Y023000D01*
X005000Y023000D02*
X005002Y023050D01*
X005008Y023100D01*
X005018Y023150D01*
X005031Y023198D01*
X005048Y023246D01*
X005069Y023292D01*
X005093Y023336D01*
X005121Y023378D01*
X005152Y023418D01*
X005186Y023455D01*
X005223Y023490D01*
X005262Y023521D01*
X005303Y023550D01*
X005347Y023575D01*
X005393Y023597D01*
X005440Y023615D01*
X005488Y023629D01*
X005537Y023640D01*
X005587Y023647D01*
X005637Y023650D01*
X005688Y023649D01*
X005738Y023644D01*
X005788Y023635D01*
X005836Y023623D01*
X005884Y023606D01*
X005930Y023586D01*
X005975Y023563D01*
X006018Y023536D01*
X006058Y023506D01*
X006096Y023473D01*
X006131Y023437D01*
X006164Y023398D01*
X006193Y023357D01*
X006219Y023314D01*
X006242Y023269D01*
X006261Y023222D01*
X006276Y023174D01*
X006288Y023125D01*
X006296Y023075D01*
X006300Y023025D01*
X006300Y022975D01*
X006296Y022925D01*
X006288Y022875D01*
X006276Y022826D01*
X006261Y022778D01*
X006242Y022731D01*
X006219Y022686D01*
X006193Y022643D01*
X006164Y022602D01*
X006131Y022563D01*
X006096Y022527D01*
X006058Y022494D01*
X006018Y022464D01*
X005975Y022437D01*
X005930Y022414D01*
X005884Y022394D01*
X005836Y022377D01*
X005788Y022365D01*
X005738Y022356D01*
X005688Y022351D01*
X005637Y022350D01*
X005587Y022353D01*
X005537Y022360D01*
X005488Y022371D01*
X005440Y022385D01*
X005393Y022403D01*
X005347Y022425D01*
X005303Y022450D01*
X005262Y022479D01*
X005223Y022510D01*
X005186Y022545D01*
X005152Y022582D01*
X005121Y022622D01*
X005093Y022664D01*
X005069Y022708D01*
X005048Y022754D01*
X005031Y022802D01*
X005018Y022850D01*
X005008Y022900D01*
X005002Y022950D01*
X005000Y023000D01*
X005000Y011000D02*
X005002Y011050D01*
X005008Y011100D01*
X005018Y011150D01*
X005031Y011198D01*
X005048Y011246D01*
X005069Y011292D01*
X005093Y011336D01*
X005121Y011378D01*
X005152Y011418D01*
X005186Y011455D01*
X005223Y011490D01*
X005262Y011521D01*
X005303Y011550D01*
X005347Y011575D01*
X005393Y011597D01*
X005440Y011615D01*
X005488Y011629D01*
X005537Y011640D01*
X005587Y011647D01*
X005637Y011650D01*
X005688Y011649D01*
X005738Y011644D01*
X005788Y011635D01*
X005836Y011623D01*
X005884Y011606D01*
X005930Y011586D01*
X005975Y011563D01*
X006018Y011536D01*
X006058Y011506D01*
X006096Y011473D01*
X006131Y011437D01*
X006164Y011398D01*
X006193Y011357D01*
X006219Y011314D01*
X006242Y011269D01*
X006261Y011222D01*
X006276Y011174D01*
X006288Y011125D01*
X006296Y011075D01*
X006300Y011025D01*
X006300Y010975D01*
X006296Y010925D01*
X006288Y010875D01*
X006276Y010826D01*
X006261Y010778D01*
X006242Y010731D01*
X006219Y010686D01*
X006193Y010643D01*
X006164Y010602D01*
X006131Y010563D01*
X006096Y010527D01*
X006058Y010494D01*
X006018Y010464D01*
X005975Y010437D01*
X005930Y010414D01*
X005884Y010394D01*
X005836Y010377D01*
X005788Y010365D01*
X005738Y010356D01*
X005688Y010351D01*
X005637Y010350D01*
X005587Y010353D01*
X005537Y010360D01*
X005488Y010371D01*
X005440Y010385D01*
X005393Y010403D01*
X005347Y010425D01*
X005303Y010450D01*
X005262Y010479D01*
X005223Y010510D01*
X005186Y010545D01*
X005152Y010582D01*
X005121Y010622D01*
X005093Y010664D01*
X005069Y010708D01*
X005048Y010754D01*
X005031Y010802D01*
X005018Y010850D01*
X005008Y010900D01*
X005002Y010950D01*
X005000Y011000D01*
D14*
X007119Y013319D03*
X007119Y014106D03*
X007119Y014894D03*
X007119Y015681D03*
D15*
X007150Y018106D03*
X007150Y018894D03*
X007150Y020606D03*
X007150Y021394D03*
D16*
X007150Y018894D02*
X006044Y018894D01*
X005650Y018500D01*
X005650Y013000D01*
X007150Y011500D01*
X014650Y011500D01*
X015150Y012000D01*
X015150Y012500D01*
X012150Y012500D02*
X009150Y012500D01*
X008650Y013000D01*
X008650Y014000D01*
X009150Y014500D01*
X009650Y014500D01*
D17*
X009650Y013500D02*
X014150Y013500D01*
X014650Y014000D01*
X019650Y014000D01*
X020150Y014500D01*
X020150Y016000D01*
X019900Y016250D01*
X019150Y016250D01*
X018150Y016750D02*
X017900Y016750D01*
X017650Y017000D01*
X017650Y018500D01*
X016650Y019500D01*
X018400Y015250D02*
X018150Y015000D01*
X007800Y015000D01*
X007119Y015681D01*
X018400Y015250D02*
X019150Y015250D01*
M02*
