G75*
G70*
%OFA0B0*%
%FSLAX24Y24*%
%IPPOS*%
%LPD*%
%AMOC8*
5,1,8,0,0,1.08239X$1,22.5*
%
%ADD10C,0.0150*%
%ADD11C,0.0110*%
%ADD12C,0.0100*%
%ADD13C,0.0080*%
D10*
X012425Y016575D02*
X012425Y017142D01*
X012709Y017426D01*
X012992Y017142D01*
X012992Y016575D01*
X013346Y016575D02*
X013346Y017426D01*
X013629Y017142D01*
X013913Y017426D01*
X013913Y016575D01*
X014267Y016575D02*
X014267Y017426D01*
X014692Y017426D01*
X014834Y017284D01*
X014834Y017000D01*
X014692Y016859D01*
X014267Y016859D01*
X012992Y017000D02*
X012425Y017000D01*
X012363Y022575D02*
X011937Y022859D01*
X012363Y023142D01*
X012705Y023000D02*
X013272Y023000D01*
X013625Y023000D02*
X014193Y023000D01*
X014193Y023142D02*
X014193Y022575D01*
X014546Y023000D02*
X015113Y023000D01*
X015467Y022859D02*
X016034Y023426D01*
X015467Y023426D02*
X015467Y022575D01*
X015609Y023000D02*
X016034Y022575D01*
X016388Y022717D02*
X016530Y022859D01*
X016955Y022859D01*
X016955Y023000D02*
X016955Y022575D01*
X016530Y022575D01*
X016388Y022717D01*
X016813Y023142D02*
X016955Y023000D01*
X016813Y023142D02*
X016530Y023142D01*
X017309Y023142D02*
X017592Y023142D01*
X017450Y023284D02*
X017450Y022717D01*
X017592Y022575D01*
X018064Y022717D02*
X018206Y022575D01*
X018064Y022717D02*
X018064Y023284D01*
X017922Y023142D02*
X018206Y023142D01*
X014193Y023142D02*
X013909Y023426D01*
X013625Y023142D01*
X013625Y022575D01*
X011937Y022575D02*
X011937Y023426D01*
X011584Y023142D02*
X011158Y023142D01*
X011017Y023000D01*
X011017Y022717D01*
X011158Y022575D01*
X011584Y022575D01*
X010663Y022575D02*
X010238Y022575D01*
X010096Y022717D01*
X010238Y022859D01*
X010663Y022859D01*
X010663Y023000D02*
X010663Y022575D01*
X010663Y023000D02*
X010521Y023142D01*
X010238Y023142D01*
X009742Y023426D02*
X009742Y022575D01*
X009459Y022859D01*
X009175Y022575D01*
X009175Y023426D01*
D11*
X011498Y022144D02*
X011498Y022046D01*
X011498Y021849D02*
X011498Y021455D01*
X011400Y021455D02*
X011596Y021455D01*
X011829Y021455D02*
X012125Y021455D01*
X012223Y021553D01*
X012223Y021750D01*
X012125Y021849D01*
X011829Y021849D01*
X011829Y021258D01*
X012474Y021553D02*
X012474Y021750D01*
X012572Y021849D01*
X012769Y021849D01*
X012867Y021750D01*
X012867Y021652D01*
X012474Y021652D01*
X012474Y021553D02*
X012572Y021455D01*
X012769Y021455D01*
X013763Y021455D02*
X013763Y022046D01*
X014058Y022046D01*
X014157Y021947D01*
X014157Y021849D01*
X014058Y021750D01*
X013763Y021750D01*
X013763Y021455D02*
X014058Y021455D01*
X014157Y021553D01*
X014157Y021652D01*
X014058Y021750D01*
X014407Y021750D02*
X014506Y021849D01*
X014703Y021849D01*
X014801Y021750D01*
X014801Y021553D01*
X014703Y021455D01*
X014506Y021455D01*
X014407Y021553D01*
X014407Y021750D01*
X015052Y021553D02*
X015150Y021455D01*
X015446Y021455D01*
X015446Y021750D01*
X015347Y021849D01*
X015150Y021849D01*
X015150Y021652D02*
X015446Y021652D01*
X015697Y021652D02*
X015893Y021849D01*
X015992Y021849D01*
X016234Y021750D02*
X016332Y021849D01*
X016627Y021849D01*
X016627Y022046D02*
X016627Y021455D01*
X016332Y021455D01*
X016234Y021553D01*
X016234Y021750D01*
X015697Y021849D02*
X015697Y021455D01*
X015150Y021652D02*
X015052Y021553D01*
X011498Y021849D02*
X011400Y021849D01*
X011149Y021947D02*
X011149Y021750D01*
X011050Y021652D01*
X010755Y021652D01*
X010755Y021455D02*
X010755Y022046D01*
X011050Y022046D01*
X011149Y021947D01*
X008695Y021739D02*
X008695Y021543D01*
X008597Y021444D01*
X008400Y021444D01*
X008301Y021543D01*
X008301Y021739D01*
X008400Y021838D01*
X008597Y021838D01*
X008695Y021739D01*
X008695Y021193D02*
X008104Y021193D01*
X008301Y021193D02*
X008301Y020898D01*
X008400Y020800D01*
X008597Y020800D01*
X008695Y020898D01*
X008695Y021193D01*
X008695Y020549D02*
X008301Y020549D01*
X008104Y020352D01*
X008301Y020155D01*
X008695Y020155D01*
X008400Y020155D02*
X008400Y020549D01*
X007800Y020405D02*
X007800Y020799D01*
X007800Y021205D02*
X007800Y021599D01*
X007603Y021402D02*
X007997Y021402D01*
X008251Y019453D02*
X008743Y019453D01*
X008842Y019354D01*
X008842Y019256D01*
X008645Y019157D02*
X008645Y019453D01*
X008645Y019157D02*
X008547Y019059D01*
X008251Y019059D01*
X008251Y018826D02*
X008251Y018629D01*
X008153Y018728D02*
X008547Y018728D01*
X008645Y018826D01*
X008350Y018396D02*
X008350Y018200D01*
X008153Y018298D02*
X008054Y018396D01*
X008153Y018298D02*
X008645Y018298D01*
X008547Y017949D02*
X008448Y017949D01*
X008350Y017850D01*
X008350Y017653D01*
X008251Y017555D01*
X008153Y017555D01*
X008054Y017653D01*
X008054Y017850D01*
X008153Y017949D01*
X008547Y017949D02*
X008645Y017850D01*
X008645Y017653D01*
X008547Y017555D01*
X007750Y017905D02*
X007750Y018299D01*
X007750Y018705D02*
X007750Y019099D01*
X007553Y018902D02*
X007947Y018902D01*
X008054Y015338D02*
X008645Y015338D01*
X008054Y014944D01*
X008645Y014944D01*
X008645Y014496D02*
X008054Y014496D01*
X008054Y014300D02*
X008054Y014693D01*
X008153Y014049D02*
X008054Y013950D01*
X008054Y013655D01*
X008645Y013655D01*
X008645Y013950D01*
X008547Y014049D01*
X008448Y014049D01*
X008350Y013950D01*
X008350Y013655D01*
X008350Y013950D02*
X008251Y014049D01*
X008153Y014049D01*
D12*
X009150Y013000D02*
X017150Y013000D01*
X017150Y021000D01*
X009150Y021000D01*
X009150Y013000D01*
D13*
X004717Y012138D02*
X004717Y016862D01*
X007630Y016862D01*
X007630Y016547D01*
X007119Y016547D01*
X007119Y016272D01*
X007859Y017319D02*
X004788Y017319D01*
X004788Y019681D01*
X007859Y019681D01*
X007859Y019287D01*
X007150Y019287D01*
X007859Y019819D02*
X004788Y019819D01*
X004788Y022181D01*
X007859Y022181D01*
X007859Y021787D01*
X007150Y021787D01*
X007150Y020213D02*
X007859Y020213D01*
X007859Y019819D01*
X009150Y019750D02*
X009150Y019250D01*
X009400Y019000D01*
X009150Y018750D01*
X009150Y018250D01*
X009400Y018000D01*
X009900Y018000D01*
X010150Y018250D01*
X010150Y018750D01*
X009900Y019000D01*
X010150Y019250D01*
X010150Y019750D01*
X009900Y020000D01*
X009400Y020000D01*
X009150Y019750D01*
X007859Y017713D02*
X007150Y017713D01*
X007859Y017713D02*
X007859Y017319D01*
X009400Y016000D02*
X009900Y016000D01*
X010150Y015750D01*
X010150Y015250D01*
X009900Y015000D01*
X010150Y014750D01*
X010150Y014250D01*
X009900Y014000D01*
X010150Y013750D01*
X010150Y013250D01*
X009900Y013000D01*
X009400Y013000D01*
X009150Y013250D01*
X009150Y013750D01*
X009400Y014000D01*
X009150Y014250D01*
X009150Y014750D01*
X009400Y015000D01*
X009150Y015250D01*
X009150Y015750D01*
X009400Y016000D01*
X007119Y012728D02*
X007119Y012453D01*
X007630Y012453D01*
X007630Y012138D01*
X004717Y012138D01*
X012550Y012500D02*
X012650Y012500D01*
X012650Y012800D01*
X014650Y012800D01*
X014650Y012500D01*
X014750Y012500D01*
X014650Y012500D02*
X014650Y012200D01*
X012650Y012200D01*
X012650Y012500D01*
X016150Y013250D02*
X016400Y013000D01*
X016900Y013000D01*
X017150Y013250D01*
X017150Y013750D01*
X016900Y014000D01*
X017150Y014250D01*
X017150Y014750D01*
X016900Y015000D01*
X017150Y015250D01*
X017150Y015750D01*
X016900Y016000D01*
X016400Y016000D01*
X016150Y015750D01*
X016150Y015250D01*
X016400Y015000D01*
X016150Y014750D01*
X016150Y014250D01*
X016400Y014000D01*
X016150Y013750D01*
X016150Y013250D01*
X017713Y014000D02*
X022831Y014000D01*
X022831Y020000D01*
X017713Y020000D01*
X017713Y014000D01*
X016900Y018000D02*
X016400Y018000D01*
X016150Y018250D01*
X016150Y018750D01*
X016400Y019000D01*
X016150Y019250D01*
X016150Y019750D01*
X016400Y020000D01*
X016900Y020000D01*
X017150Y019750D01*
X017150Y019250D01*
X016900Y019000D01*
X017150Y018750D01*
X017150Y018250D01*
X016900Y018000D01*
M02*
