G75*
G70*
%OFA0B0*%
%FSLAX24Y24*%
%IPPOS*%
%LPD*%
%AMOC8*
5,1,8,0,0,1.08239X$1,22.5*
%
%ADD10C,0.1340*%
%ADD11C,0.7954*%
%ADD12R,0.0820X0.0820*%
%ADD13C,0.0820*%
%ADD14C,0.0596*%
%ADD15C,0.1740*%
%ADD16C,0.1700*%
%ADD17R,0.0880X0.0880*%
%ADD18C,0.0880*%
D10*
X007833Y012640D03*
X007833Y031640D03*
X008083Y040640D03*
X010083Y040640D03*
X014583Y040640D03*
X016583Y040640D03*
X021083Y040640D03*
X023083Y040640D03*
X027583Y040640D03*
X029583Y040640D03*
X034083Y040640D03*
X036083Y040640D03*
X040583Y040640D03*
X037333Y031640D03*
X039833Y012640D03*
X003583Y040640D03*
D11*
X009833Y005140D03*
X021833Y005140D03*
X033833Y005140D03*
D12*
X030833Y012690D03*
X021833Y012690D03*
X018333Y031590D03*
X020583Y038140D03*
X014083Y038140D03*
X007583Y038140D03*
X027083Y038140D03*
X026833Y031590D03*
X033583Y038140D03*
X035833Y031590D03*
X040083Y038140D03*
D13*
X039583Y037140D03*
X039083Y038140D03*
X038083Y038140D03*
X037083Y038140D03*
X036583Y037140D03*
X037583Y037140D03*
X038583Y037140D03*
X039833Y035640D03*
X039833Y034640D03*
X039903Y031640D03*
X039883Y030640D03*
X038883Y030640D03*
X038763Y031640D03*
X038783Y029640D03*
X039783Y029640D03*
X039883Y028640D03*
X038883Y028640D03*
X038783Y027640D03*
X039783Y027640D03*
X039883Y026640D03*
X038883Y026640D03*
X038783Y025640D03*
X039783Y025640D03*
X039883Y024640D03*
X038883Y024640D03*
X038783Y023640D03*
X039783Y023640D03*
X039883Y022640D03*
X038883Y022640D03*
X038783Y021640D03*
X039783Y021640D03*
X039883Y020640D03*
X038883Y020640D03*
X038783Y019640D03*
X039783Y019640D03*
X039883Y018640D03*
X038883Y018640D03*
X038783Y017640D03*
X039783Y017640D03*
X039883Y016640D03*
X038883Y016640D03*
X038783Y015640D03*
X038763Y014640D03*
X039903Y014640D03*
X039783Y015640D03*
X037833Y012590D03*
X036833Y012690D03*
X035833Y012590D03*
X034833Y012690D03*
X033833Y012590D03*
X032833Y012690D03*
X031833Y012590D03*
X028833Y012590D03*
X027833Y012690D03*
X026833Y012590D03*
X025833Y012690D03*
X024833Y012590D03*
X023833Y012690D03*
X022833Y012590D03*
X019833Y012540D03*
X018833Y012640D03*
X017833Y012540D03*
X016833Y012640D03*
X015833Y012540D03*
X014833Y012640D03*
X015333Y005640D03*
X015333Y004640D03*
X027333Y004640D03*
X027333Y005640D03*
X028333Y005640D03*
X028333Y004640D03*
X039833Y004140D03*
X039833Y005140D03*
X039833Y006640D03*
X039833Y009640D03*
X034833Y031690D03*
X033833Y031590D03*
X032833Y031690D03*
X031833Y031590D03*
X030833Y031690D03*
X029833Y031590D03*
X028833Y031690D03*
X030333Y034640D03*
X030333Y035640D03*
X030083Y037140D03*
X030583Y038140D03*
X031583Y038140D03*
X032583Y038140D03*
X032083Y037140D03*
X031083Y037140D03*
X033083Y037140D03*
X033333Y035640D03*
X033333Y034640D03*
X036833Y034640D03*
X036833Y035640D03*
X026833Y035640D03*
X026833Y034640D03*
X026583Y037140D03*
X025583Y037140D03*
X024583Y037140D03*
X024083Y038140D03*
X025083Y038140D03*
X026083Y038140D03*
X023833Y035640D03*
X023833Y034640D03*
X023583Y037140D03*
X020333Y035640D03*
X020333Y034640D03*
X020083Y037140D03*
X019083Y037140D03*
X018083Y037140D03*
X017583Y038140D03*
X017083Y037140D03*
X017333Y035640D03*
X017333Y034640D03*
X017333Y031690D03*
X016333Y031590D03*
X015333Y031690D03*
X014333Y031590D03*
X013333Y031690D03*
X012333Y031590D03*
X011333Y031690D03*
X010833Y034640D03*
X010833Y035640D03*
X010583Y037140D03*
X011583Y037140D03*
X011083Y038140D03*
X012083Y038140D03*
X013083Y038140D03*
X012583Y037140D03*
X013583Y037140D03*
X013833Y035640D03*
X013833Y034640D03*
X018583Y038140D03*
X019583Y038140D03*
X019833Y031690D03*
X020833Y031590D03*
X021833Y031690D03*
X022833Y031590D03*
X023833Y031690D03*
X024833Y031590D03*
X025833Y031690D03*
X007333Y034640D03*
X007333Y035640D03*
X007083Y037140D03*
X006083Y037140D03*
X005583Y038140D03*
X004583Y038140D03*
X004083Y037140D03*
X005083Y037140D03*
X004333Y035640D03*
X004333Y034640D03*
X006583Y038140D03*
D14*
X035302Y028321D03*
X035302Y027534D03*
X035302Y026746D03*
X035302Y025959D03*
X035302Y023321D03*
X035302Y022534D03*
X035302Y021746D03*
X035302Y020959D03*
X035302Y018321D03*
X035302Y017534D03*
X035302Y016746D03*
X035302Y015959D03*
D15*
X006797Y023640D03*
D16*
X005546Y022159D03*
X003915Y023630D03*
D17*
X004333Y020140D03*
D18*
X004333Y018762D03*
M02*
