G75*
G70*
%OFA0B0*%
%FSLAX24Y24*%
%IPPOS*%
%LPD*%
%AMOC8*
5,1,8,0,0,1.08239X$1,22.5*
%
%ADD10C,0.0110*%
%ADD11C,0.0150*%
%ADD12C,0.0010*%
%ADD13R,0.0195X0.0191*%
%ADD14C,0.0080*%
D10*
X011451Y018500D02*
X011845Y018500D01*
X011648Y019303D02*
X011648Y019697D01*
X011845Y019500D02*
X011451Y019500D01*
X014803Y022508D02*
X014803Y023099D01*
X014508Y023099D01*
X014410Y023000D01*
X014410Y022803D01*
X014508Y022705D01*
X014803Y022705D01*
X015054Y022803D02*
X015153Y022902D01*
X015350Y022902D01*
X015448Y023000D01*
X015350Y023099D01*
X015054Y023099D01*
X015054Y022803D02*
X015153Y022705D01*
X015448Y022705D01*
X015699Y022803D02*
X015797Y022705D01*
X015994Y022705D01*
X016093Y022803D01*
X016093Y023197D01*
X015994Y023296D01*
X015797Y023296D01*
X015699Y023197D01*
X015699Y023000D01*
X015797Y022902D01*
X015797Y023099D01*
X015994Y023099D01*
X015994Y022902D01*
X015797Y022902D01*
X016343Y023000D02*
X016343Y022705D01*
X016343Y023000D02*
X016442Y023099D01*
X016737Y023099D01*
X016737Y022705D01*
X016988Y022705D02*
X017283Y022705D01*
X017382Y022803D01*
X017283Y022902D01*
X016988Y022902D01*
X016988Y023000D02*
X016988Y022705D01*
X016988Y023000D02*
X017086Y023099D01*
X017283Y023099D01*
X017633Y023000D02*
X017633Y022705D01*
X017633Y023000D02*
X017731Y023099D01*
X017928Y023099D01*
X018026Y023000D01*
X018259Y023099D02*
X018456Y023099D01*
X018357Y023197D02*
X018357Y022803D01*
X018259Y022705D01*
X018026Y022705D02*
X018026Y023296D01*
X018707Y023000D02*
X018707Y022705D01*
X019002Y022705D01*
X019100Y022803D01*
X019002Y022902D01*
X018707Y022902D01*
X018707Y023000D02*
X018805Y023099D01*
X019002Y023099D01*
X019351Y023000D02*
X019351Y022705D01*
X019351Y023000D02*
X019450Y023099D01*
X019745Y023099D01*
X019745Y022705D01*
X014159Y022803D02*
X014060Y022902D01*
X013765Y022902D01*
X013765Y023000D02*
X013765Y022705D01*
X014060Y022705D01*
X014159Y022803D01*
X013864Y023099D02*
X013765Y023000D01*
X013864Y023099D02*
X014060Y023099D01*
X013514Y023099D02*
X013514Y022705D01*
X013514Y022902D02*
X013318Y023099D01*
X013219Y023099D01*
X012977Y023296D02*
X012977Y022705D01*
X012977Y022902D02*
X012682Y022705D01*
X012342Y022705D02*
X012342Y023197D01*
X012243Y023296D01*
X012243Y023000D02*
X012440Y023000D01*
X012682Y023099D02*
X012977Y022902D01*
X012010Y022803D02*
X011912Y022705D01*
X011617Y022705D01*
X011617Y023099D01*
X011366Y023099D02*
X011071Y023099D01*
X010972Y023000D01*
X010972Y022705D01*
X010721Y022705D02*
X010623Y022705D01*
X010623Y022803D01*
X010721Y022803D01*
X010721Y022705D01*
X010399Y022803D02*
X010301Y022705D01*
X010005Y022705D01*
X009754Y022803D02*
X009754Y023000D01*
X009656Y023099D01*
X009459Y023099D01*
X009361Y023000D01*
X009361Y022803D01*
X009459Y022705D01*
X009656Y022705D01*
X009754Y022803D01*
X009110Y022705D02*
X009110Y023099D01*
X009012Y023099D01*
X008913Y023000D01*
X008815Y023099D01*
X008716Y023000D01*
X008716Y022705D01*
X008913Y022705D02*
X008913Y023000D01*
X010005Y023099D02*
X010301Y023099D01*
X010399Y023000D01*
X010399Y022803D01*
X011366Y022705D02*
X011366Y023099D01*
X012010Y023099D02*
X012010Y022803D01*
D11*
X012425Y020605D02*
X012709Y020321D01*
X012709Y020463D02*
X012709Y020037D01*
X012425Y020037D02*
X013276Y020037D01*
X013276Y020463D01*
X013134Y020605D01*
X012850Y020605D01*
X012709Y020463D01*
X012425Y019684D02*
X012850Y019258D01*
X012709Y019117D02*
X013276Y019684D01*
X013276Y019117D02*
X012425Y019117D01*
X012850Y018763D02*
X012709Y018621D01*
X012709Y018196D01*
X012425Y018196D02*
X013276Y018196D01*
X013276Y018621D01*
X013134Y018763D01*
X012850Y018763D01*
X012709Y017842D02*
X012567Y017842D01*
X012425Y017700D01*
X012425Y017417D01*
X012567Y017275D01*
X012850Y017417D02*
X012850Y017700D01*
X012709Y017842D01*
X013134Y017842D02*
X013276Y017700D01*
X013276Y017417D01*
X013134Y017275D01*
X012992Y017275D01*
X012850Y017417D01*
D12*
X012996Y011828D02*
X013007Y011813D01*
X012996Y011828D01*
X012980Y011847D01*
X012962Y011863D01*
X012927Y011885D01*
X012887Y011900D01*
X012846Y011906D01*
X012767Y011904D01*
X012729Y011896D01*
X012693Y011879D01*
X012662Y011855D01*
X012643Y011832D01*
X012628Y011807D01*
X012617Y011779D01*
X012608Y011735D01*
X012604Y011691D01*
X012604Y011276D01*
X012765Y011276D01*
X012765Y011656D01*
X012768Y011685D01*
X012775Y011713D01*
X012788Y011739D01*
X012800Y011755D01*
X012816Y011768D01*
X012615Y011768D01*
X012616Y011777D02*
X012833Y011777D01*
X012834Y011777D02*
X012847Y011780D01*
X012860Y011781D01*
X012904Y011779D01*
X012927Y011775D01*
X012948Y011767D01*
X012967Y011754D01*
X012988Y011731D01*
X013003Y011703D01*
X013012Y011673D01*
X013015Y011641D01*
X013015Y011272D01*
X013181Y011272D01*
X013181Y011891D01*
X013022Y011891D01*
X013022Y011804D01*
X013019Y011804D01*
X013015Y011805D01*
X013012Y011807D01*
X013007Y011813D01*
X013009Y011811D02*
X012630Y011811D01*
X012635Y011819D02*
X013003Y011819D01*
X012996Y011828D02*
X012640Y011828D01*
X012646Y011836D02*
X012989Y011836D01*
X012982Y011845D02*
X012653Y011845D01*
X012660Y011853D02*
X012973Y011853D01*
X012964Y011862D02*
X012670Y011862D01*
X012681Y011870D02*
X012951Y011870D01*
X012937Y011879D02*
X012692Y011879D01*
X012710Y011887D02*
X012922Y011887D01*
X012899Y011896D02*
X012728Y011896D01*
X012769Y011904D02*
X012859Y011904D01*
X012834Y011777D02*
X012816Y011768D01*
X012806Y011760D02*
X012613Y011760D01*
X012611Y011751D02*
X012797Y011751D01*
X012791Y011743D02*
X012609Y011743D01*
X012607Y011734D02*
X012786Y011734D01*
X012767Y011903D02*
X012744Y011899D01*
X012722Y011893D01*
X012700Y011883D01*
X012680Y011870D01*
X012663Y011854D01*
X012626Y011802D02*
X013181Y011802D01*
X013181Y011794D02*
X012623Y011794D01*
X012619Y011785D02*
X013181Y011785D01*
X013181Y011777D02*
X012920Y011777D01*
X012945Y011768D02*
X013181Y011768D01*
X013181Y011760D02*
X012959Y011760D01*
X012970Y011751D02*
X013181Y011751D01*
X013181Y011743D02*
X012977Y011743D01*
X012985Y011734D02*
X013181Y011734D01*
X013181Y011726D02*
X012991Y011726D01*
X012995Y011717D02*
X013181Y011717D01*
X013181Y011709D02*
X013000Y011709D01*
X013004Y011700D02*
X013181Y011700D01*
X013181Y011692D02*
X013006Y011692D01*
X013009Y011683D02*
X013181Y011683D01*
X013181Y011675D02*
X013011Y011675D01*
X013012Y011666D02*
X013181Y011666D01*
X013181Y011658D02*
X013013Y011658D01*
X013014Y011649D02*
X013181Y011649D01*
X013181Y011641D02*
X013015Y011641D01*
X013015Y011632D02*
X013181Y011632D01*
X013181Y011624D02*
X013015Y011624D01*
X013015Y011615D02*
X013181Y011615D01*
X013181Y011607D02*
X013015Y011607D01*
X013015Y011614D02*
X013015Y011272D01*
X013181Y011272D01*
X013181Y011891D01*
X013022Y011891D01*
X013022Y011804D01*
X013019Y011804D01*
X013022Y011811D02*
X013181Y011811D01*
X013181Y011819D02*
X013022Y011819D01*
X013012Y011807D02*
X013015Y011805D01*
X013019Y011804D01*
X013022Y011828D02*
X013181Y011828D01*
X013181Y011836D02*
X013022Y011836D01*
X013022Y011845D02*
X013181Y011845D01*
X013181Y011853D02*
X013022Y011853D01*
X013022Y011862D02*
X013181Y011862D01*
X013181Y011870D02*
X013022Y011870D01*
X013022Y011879D02*
X013181Y011879D01*
X013181Y011887D02*
X013022Y011887D01*
X013006Y011812D02*
X013011Y011806D01*
X012617Y011780D02*
X012610Y011751D01*
X012606Y011721D01*
X012604Y011691D01*
X012604Y011276D01*
X012765Y011276D01*
X012765Y011656D01*
X012765Y011658D02*
X012604Y011658D01*
X012604Y011666D02*
X012766Y011666D01*
X012767Y011675D02*
X012604Y011675D01*
X012604Y011683D02*
X012767Y011683D01*
X012769Y011692D02*
X012604Y011692D01*
X012605Y011700D02*
X012772Y011700D01*
X012774Y011709D02*
X012605Y011709D01*
X012606Y011717D02*
X012777Y011717D01*
X012781Y011726D02*
X012607Y011726D01*
X012604Y011649D02*
X012765Y011649D01*
X012765Y011641D02*
X012604Y011641D01*
X012604Y011632D02*
X012765Y011632D01*
X012765Y011624D02*
X012604Y011624D01*
X012604Y011615D02*
X012765Y011615D01*
X012765Y011607D02*
X012604Y011607D01*
X012604Y011598D02*
X012765Y011598D01*
X012765Y011590D02*
X012604Y011590D01*
X012604Y011581D02*
X012765Y011581D01*
X012765Y011573D02*
X012604Y011573D01*
X012604Y011564D02*
X012765Y011564D01*
X012765Y011556D02*
X012604Y011556D01*
X012604Y011547D02*
X012765Y011547D01*
X012765Y011539D02*
X012604Y011539D01*
X012604Y011530D02*
X012765Y011530D01*
X012765Y011522D02*
X012604Y011522D01*
X012604Y011513D02*
X012765Y011513D01*
X012765Y011505D02*
X012604Y011505D01*
X012604Y011496D02*
X012765Y011496D01*
X012765Y011488D02*
X012604Y011488D01*
X012604Y011479D02*
X012765Y011479D01*
X012765Y011471D02*
X012604Y011471D01*
X012604Y011462D02*
X012765Y011462D01*
X012765Y011454D02*
X012604Y011454D01*
X012604Y011445D02*
X012765Y011445D01*
X012765Y011437D02*
X012604Y011437D01*
X012604Y011428D02*
X012765Y011428D01*
X012765Y011420D02*
X012604Y011420D01*
X012604Y011411D02*
X012765Y011411D01*
X012765Y011403D02*
X012604Y011403D01*
X012604Y011394D02*
X012765Y011394D01*
X012765Y011386D02*
X012604Y011386D01*
X012604Y011377D02*
X012765Y011377D01*
X012765Y011369D02*
X012604Y011369D01*
X012604Y011360D02*
X012765Y011360D01*
X012765Y011352D02*
X012604Y011352D01*
X012604Y011343D02*
X012765Y011343D01*
X012765Y011335D02*
X012604Y011335D01*
X012604Y011326D02*
X012765Y011326D01*
X012765Y011318D02*
X012604Y011318D01*
X012604Y011309D02*
X012765Y011309D01*
X012765Y011301D02*
X012604Y011301D01*
X012604Y011292D02*
X012765Y011292D01*
X012765Y011284D02*
X012604Y011284D01*
X012767Y011905D02*
X012806Y011907D01*
X012846Y011906D01*
X012662Y011855D02*
X012647Y011839D01*
X012634Y011820D01*
X012624Y011800D01*
X012617Y011779D01*
X012846Y011906D02*
X012871Y011903D01*
X012896Y011897D01*
X012919Y011889D01*
X012942Y011877D01*
X012962Y011863D01*
X012860Y011781D02*
X012847Y011780D01*
X012834Y011777D01*
X012963Y011863D02*
X012981Y011847D01*
X012997Y011828D01*
X012967Y011754D02*
X012953Y011764D01*
X012938Y011772D01*
X012922Y011777D01*
X012904Y011779D01*
X012835Y011777D02*
X012821Y011770D01*
X012808Y011762D01*
X012798Y011751D01*
X012789Y011739D01*
X013003Y011703D02*
X013009Y011683D01*
X013013Y011662D01*
X013015Y011641D01*
X013015Y011598D02*
X013181Y011598D01*
X013181Y011590D02*
X013015Y011590D01*
X013015Y011581D02*
X013181Y011581D01*
X013181Y011573D02*
X013015Y011573D01*
X013015Y011564D02*
X013181Y011564D01*
X013181Y011556D02*
X013015Y011556D01*
X013015Y011547D02*
X013181Y011547D01*
X013181Y011539D02*
X013015Y011539D01*
X013015Y011530D02*
X013181Y011530D01*
X013181Y011522D02*
X013015Y011522D01*
X013015Y011513D02*
X013181Y011513D01*
X013181Y011505D02*
X013015Y011505D01*
X013015Y011496D02*
X013181Y011496D01*
X013181Y011488D02*
X013015Y011488D01*
X013015Y011479D02*
X013181Y011479D01*
X013181Y011471D02*
X013015Y011471D01*
X013015Y011462D02*
X013181Y011462D01*
X013181Y011454D02*
X013015Y011454D01*
X013015Y011445D02*
X013181Y011445D01*
X013181Y011437D02*
X013015Y011437D01*
X013015Y011428D02*
X013181Y011428D01*
X013181Y011420D02*
X013015Y011420D01*
X013015Y011411D02*
X013181Y011411D01*
X013181Y011403D02*
X013015Y011403D01*
X013015Y011394D02*
X013181Y011394D01*
X013181Y011386D02*
X013015Y011386D01*
X013015Y011377D02*
X013181Y011377D01*
X013181Y011369D02*
X013015Y011369D01*
X013015Y011360D02*
X013181Y011360D01*
X013181Y011352D02*
X013015Y011352D01*
X013015Y011343D02*
X013181Y011343D01*
X013181Y011335D02*
X013015Y011335D01*
X013015Y011326D02*
X013181Y011326D01*
X013181Y011318D02*
X013015Y011318D01*
X013015Y011309D02*
X013181Y011309D01*
X013181Y011301D02*
X013015Y011301D01*
X013015Y011292D02*
X013181Y011292D01*
X013181Y011284D02*
X013015Y011284D01*
X013015Y011275D02*
X013181Y011275D01*
X013279Y011275D02*
X013437Y011275D01*
X013279Y011275D01*
X013279Y011890D01*
X013445Y011890D01*
X013445Y011563D01*
X013448Y011514D01*
X013457Y011466D01*
X013466Y011443D01*
X013479Y011423D01*
X013497Y011407D01*
X013518Y011395D01*
X013546Y011386D01*
X013576Y011384D01*
X013605Y011387D01*
X013633Y011396D01*
X013649Y011405D01*
X013664Y011418D01*
X013675Y011433D01*
X013689Y011464D01*
X013695Y011498D01*
X013695Y011892D01*
X013858Y011892D01*
X013858Y011467D01*
X013854Y011424D01*
X013842Y011382D01*
X013823Y011343D01*
X013459Y011343D01*
X013465Y011335D02*
X013817Y011335D01*
X013823Y011343D02*
X013797Y011308D01*
X013787Y011299D01*
X013752Y011278D01*
X013713Y011265D01*
X013672Y011259D01*
X013613Y011260D01*
X013555Y011269D01*
X013545Y011272D01*
X013535Y011277D01*
X013498Y011303D01*
X013466Y011334D01*
X013438Y011369D01*
X013437Y011369D01*
X013437Y011275D01*
X013437Y011284D02*
X013279Y011284D01*
X013279Y011292D02*
X013437Y011292D01*
X013437Y011301D02*
X013279Y011301D01*
X013279Y011309D02*
X013437Y011309D01*
X013437Y011318D02*
X013279Y011318D01*
X013279Y011326D02*
X013437Y011326D01*
X013437Y011335D02*
X013279Y011335D01*
X013279Y011343D02*
X013437Y011343D01*
X013437Y011352D02*
X013279Y011352D01*
X013279Y011360D02*
X013437Y011360D01*
X013445Y011360D02*
X013831Y011360D01*
X013827Y011352D02*
X013452Y011352D01*
X013438Y011369D02*
X013836Y011369D01*
X013840Y011377D02*
X013279Y011377D01*
X013279Y011369D02*
X013437Y011369D01*
X013474Y011326D02*
X013810Y011326D01*
X013804Y011318D02*
X013483Y011318D01*
X013492Y011309D02*
X013798Y011309D01*
X013789Y011301D02*
X013502Y011301D01*
X013514Y011292D02*
X013775Y011292D01*
X013760Y011284D02*
X013526Y011284D01*
X013539Y011275D02*
X013742Y011275D01*
X013718Y011267D02*
X013571Y011267D01*
X013555Y011386D02*
X013279Y011386D01*
X013279Y011394D02*
X013521Y011394D01*
X013505Y011403D02*
X013279Y011403D01*
X013279Y011411D02*
X013492Y011411D01*
X013483Y011420D02*
X013279Y011420D01*
X013279Y011428D02*
X013476Y011428D01*
X013470Y011437D02*
X013279Y011437D01*
X013279Y011445D02*
X013465Y011445D01*
X013462Y011454D02*
X013279Y011454D01*
X013279Y011462D02*
X013459Y011462D01*
X013456Y011471D02*
X013279Y011471D01*
X013279Y011479D02*
X013455Y011479D01*
X013453Y011488D02*
X013279Y011488D01*
X013279Y011496D02*
X013451Y011496D01*
X013450Y011505D02*
X013279Y011505D01*
X013279Y011513D02*
X013448Y011513D01*
X013448Y011522D02*
X013279Y011522D01*
X013279Y011530D02*
X013447Y011530D01*
X013447Y011539D02*
X013279Y011539D01*
X013279Y011547D02*
X013446Y011547D01*
X013445Y011556D02*
X013279Y011556D01*
X013279Y011564D02*
X013445Y011564D01*
X013445Y011573D02*
X013279Y011573D01*
X013279Y011581D02*
X013445Y011581D01*
X013445Y011590D02*
X013279Y011590D01*
X013279Y011598D02*
X013445Y011598D01*
X013445Y011607D02*
X013279Y011607D01*
X013279Y011615D02*
X013445Y011615D01*
X013445Y011624D02*
X013279Y011624D01*
X013279Y011632D02*
X013445Y011632D01*
X013445Y011641D02*
X013279Y011641D01*
X013279Y011649D02*
X013445Y011649D01*
X013445Y011658D02*
X013279Y011658D01*
X013279Y011666D02*
X013445Y011666D01*
X013445Y011675D02*
X013279Y011675D01*
X013279Y011683D02*
X013445Y011683D01*
X013445Y011692D02*
X013279Y011692D01*
X013279Y011700D02*
X013445Y011700D01*
X013445Y011709D02*
X013279Y011709D01*
X013279Y011717D02*
X013445Y011717D01*
X013445Y011726D02*
X013279Y011726D01*
X013279Y011734D02*
X013445Y011734D01*
X013445Y011743D02*
X013279Y011743D01*
X013279Y011751D02*
X013445Y011751D01*
X013445Y011760D02*
X013279Y011760D01*
X013279Y011768D02*
X013445Y011768D01*
X013445Y011777D02*
X013279Y011777D01*
X013279Y011785D02*
X013445Y011785D01*
X013445Y011794D02*
X013279Y011794D01*
X013279Y011802D02*
X013445Y011802D01*
X013445Y011811D02*
X013279Y011811D01*
X013279Y011819D02*
X013445Y011819D01*
X013445Y011828D02*
X013279Y011828D01*
X013279Y011836D02*
X013445Y011836D01*
X013445Y011845D02*
X013279Y011845D01*
X013279Y011853D02*
X013445Y011853D01*
X013445Y011862D02*
X013279Y011862D01*
X013279Y011870D02*
X013445Y011870D01*
X013445Y011879D02*
X013279Y011879D01*
X013279Y011887D02*
X013445Y011887D01*
X013695Y011887D02*
X013858Y011887D01*
X013858Y011879D02*
X013695Y011879D01*
X013695Y011870D02*
X013858Y011870D01*
X013858Y011862D02*
X013695Y011862D01*
X013695Y011853D02*
X013858Y011853D01*
X013858Y011845D02*
X013695Y011845D01*
X013695Y011836D02*
X013858Y011836D01*
X013858Y011828D02*
X013695Y011828D01*
X013695Y011819D02*
X013858Y011819D01*
X013858Y011811D02*
X013695Y011811D01*
X013695Y011802D02*
X013858Y011802D01*
X013858Y011794D02*
X013695Y011794D01*
X013695Y011785D02*
X013858Y011785D01*
X013858Y011777D02*
X013695Y011777D01*
X013695Y011768D02*
X013858Y011768D01*
X013858Y011760D02*
X013695Y011760D01*
X013695Y011751D02*
X013858Y011751D01*
X013858Y011743D02*
X013695Y011743D01*
X013695Y011734D02*
X013858Y011734D01*
X013858Y011726D02*
X013695Y011726D01*
X013695Y011717D02*
X013858Y011717D01*
X013858Y011709D02*
X013695Y011709D01*
X013695Y011700D02*
X013858Y011700D01*
X013858Y011692D02*
X013695Y011692D01*
X013695Y011683D02*
X013858Y011683D01*
X013858Y011675D02*
X013695Y011675D01*
X013695Y011666D02*
X013858Y011666D01*
X013858Y011658D02*
X013695Y011658D01*
X013695Y011649D02*
X013858Y011649D01*
X013858Y011641D02*
X013695Y011641D01*
X013695Y011632D02*
X013858Y011632D01*
X013858Y011624D02*
X013695Y011624D01*
X013695Y011615D02*
X013858Y011615D01*
X013858Y011607D02*
X013695Y011607D01*
X013695Y011598D02*
X013858Y011598D01*
X013858Y011590D02*
X013695Y011590D01*
X013695Y011581D02*
X013858Y011581D01*
X013858Y011573D02*
X013695Y011573D01*
X013695Y011564D02*
X013858Y011564D01*
X013858Y011556D02*
X013695Y011556D01*
X013695Y011547D02*
X013858Y011547D01*
X013858Y011539D02*
X013695Y011539D01*
X013695Y011530D02*
X013858Y011530D01*
X013858Y011522D02*
X013695Y011522D01*
X013695Y011513D02*
X013858Y011513D01*
X013858Y011505D02*
X013695Y011505D01*
X013695Y011496D02*
X013858Y011496D01*
X013858Y011488D02*
X013693Y011488D01*
X013692Y011479D02*
X013858Y011479D01*
X013858Y011471D02*
X013690Y011471D01*
X013688Y011462D02*
X013858Y011462D01*
X013857Y011454D02*
X013684Y011454D01*
X013680Y011445D02*
X013856Y011445D01*
X013855Y011437D02*
X013677Y011437D01*
X013671Y011428D02*
X013854Y011428D01*
X013853Y011420D02*
X013665Y011420D01*
X013656Y011411D02*
X013850Y011411D01*
X013848Y011403D02*
X013645Y011403D01*
X013627Y011394D02*
X013846Y011394D01*
X013843Y011386D02*
X013593Y011386D01*
X014034Y011386D02*
X014198Y011386D01*
X014198Y011394D02*
X014034Y011394D01*
X014034Y011403D02*
X014198Y011403D01*
X014198Y011411D02*
X014034Y011411D01*
X014034Y011420D02*
X014198Y011420D01*
X014198Y011428D02*
X014034Y011428D01*
X014034Y011437D02*
X014198Y011437D01*
X014198Y011445D02*
X014034Y011445D01*
X014034Y011454D02*
X014198Y011454D01*
X014198Y011462D02*
X014034Y011462D01*
X014034Y011471D02*
X014198Y011471D01*
X014198Y011479D02*
X014034Y011479D01*
X014034Y011488D02*
X014198Y011488D01*
X014198Y011496D02*
X014034Y011496D01*
X014034Y011505D02*
X014198Y011505D01*
X014198Y011513D02*
X014034Y011513D01*
X014034Y011522D02*
X014198Y011522D01*
X014198Y011530D02*
X014034Y011530D01*
X014034Y011539D02*
X014198Y011539D01*
X014198Y011547D02*
X014034Y011547D01*
X014034Y011556D02*
X014198Y011556D01*
X014198Y011564D02*
X014034Y011564D01*
X014034Y011573D02*
X014198Y011573D01*
X014198Y011581D02*
X014034Y011581D01*
X014034Y011590D02*
X014198Y011590D01*
X014198Y011598D02*
X014034Y011598D01*
X014034Y011607D02*
X014198Y011607D01*
X014198Y011615D02*
X014034Y011615D01*
X014034Y011624D02*
X014198Y011624D01*
X014198Y011632D02*
X014034Y011632D01*
X014034Y011641D02*
X014198Y011641D01*
X014198Y011649D02*
X014034Y011649D01*
X014034Y011658D02*
X014198Y011658D01*
X014198Y011666D02*
X014034Y011666D01*
X014034Y011675D02*
X014198Y011675D01*
X014198Y011683D02*
X014034Y011683D01*
X014034Y011692D02*
X014198Y011692D01*
X014198Y011700D02*
X014034Y011700D01*
X014034Y011709D02*
X014198Y011709D01*
X014198Y011717D02*
X014034Y011717D01*
X014034Y011726D02*
X014198Y011726D01*
X014198Y011734D02*
X014034Y011734D01*
X014034Y011743D02*
X014198Y011743D01*
X014198Y011751D02*
X014034Y011751D01*
X014034Y011760D02*
X014198Y011760D01*
X014198Y011768D02*
X014034Y011768D01*
X014034Y011777D02*
X014198Y011777D01*
X014198Y011784D02*
X014355Y011785D01*
X014250Y011890D01*
X014196Y011890D01*
X014196Y011908D01*
X014189Y011992D01*
X014183Y012014D01*
X014173Y012035D01*
X014160Y012054D01*
X014131Y012082D01*
X014097Y012104D01*
X014059Y012118D01*
X014019Y012125D01*
X013958Y012125D01*
X013906Y012122D01*
X013905Y012122D01*
X013905Y012003D01*
X013908Y012003D01*
X013919Y012004D01*
X013956Y012007D01*
X013992Y012004D01*
X014004Y012000D01*
X014015Y011992D01*
X014023Y011982D01*
X014030Y011964D01*
X014033Y011945D01*
X014033Y011890D01*
X013916Y011890D01*
X013916Y011785D01*
X014034Y011785D01*
X014034Y011272D01*
X014198Y011272D01*
X014198Y011784D01*
X014196Y011896D02*
X014033Y011896D01*
X014033Y011904D02*
X014196Y011904D01*
X014196Y011913D02*
X014033Y011913D01*
X014033Y011921D02*
X014195Y011921D01*
X014194Y011930D02*
X014033Y011930D01*
X014033Y011938D02*
X014193Y011938D01*
X014193Y011947D02*
X014033Y011947D01*
X014032Y011955D02*
X014192Y011955D01*
X014191Y011964D02*
X014030Y011964D01*
X014027Y011972D02*
X014191Y011972D01*
X014190Y011981D02*
X014024Y011981D01*
X014017Y011989D02*
X014189Y011989D01*
X014188Y011998D02*
X014007Y011998D01*
X013970Y012006D02*
X014185Y012006D01*
X014183Y012015D02*
X013905Y012015D01*
X013905Y012023D02*
X014179Y012023D01*
X014175Y012032D02*
X013905Y012032D01*
X013905Y012040D02*
X014170Y012040D01*
X014164Y012049D02*
X013905Y012049D01*
X013905Y012057D02*
X014157Y012057D01*
X014148Y012066D02*
X013905Y012066D01*
X013905Y012074D02*
X014139Y012074D01*
X014130Y012083D02*
X013905Y012083D01*
X013905Y012091D02*
X014116Y012091D01*
X014103Y012100D02*
X013905Y012100D01*
X013905Y012108D02*
X014085Y012108D01*
X014063Y012117D02*
X013905Y012117D01*
X013905Y012006D02*
X013941Y012006D01*
X013916Y011887D02*
X014253Y011887D01*
X014261Y011879D02*
X013916Y011879D01*
X013916Y011870D02*
X014270Y011870D01*
X014278Y011862D02*
X013916Y011862D01*
X013916Y011853D02*
X014287Y011853D01*
X014295Y011845D02*
X013916Y011845D01*
X013916Y011836D02*
X014304Y011836D01*
X014312Y011828D02*
X013916Y011828D01*
X013916Y011819D02*
X014321Y011819D01*
X014329Y011811D02*
X013916Y011811D01*
X013916Y011802D02*
X014338Y011802D01*
X014346Y011794D02*
X013916Y011794D01*
X013916Y011785D02*
X014355Y011785D01*
X014400Y011836D02*
X014583Y011836D01*
X014591Y011828D02*
X014409Y011828D01*
X014418Y011819D02*
X014600Y011819D01*
X014608Y011811D02*
X014426Y011811D01*
X014435Y011802D02*
X014617Y011802D01*
X014625Y011794D02*
X014444Y011794D01*
X014452Y011785D02*
X014634Y011785D01*
X014642Y011777D02*
X014461Y011777D01*
X014470Y011768D02*
X014651Y011768D01*
X014659Y011760D02*
X014478Y011760D01*
X014487Y011751D02*
X014668Y011751D01*
X014676Y011743D02*
X014496Y011743D01*
X014504Y011734D02*
X014685Y011734D01*
X014693Y011726D02*
X014513Y011726D01*
X014522Y011717D02*
X014702Y011717D01*
X014710Y011709D02*
X014531Y011709D01*
X014539Y011700D02*
X014719Y011700D01*
X014727Y011692D02*
X014548Y011692D01*
X014557Y011683D02*
X014736Y011683D01*
X014744Y011675D02*
X014565Y011675D01*
X014573Y011667D02*
X014311Y011274D01*
X014511Y011275D01*
X014679Y011552D01*
X014681Y011555D01*
X014752Y011486D01*
X014752Y011271D01*
X014915Y011271D01*
X014917Y011273D01*
X014917Y012034D01*
X014754Y012127D01*
X014754Y011665D01*
X014530Y011889D01*
X014346Y011889D01*
X014573Y011667D01*
X014572Y011666D02*
X014753Y011666D01*
X014754Y011666D02*
X014917Y011666D01*
X014917Y011658D02*
X014567Y011658D01*
X014561Y011649D02*
X014917Y011649D01*
X014917Y011641D02*
X014555Y011641D01*
X014550Y011632D02*
X014917Y011632D01*
X014917Y011624D02*
X014544Y011624D01*
X014538Y011615D02*
X014917Y011615D01*
X014917Y011607D02*
X014533Y011607D01*
X014527Y011598D02*
X014917Y011598D01*
X014917Y011590D02*
X014521Y011590D01*
X014516Y011581D02*
X014917Y011581D01*
X014917Y011573D02*
X014510Y011573D01*
X014504Y011564D02*
X014917Y011564D01*
X014917Y011556D02*
X014499Y011556D01*
X014493Y011547D02*
X014676Y011547D01*
X014671Y011539D02*
X014487Y011539D01*
X014482Y011530D02*
X014666Y011530D01*
X014661Y011522D02*
X014476Y011522D01*
X014470Y011513D02*
X014655Y011513D01*
X014650Y011505D02*
X014465Y011505D01*
X014459Y011496D02*
X014645Y011496D01*
X014640Y011488D02*
X014453Y011488D01*
X014448Y011479D02*
X014635Y011479D01*
X014630Y011471D02*
X014442Y011471D01*
X014436Y011462D02*
X014624Y011462D01*
X014619Y011454D02*
X014431Y011454D01*
X014425Y011445D02*
X014614Y011445D01*
X014609Y011437D02*
X014419Y011437D01*
X014414Y011428D02*
X014604Y011428D01*
X014599Y011420D02*
X014408Y011420D01*
X014402Y011411D02*
X014594Y011411D01*
X014588Y011403D02*
X014397Y011403D01*
X014391Y011394D02*
X014583Y011394D01*
X014578Y011386D02*
X014385Y011386D01*
X014380Y011377D02*
X014573Y011377D01*
X014568Y011369D02*
X014374Y011369D01*
X014368Y011360D02*
X014563Y011360D01*
X014557Y011352D02*
X014363Y011352D01*
X014357Y011343D02*
X014552Y011343D01*
X014547Y011335D02*
X014351Y011335D01*
X014346Y011326D02*
X014542Y011326D01*
X014537Y011318D02*
X014340Y011318D01*
X014334Y011309D02*
X014532Y011309D01*
X014526Y011301D02*
X014329Y011301D01*
X014323Y011292D02*
X014521Y011292D01*
X014516Y011284D02*
X014317Y011284D01*
X014312Y011275D02*
X014511Y011275D01*
X014752Y011275D02*
X014917Y011275D01*
X014917Y011284D02*
X014752Y011284D01*
X014752Y011292D02*
X014917Y011292D01*
X014917Y011301D02*
X014752Y011301D01*
X014752Y011309D02*
X014917Y011309D01*
X014917Y011318D02*
X014752Y011318D01*
X014752Y011326D02*
X014917Y011326D01*
X014917Y011335D02*
X014752Y011335D01*
X014752Y011343D02*
X014917Y011343D01*
X014917Y011352D02*
X014752Y011352D01*
X014752Y011360D02*
X014917Y011360D01*
X014917Y011369D02*
X014752Y011369D01*
X014752Y011377D02*
X014917Y011377D01*
X014917Y011386D02*
X014752Y011386D01*
X014752Y011394D02*
X014917Y011394D01*
X014917Y011403D02*
X014752Y011403D01*
X014752Y011411D02*
X014917Y011411D01*
X014917Y011420D02*
X014752Y011420D01*
X014752Y011428D02*
X014917Y011428D01*
X014917Y011437D02*
X014752Y011437D01*
X014752Y011445D02*
X014917Y011445D01*
X014917Y011454D02*
X014752Y011454D01*
X014752Y011462D02*
X014917Y011462D01*
X014917Y011471D02*
X014752Y011471D01*
X014752Y011479D02*
X014917Y011479D01*
X014917Y011488D02*
X014750Y011488D01*
X014742Y011496D02*
X014917Y011496D01*
X014917Y011505D02*
X014733Y011505D01*
X014724Y011513D02*
X014917Y011513D01*
X014917Y011522D02*
X014715Y011522D01*
X014707Y011530D02*
X014917Y011530D01*
X014917Y011539D02*
X014698Y011539D01*
X014689Y011547D02*
X014917Y011547D01*
X014917Y011675D02*
X014754Y011675D01*
X014754Y011683D02*
X014917Y011683D01*
X014917Y011692D02*
X014754Y011692D01*
X014754Y011700D02*
X014917Y011700D01*
X014917Y011709D02*
X014754Y011709D01*
X014754Y011717D02*
X014917Y011717D01*
X014917Y011726D02*
X014754Y011726D01*
X014754Y011734D02*
X014917Y011734D01*
X014917Y011743D02*
X014754Y011743D01*
X014754Y011751D02*
X014917Y011751D01*
X014917Y011760D02*
X014754Y011760D01*
X014754Y011768D02*
X014917Y011768D01*
X014917Y011777D02*
X014754Y011777D01*
X014754Y011785D02*
X014917Y011785D01*
X014917Y011794D02*
X014754Y011794D01*
X014754Y011802D02*
X014917Y011802D01*
X014917Y011811D02*
X014754Y011811D01*
X014754Y011819D02*
X014917Y011819D01*
X014917Y011828D02*
X014754Y011828D01*
X014754Y011836D02*
X014917Y011836D01*
X014917Y011845D02*
X014754Y011845D01*
X014754Y011853D02*
X014917Y011853D01*
X014917Y011862D02*
X014754Y011862D01*
X014754Y011870D02*
X014917Y011870D01*
X014917Y011879D02*
X014754Y011879D01*
X014754Y011887D02*
X014917Y011887D01*
X014917Y011896D02*
X014754Y011896D01*
X014754Y011904D02*
X014917Y011904D01*
X014917Y011913D02*
X014754Y011913D01*
X014754Y011921D02*
X014917Y011921D01*
X014917Y011930D02*
X014754Y011930D01*
X014754Y011938D02*
X014917Y011938D01*
X014917Y011947D02*
X014754Y011947D01*
X014754Y011955D02*
X014917Y011955D01*
X014917Y011964D02*
X014754Y011964D01*
X014754Y011972D02*
X014917Y011972D01*
X014917Y011981D02*
X014754Y011981D01*
X014754Y011989D02*
X014917Y011989D01*
X014917Y011998D02*
X014754Y011998D01*
X014754Y012006D02*
X014917Y012006D01*
X014917Y012015D02*
X014754Y012015D01*
X014754Y012023D02*
X014917Y012023D01*
X014917Y012032D02*
X014754Y012032D01*
X014754Y012040D02*
X014906Y012040D01*
X014892Y012049D02*
X014754Y012049D01*
X014754Y012057D02*
X014877Y012057D01*
X014862Y012066D02*
X014754Y012066D01*
X014754Y012074D02*
X014847Y012074D01*
X014832Y012083D02*
X014754Y012083D01*
X014754Y012091D02*
X014817Y012091D01*
X014802Y012100D02*
X014754Y012100D01*
X014754Y012108D02*
X014787Y012108D01*
X014772Y012117D02*
X014754Y012117D01*
X014754Y012125D02*
X014757Y012125D01*
X014561Y012125D02*
X014482Y012125D01*
X014489Y012117D02*
X014561Y012117D01*
X014561Y012108D02*
X014497Y012108D01*
X014504Y012100D02*
X014561Y012100D01*
X014561Y012091D02*
X014512Y012091D01*
X014520Y012083D02*
X014561Y012083D01*
X014561Y012074D02*
X014527Y012074D01*
X014535Y012066D02*
X014561Y012066D01*
X014561Y012057D02*
X014542Y012057D01*
X014550Y012049D02*
X014561Y012049D01*
X014557Y012040D02*
X014561Y012040D01*
X014561Y012036D02*
X014369Y012252D01*
X014335Y012283D01*
X014295Y012307D01*
X014280Y012312D01*
X014265Y012315D01*
X014175Y012315D01*
X014121Y012320D01*
X014069Y012334D01*
X014021Y012358D01*
X013975Y012390D01*
X013935Y012428D01*
X013900Y012472D01*
X013863Y012538D01*
X013838Y012610D01*
X013827Y012685D01*
X013829Y012761D01*
X013837Y012802D01*
X013851Y012841D01*
X013871Y012878D01*
X013907Y012923D01*
X013951Y012959D01*
X013951Y012924D01*
X013952Y012918D01*
X013954Y012913D01*
X013966Y012899D01*
X013887Y012899D01*
X013894Y012907D02*
X013959Y012907D01*
X013953Y012916D02*
X013901Y012916D01*
X013908Y012924D02*
X013951Y012924D01*
X013951Y012933D02*
X013919Y012933D01*
X013929Y012941D02*
X013951Y012941D01*
X013951Y012950D02*
X013939Y012950D01*
X013950Y012958D02*
X013951Y012958D01*
X013966Y012899D02*
X013981Y012888D01*
X013989Y012885D01*
X014012Y012883D01*
X014034Y012887D01*
X014054Y012897D01*
X014090Y012923D01*
X014107Y012937D01*
X014121Y012954D01*
X014133Y012973D01*
X014141Y012993D01*
X014144Y013006D01*
X014143Y013019D01*
X014136Y013041D01*
X014125Y013060D01*
X014108Y013075D01*
X014088Y013086D01*
X014068Y013092D01*
X014047Y013094D01*
X014023Y013094D01*
X014023Y013094D01*
X014024Y013095D01*
X014041Y013108D01*
X014061Y013117D01*
X014075Y013123D01*
X014084Y013127D01*
X014119Y013136D01*
X014154Y013139D01*
X014188Y013136D01*
X014221Y013127D01*
X014252Y013112D01*
X014283Y013090D01*
X014310Y013064D01*
X014327Y013040D01*
X014338Y013013D01*
X014341Y012984D01*
X014337Y012955D01*
X014326Y012928D01*
X014279Y012859D01*
X014222Y012798D01*
X014207Y012780D01*
X014197Y012759D01*
X014193Y012736D01*
X014194Y012713D01*
X014202Y012691D01*
X014215Y012672D01*
X014233Y012657D01*
X014255Y012645D01*
X014279Y012637D01*
X014304Y012633D01*
X014333Y012634D01*
X014361Y012643D01*
X014386Y012658D01*
X014399Y012672D01*
X014408Y012689D01*
X014412Y012707D01*
X014412Y012724D01*
X014408Y012742D01*
X014404Y012749D01*
X014399Y012754D01*
X014366Y012778D01*
X014360Y012781D01*
X014353Y012783D01*
X014346Y012782D01*
X014365Y012785D01*
X014402Y012788D01*
X014439Y012785D01*
X014467Y012778D01*
X014492Y012765D01*
X014515Y012748D01*
X014533Y012726D01*
X014549Y012697D01*
X014558Y012666D01*
X014561Y012633D01*
X014561Y012036D01*
X014561Y012134D02*
X014474Y012134D01*
X014467Y012142D02*
X014561Y012142D01*
X014561Y012151D02*
X014459Y012151D01*
X014452Y012159D02*
X014561Y012159D01*
X014561Y012168D02*
X014444Y012168D01*
X014437Y012176D02*
X014561Y012176D01*
X014561Y012185D02*
X014429Y012185D01*
X014421Y012193D02*
X014561Y012193D01*
X014561Y012202D02*
X014414Y012202D01*
X014406Y012210D02*
X014561Y012210D01*
X014561Y012219D02*
X014399Y012219D01*
X014391Y012227D02*
X014561Y012227D01*
X014561Y012236D02*
X014384Y012236D01*
X014376Y012244D02*
X014561Y012244D01*
X014561Y012253D02*
X014368Y012253D01*
X014359Y012261D02*
X014561Y012261D01*
X014561Y012270D02*
X014350Y012270D01*
X014341Y012278D02*
X014561Y012278D01*
X014561Y012287D02*
X014329Y012287D01*
X014315Y012295D02*
X014561Y012295D01*
X014561Y012304D02*
X014301Y012304D01*
X014281Y012312D02*
X014561Y012312D01*
X014561Y012321D02*
X014119Y012321D01*
X014088Y012329D02*
X014561Y012329D01*
X014561Y012338D02*
X014063Y012338D01*
X014045Y012346D02*
X014561Y012346D01*
X014561Y012355D02*
X014028Y012355D01*
X014014Y012363D02*
X014561Y012363D01*
X014561Y012372D02*
X014002Y012372D01*
X013990Y012380D02*
X014561Y012380D01*
X014561Y012389D02*
X013978Y012389D01*
X013968Y012397D02*
X014561Y012397D01*
X014561Y012406D02*
X013959Y012406D01*
X013950Y012414D02*
X014561Y012414D01*
X014561Y012423D02*
X013941Y012423D01*
X013933Y012431D02*
X014561Y012431D01*
X014561Y012440D02*
X013926Y012440D01*
X013919Y012448D02*
X014561Y012448D01*
X014561Y012457D02*
X013912Y012457D01*
X013906Y012465D02*
X014561Y012465D01*
X014561Y012474D02*
X013899Y012474D01*
X013894Y012482D02*
X014561Y012482D01*
X014561Y012491D02*
X013890Y012491D01*
X013885Y012499D02*
X014561Y012499D01*
X014561Y012508D02*
X013880Y012508D01*
X013875Y012516D02*
X014561Y012516D01*
X014561Y012525D02*
X013870Y012525D01*
X013866Y012533D02*
X014561Y012533D01*
X014561Y012542D02*
X013862Y012542D01*
X013859Y012550D02*
X014561Y012550D01*
X014561Y012559D02*
X013856Y012559D01*
X013853Y012567D02*
X014561Y012567D01*
X014561Y012576D02*
X013850Y012576D01*
X013847Y012584D02*
X014561Y012584D01*
X014561Y012593D02*
X013844Y012593D01*
X013841Y012601D02*
X014561Y012601D01*
X014561Y012610D02*
X013838Y012610D01*
X013837Y012618D02*
X014561Y012618D01*
X014561Y012627D02*
X013835Y012627D01*
X013834Y012635D02*
X014291Y012635D01*
X014260Y012644D02*
X013833Y012644D01*
X013832Y012652D02*
X014242Y012652D01*
X014229Y012661D02*
X013830Y012661D01*
X013829Y012669D02*
X014219Y012669D01*
X014212Y012678D02*
X013828Y012678D01*
X013827Y012686D02*
X014206Y012686D01*
X014201Y012695D02*
X013827Y012695D01*
X013827Y012703D02*
X014198Y012703D01*
X014195Y012712D02*
X013827Y012712D01*
X013828Y012720D02*
X014194Y012720D01*
X014193Y012729D02*
X013828Y012729D01*
X013828Y012737D02*
X014193Y012737D01*
X014194Y012746D02*
X013829Y012746D01*
X013829Y012754D02*
X014196Y012754D01*
X014198Y012763D02*
X013829Y012763D01*
X013831Y012771D02*
X014203Y012771D01*
X014207Y012780D02*
X013833Y012780D01*
X013834Y012788D02*
X014214Y012788D01*
X014221Y012797D02*
X013836Y012797D01*
X013838Y012805D02*
X014229Y012805D01*
X014237Y012814D02*
X013841Y012814D01*
X013844Y012822D02*
X014245Y012822D01*
X014253Y012831D02*
X013847Y012831D01*
X013850Y012839D02*
X014261Y012839D01*
X014269Y012848D02*
X013855Y012848D01*
X013859Y012856D02*
X014277Y012856D01*
X014283Y012865D02*
X013864Y012865D01*
X013868Y012873D02*
X014289Y012873D01*
X014295Y012882D02*
X013874Y012882D01*
X013881Y012890D02*
X013978Y012890D01*
X014040Y012890D02*
X014300Y012890D01*
X014306Y012899D02*
X014056Y012899D01*
X014068Y012907D02*
X014312Y012907D01*
X014318Y012916D02*
X014080Y012916D01*
X014091Y012924D02*
X014323Y012924D01*
X014328Y012933D02*
X014101Y012933D01*
X014110Y012941D02*
X014331Y012941D01*
X014335Y012950D02*
X014117Y012950D01*
X014123Y012958D02*
X014337Y012958D01*
X014339Y012967D02*
X014129Y012967D01*
X014134Y012975D02*
X014340Y012975D01*
X014341Y012984D02*
X014137Y012984D01*
X014141Y012992D02*
X014340Y012992D01*
X014339Y013001D02*
X014142Y013001D01*
X014143Y013009D02*
X014338Y013009D01*
X014336Y013018D02*
X014143Y013018D01*
X014141Y013026D02*
X014332Y013026D01*
X014329Y013035D02*
X014138Y013035D01*
X014135Y013043D02*
X014325Y013043D01*
X014319Y013052D02*
X014130Y013052D01*
X014124Y013060D02*
X014313Y013060D01*
X014305Y013069D02*
X014115Y013069D01*
X014105Y013077D02*
X014296Y013077D01*
X014287Y013086D02*
X014089Y013086D01*
X014067Y013120D02*
X014237Y013120D01*
X014253Y013111D02*
X014047Y013111D01*
X014034Y013103D02*
X014265Y013103D01*
X014277Y013094D02*
X014023Y013094D01*
X014088Y013128D02*
X014218Y013128D01*
X014186Y013137D02*
X014128Y013137D01*
X014363Y012780D02*
X014460Y012780D01*
X014480Y012771D02*
X014376Y012771D01*
X014387Y012763D02*
X014495Y012763D01*
X014506Y012754D02*
X014399Y012754D01*
X014406Y012746D02*
X014516Y012746D01*
X014524Y012737D02*
X014409Y012737D01*
X014411Y012729D02*
X014531Y012729D01*
X014536Y012720D02*
X014412Y012720D01*
X014412Y012712D02*
X014541Y012712D01*
X014546Y012703D02*
X014411Y012703D01*
X014409Y012695D02*
X014550Y012695D01*
X014552Y012686D02*
X014406Y012686D01*
X014402Y012678D02*
X014555Y012678D01*
X014557Y012669D02*
X014397Y012669D01*
X014388Y012661D02*
X014559Y012661D01*
X014559Y012652D02*
X014376Y012652D01*
X014362Y012644D02*
X014560Y012644D01*
X014561Y012635D02*
X014335Y012635D01*
X014348Y011887D02*
X014532Y011887D01*
X014540Y011879D02*
X014357Y011879D01*
X014365Y011870D02*
X014549Y011870D01*
X014557Y011862D02*
X014374Y011862D01*
X014383Y011853D02*
X014566Y011853D01*
X014574Y011845D02*
X014391Y011845D01*
X014991Y011845D02*
X015173Y011845D01*
X015174Y011844D02*
X015158Y011856D01*
X015123Y011879D01*
X015099Y011893D01*
X015073Y011902D01*
X015045Y011905D01*
X014991Y011902D01*
X014991Y011750D01*
X014992Y011750D01*
X014998Y011751D01*
X015022Y011756D01*
X015083Y011756D01*
X015105Y011752D01*
X015126Y011745D01*
X015146Y011734D01*
X015173Y011711D01*
X015194Y011683D01*
X015209Y011651D01*
X015217Y011618D01*
X015220Y011584D01*
X015220Y011276D01*
X015384Y011276D01*
X015383Y011862D01*
X015231Y011889D01*
X015231Y011776D01*
X015227Y011774D01*
X015221Y011776D01*
X015213Y011788D01*
X015186Y011829D01*
X015174Y011844D01*
X015180Y011836D02*
X014991Y011836D01*
X014991Y011828D02*
X015187Y011828D01*
X015193Y011819D02*
X014991Y011819D01*
X014991Y011811D02*
X015198Y011811D01*
X015204Y011802D02*
X014991Y011802D01*
X014991Y011794D02*
X015209Y011794D01*
X015215Y011785D02*
X014991Y011785D01*
X014991Y011777D02*
X015221Y011777D01*
X015231Y011777D02*
X015383Y011777D01*
X015383Y011785D02*
X015231Y011785D01*
X015231Y011794D02*
X015383Y011794D01*
X015383Y011802D02*
X015231Y011802D01*
X015231Y011811D02*
X015383Y011811D01*
X015383Y011819D02*
X015231Y011819D01*
X015231Y011828D02*
X015383Y011828D01*
X015383Y011836D02*
X015231Y011836D01*
X015231Y011845D02*
X015383Y011845D01*
X015383Y011853D02*
X015231Y011853D01*
X015231Y011862D02*
X015383Y011862D01*
X015338Y011870D02*
X015231Y011870D01*
X015231Y011879D02*
X015290Y011879D01*
X015242Y011887D02*
X015231Y011887D01*
X015162Y011853D02*
X014991Y011853D01*
X014991Y011862D02*
X015150Y011862D01*
X015137Y011870D02*
X014991Y011870D01*
X014991Y011879D02*
X015124Y011879D01*
X015109Y011887D02*
X014991Y011887D01*
X014991Y011896D02*
X015091Y011896D01*
X015053Y011904D02*
X015028Y011904D01*
X014991Y011768D02*
X015383Y011768D01*
X015383Y011760D02*
X014991Y011760D01*
X014991Y011751D02*
X014998Y011751D01*
X015109Y011751D02*
X015383Y011751D01*
X015383Y011743D02*
X015130Y011743D01*
X015146Y011734D02*
X015383Y011734D01*
X015383Y011726D02*
X015156Y011726D01*
X015166Y011717D02*
X015383Y011717D01*
X015383Y011709D02*
X015175Y011709D01*
X015182Y011700D02*
X015383Y011700D01*
X015383Y011692D02*
X015188Y011692D01*
X015194Y011683D02*
X015383Y011683D01*
X015383Y011675D02*
X015198Y011675D01*
X015202Y011666D02*
X015383Y011666D01*
X015383Y011658D02*
X015206Y011658D01*
X015209Y011649D02*
X015383Y011649D01*
X015383Y011641D02*
X015212Y011641D01*
X015214Y011632D02*
X015383Y011632D01*
X015383Y011624D02*
X015216Y011624D01*
X015217Y011615D02*
X015383Y011615D01*
X015383Y011607D02*
X015218Y011607D01*
X015219Y011598D02*
X015383Y011598D01*
X015383Y011590D02*
X015220Y011590D01*
X015220Y011581D02*
X015383Y011581D01*
X015383Y011573D02*
X015220Y011573D01*
X015220Y011564D02*
X015384Y011564D01*
X015384Y011556D02*
X015220Y011556D01*
X015220Y011547D02*
X015384Y011547D01*
X015384Y011539D02*
X015220Y011539D01*
X015220Y011530D02*
X015384Y011530D01*
X015384Y011522D02*
X015220Y011522D01*
X015220Y011513D02*
X015384Y011513D01*
X015384Y011505D02*
X015220Y011505D01*
X015220Y011496D02*
X015384Y011496D01*
X015384Y011488D02*
X015220Y011488D01*
X015220Y011479D02*
X015384Y011479D01*
X015384Y011471D02*
X015220Y011471D01*
X015220Y011462D02*
X015384Y011462D01*
X015384Y011454D02*
X015220Y011454D01*
X015220Y011445D02*
X015384Y011445D01*
X015384Y011437D02*
X015220Y011437D01*
X015220Y011428D02*
X015384Y011428D01*
X015384Y011420D02*
X015220Y011420D01*
X015220Y011411D02*
X015384Y011411D01*
X015384Y011403D02*
X015220Y011403D01*
X015220Y011394D02*
X015384Y011394D01*
X015384Y011386D02*
X015220Y011386D01*
X015220Y011377D02*
X015384Y011377D01*
X015384Y011369D02*
X015220Y011369D01*
X015220Y011360D02*
X015384Y011360D01*
X015384Y011352D02*
X015220Y011352D01*
X015220Y011343D02*
X015384Y011343D01*
X015384Y011335D02*
X015220Y011335D01*
X015220Y011326D02*
X015384Y011326D01*
X015384Y011318D02*
X015220Y011318D01*
X015220Y011309D02*
X015384Y011309D01*
X015384Y011301D02*
X015220Y011301D01*
X015220Y011292D02*
X015384Y011292D01*
X015384Y011284D02*
X015220Y011284D01*
X015470Y011276D02*
X015473Y011284D01*
X015487Y011336D01*
X015491Y011389D01*
X015490Y011560D01*
X015651Y011560D01*
X015651Y011527D01*
X015654Y011484D01*
X015662Y011441D01*
X015664Y011434D01*
X015669Y011423D01*
X015675Y011414D01*
X015705Y011385D01*
X015717Y011377D01*
X015731Y011372D01*
X015773Y011366D01*
X015834Y011368D01*
X015853Y011372D01*
X015871Y011381D01*
X015886Y011393D01*
X015894Y011404D01*
X015900Y011416D01*
X015903Y011429D01*
X015903Y011453D01*
X015899Y011477D01*
X015890Y011499D01*
X015881Y011512D01*
X015870Y011522D01*
X015851Y011534D01*
X015829Y011542D01*
X015807Y011546D01*
X015750Y011552D01*
X015711Y011559D01*
X015673Y011570D01*
X015665Y011574D01*
X015658Y011580D01*
X015653Y011588D01*
X015651Y011588D01*
X015651Y011564D01*
X015491Y011564D01*
X015491Y011754D01*
X015495Y011783D01*
X015505Y011810D01*
X015522Y011834D01*
X015544Y011853D01*
X015595Y011880D01*
X015651Y011897D01*
X015719Y011906D01*
X015788Y011906D01*
X015857Y011898D01*
X015905Y011885D01*
X015951Y011864D01*
X015983Y011841D01*
X016010Y011813D01*
X016031Y011779D01*
X016044Y011742D01*
X016049Y011703D01*
X016050Y011704D01*
X015883Y011704D01*
X015883Y011706D01*
X015880Y011728D01*
X015873Y011748D01*
X015860Y011767D01*
X015844Y011781D01*
X015825Y011792D01*
X015802Y011799D01*
X015778Y011801D01*
X015724Y011799D01*
X015709Y011796D01*
X015694Y011791D01*
X015681Y011783D01*
X015670Y011773D01*
X015662Y011761D01*
X015656Y011748D01*
X015651Y011726D01*
X015491Y011726D01*
X015491Y011734D02*
X015653Y011734D01*
X015651Y011726D02*
X015651Y011704D01*
X015656Y011683D01*
X015658Y011678D01*
X015661Y011674D01*
X015673Y011663D01*
X015691Y011653D01*
X015710Y011646D01*
X015762Y011637D01*
X015849Y011628D01*
X015910Y011617D01*
X015968Y011598D01*
X015995Y011584D01*
X016019Y011564D01*
X015693Y011564D01*
X015668Y011573D02*
X016009Y011573D01*
X015999Y011581D02*
X015658Y011581D01*
X015651Y011581D02*
X015491Y011581D01*
X015491Y011573D02*
X015651Y011573D01*
X015651Y011564D02*
X015491Y011564D01*
X015490Y011556D02*
X015651Y011556D01*
X015651Y011547D02*
X015490Y011547D01*
X015490Y011539D02*
X015651Y011539D01*
X015651Y011530D02*
X015490Y011530D01*
X015490Y011522D02*
X015651Y011522D01*
X015652Y011513D02*
X015490Y011513D01*
X015490Y011505D02*
X015652Y011505D01*
X015653Y011496D02*
X015490Y011496D01*
X015490Y011488D02*
X015654Y011488D01*
X015655Y011479D02*
X015490Y011479D01*
X015491Y011471D02*
X015656Y011471D01*
X015658Y011462D02*
X015491Y011462D01*
X015491Y011454D02*
X015660Y011454D01*
X015661Y011445D02*
X015491Y011445D01*
X015491Y011437D02*
X015663Y011437D01*
X015667Y011428D02*
X015491Y011428D01*
X015491Y011420D02*
X015671Y011420D01*
X015678Y011411D02*
X015491Y011411D01*
X015491Y011403D02*
X015687Y011403D01*
X015696Y011394D02*
X015491Y011394D01*
X015491Y011386D02*
X015704Y011386D01*
X015718Y011377D02*
X015490Y011377D01*
X015489Y011369D02*
X015755Y011369D01*
X015837Y011369D02*
X016050Y011369D01*
X016053Y011377D02*
X015864Y011377D01*
X015877Y011386D02*
X016056Y011386D01*
X016057Y011386D02*
X016042Y011347D01*
X016031Y011328D01*
X016016Y011311D01*
X015998Y011298D01*
X015948Y011274D01*
X015894Y011262D01*
X015830Y011261D01*
X015766Y011270D01*
X015725Y011284D01*
X015688Y011305D01*
X015655Y011333D01*
X015653Y011334D01*
X015650Y011335D01*
X015648Y011334D01*
X015646Y011332D01*
X015645Y011330D01*
X015636Y011289D01*
X015633Y011278D01*
X015632Y011277D01*
X015631Y011276D01*
X015629Y011276D01*
X015470Y011276D01*
X015473Y011284D02*
X015634Y011284D01*
X015637Y011292D02*
X015475Y011292D01*
X015477Y011301D02*
X015639Y011301D01*
X015640Y011309D02*
X015480Y011309D01*
X015482Y011318D02*
X015642Y011318D01*
X015644Y011326D02*
X015484Y011326D01*
X015487Y011335D02*
X015650Y011335D01*
X015652Y011335D02*
X016034Y011335D01*
X016040Y011343D02*
X015487Y011343D01*
X015488Y011352D02*
X016044Y011352D01*
X016047Y011360D02*
X015489Y011360D01*
X015663Y011326D02*
X016029Y011326D01*
X016021Y011318D02*
X015673Y011318D01*
X015683Y011309D02*
X016012Y011309D01*
X016001Y011301D02*
X015696Y011301D01*
X015711Y011292D02*
X015986Y011292D01*
X015968Y011284D02*
X015726Y011284D01*
X015751Y011275D02*
X015950Y011275D01*
X015914Y011267D02*
X015789Y011267D01*
X015887Y011394D02*
X016058Y011394D01*
X016057Y011386D02*
X016064Y011427D01*
X016064Y011469D01*
X016056Y011506D01*
X016039Y011540D01*
X016019Y011564D01*
X016026Y011556D02*
X015729Y011556D01*
X015797Y011547D02*
X016033Y011547D01*
X016040Y011539D02*
X015838Y011539D01*
X015857Y011530D02*
X016044Y011530D01*
X016048Y011522D02*
X015871Y011522D01*
X015880Y011513D02*
X016052Y011513D01*
X016056Y011505D02*
X015886Y011505D01*
X015891Y011496D02*
X016058Y011496D01*
X016060Y011488D02*
X015895Y011488D01*
X015898Y011479D02*
X016062Y011479D01*
X016064Y011471D02*
X015900Y011471D01*
X015902Y011462D02*
X016064Y011462D01*
X016064Y011454D02*
X015903Y011454D01*
X015903Y011445D02*
X016064Y011445D01*
X016064Y011437D02*
X015903Y011437D01*
X015903Y011428D02*
X016064Y011428D01*
X016063Y011420D02*
X015901Y011420D01*
X015898Y011411D02*
X016061Y011411D01*
X016060Y011403D02*
X015893Y011403D01*
X015984Y011590D02*
X015491Y011590D01*
X015491Y011598D02*
X015968Y011598D01*
X015942Y011607D02*
X015491Y011607D01*
X015491Y011615D02*
X015916Y011615D01*
X015874Y011624D02*
X015491Y011624D01*
X015491Y011632D02*
X015810Y011632D01*
X015741Y011641D02*
X015491Y011641D01*
X015491Y011649D02*
X015701Y011649D01*
X015682Y011658D02*
X015491Y011658D01*
X015491Y011666D02*
X015670Y011666D01*
X015661Y011675D02*
X015491Y011675D01*
X015491Y011683D02*
X015656Y011683D01*
X015654Y011692D02*
X015491Y011692D01*
X015491Y011700D02*
X015652Y011700D01*
X015651Y011709D02*
X015491Y011709D01*
X015491Y011717D02*
X015651Y011717D01*
X015655Y011743D02*
X015491Y011743D01*
X015491Y011751D02*
X015657Y011751D01*
X015661Y011760D02*
X015492Y011760D01*
X015493Y011768D02*
X015667Y011768D01*
X015674Y011777D02*
X015494Y011777D01*
X015495Y011785D02*
X015684Y011785D01*
X015701Y011794D02*
X015499Y011794D01*
X015502Y011802D02*
X016017Y011802D01*
X016022Y011794D02*
X015820Y011794D01*
X015838Y011785D02*
X016027Y011785D01*
X016031Y011777D02*
X015850Y011777D01*
X015859Y011768D02*
X016034Y011768D01*
X016037Y011760D02*
X015865Y011760D01*
X015871Y011751D02*
X016040Y011751D01*
X016043Y011743D02*
X015875Y011743D01*
X015878Y011734D02*
X016045Y011734D01*
X016046Y011726D02*
X015881Y011726D01*
X015882Y011717D02*
X016047Y011717D01*
X016048Y011709D02*
X015883Y011709D01*
X016004Y011819D02*
X015511Y011819D01*
X015505Y011811D02*
X016011Y011811D01*
X015996Y011828D02*
X015517Y011828D01*
X015524Y011836D02*
X015988Y011836D01*
X015979Y011845D02*
X015534Y011845D01*
X015544Y011853D02*
X015967Y011853D01*
X015954Y011862D02*
X015560Y011862D01*
X015576Y011870D02*
X015938Y011870D01*
X015919Y011879D02*
X015592Y011879D01*
X015618Y011887D02*
X015897Y011887D01*
X015866Y011896D02*
X015646Y011896D01*
X015704Y011904D02*
X015808Y011904D01*
X016164Y011759D02*
X016137Y011676D01*
X016126Y011589D01*
X016131Y011502D01*
X016144Y011448D01*
X016166Y011397D01*
X016196Y011350D01*
X016222Y011322D01*
X016252Y011299D01*
X016286Y011282D01*
X016322Y011270D01*
X016370Y011263D01*
X016418Y011262D01*
X016466Y011268D01*
X016499Y011278D01*
X016530Y011296D01*
X016556Y011319D01*
X016576Y011347D01*
X016576Y011464D01*
X016573Y011467D01*
X016573Y011465D01*
X016572Y011461D01*
X016570Y011458D01*
X016568Y011455D01*
X016556Y011432D01*
X016539Y011413D01*
X016518Y011398D01*
X016490Y011386D01*
X016461Y011380D01*
X016424Y011380D01*
X016388Y011387D01*
X016358Y011401D01*
X016332Y011422D01*
X016313Y011449D01*
X016301Y011480D01*
X016289Y011558D01*
X016289Y011636D01*
X016297Y011675D01*
X016313Y011712D01*
X016337Y011743D01*
X016368Y011769D01*
X016389Y011780D01*
X016411Y011786D01*
X016434Y011788D01*
X016477Y011786D01*
X016493Y011783D01*
X016507Y011776D01*
X016536Y011753D01*
X016560Y011726D01*
X016577Y011697D01*
X016588Y011666D01*
X016592Y011633D01*
X016591Y011532D01*
X016586Y011501D01*
X016577Y011474D01*
X016577Y011473D01*
X016577Y011471D01*
X016579Y011470D01*
X016580Y011470D01*
X016585Y011470D01*
X016585Y010907D01*
X016748Y011054D01*
X016748Y011864D01*
X016595Y011893D01*
X016596Y011814D01*
X016593Y011811D01*
X016591Y011810D01*
X016582Y011820D01*
X016547Y011858D01*
X016533Y011870D01*
X016266Y011870D01*
X016252Y011862D02*
X016543Y011862D01*
X016533Y011870D02*
X016518Y011879D01*
X016466Y011900D01*
X016447Y011904D01*
X016369Y011905D01*
X016326Y011898D01*
X016286Y011882D01*
X016250Y011861D01*
X016218Y011835D01*
X016187Y011800D01*
X016164Y011759D01*
X016164Y011760D02*
X016357Y011760D01*
X016367Y011768D02*
X016169Y011768D01*
X016174Y011777D02*
X016382Y011777D01*
X016407Y011785D02*
X016179Y011785D01*
X016183Y011794D02*
X016748Y011794D01*
X016748Y011802D02*
X016189Y011802D01*
X016196Y011811D02*
X016590Y011811D01*
X016592Y011811D02*
X016748Y011811D01*
X016748Y011819D02*
X016596Y011819D01*
X016596Y011828D02*
X016748Y011828D01*
X016748Y011836D02*
X016596Y011836D01*
X016596Y011845D02*
X016748Y011845D01*
X016748Y011853D02*
X016595Y011853D01*
X016595Y011862D02*
X016748Y011862D01*
X016716Y011870D02*
X016595Y011870D01*
X016595Y011879D02*
X016671Y011879D01*
X016626Y011887D02*
X016595Y011887D01*
X016552Y011853D02*
X016241Y011853D01*
X016230Y011845D02*
X016559Y011845D01*
X016567Y011836D02*
X016219Y011836D01*
X016211Y011828D02*
X016575Y011828D01*
X016583Y011819D02*
X016204Y011819D01*
X016161Y011751D02*
X016346Y011751D01*
X016337Y011743D02*
X016159Y011743D01*
X016156Y011734D02*
X016330Y011734D01*
X016324Y011726D02*
X016153Y011726D01*
X016151Y011717D02*
X016317Y011717D01*
X016312Y011709D02*
X016148Y011709D01*
X016145Y011700D02*
X016308Y011700D01*
X016304Y011692D02*
X016142Y011692D01*
X016140Y011683D02*
X016300Y011683D01*
X016297Y011675D02*
X016137Y011675D01*
X016136Y011666D02*
X016295Y011666D01*
X016293Y011658D02*
X016135Y011658D01*
X016134Y011649D02*
X016292Y011649D01*
X016290Y011641D02*
X016133Y011641D01*
X016132Y011632D02*
X016289Y011632D01*
X016289Y011624D02*
X016131Y011624D01*
X016130Y011615D02*
X016289Y011615D01*
X016289Y011607D02*
X016129Y011607D01*
X016127Y011598D02*
X016289Y011598D01*
X016289Y011590D02*
X016126Y011590D01*
X016127Y011581D02*
X016289Y011581D01*
X016289Y011573D02*
X016127Y011573D01*
X016128Y011564D02*
X016289Y011564D01*
X016289Y011556D02*
X016128Y011556D01*
X016129Y011547D02*
X016291Y011547D01*
X016292Y011539D02*
X016129Y011539D01*
X016129Y011530D02*
X016293Y011530D01*
X016295Y011522D02*
X016130Y011522D01*
X016130Y011513D02*
X016296Y011513D01*
X016297Y011505D02*
X016131Y011505D01*
X016132Y011496D02*
X016298Y011496D01*
X016300Y011488D02*
X016134Y011488D01*
X016136Y011479D02*
X016301Y011479D01*
X016305Y011471D02*
X016138Y011471D01*
X016140Y011462D02*
X016308Y011462D01*
X016311Y011454D02*
X016142Y011454D01*
X016145Y011445D02*
X016316Y011445D01*
X016322Y011437D02*
X016149Y011437D01*
X016152Y011428D02*
X016328Y011428D01*
X016335Y011420D02*
X016156Y011420D01*
X016159Y011411D02*
X016345Y011411D01*
X016356Y011403D02*
X016163Y011403D01*
X016167Y011394D02*
X016373Y011394D01*
X016395Y011386D02*
X016173Y011386D01*
X016178Y011377D02*
X016576Y011377D01*
X016576Y011369D02*
X016184Y011369D01*
X016189Y011360D02*
X016576Y011360D01*
X016576Y011352D02*
X016195Y011352D01*
X016202Y011343D02*
X016573Y011343D01*
X016567Y011335D02*
X016210Y011335D01*
X016218Y011326D02*
X016561Y011326D01*
X016554Y011318D02*
X016228Y011318D01*
X016239Y011309D02*
X016545Y011309D01*
X016535Y011301D02*
X016250Y011301D01*
X016266Y011292D02*
X016523Y011292D01*
X016508Y011284D02*
X016282Y011284D01*
X016306Y011275D02*
X016488Y011275D01*
X016455Y011267D02*
X016344Y011267D01*
X016487Y011386D02*
X016576Y011386D01*
X016576Y011394D02*
X016509Y011394D01*
X016524Y011403D02*
X016576Y011403D01*
X016576Y011411D02*
X016536Y011411D01*
X016545Y011420D02*
X016576Y011420D01*
X016576Y011428D02*
X016552Y011428D01*
X016558Y011437D02*
X016576Y011437D01*
X016576Y011445D02*
X016563Y011445D01*
X016567Y011454D02*
X016576Y011454D01*
X016572Y011462D02*
X016576Y011462D01*
X016578Y011471D02*
X016748Y011471D01*
X016748Y011479D02*
X016579Y011479D01*
X016582Y011488D02*
X016748Y011488D01*
X016748Y011496D02*
X016584Y011496D01*
X016587Y011505D02*
X016748Y011505D01*
X016748Y011513D02*
X016588Y011513D01*
X016589Y011522D02*
X016748Y011522D01*
X016748Y011530D02*
X016591Y011530D01*
X016591Y011539D02*
X016748Y011539D01*
X016748Y011547D02*
X016591Y011547D01*
X016591Y011556D02*
X016748Y011556D01*
X016748Y011564D02*
X016591Y011564D01*
X016591Y011573D02*
X016748Y011573D01*
X016748Y011581D02*
X016591Y011581D01*
X016592Y011590D02*
X016748Y011590D01*
X016748Y011598D02*
X016592Y011598D01*
X016592Y011607D02*
X016748Y011607D01*
X016748Y011615D02*
X016592Y011615D01*
X016592Y011624D02*
X016748Y011624D01*
X016748Y011632D02*
X016592Y011632D01*
X016591Y011641D02*
X016748Y011641D01*
X016748Y011649D02*
X016590Y011649D01*
X016589Y011658D02*
X016748Y011658D01*
X016748Y011666D02*
X016588Y011666D01*
X016585Y011675D02*
X016748Y011675D01*
X016748Y011683D02*
X016582Y011683D01*
X016579Y011692D02*
X016748Y011692D01*
X016748Y011700D02*
X016575Y011700D01*
X016570Y011709D02*
X016748Y011709D01*
X016748Y011717D02*
X016565Y011717D01*
X016560Y011726D02*
X016748Y011726D01*
X016748Y011734D02*
X016553Y011734D01*
X016545Y011743D02*
X016748Y011743D01*
X016748Y011751D02*
X016538Y011751D01*
X016528Y011760D02*
X016748Y011760D01*
X016748Y011768D02*
X016517Y011768D01*
X016506Y011777D02*
X016748Y011777D01*
X016748Y011785D02*
X016482Y011785D01*
X016519Y011879D02*
X016280Y011879D01*
X016299Y011887D02*
X016498Y011887D01*
X016477Y011896D02*
X016321Y011896D01*
X016363Y011904D02*
X016444Y011904D01*
X016852Y011760D02*
X016900Y011760D01*
X016912Y011768D02*
X016855Y011768D01*
X016856Y011771D02*
X016870Y011802D01*
X016881Y011819D01*
X017029Y011819D01*
X017034Y011828D02*
X017190Y011828D01*
X017196Y011819D02*
X017354Y011819D01*
X017350Y011826D02*
X017362Y011805D01*
X017376Y011762D01*
X017381Y011718D01*
X017377Y011673D01*
X017371Y011654D01*
X017361Y011636D01*
X017348Y011621D01*
X017321Y011600D01*
X017292Y011583D01*
X017260Y011571D01*
X017117Y011537D01*
X017070Y011525D01*
X017026Y011506D01*
X017012Y011496D01*
X017001Y011483D01*
X016993Y011468D01*
X016989Y011451D01*
X016990Y011434D01*
X016995Y011418D01*
X017004Y011403D01*
X017016Y011391D01*
X017037Y011378D01*
X017060Y011370D01*
X017085Y011367D01*
X017138Y011367D01*
X017161Y011370D01*
X017185Y011379D01*
X017207Y011393D01*
X017225Y011411D01*
X017236Y011428D01*
X017242Y011448D01*
X017243Y011468D01*
X017243Y011470D01*
X017395Y011470D01*
X017114Y011322D01*
X016952Y011358D01*
X016908Y011489D01*
X016915Y011503D01*
X017240Y011692D01*
X017259Y011800D01*
X017110Y011845D01*
X016944Y011792D01*
X016867Y011735D01*
X016848Y011749D01*
X016856Y011771D01*
X016858Y011777D02*
X016923Y011777D01*
X016935Y011785D02*
X016862Y011785D01*
X016866Y011794D02*
X016949Y011794D01*
X016946Y011802D02*
X017106Y011802D01*
X017119Y011803D02*
X017085Y011801D01*
X017065Y011797D01*
X017045Y011789D01*
X017028Y011778D01*
X017016Y011767D01*
X017007Y011754D01*
X017001Y011739D01*
X016999Y011729D01*
X016998Y011718D01*
X016845Y011718D01*
X016848Y011746D01*
X016929Y011797D01*
X017108Y011849D01*
X017273Y011806D01*
X017252Y011686D01*
X017079Y011583D01*
X016912Y011492D01*
X016955Y011364D01*
X017110Y011329D01*
X017395Y011470D01*
X017394Y011456D01*
X017390Y011433D01*
X017373Y011383D01*
X017361Y011360D01*
X017173Y011360D01*
X017170Y011352D02*
X016981Y011352D01*
X016973Y011360D02*
X016859Y011360D01*
X016864Y011352D02*
X016849Y011374D01*
X016839Y011399D01*
X016833Y011425D01*
X016830Y011466D01*
X016834Y011508D01*
X016847Y011547D01*
X016857Y011563D01*
X016870Y011577D01*
X016897Y011597D01*
X016927Y011613D01*
X016992Y011637D01*
X017060Y011652D01*
X017140Y011668D01*
X017170Y011679D01*
X017198Y011696D01*
X017210Y011709D01*
X017256Y011709D01*
X017257Y011717D02*
X017214Y011717D01*
X017218Y011724D02*
X017221Y011740D01*
X017219Y011756D01*
X017212Y011771D01*
X017202Y011783D01*
X017189Y011791D01*
X017171Y011797D01*
X017153Y011801D01*
X017119Y011803D01*
X017132Y011802D02*
X017272Y011802D01*
X017271Y011794D02*
X017182Y011794D01*
X017198Y011785D02*
X017269Y011785D01*
X017268Y011777D02*
X017207Y011777D01*
X017213Y011768D02*
X017266Y011768D01*
X017265Y011760D02*
X017217Y011760D01*
X017219Y011751D02*
X017263Y011751D01*
X017262Y011743D02*
X017220Y011743D01*
X017220Y011734D02*
X017260Y011734D01*
X017259Y011726D02*
X017218Y011726D01*
X017218Y011724D02*
X017210Y011709D01*
X017202Y011700D02*
X017254Y011700D01*
X017253Y011692D02*
X017191Y011692D01*
X017177Y011683D02*
X017247Y011683D01*
X017239Y011692D02*
X017379Y011692D01*
X017380Y011700D02*
X017241Y011700D01*
X017243Y011709D02*
X017380Y011709D01*
X017381Y011717D02*
X017244Y011717D01*
X017246Y011726D02*
X017380Y011726D01*
X017379Y011734D02*
X017247Y011734D01*
X017249Y011743D02*
X017378Y011743D01*
X017377Y011751D02*
X017250Y011751D01*
X017252Y011760D02*
X017376Y011760D01*
X017374Y011768D02*
X017253Y011768D01*
X017255Y011777D02*
X017371Y011777D01*
X017369Y011785D02*
X017256Y011785D01*
X017258Y011794D02*
X017366Y011794D01*
X017363Y011802D02*
X017252Y011802D01*
X017255Y011811D02*
X016976Y011811D01*
X016975Y011802D02*
X016870Y011802D01*
X016876Y011811D02*
X017002Y011811D01*
X017005Y011819D02*
X017223Y011819D01*
X017224Y011811D02*
X017359Y011811D01*
X017350Y011826D02*
X017335Y011843D01*
X017316Y011858D01*
X017266Y011884D01*
X017211Y011900D01*
X017155Y011906D01*
X017084Y011906D01*
X017029Y011900D01*
X016976Y011886D01*
X016933Y011865D01*
X016895Y011835D01*
X016881Y011819D01*
X016888Y011828D02*
X017055Y011828D01*
X017063Y011836D02*
X017158Y011836D01*
X017168Y011828D02*
X017349Y011828D01*
X017341Y011836D02*
X017140Y011836D01*
X017125Y011845D02*
X017093Y011845D01*
X017082Y011836D02*
X016896Y011836D01*
X016907Y011845D02*
X017109Y011845D01*
X017111Y011845D02*
X017333Y011845D01*
X017322Y011853D02*
X016918Y011853D01*
X016929Y011862D02*
X017309Y011862D01*
X017292Y011870D02*
X016943Y011870D01*
X016961Y011879D02*
X017276Y011879D01*
X017254Y011887D02*
X016980Y011887D01*
X017011Y011896D02*
X017226Y011896D01*
X017173Y011904D02*
X017065Y011904D01*
X017056Y011794D02*
X016924Y011794D01*
X016910Y011785D02*
X017039Y011785D01*
X017026Y011777D02*
X016897Y011777D01*
X016883Y011768D02*
X017018Y011768D01*
X017011Y011760D02*
X016870Y011760D01*
X016856Y011751D02*
X017006Y011751D01*
X017003Y011743D02*
X016848Y011743D01*
X016849Y011751D02*
X016889Y011751D01*
X016877Y011743D02*
X016857Y011743D01*
X016847Y011734D02*
X017000Y011734D01*
X016998Y011726D02*
X016846Y011726D01*
X016915Y011607D02*
X017119Y011607D01*
X017108Y011615D02*
X017341Y011615D01*
X017350Y011624D02*
X017122Y011624D01*
X017133Y011615D02*
X016933Y011615D01*
X016956Y011624D02*
X017147Y011624D01*
X017137Y011632D02*
X017358Y011632D01*
X017364Y011641D02*
X017152Y011641D01*
X017161Y011632D02*
X016979Y011632D01*
X017008Y011641D02*
X017176Y011641D01*
X017166Y011649D02*
X017368Y011649D01*
X017372Y011658D02*
X017181Y011658D01*
X017190Y011649D02*
X017047Y011649D01*
X017088Y011658D02*
X017204Y011658D01*
X017195Y011666D02*
X017375Y011666D01*
X017377Y011675D02*
X017210Y011675D01*
X017219Y011666D02*
X017130Y011666D01*
X017158Y011675D02*
X017233Y011675D01*
X017225Y011683D02*
X017378Y011683D01*
X017330Y011607D02*
X017093Y011607D01*
X017104Y011598D02*
X016899Y011598D01*
X016887Y011590D02*
X017090Y011590D01*
X017078Y011598D02*
X017318Y011598D01*
X017303Y011590D02*
X017064Y011590D01*
X017075Y011581D02*
X016875Y011581D01*
X016866Y011573D02*
X017060Y011573D01*
X017049Y011581D02*
X017287Y011581D01*
X017264Y011573D02*
X017035Y011573D01*
X017044Y011564D02*
X016858Y011564D01*
X016852Y011556D02*
X017029Y011556D01*
X017020Y011564D02*
X017231Y011564D01*
X017195Y011556D02*
X017005Y011556D01*
X017013Y011547D02*
X016847Y011547D01*
X016844Y011539D02*
X016997Y011539D01*
X016991Y011547D02*
X017159Y011547D01*
X017123Y011539D02*
X016976Y011539D01*
X016982Y011530D02*
X016841Y011530D01*
X016838Y011522D02*
X016966Y011522D01*
X016962Y011530D02*
X017090Y011530D01*
X017063Y011522D02*
X016947Y011522D01*
X016951Y011513D02*
X016836Y011513D01*
X016833Y011505D02*
X016935Y011505D01*
X016932Y011513D02*
X017043Y011513D01*
X017024Y011505D02*
X016918Y011505D01*
X016919Y011496D02*
X016833Y011496D01*
X016832Y011488D02*
X016914Y011488D01*
X016908Y011488D02*
X017004Y011488D01*
X016998Y011479D02*
X016911Y011479D01*
X016916Y011479D02*
X016831Y011479D01*
X016830Y011471D02*
X016919Y011471D01*
X016914Y011471D02*
X016994Y011471D01*
X016992Y011462D02*
X016917Y011462D01*
X016922Y011462D02*
X016830Y011462D01*
X016831Y011454D02*
X016925Y011454D01*
X016920Y011454D02*
X016990Y011454D01*
X016990Y011445D02*
X016923Y011445D01*
X016928Y011445D02*
X016832Y011445D01*
X016832Y011437D02*
X016931Y011437D01*
X016926Y011437D02*
X016990Y011437D01*
X016992Y011428D02*
X016928Y011428D01*
X016933Y011428D02*
X016833Y011428D01*
X016834Y011420D02*
X016936Y011420D01*
X016931Y011420D02*
X016994Y011420D01*
X016999Y011411D02*
X016934Y011411D01*
X016939Y011411D02*
X016836Y011411D01*
X016838Y011403D02*
X016942Y011403D01*
X016937Y011403D02*
X017004Y011403D01*
X017013Y011394D02*
X016940Y011394D01*
X016945Y011394D02*
X016841Y011394D01*
X016844Y011386D02*
X016948Y011386D01*
X016943Y011386D02*
X017025Y011386D01*
X017040Y011377D02*
X016946Y011377D01*
X016951Y011377D02*
X016848Y011377D01*
X016853Y011369D02*
X016953Y011369D01*
X016948Y011369D02*
X017072Y011369D01*
X017048Y011343D02*
X016873Y011343D01*
X016881Y011335D02*
X017086Y011335D01*
X017096Y011326D02*
X017122Y011326D01*
X017121Y011335D02*
X017339Y011335D01*
X017344Y011339D02*
X017324Y011322D01*
X017277Y011292D01*
X017243Y011276D01*
X017207Y011268D01*
X017106Y011261D01*
X017054Y011263D01*
X017002Y011270D01*
X016963Y011281D01*
X016926Y011299D01*
X016893Y011323D01*
X016864Y011352D01*
X017010Y011352D01*
X017019Y011343D02*
X017154Y011343D01*
X017156Y011352D02*
X017354Y011352D01*
X017361Y011360D02*
X017344Y011339D01*
X017348Y011343D02*
X017138Y011343D01*
X017138Y011335D02*
X017058Y011335D01*
X017027Y011267D02*
X017186Y011267D01*
X017238Y011275D02*
X016984Y011275D01*
X016958Y011284D02*
X017259Y011284D01*
X017277Y011292D02*
X016940Y011292D01*
X016924Y011301D02*
X017290Y011301D01*
X017304Y011309D02*
X016912Y011309D01*
X016900Y011318D02*
X017317Y011318D01*
X017329Y011326D02*
X016889Y011326D01*
X016951Y011360D02*
X017186Y011360D01*
X017190Y011369D02*
X017365Y011369D01*
X017370Y011377D02*
X017207Y011377D01*
X017202Y011369D02*
X017150Y011369D01*
X017180Y011377D02*
X017219Y011377D01*
X017224Y011386D02*
X017374Y011386D01*
X017377Y011394D02*
X017241Y011394D01*
X017251Y011394D02*
X017208Y011394D01*
X017217Y011403D02*
X017267Y011403D01*
X017259Y011403D02*
X017380Y011403D01*
X017383Y011411D02*
X017276Y011411D01*
X017283Y011411D02*
X017225Y011411D01*
X017230Y011420D02*
X017299Y011420D01*
X017293Y011420D02*
X017385Y011420D01*
X017388Y011428D02*
X017310Y011428D01*
X017315Y011428D02*
X017236Y011428D01*
X017238Y011437D02*
X017331Y011437D01*
X017327Y011437D02*
X017391Y011437D01*
X017392Y011445D02*
X017345Y011445D01*
X017348Y011445D02*
X017241Y011445D01*
X017242Y011454D02*
X017364Y011454D01*
X017362Y011454D02*
X017394Y011454D01*
X017394Y011462D02*
X017379Y011462D01*
X017380Y011462D02*
X017243Y011462D01*
X017235Y011386D02*
X017196Y011386D01*
X017012Y011496D02*
X016912Y011496D01*
X016748Y011462D02*
X016585Y011462D01*
X016585Y011454D02*
X016748Y011454D01*
X016748Y011445D02*
X016585Y011445D01*
X016585Y011437D02*
X016748Y011437D01*
X016748Y011428D02*
X016585Y011428D01*
X016585Y011420D02*
X016748Y011420D01*
X016748Y011411D02*
X016585Y011411D01*
X016585Y011403D02*
X016748Y011403D01*
X016748Y011394D02*
X016585Y011394D01*
X016585Y011386D02*
X016748Y011386D01*
X016748Y011377D02*
X016585Y011377D01*
X016585Y011369D02*
X016748Y011369D01*
X016748Y011360D02*
X016585Y011360D01*
X016585Y011352D02*
X016748Y011352D01*
X016748Y011343D02*
X016585Y011343D01*
X016585Y011335D02*
X016748Y011335D01*
X016748Y011326D02*
X016585Y011326D01*
X016585Y011318D02*
X016748Y011318D01*
X016748Y011309D02*
X016585Y011309D01*
X016585Y011301D02*
X016748Y011301D01*
X016748Y011292D02*
X016585Y011292D01*
X016585Y011284D02*
X016748Y011284D01*
X016748Y011275D02*
X016585Y011275D01*
X016585Y011267D02*
X016748Y011267D01*
X016748Y011258D02*
X016585Y011258D01*
X016585Y011250D02*
X016748Y011250D01*
X016748Y011241D02*
X016585Y011241D01*
X016585Y011233D02*
X016748Y011233D01*
X016748Y011224D02*
X016585Y011224D01*
X016585Y011216D02*
X016748Y011216D01*
X016748Y011207D02*
X016585Y011207D01*
X016585Y011199D02*
X016748Y011199D01*
X016748Y011190D02*
X016585Y011190D01*
X016585Y011182D02*
X016748Y011182D01*
X016748Y011173D02*
X016585Y011173D01*
X016585Y011165D02*
X016748Y011165D01*
X016748Y011156D02*
X016585Y011156D01*
X016585Y011148D02*
X016748Y011148D01*
X016748Y011139D02*
X016585Y011139D01*
X016585Y011131D02*
X016748Y011131D01*
X016748Y011122D02*
X016585Y011122D01*
X016585Y011114D02*
X016748Y011114D01*
X016748Y011105D02*
X016585Y011105D01*
X016585Y011097D02*
X016748Y011097D01*
X016748Y011088D02*
X016585Y011088D01*
X016585Y011080D02*
X016748Y011080D01*
X016748Y011071D02*
X016585Y011071D01*
X016585Y011063D02*
X016748Y011063D01*
X016748Y011054D02*
X016585Y011054D01*
X016585Y011046D02*
X016739Y011046D01*
X016729Y011037D02*
X016585Y011037D01*
X016585Y011029D02*
X016720Y011029D01*
X016710Y011020D02*
X016585Y011020D01*
X016585Y011012D02*
X016701Y011012D01*
X016691Y011003D02*
X016585Y011003D01*
X016585Y010995D02*
X016682Y010995D01*
X016673Y010986D02*
X016585Y010986D01*
X016585Y010978D02*
X016663Y010978D01*
X016654Y010969D02*
X016585Y010969D01*
X016585Y010961D02*
X016644Y010961D01*
X016635Y010952D02*
X016585Y010952D01*
X016585Y010944D02*
X016625Y010944D01*
X016616Y010935D02*
X016585Y010935D01*
X016585Y010927D02*
X016607Y010927D01*
X016597Y010918D02*
X016585Y010918D01*
X016585Y010910D02*
X016588Y010910D01*
X014198Y011275D02*
X014034Y011275D01*
X014034Y011284D02*
X014198Y011284D01*
X014198Y011292D02*
X014034Y011292D01*
X014034Y011301D02*
X014198Y011301D01*
X014198Y011309D02*
X014034Y011309D01*
X014034Y011318D02*
X014198Y011318D01*
X014198Y011326D02*
X014034Y011326D01*
X014034Y011335D02*
X014198Y011335D01*
X014198Y011343D02*
X014034Y011343D01*
X014034Y011352D02*
X014198Y011352D01*
X014198Y011360D02*
X014034Y011360D01*
X014034Y011369D02*
X014198Y011369D01*
X014198Y011377D02*
X014034Y011377D01*
X012788Y011739D02*
X012778Y011719D01*
X012771Y011699D01*
X012766Y011678D01*
X012765Y011656D01*
X012967Y011754D02*
X012982Y011739D01*
X012994Y011722D01*
X013003Y011703D01*
X012267Y011646D02*
X012255Y011705D01*
X012233Y011760D01*
X012200Y011810D01*
X012158Y011853D01*
X012109Y011887D01*
X012054Y011911D01*
X011995Y011924D01*
X011934Y011925D01*
X011878Y011918D01*
X011822Y011905D01*
X011776Y011887D01*
X011736Y011860D01*
X011702Y011824D01*
X011677Y011782D01*
X011660Y011737D01*
X011651Y011689D01*
X011816Y011689D01*
X011816Y011690D01*
X011819Y011714D01*
X011827Y011736D01*
X011840Y011756D01*
X011857Y011773D01*
X011877Y011785D01*
X011909Y011796D01*
X011943Y011799D01*
X011977Y011796D01*
X012010Y011789D01*
X012027Y011781D01*
X012042Y011769D01*
X012070Y011732D01*
X012090Y011691D01*
X012102Y011647D01*
X012106Y011601D01*
X012101Y011539D01*
X012087Y011478D01*
X012074Y011449D01*
X012055Y011423D01*
X012030Y011403D01*
X012001Y011390D01*
X011969Y011383D01*
X011937Y011381D01*
X011913Y011384D01*
X011890Y011391D01*
X011868Y011402D01*
X011850Y011416D01*
X011835Y011434D01*
X011822Y011458D01*
X011813Y011484D01*
X011809Y011511D01*
X011649Y011511D01*
X011649Y011509D01*
X011650Y011490D01*
X011654Y011472D01*
X011675Y011417D01*
X011707Y011368D01*
X011749Y011326D01*
X012159Y011326D01*
X012170Y011335D02*
X011741Y011335D01*
X011749Y011326D02*
X011798Y011294D01*
X011841Y011276D01*
X011886Y011265D01*
X011933Y011261D01*
X011995Y011265D01*
X012057Y011276D01*
X012099Y011290D01*
X012138Y011311D01*
X012174Y011338D01*
X012204Y011370D01*
X012231Y011410D01*
X012251Y011454D01*
X012264Y011500D01*
X012270Y011548D01*
X012267Y011646D01*
X012266Y011649D02*
X012102Y011649D01*
X012103Y011641D02*
X012267Y011641D01*
X012267Y011632D02*
X012103Y011632D01*
X012104Y011624D02*
X012268Y011624D01*
X012268Y011615D02*
X012105Y011615D01*
X012106Y011607D02*
X012268Y011607D01*
X012268Y011598D02*
X012106Y011598D01*
X012105Y011590D02*
X012269Y011590D01*
X012269Y011581D02*
X012104Y011581D01*
X012104Y011573D02*
X012269Y011573D01*
X012270Y011564D02*
X012103Y011564D01*
X012102Y011556D02*
X012270Y011556D01*
X012270Y011547D02*
X012102Y011547D01*
X012101Y011539D02*
X012269Y011539D01*
X012268Y011530D02*
X012099Y011530D01*
X012097Y011522D02*
X012267Y011522D01*
X012266Y011513D02*
X012095Y011513D01*
X012093Y011505D02*
X012265Y011505D01*
X012263Y011496D02*
X012091Y011496D01*
X012089Y011488D02*
X012261Y011488D01*
X012258Y011479D02*
X012087Y011479D01*
X012084Y011471D02*
X012256Y011471D01*
X012253Y011462D02*
X012080Y011462D01*
X012076Y011454D02*
X012251Y011454D01*
X012247Y011445D02*
X012071Y011445D01*
X012065Y011437D02*
X012243Y011437D01*
X012239Y011428D02*
X012058Y011428D01*
X012050Y011420D02*
X012235Y011420D01*
X012231Y011411D02*
X012039Y011411D01*
X012028Y011403D02*
X012226Y011403D01*
X012220Y011394D02*
X012010Y011394D01*
X011982Y011386D02*
X012214Y011386D01*
X012209Y011377D02*
X011702Y011377D01*
X011707Y011369D02*
X012203Y011369D01*
X012195Y011360D02*
X011715Y011360D01*
X011724Y011352D02*
X012187Y011352D01*
X012179Y011343D02*
X011732Y011343D01*
X011762Y011318D02*
X012147Y011318D01*
X012135Y011309D02*
X011775Y011309D01*
X011788Y011301D02*
X012119Y011301D01*
X012103Y011292D02*
X011803Y011292D01*
X011823Y011284D02*
X012080Y011284D01*
X012052Y011275D02*
X011844Y011275D01*
X011879Y011267D02*
X012005Y011267D01*
X011908Y011386D02*
X011696Y011386D01*
X011690Y011394D02*
X011884Y011394D01*
X011867Y011403D02*
X011685Y011403D01*
X011679Y011411D02*
X011856Y011411D01*
X011847Y011420D02*
X011674Y011420D01*
X011671Y011428D02*
X011840Y011428D01*
X011834Y011437D02*
X011668Y011437D01*
X011665Y011445D02*
X011829Y011445D01*
X011824Y011454D02*
X011661Y011454D01*
X011658Y011462D02*
X011821Y011462D01*
X011818Y011471D02*
X011655Y011471D01*
X011653Y011479D02*
X011815Y011479D01*
X011813Y011488D02*
X011651Y011488D01*
X011650Y011496D02*
X011811Y011496D01*
X011810Y011505D02*
X011649Y011505D01*
X011582Y011513D02*
X011428Y011513D01*
X011428Y011514D02*
X011413Y011468D01*
X011391Y011426D01*
X011324Y011385D01*
X011253Y011376D01*
X011182Y011400D01*
X011138Y011440D01*
X011116Y011489D01*
X011101Y011551D01*
X011101Y011608D01*
X011111Y011685D01*
X011141Y011750D01*
X011175Y011783D01*
X011214Y011804D01*
X011262Y011808D01*
X011266Y011808D01*
X011264Y011925D01*
X011185Y011915D01*
X011121Y011893D01*
X011043Y011839D01*
X011000Y011789D01*
X010959Y011697D01*
X010948Y011611D01*
X010958Y011528D01*
X010985Y011431D01*
X011017Y011380D01*
X011064Y011335D01*
X011108Y011304D01*
X011181Y011279D01*
X011280Y011269D01*
X011398Y011285D01*
X011510Y011355D01*
X011573Y011453D01*
X011597Y011606D01*
X011565Y011746D01*
X011481Y011853D01*
X011348Y011919D01*
X011290Y011926D01*
X011288Y011926D01*
X011283Y011924D01*
X011283Y011809D01*
X011327Y011803D01*
X011374Y011777D01*
X011406Y011733D01*
X011422Y011697D01*
X011433Y011638D01*
X011435Y011564D01*
X011428Y011514D01*
X011429Y011522D02*
X011584Y011522D01*
X011585Y011530D02*
X011430Y011530D01*
X011431Y011539D02*
X011586Y011539D01*
X011588Y011547D02*
X011433Y011547D01*
X011434Y011556D02*
X011589Y011556D01*
X011590Y011564D02*
X011435Y011564D01*
X011435Y011573D02*
X011592Y011573D01*
X011593Y011581D02*
X011435Y011581D01*
X011434Y011590D02*
X011594Y011590D01*
X011596Y011598D02*
X011434Y011598D01*
X011434Y011607D02*
X011597Y011607D01*
X011595Y011615D02*
X011434Y011615D01*
X010976Y011438D02*
X010964Y011472D01*
X010955Y011506D01*
X010948Y011541D01*
X010944Y011577D01*
X010942Y011612D01*
X010949Y011615D02*
X011102Y011615D01*
X011101Y011607D02*
X010949Y011607D01*
X010950Y011598D02*
X011101Y011598D01*
X011101Y011590D02*
X010951Y011590D01*
X010952Y011581D02*
X011101Y011581D01*
X011101Y011573D02*
X010953Y011573D01*
X010954Y011564D02*
X011101Y011564D01*
X011101Y011556D02*
X010955Y011556D01*
X010956Y011547D02*
X011102Y011547D01*
X011104Y011539D02*
X010957Y011539D01*
X010958Y011530D02*
X011106Y011530D01*
X011108Y011522D02*
X010960Y011522D01*
X010962Y011513D02*
X011110Y011513D01*
X011112Y011505D02*
X010965Y011505D01*
X010967Y011496D02*
X011114Y011496D01*
X011117Y011488D02*
X010969Y011488D01*
X010972Y011479D02*
X011120Y011479D01*
X011124Y011471D02*
X010974Y011471D01*
X010976Y011462D02*
X011128Y011462D01*
X011132Y011454D02*
X010979Y011454D01*
X010981Y011445D02*
X011136Y011445D01*
X011142Y011437D02*
X010983Y011437D01*
X010987Y011428D02*
X011151Y011428D01*
X011161Y011420D02*
X010992Y011420D01*
X010998Y011411D02*
X011170Y011411D01*
X011179Y011403D02*
X011003Y011403D01*
X011008Y011394D02*
X011200Y011394D01*
X011225Y011386D02*
X011014Y011386D01*
X011020Y011377D02*
X011250Y011377D01*
X011261Y011377D02*
X011524Y011377D01*
X011519Y011369D02*
X011029Y011369D01*
X011038Y011360D02*
X011513Y011360D01*
X011504Y011352D02*
X011047Y011352D01*
X011056Y011343D02*
X011491Y011343D01*
X011477Y011335D02*
X011065Y011335D01*
X011077Y011326D02*
X011464Y011326D01*
X011450Y011318D02*
X011089Y011318D01*
X011101Y011309D02*
X011436Y011309D01*
X011423Y011301D02*
X011118Y011301D01*
X011143Y011292D02*
X011409Y011292D01*
X011387Y011284D02*
X011168Y011284D01*
X011220Y011275D02*
X011324Y011275D01*
X011325Y011386D02*
X011530Y011386D01*
X011535Y011394D02*
X011339Y011394D01*
X011353Y011403D02*
X011541Y011403D01*
X011546Y011411D02*
X011367Y011411D01*
X011380Y011420D02*
X011551Y011420D01*
X011557Y011428D02*
X011392Y011428D01*
X011397Y011437D02*
X011562Y011437D01*
X011568Y011445D02*
X011401Y011445D01*
X011405Y011454D02*
X011573Y011454D01*
X011574Y011462D02*
X011410Y011462D01*
X011414Y011471D02*
X011576Y011471D01*
X011577Y011479D02*
X011417Y011479D01*
X011419Y011488D02*
X011578Y011488D01*
X011580Y011496D02*
X011422Y011496D01*
X011425Y011505D02*
X011581Y011505D01*
X011106Y011577D02*
X011107Y011610D01*
X011111Y011643D01*
X011117Y011676D01*
X011110Y011675D02*
X010956Y011675D01*
X010957Y011683D02*
X011111Y011683D01*
X011114Y011692D02*
X010958Y011692D01*
X010960Y011700D02*
X011118Y011700D01*
X011122Y011709D02*
X010964Y011709D01*
X010968Y011717D02*
X011126Y011717D01*
X011130Y011726D02*
X010972Y011726D01*
X010976Y011734D02*
X011134Y011734D01*
X011138Y011743D02*
X010979Y011743D01*
X010983Y011751D02*
X011142Y011751D01*
X011151Y011760D02*
X010987Y011760D01*
X010991Y011768D02*
X011160Y011768D01*
X011168Y011777D02*
X010994Y011777D01*
X010998Y011785D02*
X011179Y011785D01*
X011195Y011794D02*
X011004Y011794D01*
X011011Y011802D02*
X011210Y011802D01*
X011266Y011811D02*
X011019Y011811D01*
X011026Y011819D02*
X011266Y011819D01*
X011266Y011828D02*
X011033Y011828D01*
X011040Y011836D02*
X011266Y011836D01*
X011265Y011845D02*
X011051Y011845D01*
X011063Y011853D02*
X011265Y011853D01*
X011265Y011862D02*
X011076Y011862D01*
X011088Y011870D02*
X011265Y011870D01*
X011265Y011879D02*
X011100Y011879D01*
X011112Y011887D02*
X011265Y011887D01*
X011265Y011896D02*
X011128Y011896D01*
X011153Y011904D02*
X011264Y011904D01*
X011264Y011913D02*
X011178Y011913D01*
X011233Y011921D02*
X011264Y011921D01*
X011264Y011929D02*
X011270Y011929D01*
X011270Y011804D01*
X011278Y011802D02*
X011287Y011802D01*
X011278Y011802D02*
X011278Y011929D01*
X011283Y011921D02*
X011331Y011921D01*
X011361Y011913D02*
X011283Y011913D01*
X011283Y011904D02*
X011378Y011904D01*
X011395Y011896D02*
X011283Y011896D01*
X011283Y011887D02*
X011412Y011887D01*
X011429Y011879D02*
X011283Y011879D01*
X011283Y011870D02*
X011447Y011870D01*
X011464Y011862D02*
X011283Y011862D01*
X011283Y011853D02*
X011481Y011853D01*
X011488Y011845D02*
X011283Y011845D01*
X011283Y011836D02*
X011494Y011836D01*
X011501Y011828D02*
X011283Y011828D01*
X011283Y011819D02*
X011508Y011819D01*
X011514Y011811D02*
X011283Y011811D01*
X011329Y011802D02*
X011521Y011802D01*
X011528Y011794D02*
X011344Y011794D01*
X011359Y011785D02*
X011534Y011785D01*
X011541Y011777D02*
X011374Y011777D01*
X011381Y011768D02*
X011548Y011768D01*
X011554Y011760D02*
X011387Y011760D01*
X011393Y011751D02*
X011561Y011751D01*
X011566Y011743D02*
X011399Y011743D01*
X011405Y011734D02*
X011568Y011734D01*
X011570Y011726D02*
X011409Y011726D01*
X011413Y011717D02*
X011572Y011717D01*
X011574Y011709D02*
X011417Y011709D01*
X011421Y011700D02*
X011576Y011700D01*
X011577Y011692D02*
X011423Y011692D01*
X011425Y011683D02*
X011579Y011683D01*
X011581Y011675D02*
X011426Y011675D01*
X011428Y011666D02*
X011583Y011666D01*
X011585Y011658D02*
X011429Y011658D01*
X011431Y011649D02*
X011587Y011649D01*
X011589Y011641D02*
X011433Y011641D01*
X011433Y011632D02*
X011591Y011632D01*
X011593Y011624D02*
X011433Y011624D01*
X011106Y011577D02*
X011108Y011545D01*
X011114Y011514D01*
X011124Y011483D01*
X011137Y011455D01*
X010976Y011438D02*
X010988Y011411D01*
X011003Y011386D01*
X011020Y011363D01*
X011040Y011342D01*
X011062Y011324D01*
X011086Y011307D01*
X011112Y011294D01*
X011139Y011283D01*
X011194Y011401D02*
X011177Y011411D01*
X011161Y011424D01*
X011148Y011439D01*
X011137Y011455D01*
X011401Y011455D02*
X011411Y011476D01*
X011419Y011498D01*
X011425Y011521D01*
X011428Y011545D01*
X011549Y011400D02*
X011535Y011378D01*
X011517Y011359D01*
X011498Y011341D01*
X011400Y011455D02*
X011389Y011439D01*
X011376Y011424D01*
X011361Y011411D01*
X011344Y011401D01*
X011326Y011393D01*
X011304Y011387D01*
X011282Y011384D01*
X011259Y011384D01*
X011237Y011387D01*
X011215Y011393D01*
X011194Y011401D01*
X011549Y011400D02*
X011564Y011428D01*
X011576Y011457D01*
X011585Y011487D01*
X011592Y011517D01*
X011651Y011692D02*
X011816Y011692D01*
X011817Y011700D02*
X011653Y011700D01*
X011655Y011709D02*
X011818Y011709D01*
X011820Y011717D02*
X011656Y011717D01*
X011658Y011726D02*
X011823Y011726D01*
X011826Y011734D02*
X011660Y011734D01*
X011663Y011743D02*
X011831Y011743D01*
X011836Y011751D02*
X011666Y011751D01*
X011669Y011760D02*
X011843Y011760D01*
X011852Y011768D02*
X011672Y011768D01*
X011675Y011777D02*
X011863Y011777D01*
X011877Y011785D02*
X011679Y011785D01*
X011684Y011794D02*
X011903Y011794D01*
X011989Y011794D02*
X012211Y011794D01*
X012205Y011802D02*
X011689Y011802D01*
X011694Y011811D02*
X012199Y011811D01*
X012191Y011819D02*
X011699Y011819D01*
X011706Y011828D02*
X012183Y011828D01*
X012174Y011836D02*
X011714Y011836D01*
X011722Y011845D02*
X012166Y011845D01*
X012158Y011853D02*
X011730Y011853D01*
X011739Y011862D02*
X012145Y011862D01*
X012133Y011870D02*
X011751Y011870D01*
X011764Y011879D02*
X012121Y011879D01*
X012108Y011887D02*
X011777Y011887D01*
X011798Y011896D02*
X012089Y011896D01*
X012070Y011904D02*
X011820Y011904D01*
X011855Y011913D02*
X012047Y011913D01*
X012008Y011921D02*
X011904Y011921D01*
X012019Y011785D02*
X012216Y011785D01*
X012222Y011777D02*
X012033Y011777D01*
X012043Y011768D02*
X012227Y011768D01*
X012233Y011760D02*
X012049Y011760D01*
X012056Y011751D02*
X012236Y011751D01*
X012240Y011743D02*
X012062Y011743D01*
X012068Y011734D02*
X012243Y011734D01*
X012247Y011726D02*
X012073Y011726D01*
X012077Y011717D02*
X012250Y011717D01*
X012254Y011709D02*
X012081Y011709D01*
X012086Y011700D02*
X012256Y011700D01*
X012258Y011692D02*
X012090Y011692D01*
X012092Y011683D02*
X012260Y011683D01*
X012261Y011675D02*
X012095Y011675D01*
X012097Y011666D02*
X012263Y011666D01*
X012265Y011658D02*
X012099Y011658D01*
X013015Y011641D02*
X013015Y011615D01*
X011166Y011769D02*
X011149Y011748D01*
X011135Y011726D01*
X011124Y011702D01*
X011116Y011677D01*
X011109Y011666D02*
X010955Y011666D01*
X010954Y011658D02*
X011107Y011658D01*
X011106Y011649D02*
X010953Y011649D01*
X010952Y011641D02*
X011105Y011641D01*
X011104Y011632D02*
X010951Y011632D01*
X010950Y011624D02*
X011103Y011624D01*
X011591Y011668D02*
X011596Y011631D01*
X011598Y011593D01*
X011597Y011555D01*
X011592Y011517D01*
X011591Y011668D02*
X011584Y011701D01*
X011573Y011732D01*
X011558Y011762D01*
X011541Y011791D01*
X011520Y011817D01*
X011497Y011841D01*
X011472Y011862D01*
X011444Y011881D01*
X011281Y011262D02*
X011245Y011263D01*
X011209Y011267D01*
X011174Y011274D01*
X011139Y011284D01*
X010876Y011284D02*
X010706Y011284D01*
X010706Y011276D02*
X010876Y011276D01*
X010876Y011908D01*
X010719Y011908D01*
X010719Y011821D01*
X010710Y011823D01*
X010697Y011840D01*
X010667Y011871D01*
X010637Y011895D01*
X010602Y011911D01*
X010559Y011921D01*
X010505Y011926D01*
X010467Y011923D01*
X010431Y011913D01*
X010400Y011897D01*
X010372Y011876D01*
X010349Y011849D01*
X010332Y011819D01*
X010330Y011819D01*
X010329Y011820D01*
X010325Y011824D01*
X010307Y011843D01*
X010276Y011873D01*
X010241Y011898D01*
X010209Y011913D01*
X010175Y011923D01*
X010140Y011925D01*
X010090Y011921D01*
X010040Y011911D01*
X010006Y011898D01*
X009975Y011878D01*
X009950Y011852D01*
X009927Y011815D01*
X009912Y011774D01*
X009905Y011731D01*
X009905Y011275D01*
X010072Y011275D01*
X010072Y011680D01*
X010076Y011716D01*
X010089Y011749D01*
X010100Y011765D01*
X010114Y011778D01*
X010131Y011788D01*
X010150Y011793D01*
X010187Y011796D01*
X010223Y011792D01*
X010240Y011787D01*
X010256Y011778D01*
X010269Y011766D01*
X010285Y011744D01*
X010296Y011720D01*
X010302Y011694D01*
X010305Y011650D01*
X010305Y011275D01*
X010475Y011275D01*
X010475Y011691D01*
X010478Y011718D01*
X010488Y011743D01*
X010503Y011766D01*
X010517Y011779D01*
X010535Y011789D01*
X010553Y011795D01*
X010573Y011796D01*
X010607Y011794D01*
X010625Y011791D01*
X010642Y011783D01*
X010657Y011772D01*
X010690Y011734D01*
X010702Y011712D01*
X010707Y011687D01*
X010706Y011662D01*
X010706Y011276D01*
X010706Y011292D02*
X010876Y011292D01*
X010876Y011301D02*
X010706Y011301D01*
X010706Y011309D02*
X010876Y011309D01*
X010876Y011318D02*
X010706Y011318D01*
X010706Y011326D02*
X010876Y011326D01*
X010876Y011335D02*
X010706Y011335D01*
X010706Y011343D02*
X010876Y011343D01*
X010876Y011352D02*
X010706Y011352D01*
X010706Y011360D02*
X010876Y011360D01*
X010876Y011369D02*
X010706Y011369D01*
X010706Y011377D02*
X010876Y011377D01*
X010876Y011386D02*
X010706Y011386D01*
X010706Y011394D02*
X010876Y011394D01*
X010876Y011403D02*
X010706Y011403D01*
X010706Y011411D02*
X010876Y011411D01*
X010876Y011420D02*
X010706Y011420D01*
X010706Y011428D02*
X010876Y011428D01*
X010876Y011437D02*
X010706Y011437D01*
X010706Y011445D02*
X010876Y011445D01*
X010876Y011454D02*
X010706Y011454D01*
X010706Y011462D02*
X010876Y011462D01*
X010876Y011471D02*
X010706Y011471D01*
X010706Y011479D02*
X010876Y011479D01*
X010876Y011488D02*
X010706Y011488D01*
X010706Y011496D02*
X010876Y011496D01*
X010876Y011505D02*
X010706Y011505D01*
X010706Y011513D02*
X010876Y011513D01*
X010876Y011522D02*
X010706Y011522D01*
X010706Y011530D02*
X010876Y011530D01*
X010876Y011539D02*
X010706Y011539D01*
X010706Y011547D02*
X010876Y011547D01*
X010876Y011556D02*
X010706Y011556D01*
X010706Y011564D02*
X010876Y011564D01*
X010876Y011573D02*
X010706Y011573D01*
X010706Y011581D02*
X010876Y011581D01*
X010876Y011590D02*
X010706Y011590D01*
X010706Y011598D02*
X010876Y011598D01*
X010876Y011607D02*
X010706Y011607D01*
X010706Y011615D02*
X010876Y011615D01*
X010876Y011624D02*
X010706Y011624D01*
X010706Y011632D02*
X010876Y011632D01*
X010876Y011641D02*
X010706Y011641D01*
X010706Y011649D02*
X010876Y011649D01*
X010876Y011658D02*
X010706Y011658D01*
X010706Y011666D02*
X010876Y011666D01*
X010876Y011675D02*
X010707Y011675D01*
X010707Y011683D02*
X010876Y011683D01*
X010876Y011692D02*
X010706Y011692D01*
X010704Y011700D02*
X010876Y011700D01*
X010876Y011709D02*
X010702Y011709D01*
X010699Y011717D02*
X010876Y011717D01*
X010876Y011726D02*
X010694Y011726D01*
X010690Y011734D02*
X010876Y011734D01*
X010876Y011743D02*
X010683Y011743D01*
X010675Y011751D02*
X010876Y011751D01*
X010876Y011760D02*
X010668Y011760D01*
X010660Y011768D02*
X010876Y011768D01*
X010876Y011777D02*
X010651Y011777D01*
X010638Y011785D02*
X010876Y011785D01*
X010876Y011794D02*
X010609Y011794D01*
X010550Y011794D02*
X010208Y011794D01*
X010243Y011785D02*
X010528Y011785D01*
X010514Y011777D02*
X010257Y011777D01*
X010267Y011768D02*
X010505Y011768D01*
X010499Y011760D02*
X010274Y011760D01*
X010280Y011751D02*
X010493Y011751D01*
X010487Y011743D02*
X010286Y011743D01*
X010290Y011734D02*
X010484Y011734D01*
X010481Y011726D02*
X010293Y011726D01*
X010297Y011717D02*
X010478Y011717D01*
X010477Y011709D02*
X010299Y011709D01*
X010301Y011700D02*
X010476Y011700D01*
X010475Y011692D02*
X010302Y011692D01*
X010303Y011683D02*
X010475Y011683D01*
X010475Y011675D02*
X010303Y011675D01*
X010304Y011666D02*
X010475Y011666D01*
X010475Y011658D02*
X010304Y011658D01*
X010305Y011649D02*
X010475Y011649D01*
X010475Y011641D02*
X010305Y011641D01*
X010305Y011632D02*
X010475Y011632D01*
X010475Y011624D02*
X010305Y011624D01*
X010305Y011615D02*
X010475Y011615D01*
X010475Y011607D02*
X010305Y011607D01*
X010305Y011598D02*
X010475Y011598D01*
X010475Y011590D02*
X010305Y011590D01*
X010305Y011581D02*
X010475Y011581D01*
X010475Y011573D02*
X010305Y011573D01*
X010305Y011564D02*
X010475Y011564D01*
X010475Y011556D02*
X010305Y011556D01*
X010305Y011547D02*
X010475Y011547D01*
X010475Y011539D02*
X010305Y011539D01*
X010305Y011530D02*
X010475Y011530D01*
X010475Y011522D02*
X010305Y011522D01*
X010305Y011513D02*
X010475Y011513D01*
X010475Y011505D02*
X010305Y011505D01*
X010305Y011496D02*
X010475Y011496D01*
X010475Y011488D02*
X010305Y011488D01*
X010305Y011479D02*
X010475Y011479D01*
X010475Y011471D02*
X010305Y011471D01*
X010305Y011462D02*
X010475Y011462D01*
X010475Y011454D02*
X010305Y011454D01*
X010305Y011445D02*
X010475Y011445D01*
X010475Y011437D02*
X010305Y011437D01*
X010305Y011428D02*
X010475Y011428D01*
X010475Y011420D02*
X010305Y011420D01*
X010305Y011411D02*
X010475Y011411D01*
X010475Y011403D02*
X010305Y011403D01*
X010305Y011394D02*
X010475Y011394D01*
X010475Y011386D02*
X010305Y011386D01*
X010305Y011377D02*
X010475Y011377D01*
X010475Y011369D02*
X010305Y011369D01*
X010305Y011360D02*
X010475Y011360D01*
X010475Y011352D02*
X010305Y011352D01*
X010305Y011343D02*
X010475Y011343D01*
X010475Y011335D02*
X010305Y011335D01*
X010305Y011326D02*
X010475Y011326D01*
X010475Y011318D02*
X010305Y011318D01*
X010305Y011309D02*
X010475Y011309D01*
X010475Y011301D02*
X010305Y011301D01*
X010305Y011292D02*
X010475Y011292D01*
X010475Y011284D02*
X010305Y011284D01*
X010305Y011275D02*
X010475Y011275D01*
X010072Y011275D02*
X009905Y011275D01*
X009905Y011284D02*
X010072Y011284D01*
X010072Y011292D02*
X009905Y011292D01*
X009905Y011301D02*
X010072Y011301D01*
X010072Y011309D02*
X009905Y011309D01*
X009905Y011318D02*
X010072Y011318D01*
X010072Y011326D02*
X009905Y011326D01*
X009905Y011335D02*
X010072Y011335D01*
X010072Y011343D02*
X009905Y011343D01*
X009905Y011352D02*
X010072Y011352D01*
X010072Y011360D02*
X009905Y011360D01*
X009905Y011369D02*
X010072Y011369D01*
X010072Y011377D02*
X009905Y011377D01*
X009905Y011386D02*
X010072Y011386D01*
X010072Y011394D02*
X009905Y011394D01*
X009905Y011403D02*
X010072Y011403D01*
X010072Y011411D02*
X009905Y011411D01*
X009905Y011420D02*
X010072Y011420D01*
X010072Y011428D02*
X009905Y011428D01*
X009905Y011437D02*
X010072Y011437D01*
X010072Y011445D02*
X009905Y011445D01*
X009905Y011454D02*
X010072Y011454D01*
X010072Y011462D02*
X009905Y011462D01*
X009905Y011471D02*
X010072Y011471D01*
X010072Y011479D02*
X009905Y011479D01*
X009905Y011488D02*
X010072Y011488D01*
X010072Y011496D02*
X009905Y011496D01*
X009905Y011505D02*
X010072Y011505D01*
X010072Y011513D02*
X009905Y011513D01*
X009905Y011522D02*
X010072Y011522D01*
X010072Y011530D02*
X009905Y011530D01*
X009905Y011539D02*
X010072Y011539D01*
X010072Y011547D02*
X009905Y011547D01*
X009905Y011556D02*
X010072Y011556D01*
X010072Y011564D02*
X009905Y011564D01*
X009905Y011573D02*
X010072Y011573D01*
X010072Y011581D02*
X009905Y011581D01*
X009905Y011590D02*
X010072Y011590D01*
X010072Y011598D02*
X009905Y011598D01*
X009905Y011607D02*
X010072Y011607D01*
X010072Y011615D02*
X009905Y011615D01*
X009905Y011624D02*
X010072Y011624D01*
X010072Y011632D02*
X009905Y011632D01*
X009905Y011641D02*
X010072Y011641D01*
X010072Y011649D02*
X009905Y011649D01*
X009905Y011658D02*
X010072Y011658D01*
X010072Y011666D02*
X009905Y011666D01*
X009905Y011675D02*
X010072Y011675D01*
X010072Y011683D02*
X009905Y011683D01*
X009905Y011692D02*
X010073Y011692D01*
X010074Y011700D02*
X009905Y011700D01*
X009905Y011709D02*
X010075Y011709D01*
X010077Y011717D02*
X009905Y011717D01*
X009905Y011726D02*
X010080Y011726D01*
X010083Y011734D02*
X009905Y011734D01*
X009907Y011743D02*
X010087Y011743D01*
X010090Y011751D02*
X009908Y011751D01*
X009909Y011760D02*
X010096Y011760D01*
X010103Y011768D02*
X009911Y011768D01*
X009913Y011777D02*
X010113Y011777D01*
X010127Y011785D02*
X009916Y011785D01*
X009919Y011794D02*
X010157Y011794D01*
X010181Y011921D02*
X010093Y011921D01*
X010048Y011913D02*
X010211Y011913D01*
X010229Y011904D02*
X010022Y011904D01*
X010002Y011896D02*
X010244Y011896D01*
X010256Y011887D02*
X009989Y011887D01*
X009976Y011879D02*
X010268Y011879D01*
X010279Y011870D02*
X009968Y011870D01*
X009959Y011862D02*
X010288Y011862D01*
X010297Y011853D02*
X009951Y011853D01*
X009945Y011845D02*
X010305Y011845D01*
X010314Y011836D02*
X009940Y011836D01*
X009935Y011828D02*
X010322Y011828D01*
X010332Y011819D02*
X009929Y011819D01*
X009925Y011811D02*
X010876Y011811D01*
X010876Y011819D02*
X010332Y011819D01*
X010337Y011828D02*
X010707Y011828D01*
X010700Y011836D02*
X010342Y011836D01*
X010347Y011845D02*
X010693Y011845D01*
X010684Y011853D02*
X010353Y011853D01*
X010360Y011862D02*
X010676Y011862D01*
X010668Y011870D02*
X010368Y011870D01*
X010376Y011879D02*
X010658Y011879D01*
X010647Y011887D02*
X010387Y011887D01*
X010398Y011896D02*
X010636Y011896D01*
X010617Y011904D02*
X010413Y011904D01*
X010430Y011913D02*
X010595Y011913D01*
X010558Y011921D02*
X010460Y011921D01*
X010719Y011904D02*
X010876Y011904D01*
X010876Y011896D02*
X010719Y011896D01*
X010719Y011887D02*
X010876Y011887D01*
X010876Y011879D02*
X010719Y011879D01*
X010719Y011870D02*
X010876Y011870D01*
X010876Y011862D02*
X010719Y011862D01*
X010719Y011853D02*
X010876Y011853D01*
X010876Y011845D02*
X010719Y011845D01*
X010719Y011836D02*
X010876Y011836D01*
X010876Y011828D02*
X010719Y011828D01*
X010876Y011802D02*
X009922Y011802D01*
X011427Y011642D02*
X011429Y011609D01*
X011429Y011577D01*
X011426Y011545D01*
X011498Y011341D02*
X011471Y011321D01*
X011442Y011304D01*
X011412Y011289D01*
X011380Y011278D01*
X011348Y011269D01*
X011315Y011264D01*
X011281Y011262D01*
X011176Y011918D02*
X011205Y011924D01*
X011234Y011928D01*
X011264Y011929D01*
X011208Y011794D02*
X011193Y011787D01*
X011180Y011778D01*
X011167Y011768D01*
X011287Y011802D02*
X011306Y011801D01*
X011324Y011796D01*
X011342Y011789D01*
X011358Y011780D01*
X011372Y011768D01*
X011385Y011754D01*
X011270Y011804D02*
X011249Y011803D01*
X011228Y011800D01*
X011208Y011794D01*
X011385Y011754D02*
X011398Y011734D01*
X011410Y011712D01*
X011418Y011690D01*
X011424Y011666D01*
X011427Y011642D01*
X011050Y011852D02*
X011026Y011828D01*
X011004Y011802D01*
X010985Y011774D01*
X010970Y011744D01*
X010957Y011712D01*
X010949Y011679D01*
X010944Y011646D01*
X010942Y011612D01*
X011050Y011852D02*
X011072Y011870D01*
X011097Y011886D01*
X011122Y011899D01*
X011149Y011910D01*
X011176Y011918D01*
X011278Y011929D02*
X011313Y011926D01*
X011347Y011919D01*
X011381Y011909D01*
X011413Y011896D01*
X011444Y011880D01*
X012860Y011781D02*
X012904Y011779D01*
D13*
X012410Y011368D03*
D14*
X010900Y018000D02*
X010400Y018000D01*
X010150Y018250D01*
X010150Y018750D01*
X010400Y019000D01*
X010150Y019250D01*
X010150Y019750D01*
X010400Y020000D01*
X010900Y020000D01*
X011150Y019750D01*
X011150Y019250D01*
X010900Y019000D01*
X011150Y018750D01*
X011150Y018250D01*
X010900Y018000D01*
M02*
