%
M48
M72
T01C0.0276
T02C0.0354
T03C0.0394
T04C0.0400
T05C0.1260
T06C0.1300
%
T01
X7119Y13319
X7119Y14106
X7119Y14894
X7119Y15681
X7150Y18106
X7150Y18894
X7150Y20606
X7150Y21394
T02
X12150Y12500
X15150Y12500
T03
X19150Y15250
X18150Y15750
X19150Y16250
X18150Y16750
X19150Y17250
X18150Y17750
X19150Y18250
X18150Y18750
T04
X16650Y18500
X16650Y19500
X10650Y19500
X9650Y19500
X9650Y18500
X10650Y18500
X9650Y15500
X9650Y14500
X9650Y13500
X16650Y13500
X16650Y14500
X16650Y15500
T05
X21650Y14750
X21650Y19250
T06
X5650Y11000
X21650Y11000
X21650Y23000
X5650Y23000
M30
