%
M48
M72
T01C0.0200
T02C0.0236
T03C0.0276
T04C0.0320
T05C0.0354
T06C0.0394
T07C0.0400
T08C0.0472
T09C0.1180
T10C0.1260
T11C0.7874
%
T01
X30083Y25390
X31333Y29140
X30833Y30140
X32333Y29640
X31333Y33640
X36333Y33640
X37083Y39390
X30583Y39390
X24083Y39390
X17583Y39390
X16333Y34140
X11083Y39390
X6333Y35140
X4583Y39390
T02
X9333Y33640
X22333Y16640
T03
X35302Y16746
X35302Y17534
X35302Y18321
X35302Y15959
X35302Y20959
X35302Y21746
X35302Y22534
X35302Y23321
X35302Y25959
X35302Y26746
X35302Y27534
X35302Y28321
T04
X39833Y5140
X39833Y4140
T05
X39833Y6640
X39833Y9640
X39833Y34640
X39833Y35640
X36833Y35640
X36833Y34640
X33333Y34640
X33333Y35640
X30333Y35640
X30333Y34640
X26833Y34640
X26833Y35640
X23833Y35640
X23833Y34640
X20333Y34640
X20333Y35640
X17333Y35640
X17333Y34640
X13833Y34640
X13833Y35640
X10833Y35640
X10833Y34640
X7333Y34640
X7333Y35640
X4333Y35640
X4333Y34640
T06
X4083Y37140
X5083Y37140
X4583Y38140
X5583Y38140
X6083Y37140
X7083Y37140
X6583Y38140
X7583Y38140
X10583Y37140
X11583Y37140
X11083Y38140
X12083Y38140
X13083Y38140
X14083Y38140
X13583Y37140
X12583Y37140
X17083Y37140
X17583Y38140
X18083Y37140
X19083Y37140
X20083Y37140
X19583Y38140
X18583Y38140
X20583Y38140
X23583Y37140
X24083Y38140
X25083Y38140
X26083Y38140
X27083Y38140
X26583Y37140
X25583Y37140
X24583Y37140
X30083Y37140
X30583Y38140
X31583Y38140
X32583Y38140
X32083Y37140
X31083Y37140
X33083Y37140
X33583Y38140
X36583Y37140
X37583Y37140
X38583Y37140
X38083Y38140
X37083Y38140
X39083Y38140
X39583Y37140
X40083Y38140
T07
X39903Y31640
X39883Y30640
X38883Y30640
X38763Y31640
X38783Y29640
X39783Y29640
X39883Y28640
X38883Y28640
X38783Y27640
X39783Y27640
X39883Y26640
X38883Y26640
X38783Y25640
X39783Y25640
X39883Y24640
X38883Y24640
X38783Y23640
X39783Y23640
X39883Y22640
X38883Y22640
X38783Y21640
X39783Y21640
X39883Y20640
X38883Y20640
X38783Y19640
X39783Y19640
X39883Y18640
X38883Y18640
X38783Y17640
X39783Y17640
X39883Y16640
X38883Y16640
X38783Y15640
X38763Y14640
X39903Y14640
X39783Y15640
X37833Y12590
X36833Y12690
X35833Y12590
X34833Y12690
X33833Y12590
X32833Y12690
X31833Y12590
X30833Y12690
X28833Y12590
X27833Y12690
X26833Y12590
X25833Y12690
X24833Y12590
X23833Y12690
X22833Y12590
X21833Y12690
X19833Y12540
X18833Y12640
X17833Y12540
X16833Y12640
X15833Y12540
X14833Y12640
X15333Y5640
X15333Y4640
X27333Y4640
X27333Y5640
X28333Y5640
X28333Y4640
X26833Y31590
X25833Y31690
X24833Y31590
X23833Y31690
X22833Y31590
X21833Y31690
X20833Y31590
X19833Y31690
X18333Y31590
X17333Y31690
X16333Y31590
X15333Y31690
X14333Y31590
X13333Y31690
X12333Y31590
X11333Y31690
X28833Y31690
X29833Y31590
X30833Y31690
X31833Y31590
X32833Y31690
X33833Y31590
X34833Y31690
X35833Y31590
T08
X4333Y20140
X4333Y18762
T09
X5546Y22159
X3915Y23630
T10
X6797Y23640
X7833Y31640
X8083Y40640
X10083Y40640
X14583Y40640
X16583Y40640
X21083Y40640
X23083Y40640
X27583Y40640
X29583Y40640
X34083Y40640
X36083Y40640
X40583Y40640
X37333Y31640
X39833Y12640
X7833Y12640
X3583Y40640
T11
X9833Y5140
X21833Y5140
X33833Y5140
M30
