G75*
G70*
%OFA0B0*%
%FSLAX24Y24*%
%IPPOS*%
%LPD*%
%AMOC8*
5,1,8,0,0,1.08239X$1,22.5*
%
%ADD10C,0.0120*%
%ADD11C,0.0160*%
%ADD12C,0.0080*%
%ADD13C,0.0100*%
%ADD14C,0.0060*%
%ADD15C,0.0110*%
%ADD16C,0.0230*%
%ADD17C,0.0150*%
%ADD18C,0.0010*%
%ADD19R,0.0195X0.0191*%
%ADD20C,0.0050*%
D10*
X013733Y029390D02*
X013333Y029790D01*
X013733Y029390D02*
X017833Y029390D01*
X020083Y029390D02*
X024433Y029390D01*
X024833Y029790D01*
X038833Y032140D02*
X038833Y032390D01*
X039833Y032390D01*
X039833Y032140D01*
X039833Y013890D02*
X039833Y013690D01*
X038833Y013690D01*
X038833Y013890D01*
D11*
X026833Y029640D02*
X026583Y030140D01*
X026833Y029890D01*
X026833Y030140D01*
X027083Y030140D01*
X026833Y029890D01*
X026833Y029640D02*
X027083Y030140D01*
X026833Y030140D02*
X026583Y030140D01*
X026083Y029640D02*
X025833Y029890D01*
X025833Y029640D01*
X026083Y029640D01*
X025833Y030140D01*
X025583Y029640D01*
X025833Y029890D01*
X025833Y029640D02*
X025583Y029640D01*
D12*
X025563Y029266D02*
X026043Y028946D01*
X026043Y029266D02*
X025563Y028946D01*
X025563Y028750D02*
X025563Y028430D01*
X025563Y028590D02*
X026043Y028590D01*
X026563Y028670D02*
X026643Y028750D01*
X026803Y028750D01*
X026883Y028670D01*
X026883Y028430D01*
X026883Y028590D02*
X027043Y028750D01*
X027043Y028946D02*
X026563Y029266D01*
X026563Y028946D02*
X027043Y029266D01*
X026563Y028670D02*
X026563Y028430D01*
X027043Y028430D01*
X026963Y030430D02*
X026643Y030430D01*
X026563Y030510D01*
X026563Y030670D01*
X026643Y030750D01*
X026963Y030430D01*
X027043Y030510D01*
X027043Y030670D01*
X026963Y030750D01*
X026643Y030750D01*
X026583Y031140D02*
X026333Y031390D01*
X026083Y031140D01*
X025583Y031140D01*
X025333Y031390D01*
X025083Y031140D01*
X024583Y031140D01*
X024333Y031390D01*
X024083Y031140D01*
X023583Y031140D01*
X023333Y031390D01*
X023083Y031140D01*
X022583Y031140D01*
X022333Y031390D01*
X022083Y031140D01*
X021583Y031140D01*
X021333Y031390D01*
X021083Y031140D01*
X020583Y031140D01*
X020333Y031390D01*
X020083Y031140D01*
X019583Y031140D01*
X019333Y031390D01*
X019333Y031890D01*
X019583Y032140D01*
X020083Y032140D01*
X020333Y031890D01*
X020583Y032140D01*
X021083Y032140D01*
X021333Y031890D01*
X021583Y032140D01*
X022083Y032140D01*
X022333Y031890D01*
X022583Y032140D01*
X023083Y032140D01*
X023333Y031890D01*
X023583Y032140D01*
X024083Y032140D01*
X024333Y031890D01*
X024583Y032140D01*
X025083Y032140D01*
X025333Y031890D01*
X025583Y032140D01*
X026083Y032140D01*
X026333Y031890D01*
X026583Y032140D01*
X027083Y032140D01*
X027333Y031890D01*
X027333Y031390D01*
X027083Y031140D01*
X026583Y031140D01*
X026043Y030750D02*
X026043Y030430D01*
X026043Y030590D02*
X025563Y030590D01*
X025723Y030430D01*
X025043Y030430D02*
X025043Y030750D01*
X025043Y030430D02*
X024723Y030750D01*
X024643Y030750D01*
X024563Y030670D01*
X024563Y030510D01*
X024643Y030430D01*
X024043Y030510D02*
X023963Y030430D01*
X024043Y030510D02*
X024043Y030670D01*
X023963Y030750D01*
X023883Y030750D01*
X023803Y030670D01*
X023803Y030590D01*
X023803Y030670D02*
X023723Y030750D01*
X023643Y030750D01*
X023563Y030670D01*
X023563Y030510D01*
X023643Y030430D01*
X023043Y030670D02*
X022563Y030670D01*
X022803Y030430D01*
X022803Y030750D01*
X022043Y030670D02*
X022043Y030510D01*
X021963Y030430D01*
X021803Y030430D02*
X021723Y030590D01*
X021723Y030670D01*
X021803Y030750D01*
X021963Y030750D01*
X022043Y030670D01*
X021803Y030430D02*
X021563Y030430D01*
X021563Y030750D01*
X021043Y030670D02*
X021043Y030510D01*
X020963Y030430D01*
X020803Y030430D01*
X020803Y030670D01*
X020883Y030750D01*
X020963Y030750D01*
X021043Y030670D01*
X020803Y030430D02*
X020643Y030590D01*
X020563Y030750D01*
X020043Y030430D02*
X019963Y030430D01*
X019643Y030750D01*
X019563Y030750D01*
X019563Y030430D01*
X018543Y030510D02*
X018463Y030430D01*
X018383Y030430D01*
X018303Y030510D01*
X018303Y030670D01*
X018383Y030750D01*
X018463Y030750D01*
X018543Y030670D01*
X018543Y030510D01*
X018303Y030510D02*
X018223Y030430D01*
X018143Y030430D01*
X018063Y030510D01*
X018063Y030670D01*
X018143Y030750D01*
X018223Y030750D01*
X018303Y030670D01*
X018083Y031140D02*
X017833Y031390D01*
X017583Y031140D01*
X017083Y031140D01*
X016833Y031390D01*
X016583Y031140D01*
X016083Y031140D01*
X015833Y031390D01*
X015583Y031140D01*
X015083Y031140D01*
X014833Y031390D01*
X014583Y031140D01*
X014083Y031140D01*
X013833Y031390D01*
X013583Y031140D01*
X013083Y031140D01*
X012833Y031390D01*
X012583Y031140D01*
X012083Y031140D01*
X011833Y031390D01*
X011583Y031140D01*
X011083Y031140D01*
X010833Y031390D01*
X010833Y031890D01*
X011083Y032140D01*
X011583Y032140D01*
X011833Y031890D01*
X012083Y032140D01*
X012583Y032140D01*
X012833Y031890D01*
X013083Y032140D01*
X013583Y032140D01*
X013833Y031890D01*
X014083Y032140D01*
X014583Y032140D01*
X014833Y031890D01*
X015083Y032140D01*
X015583Y032140D01*
X015833Y031890D01*
X016083Y032140D01*
X016583Y032140D01*
X016833Y031890D01*
X017083Y032140D01*
X017583Y032140D01*
X017833Y031890D01*
X018083Y032140D01*
X018583Y032140D01*
X018833Y031890D01*
X018833Y031390D01*
X018583Y031140D01*
X018083Y031140D01*
X017543Y030670D02*
X017543Y030510D01*
X017463Y030430D01*
X017303Y030510D02*
X017303Y030750D01*
X017463Y030750D02*
X017143Y030750D01*
X017063Y030670D01*
X017063Y030510D01*
X017143Y030430D01*
X017223Y030430D01*
X017303Y030510D01*
X017543Y030670D02*
X017463Y030750D01*
X016543Y030686D02*
X016543Y030526D01*
X016463Y030446D01*
X016143Y030766D01*
X016463Y030766D01*
X016543Y030686D01*
X016463Y030446D02*
X016143Y030446D01*
X016063Y030526D01*
X016063Y030686D01*
X016143Y030766D01*
X015543Y030766D02*
X015543Y030446D01*
X015543Y030606D02*
X015063Y030606D01*
X015223Y030446D01*
X015543Y030250D02*
X015543Y029930D01*
X015543Y030090D02*
X015063Y030090D01*
X015223Y029930D01*
X014543Y029930D02*
X014543Y030250D01*
X014543Y030090D02*
X014063Y030090D01*
X014223Y029930D01*
X014143Y030446D02*
X014063Y030526D01*
X014063Y030686D01*
X014143Y030766D01*
X014223Y030766D01*
X014543Y030446D01*
X014543Y030766D01*
X013543Y030686D02*
X013543Y030526D01*
X013463Y030446D01*
X013543Y030250D02*
X013543Y029930D01*
X013543Y030090D02*
X013063Y030090D01*
X013223Y029930D01*
X013143Y030446D02*
X013063Y030526D01*
X013063Y030686D01*
X013143Y030766D01*
X013223Y030766D01*
X013303Y030686D01*
X013383Y030766D01*
X013463Y030766D01*
X013543Y030686D01*
X013303Y030686D02*
X013303Y030606D01*
X012386Y030616D02*
X012386Y030856D01*
X012306Y030936D01*
X011986Y030936D01*
X011905Y030856D01*
X011905Y030616D01*
X012386Y030616D01*
X012386Y030421D02*
X011905Y030421D01*
X011905Y030100D02*
X012386Y030421D01*
X012386Y030100D02*
X011905Y030100D01*
X011986Y029905D02*
X011905Y029825D01*
X011905Y029665D01*
X011986Y029585D01*
X012306Y029585D01*
X012386Y029665D01*
X012386Y029825D01*
X012306Y029905D01*
X012146Y029905D01*
X012146Y029745D01*
X011432Y029590D02*
X010951Y029590D01*
X010951Y029831D01*
X011031Y029911D01*
X011191Y029911D01*
X011271Y029831D01*
X011271Y029590D01*
X011271Y029751D02*
X011432Y029911D01*
X011432Y030106D02*
X011432Y030426D01*
X011432Y030622D02*
X010951Y030622D01*
X010951Y030942D01*
X011191Y030782D02*
X011191Y030622D01*
X010951Y030426D02*
X010951Y030106D01*
X011432Y030106D01*
X011191Y030106D02*
X011191Y030266D01*
X011191Y029395D02*
X011191Y029075D01*
X011111Y029075D02*
X011432Y029075D01*
X011432Y029395D02*
X011111Y029395D01*
X010951Y029235D01*
X011111Y029075D01*
X006947Y025352D02*
X006947Y024585D01*
X006947Y025352D02*
X002614Y025352D01*
X002614Y021928D01*
X004601Y021928D01*
X005672Y020829D02*
X003231Y020829D01*
X003231Y018073D01*
X002916Y018073D01*
X002916Y020829D01*
X003231Y020829D01*
X005672Y020829D02*
X005672Y018073D01*
X003231Y018073D01*
X006451Y021928D02*
X006947Y021928D01*
X006947Y022695D01*
X014631Y014706D02*
X014551Y014626D01*
X014551Y014466D01*
X014631Y014386D01*
X014711Y014386D01*
X014791Y014466D01*
X014791Y014626D01*
X014871Y014706D01*
X014952Y014706D01*
X015032Y014626D01*
X015032Y014466D01*
X014952Y014386D01*
X015032Y014191D02*
X015032Y013870D01*
X014551Y013870D01*
X014551Y014191D01*
X014791Y014031D02*
X014791Y013870D01*
X014791Y013675D02*
X014871Y013595D01*
X014871Y013355D01*
X014871Y013515D02*
X015032Y013675D01*
X014791Y013675D02*
X014631Y013675D01*
X014551Y013595D01*
X014551Y013355D01*
X015032Y013355D01*
X015083Y013090D02*
X015333Y012840D01*
X015333Y012340D01*
X015083Y012090D01*
X014583Y012090D01*
X014333Y012340D01*
X014333Y012840D01*
X014583Y013090D01*
X015083Y013090D01*
X015333Y012840D02*
X015583Y013090D01*
X016083Y013090D01*
X016333Y012840D01*
X016333Y012340D01*
X016083Y012090D01*
X015583Y012090D01*
X015333Y012340D01*
X016333Y012340D02*
X016583Y012090D01*
X017083Y012090D01*
X017333Y012340D01*
X017333Y012840D01*
X017583Y013090D01*
X018083Y013090D01*
X018333Y012840D01*
X018333Y012340D01*
X018083Y012090D01*
X017583Y012090D01*
X017333Y012340D01*
X017333Y012840D02*
X017083Y013090D01*
X016583Y013090D01*
X016333Y012840D01*
X016548Y013362D02*
X016468Y013442D01*
X016548Y013362D02*
X016708Y013362D01*
X016788Y013442D01*
X016788Y013602D01*
X016708Y013682D01*
X016628Y013682D01*
X016468Y013602D01*
X016468Y013842D01*
X016788Y013842D01*
X016984Y013842D02*
X016984Y013522D01*
X017144Y013362D01*
X017304Y013522D01*
X017304Y013842D01*
X017668Y013762D02*
X017668Y013442D01*
X017748Y013362D01*
X017908Y013362D01*
X017988Y013442D01*
X017988Y013602D01*
X017828Y013602D01*
X017668Y013762D02*
X017748Y013842D01*
X017908Y013842D01*
X017988Y013762D01*
X018184Y013842D02*
X018184Y013362D01*
X018504Y013362D02*
X018184Y013842D01*
X018504Y013842D02*
X018504Y013362D01*
X018699Y013362D02*
X018940Y013362D01*
X019020Y013442D01*
X019020Y013762D01*
X018940Y013842D01*
X018699Y013842D01*
X018699Y013362D01*
X018583Y013090D02*
X019083Y013090D01*
X019333Y012840D01*
X019333Y012340D01*
X019083Y012090D01*
X018583Y012090D01*
X018333Y012340D01*
X018333Y012840D02*
X018583Y013090D01*
X019333Y012840D02*
X019583Y013090D01*
X020083Y013090D01*
X020333Y012840D01*
X020333Y012340D01*
X020083Y012090D01*
X019583Y012090D01*
X019333Y012340D01*
X019548Y013362D02*
X019708Y013522D01*
X019708Y013842D01*
X019904Y013842D02*
X020064Y013842D01*
X019984Y013842D02*
X019984Y013362D01*
X019904Y013362D02*
X020064Y013362D01*
X020248Y013362D02*
X020248Y013842D01*
X020568Y013362D01*
X020568Y013842D01*
X019548Y013362D02*
X019388Y013522D01*
X019388Y013842D01*
X021333Y012890D02*
X021333Y012390D01*
X021583Y012140D01*
X022083Y012140D01*
X022333Y012390D01*
X022583Y012140D01*
X023083Y012140D01*
X023333Y012390D01*
X023583Y012140D01*
X024083Y012140D01*
X024333Y012390D01*
X024583Y012140D01*
X025083Y012140D01*
X025333Y012390D01*
X025583Y012140D01*
X026083Y012140D01*
X026333Y012390D01*
X026583Y012140D01*
X027083Y012140D01*
X027333Y012390D01*
X027583Y012140D01*
X028083Y012140D01*
X028333Y012390D01*
X028583Y012140D01*
X029083Y012140D01*
X029333Y012390D01*
X029333Y012890D01*
X029083Y013140D01*
X028583Y013140D01*
X028333Y012890D01*
X028083Y013140D01*
X027583Y013140D01*
X027333Y012890D01*
X027083Y013140D01*
X026583Y013140D01*
X026333Y012890D01*
X026083Y013140D01*
X025583Y013140D01*
X025333Y012890D01*
X025083Y013140D01*
X024583Y013140D01*
X024333Y012890D01*
X024083Y013140D01*
X023583Y013140D01*
X023333Y012890D01*
X023083Y013140D01*
X022583Y013140D01*
X022333Y012890D01*
X022083Y013140D01*
X021583Y013140D01*
X021333Y012890D01*
X021693Y013480D02*
X021613Y013560D01*
X021613Y013720D01*
X021693Y013800D01*
X022013Y013480D01*
X022093Y013560D01*
X022093Y013720D01*
X022013Y013800D01*
X021693Y013800D01*
X021693Y013480D02*
X022013Y013480D01*
X022513Y013640D02*
X022993Y013640D01*
X022993Y013480D02*
X022993Y013800D01*
X022673Y013480D02*
X022513Y013640D01*
X023613Y013560D02*
X023693Y013480D01*
X023613Y013560D02*
X023613Y013720D01*
X023693Y013800D01*
X023773Y013800D01*
X024093Y013480D01*
X024093Y013800D01*
X024613Y013720D02*
X024693Y013800D01*
X024773Y013800D01*
X024853Y013720D01*
X024933Y013800D01*
X025013Y013800D01*
X025093Y013720D01*
X025093Y013560D01*
X025013Y013480D01*
X024853Y013640D02*
X024853Y013720D01*
X024613Y013720D02*
X024613Y013560D01*
X024693Y013480D01*
X025613Y013720D02*
X025853Y013480D01*
X025853Y013800D01*
X026093Y013720D02*
X025613Y013720D01*
X026513Y013800D02*
X026513Y013480D01*
X026753Y013480D01*
X026673Y013640D01*
X026673Y013720D01*
X026753Y013800D01*
X026913Y013800D01*
X026993Y013720D01*
X026993Y013560D01*
X026913Y013480D01*
X027513Y013800D02*
X027593Y013640D01*
X027753Y013480D01*
X027753Y013720D01*
X027833Y013800D01*
X027913Y013800D01*
X027993Y013720D01*
X027993Y013560D01*
X027913Y013480D01*
X027753Y013480D01*
X028613Y013480D02*
X028613Y013800D01*
X028693Y013800D01*
X029013Y013480D01*
X029093Y013480D01*
X030333Y012890D02*
X030333Y012390D01*
X030583Y012140D01*
X031083Y012140D01*
X031333Y012390D01*
X031583Y012140D01*
X032083Y012140D01*
X032333Y012390D01*
X032583Y012140D01*
X033083Y012140D01*
X033333Y012390D01*
X033583Y012140D01*
X034083Y012140D01*
X034333Y012390D01*
X034583Y012140D01*
X035083Y012140D01*
X035333Y012390D01*
X035583Y012140D01*
X036083Y012140D01*
X036333Y012390D01*
X036583Y012140D01*
X037083Y012140D01*
X037333Y012390D01*
X037583Y012140D01*
X038083Y012140D01*
X038333Y012390D01*
X038333Y012890D01*
X038083Y013140D01*
X037583Y013140D01*
X037333Y012890D01*
X037083Y013140D01*
X036583Y013140D01*
X036333Y012890D01*
X036083Y013140D01*
X035583Y013140D01*
X035333Y012890D01*
X035083Y013140D01*
X034583Y013140D01*
X034333Y012890D01*
X034083Y013140D01*
X033583Y013140D01*
X033333Y012890D01*
X033083Y013140D01*
X032583Y013140D01*
X032333Y012890D01*
X032083Y013140D01*
X031583Y013140D01*
X031333Y012890D01*
X031083Y013140D01*
X030583Y013140D01*
X030333Y012890D01*
X030693Y013480D02*
X030773Y013480D01*
X030853Y013560D01*
X030853Y013720D01*
X030933Y013800D01*
X031013Y013800D01*
X031093Y013720D01*
X031093Y013560D01*
X031013Y013480D01*
X030933Y013480D01*
X030853Y013560D01*
X030853Y013720D02*
X030773Y013800D01*
X030693Y013800D01*
X030613Y013720D01*
X030613Y013560D01*
X030693Y013480D01*
X031613Y013560D02*
X031693Y013480D01*
X031773Y013480D01*
X031853Y013560D01*
X031853Y013800D01*
X032013Y013800D02*
X031693Y013800D01*
X031613Y013720D01*
X031613Y013560D01*
X032013Y013480D02*
X032093Y013560D01*
X032093Y013720D01*
X032013Y013800D01*
X032613Y013640D02*
X033093Y013640D01*
X033093Y013480D02*
X033093Y013800D01*
X033013Y013996D02*
X032693Y014316D01*
X033013Y014316D01*
X033093Y014236D01*
X033093Y014076D01*
X033013Y013996D01*
X032693Y013996D01*
X032613Y014076D01*
X032613Y014236D01*
X032693Y014316D01*
X032900Y014778D02*
X032900Y019502D01*
X035814Y019502D01*
X035814Y019187D01*
X035302Y019187D01*
X035302Y018912D01*
X035814Y019778D02*
X032900Y019778D01*
X032900Y024502D01*
X035814Y024502D01*
X035814Y024187D01*
X035302Y024187D01*
X035302Y023912D01*
X035814Y024778D02*
X032900Y024778D01*
X032900Y029502D01*
X035814Y029502D01*
X035814Y029187D01*
X035302Y029187D01*
X035302Y028912D01*
X035043Y030080D02*
X034723Y030400D01*
X034643Y030400D01*
X034563Y030320D01*
X034563Y030160D01*
X034643Y030080D01*
X035043Y030080D02*
X035043Y030400D01*
X034963Y030596D02*
X034643Y030916D01*
X034963Y030916D01*
X035043Y030836D01*
X035043Y030676D01*
X034963Y030596D01*
X034643Y030596D01*
X034563Y030676D01*
X034563Y030836D01*
X034643Y030916D01*
X034583Y031140D02*
X034333Y031390D01*
X034083Y031140D01*
X033583Y031140D01*
X033333Y031390D01*
X033083Y031140D01*
X032583Y031140D01*
X032333Y031390D01*
X032083Y031140D01*
X031583Y031140D01*
X031333Y031390D01*
X031083Y031140D01*
X030583Y031140D01*
X030333Y031390D01*
X030083Y031140D01*
X029583Y031140D01*
X029333Y031390D01*
X029083Y031140D01*
X028583Y031140D01*
X028333Y031390D01*
X028333Y031890D01*
X028583Y032140D01*
X029083Y032140D01*
X029333Y031890D01*
X029583Y032140D01*
X030083Y032140D01*
X030333Y031890D01*
X030583Y032140D01*
X031083Y032140D01*
X031333Y031890D01*
X031583Y032140D01*
X032083Y032140D01*
X032333Y031890D01*
X032583Y032140D01*
X033083Y032140D01*
X033333Y031890D01*
X033583Y032140D01*
X034083Y032140D01*
X034333Y031890D01*
X034583Y032140D01*
X035083Y032140D01*
X035333Y031890D01*
X035583Y032140D01*
X036083Y032140D01*
X036333Y031890D01*
X036333Y031390D01*
X036083Y031140D01*
X035583Y031140D01*
X035333Y031390D01*
X035083Y031140D01*
X034583Y031140D01*
X034043Y030836D02*
X033963Y030916D01*
X033643Y030916D01*
X033563Y030836D01*
X033563Y030676D01*
X033643Y030596D01*
X033723Y030596D01*
X033803Y030676D01*
X033803Y030916D01*
X034043Y030836D02*
X034043Y030676D01*
X033963Y030596D01*
X034043Y030400D02*
X034043Y030080D01*
X034043Y030240D02*
X033563Y030240D01*
X033723Y030080D01*
X033043Y030080D02*
X033043Y030400D01*
X033043Y030240D02*
X032563Y030240D01*
X032723Y030080D01*
X032723Y030596D02*
X032643Y030596D01*
X032563Y030676D01*
X032563Y030836D01*
X032643Y030916D01*
X032723Y030916D01*
X032803Y030836D01*
X032803Y030676D01*
X032723Y030596D01*
X032803Y030676D02*
X032883Y030596D01*
X032963Y030596D01*
X033043Y030676D01*
X033043Y030836D01*
X032963Y030916D01*
X032883Y030916D01*
X032803Y030836D01*
X032043Y030596D02*
X031963Y030596D01*
X031643Y030916D01*
X031563Y030916D01*
X031563Y030596D01*
X031563Y030240D02*
X032043Y030240D01*
X032043Y030080D02*
X032043Y030400D01*
X031723Y030080D02*
X031563Y030240D01*
X031043Y030240D02*
X030563Y030240D01*
X030723Y030080D01*
X031043Y030080D02*
X031043Y030400D01*
X030963Y030596D02*
X031043Y030676D01*
X031043Y030836D01*
X030963Y030916D01*
X030883Y030916D01*
X030803Y030836D01*
X030803Y030596D01*
X030963Y030596D01*
X030803Y030596D02*
X030643Y030756D01*
X030563Y030916D01*
X030043Y030836D02*
X030043Y030676D01*
X029963Y030596D01*
X029803Y030596D02*
X029723Y030756D01*
X029723Y030836D01*
X029803Y030916D01*
X029963Y030916D01*
X030043Y030836D01*
X029803Y030596D02*
X029563Y030596D01*
X029563Y030916D01*
X029043Y030836D02*
X028563Y030836D01*
X028803Y030596D01*
X028803Y030916D01*
X029043Y030400D02*
X029043Y030080D01*
X029043Y030240D02*
X028563Y030240D01*
X028723Y030080D01*
X029563Y030240D02*
X030043Y030240D01*
X030043Y030080D02*
X030043Y030400D01*
X029723Y030080D02*
X029563Y030240D01*
X030833Y034340D02*
X030833Y034640D01*
X030733Y034640D01*
X030833Y034640D02*
X030833Y034940D01*
X032833Y034940D01*
X032833Y034640D01*
X032933Y034640D01*
X032833Y034640D02*
X032833Y034340D01*
X030833Y034340D01*
X030833Y035340D02*
X030833Y035640D01*
X030733Y035640D01*
X030833Y035640D02*
X030833Y035940D01*
X032833Y035940D01*
X032833Y035640D01*
X032933Y035640D01*
X032833Y035640D02*
X032833Y035340D01*
X030833Y035340D01*
X028833Y036703D02*
X028833Y041821D01*
X034833Y041821D01*
X034833Y036703D01*
X028833Y036703D01*
X028333Y036703D02*
X028333Y041821D01*
X022333Y041821D01*
X022333Y036703D01*
X028333Y036703D01*
X026333Y035940D02*
X026333Y035640D01*
X026433Y035640D01*
X026333Y035640D02*
X026333Y035340D01*
X024333Y035340D01*
X024333Y035640D01*
X024233Y035640D01*
X024333Y035640D02*
X024333Y035940D01*
X026333Y035940D01*
X026333Y034940D02*
X026333Y034640D01*
X026433Y034640D01*
X026333Y034640D02*
X026333Y034340D01*
X024333Y034340D01*
X024333Y034640D01*
X024233Y034640D01*
X024333Y034640D02*
X024333Y034940D01*
X026333Y034940D01*
X021833Y036703D02*
X021833Y041821D01*
X015833Y041821D01*
X015833Y036703D01*
X021833Y036703D01*
X019833Y035940D02*
X019833Y035640D01*
X019933Y035640D01*
X019833Y035640D02*
X019833Y035340D01*
X017833Y035340D01*
X017833Y035640D01*
X017733Y035640D01*
X017833Y035640D02*
X017833Y035940D01*
X019833Y035940D01*
X019833Y034940D02*
X019833Y034640D01*
X019933Y034640D01*
X019833Y034640D02*
X019833Y034340D01*
X017833Y034340D01*
X017833Y034640D01*
X017733Y034640D01*
X017833Y034640D02*
X017833Y034940D01*
X019833Y034940D01*
X016543Y030250D02*
X016543Y029930D01*
X016543Y030090D02*
X016063Y030090D01*
X016223Y029930D01*
X013333Y034340D02*
X011333Y034340D01*
X011333Y034640D01*
X011233Y034640D01*
X011333Y034640D02*
X011333Y034940D01*
X013333Y034940D01*
X013333Y034640D01*
X013433Y034640D01*
X013333Y034640D02*
X013333Y034340D01*
X013333Y035340D02*
X011333Y035340D01*
X011333Y035640D01*
X011233Y035640D01*
X011333Y035640D02*
X011333Y035940D01*
X013333Y035940D01*
X013333Y035640D01*
X013433Y035640D01*
X013333Y035640D02*
X013333Y035340D01*
X015333Y036703D02*
X015333Y041821D01*
X009333Y041821D01*
X009333Y036703D01*
X015333Y036703D01*
X008833Y036703D02*
X008833Y041821D01*
X002833Y041821D01*
X002833Y036703D01*
X008833Y036703D01*
X006933Y035640D02*
X006833Y035640D01*
X006833Y035340D01*
X004833Y035340D01*
X004833Y035640D01*
X004733Y035640D01*
X004833Y035640D02*
X004833Y035940D01*
X006833Y035940D01*
X006833Y035640D01*
X006833Y034940D02*
X006833Y034640D01*
X006933Y034640D01*
X006833Y034640D02*
X006833Y034340D01*
X004833Y034340D01*
X004833Y034640D01*
X004733Y034640D01*
X004833Y034640D02*
X004833Y034940D01*
X006833Y034940D01*
X015631Y014706D02*
X015711Y014706D01*
X015791Y014626D01*
X015871Y014706D01*
X015952Y014706D01*
X016032Y014626D01*
X016032Y014466D01*
X015952Y014386D01*
X015871Y014191D02*
X016032Y014031D01*
X015871Y013870D01*
X015551Y013870D01*
X015631Y013675D02*
X015711Y013675D01*
X015791Y013595D01*
X015871Y013675D01*
X015952Y013675D01*
X016032Y013595D01*
X016032Y013435D01*
X015952Y013355D01*
X015791Y013515D02*
X015791Y013595D01*
X015631Y013675D02*
X015551Y013595D01*
X015551Y013435D01*
X015631Y013355D01*
X015551Y014191D02*
X015871Y014191D01*
X015631Y014386D02*
X015551Y014466D01*
X015551Y014626D01*
X015631Y014706D01*
X015791Y014626D02*
X015791Y014546D01*
X015583Y006140D02*
X015083Y006140D01*
X014833Y005890D01*
X014833Y005390D01*
X015083Y005140D01*
X014833Y004890D01*
X014833Y004390D01*
X015083Y004140D01*
X015583Y004140D01*
X015833Y004390D01*
X015833Y004890D01*
X015583Y005140D01*
X015833Y005390D01*
X015833Y005890D01*
X015583Y006140D01*
X026833Y005890D02*
X026833Y005390D01*
X027083Y005140D01*
X026833Y004890D01*
X026833Y004390D01*
X027083Y004140D01*
X027583Y004140D01*
X027833Y004390D01*
X028083Y004140D01*
X028583Y004140D01*
X028833Y004390D01*
X028833Y004890D01*
X028583Y005140D01*
X028833Y005390D01*
X028833Y005890D01*
X028583Y006140D01*
X028083Y006140D01*
X027833Y005890D01*
X027833Y005390D01*
X028083Y005140D01*
X027833Y004890D01*
X027833Y004390D01*
X027833Y004890D01*
X027583Y005140D01*
X027833Y005390D01*
X027833Y005890D01*
X027583Y006140D01*
X027083Y006140D01*
X026833Y005890D01*
X032773Y013480D02*
X032613Y013640D01*
X032900Y014778D02*
X035814Y014778D01*
X035814Y015093D01*
X035302Y015093D01*
X035302Y015368D01*
X035093Y014316D02*
X035093Y013996D01*
X034773Y014316D01*
X034693Y014316D01*
X034613Y014236D01*
X034613Y014076D01*
X034693Y013996D01*
X034613Y013640D02*
X035093Y013640D01*
X035093Y013480D02*
X035093Y013800D01*
X034773Y013480D02*
X034613Y013640D01*
X034093Y013640D02*
X033613Y013640D01*
X033773Y013480D01*
X034093Y013480D02*
X034093Y013800D01*
X034093Y013996D02*
X034093Y014316D01*
X034093Y014156D02*
X033613Y014156D01*
X033773Y013996D01*
X035613Y014076D02*
X035613Y014236D01*
X035693Y014316D01*
X035773Y014316D01*
X035853Y014236D01*
X035933Y014316D01*
X036013Y014316D01*
X036093Y014236D01*
X036093Y014076D01*
X036013Y013996D01*
X036093Y013800D02*
X036093Y013480D01*
X036093Y013640D02*
X035613Y013640D01*
X035773Y013480D01*
X036313Y013640D02*
X036793Y013640D01*
X036793Y013480D02*
X036793Y013800D01*
X036553Y013996D02*
X036313Y014236D01*
X036793Y014236D01*
X036903Y014430D02*
X037064Y014430D01*
X037144Y014510D01*
X037144Y014670D01*
X036983Y014670D01*
X036823Y014510D02*
X036903Y014430D01*
X036823Y014510D02*
X036823Y014830D01*
X036903Y014910D01*
X037064Y014910D01*
X037144Y014830D01*
X037339Y014910D02*
X037339Y014430D01*
X037453Y014316D02*
X037373Y014236D01*
X037373Y014156D01*
X037453Y013996D01*
X037213Y013996D01*
X037213Y014316D01*
X037453Y014316D02*
X037613Y014316D01*
X037693Y014236D01*
X037693Y014076D01*
X037613Y013996D01*
X037693Y013800D02*
X037693Y013480D01*
X037693Y013640D02*
X037213Y013640D01*
X037373Y013480D01*
X036473Y013480D02*
X036313Y013640D01*
X036553Y013996D02*
X036553Y014316D01*
X035853Y014236D02*
X035853Y014156D01*
X035693Y013996D02*
X035613Y014076D01*
X037339Y014910D02*
X037659Y014430D01*
X037659Y014910D01*
X037855Y014910D02*
X037855Y014430D01*
X038095Y014430D01*
X038175Y014510D01*
X038175Y014830D01*
X038095Y014910D01*
X037855Y014910D01*
X038333Y014890D02*
X038583Y015140D01*
X039083Y015140D01*
X039333Y014890D01*
X039583Y015140D01*
X040083Y015140D01*
X040333Y014890D01*
X040333Y014390D01*
X040083Y014140D01*
X039583Y014140D01*
X039333Y014390D01*
X039083Y014140D01*
X038583Y014140D01*
X038333Y014390D01*
X038333Y014890D01*
X038583Y015140D02*
X038333Y015390D01*
X038333Y015890D01*
X038583Y016140D01*
X038333Y016390D01*
X038333Y016890D01*
X038583Y017140D01*
X038333Y017390D01*
X038333Y017890D01*
X038583Y018140D01*
X038333Y018390D01*
X038333Y018890D01*
X038583Y019140D01*
X038333Y019390D01*
X038333Y019890D01*
X038583Y020140D01*
X038333Y020390D01*
X038333Y020890D01*
X038583Y021140D01*
X038333Y021390D01*
X038333Y021890D01*
X038583Y022140D01*
X038333Y022390D01*
X038333Y022890D01*
X038583Y023140D01*
X038333Y023390D01*
X038333Y023890D01*
X038583Y024140D01*
X038333Y024390D01*
X038333Y024890D01*
X038583Y025140D01*
X038333Y025390D01*
X038333Y025890D01*
X038583Y026140D01*
X038333Y026390D01*
X038333Y026890D01*
X038583Y027140D01*
X038333Y027390D01*
X038333Y027890D01*
X038583Y028140D01*
X038333Y028390D01*
X038333Y028890D01*
X038583Y029140D01*
X038333Y029390D01*
X038333Y029890D01*
X038583Y030140D01*
X038333Y030390D01*
X038333Y030890D01*
X038583Y031140D01*
X039083Y031140D01*
X039333Y031390D01*
X039583Y031140D01*
X040083Y031140D01*
X040333Y031390D01*
X040333Y031890D01*
X040083Y032140D01*
X039583Y032140D01*
X039333Y031890D01*
X039083Y032140D01*
X038583Y032140D01*
X038333Y031890D01*
X038333Y031390D01*
X038583Y031140D01*
X039083Y031140D01*
X039333Y030890D01*
X039333Y030390D01*
X039083Y030140D01*
X039333Y029890D01*
X039333Y029390D01*
X039083Y029140D01*
X039333Y028890D01*
X039333Y028390D01*
X039083Y028140D01*
X039333Y027890D01*
X039333Y027390D01*
X039083Y027140D01*
X039333Y026890D01*
X039333Y026390D01*
X039083Y026140D01*
X039333Y025890D01*
X039333Y025390D01*
X039083Y025140D01*
X039333Y024890D01*
X039333Y024390D01*
X039083Y024140D01*
X039333Y023890D01*
X039333Y023390D01*
X039083Y023140D01*
X039333Y022890D01*
X039333Y022390D01*
X039083Y022140D01*
X039333Y021890D01*
X039333Y021390D01*
X039083Y021140D01*
X039333Y020890D01*
X039333Y020390D01*
X039083Y020140D01*
X039333Y019890D01*
X039333Y019390D01*
X039083Y019140D01*
X039333Y018890D01*
X039333Y018390D01*
X039083Y018140D01*
X039333Y017890D01*
X039333Y017390D01*
X039083Y017140D01*
X039333Y016890D01*
X039333Y016390D01*
X039083Y016140D01*
X039333Y015890D01*
X039333Y015390D01*
X039083Y015140D01*
X038583Y015140D01*
X038209Y015430D02*
X037889Y015430D01*
X038209Y015750D01*
X038209Y015830D01*
X038129Y015910D01*
X037969Y015910D01*
X037889Y015830D01*
X037694Y015910D02*
X037373Y015910D01*
X037373Y015670D01*
X037533Y015750D01*
X037614Y015750D01*
X037694Y015670D01*
X037694Y015510D01*
X037614Y015430D01*
X037453Y015430D01*
X037373Y015510D01*
X037453Y016430D02*
X037373Y016510D01*
X037453Y016430D02*
X037614Y016430D01*
X037694Y016510D01*
X037694Y016670D01*
X037614Y016750D01*
X037533Y016750D01*
X037373Y016670D01*
X037373Y016910D01*
X037694Y016910D01*
X037889Y016830D02*
X037889Y016510D01*
X038209Y016830D01*
X038209Y016510D01*
X038129Y016430D01*
X037969Y016430D01*
X037889Y016510D01*
X037889Y016830D02*
X037969Y016910D01*
X038129Y016910D01*
X038209Y016830D01*
X038129Y017430D02*
X037969Y017430D01*
X037889Y017510D01*
X037889Y017590D01*
X037969Y017670D01*
X038129Y017670D01*
X038209Y017590D01*
X038209Y017510D01*
X038129Y017430D01*
X038129Y017670D02*
X038209Y017750D01*
X038209Y017830D01*
X038129Y017910D01*
X037969Y017910D01*
X037889Y017830D01*
X037889Y017750D01*
X037969Y017670D01*
X037694Y017670D02*
X037373Y017670D01*
X037614Y017910D01*
X037614Y017430D01*
X037614Y018430D02*
X037614Y018910D01*
X037373Y018670D01*
X037694Y018670D01*
X037889Y018670D02*
X038129Y018670D01*
X038209Y018590D01*
X038209Y018510D01*
X038129Y018430D01*
X037969Y018430D01*
X037889Y018510D01*
X037889Y018670D01*
X038049Y018830D01*
X038209Y018910D01*
X038129Y019430D02*
X038129Y019910D01*
X037889Y019670D01*
X038209Y019670D01*
X037694Y019670D02*
X037373Y019670D01*
X037614Y019910D01*
X037614Y019430D01*
X037614Y020430D02*
X037614Y020910D01*
X037373Y020670D01*
X037694Y020670D01*
X037889Y020830D02*
X037969Y020910D01*
X038129Y020910D01*
X038209Y020830D01*
X038209Y020750D01*
X037889Y020430D01*
X038209Y020430D01*
X038129Y021430D02*
X037969Y021430D01*
X037889Y021510D01*
X038209Y021830D01*
X038209Y021510D01*
X038129Y021430D01*
X037889Y021510D02*
X037889Y021830D01*
X037969Y021910D01*
X038129Y021910D01*
X038209Y021830D01*
X037694Y021670D02*
X037373Y021670D01*
X037614Y021910D01*
X037614Y021430D01*
X037614Y022430D02*
X037453Y022430D01*
X037373Y022510D01*
X037533Y022670D02*
X037614Y022670D01*
X037694Y022590D01*
X037694Y022510D01*
X037614Y022430D01*
X037614Y022670D02*
X037694Y022750D01*
X037694Y022830D01*
X037614Y022910D01*
X037453Y022910D01*
X037373Y022830D01*
X037889Y022830D02*
X037889Y022750D01*
X037969Y022670D01*
X038129Y022670D01*
X038209Y022590D01*
X038209Y022510D01*
X038129Y022430D01*
X037969Y022430D01*
X037889Y022510D01*
X037889Y022590D01*
X037969Y022670D01*
X038129Y022670D02*
X038209Y022750D01*
X038209Y022830D01*
X038129Y022910D01*
X037969Y022910D01*
X037889Y022830D01*
X037969Y023430D02*
X038129Y023430D01*
X038209Y023510D01*
X038209Y023590D01*
X038129Y023670D01*
X037889Y023670D01*
X037889Y023510D01*
X037969Y023430D01*
X037889Y023670D02*
X038049Y023830D01*
X038209Y023910D01*
X037694Y023830D02*
X037694Y023750D01*
X037614Y023670D01*
X037694Y023590D01*
X037694Y023510D01*
X037614Y023430D01*
X037453Y023430D01*
X037373Y023510D01*
X037533Y023670D02*
X037614Y023670D01*
X037694Y023830D02*
X037614Y023910D01*
X037453Y023910D01*
X037373Y023830D01*
X037453Y024430D02*
X037373Y024510D01*
X037453Y024430D02*
X037614Y024430D01*
X037694Y024510D01*
X037694Y024590D01*
X037614Y024670D01*
X037533Y024670D01*
X037614Y024670D02*
X037694Y024750D01*
X037694Y024830D01*
X037614Y024910D01*
X037453Y024910D01*
X037373Y024830D01*
X037453Y025430D02*
X037373Y025510D01*
X037453Y025430D02*
X037614Y025430D01*
X037694Y025510D01*
X037694Y025590D01*
X037614Y025670D01*
X037533Y025670D01*
X037614Y025670D02*
X037694Y025750D01*
X037694Y025830D01*
X037614Y025910D01*
X037453Y025910D01*
X037373Y025830D01*
X037453Y026430D02*
X037373Y026510D01*
X037453Y026430D02*
X037614Y026430D01*
X037694Y026510D01*
X037694Y026590D01*
X037614Y026670D01*
X037533Y026670D01*
X037614Y026670D02*
X037694Y026750D01*
X037694Y026830D01*
X037614Y026910D01*
X037453Y026910D01*
X037373Y026830D01*
X037373Y027430D02*
X037694Y027750D01*
X037694Y027830D01*
X037614Y027910D01*
X037453Y027910D01*
X037373Y027830D01*
X037373Y027430D02*
X037694Y027430D01*
X037889Y027510D02*
X037889Y027590D01*
X037969Y027670D01*
X038129Y027670D01*
X038209Y027590D01*
X038209Y027510D01*
X038129Y027430D01*
X037969Y027430D01*
X037889Y027510D01*
X037969Y027670D02*
X037889Y027750D01*
X037889Y027830D01*
X037969Y027910D01*
X038129Y027910D01*
X038209Y027830D01*
X038209Y027750D01*
X038129Y027670D01*
X038129Y026910D02*
X038209Y026830D01*
X037889Y026510D01*
X037969Y026430D01*
X038129Y026430D01*
X038209Y026510D01*
X038209Y026830D01*
X038129Y026910D02*
X037969Y026910D01*
X037889Y026830D01*
X037889Y026510D01*
X037969Y025910D02*
X037889Y025830D01*
X037969Y025910D02*
X038129Y025910D01*
X038209Y025830D01*
X038209Y025750D01*
X037889Y025430D01*
X038209Y025430D01*
X038129Y024910D02*
X037889Y024670D01*
X038209Y024670D01*
X038129Y024430D02*
X038129Y024910D01*
X039333Y024890D02*
X039333Y024390D01*
X039583Y024140D01*
X039333Y023890D01*
X039333Y023390D01*
X039583Y023140D01*
X039333Y022890D01*
X039333Y022390D01*
X039583Y022140D01*
X039333Y021890D01*
X039333Y021390D01*
X039583Y021140D01*
X039333Y020890D01*
X039333Y020390D01*
X039583Y020140D01*
X039333Y019890D01*
X039333Y019390D01*
X039583Y019140D01*
X039333Y018890D01*
X039333Y018390D01*
X039583Y018140D01*
X039333Y017890D01*
X039333Y017390D01*
X039583Y017140D01*
X039333Y016890D01*
X039333Y016390D01*
X039583Y016140D01*
X039333Y015890D01*
X039333Y015390D01*
X039583Y015140D01*
X040083Y015140D01*
X040333Y015390D01*
X040333Y015890D01*
X040083Y016140D01*
X040333Y016390D01*
X040333Y016890D01*
X040083Y017140D01*
X040333Y017390D01*
X040333Y017890D01*
X040083Y018140D01*
X040333Y018390D01*
X040333Y018890D01*
X040083Y019140D01*
X040333Y019390D01*
X040333Y019890D01*
X040083Y020140D01*
X040333Y020390D01*
X040333Y020890D01*
X040083Y021140D01*
X040333Y021390D01*
X040333Y021890D01*
X040083Y022140D01*
X040333Y022390D01*
X040333Y022890D01*
X040083Y023140D01*
X040333Y023390D01*
X040333Y023890D01*
X040083Y024140D01*
X040333Y024390D01*
X040333Y024890D01*
X040083Y025140D01*
X040333Y025390D01*
X040333Y025890D01*
X040083Y026140D01*
X040333Y026390D01*
X040333Y026890D01*
X040083Y027140D01*
X040333Y027390D01*
X040333Y027890D01*
X040083Y028140D01*
X040333Y028390D01*
X040333Y028890D01*
X040083Y029140D01*
X040333Y029390D01*
X040333Y029890D01*
X040083Y030140D01*
X040333Y030390D01*
X040333Y030890D01*
X040083Y031140D01*
X039583Y031140D01*
X039333Y030890D01*
X039333Y030390D01*
X039583Y030140D01*
X039333Y029890D01*
X039333Y029390D01*
X039583Y029140D01*
X039333Y028890D01*
X039333Y028390D01*
X039583Y028140D01*
X039333Y027890D01*
X039333Y027390D01*
X039583Y027140D01*
X039333Y026890D01*
X039333Y026390D01*
X039583Y026140D01*
X039333Y025890D01*
X039333Y025390D01*
X039583Y025140D01*
X039333Y024890D01*
X035814Y024778D02*
X035814Y025093D01*
X035302Y025093D01*
X035302Y025368D01*
X037373Y028430D02*
X037694Y028750D01*
X037694Y028830D01*
X037614Y028910D01*
X037453Y028910D01*
X037373Y028830D01*
X037373Y028430D02*
X037694Y028430D01*
X037889Y028510D02*
X037969Y028430D01*
X038129Y028430D01*
X038209Y028510D01*
X038209Y028590D01*
X038129Y028670D01*
X037889Y028670D01*
X037889Y028510D01*
X037889Y028670D02*
X038049Y028830D01*
X038209Y028910D01*
X038129Y029430D02*
X038129Y029910D01*
X037889Y029670D01*
X038209Y029670D01*
X037694Y029750D02*
X037694Y029830D01*
X037614Y029910D01*
X037453Y029910D01*
X037373Y029830D01*
X037694Y029750D02*
X037373Y029430D01*
X037694Y029430D01*
X036043Y030080D02*
X035723Y030400D01*
X035643Y030400D01*
X035563Y030320D01*
X035563Y030160D01*
X035643Y030080D01*
X036043Y030080D02*
X036043Y030400D01*
X036043Y030596D02*
X036043Y030916D01*
X036043Y030756D02*
X035563Y030756D01*
X035723Y030596D01*
X037333Y034340D02*
X037333Y034640D01*
X037233Y034640D01*
X037333Y034640D02*
X037333Y034940D01*
X039333Y034940D01*
X039333Y034640D01*
X039433Y034640D01*
X039333Y034640D02*
X039333Y034340D01*
X037333Y034340D01*
X037333Y035340D02*
X037333Y035640D01*
X037233Y035640D01*
X037333Y035640D02*
X037333Y035940D01*
X039333Y035940D01*
X039333Y035640D01*
X039433Y035640D01*
X039333Y035640D02*
X039333Y035340D01*
X037333Y035340D01*
X035333Y036703D02*
X035333Y041821D01*
X041333Y041821D01*
X041333Y036703D01*
X035333Y036703D01*
X035302Y020368D02*
X035302Y020093D01*
X035814Y020093D01*
X035814Y019778D01*
X039533Y009140D02*
X039833Y009140D01*
X039833Y009240D01*
X039833Y009140D02*
X040133Y009140D01*
X040133Y007140D01*
X039833Y007140D01*
X039833Y007040D01*
X039833Y007140D02*
X039533Y007140D01*
X039533Y009140D01*
X039083Y003640D02*
X040583Y003640D01*
D13*
X029404Y005140D02*
X029409Y005357D01*
X029425Y005574D01*
X029452Y005790D01*
X029489Y006004D01*
X029537Y006216D01*
X029595Y006426D01*
X029663Y006632D01*
X029741Y006835D01*
X029829Y007034D01*
X029927Y007228D01*
X030034Y007417D01*
X030150Y007601D01*
X030276Y007778D01*
X030409Y007950D01*
X030551Y008114D01*
X030701Y008272D01*
X030859Y008422D01*
X031023Y008564D01*
X031195Y008697D01*
X031372Y008823D01*
X031556Y008939D01*
X031745Y009046D01*
X031939Y009144D01*
X032138Y009232D01*
X032341Y009310D01*
X032547Y009378D01*
X032757Y009436D01*
X032969Y009484D01*
X033183Y009521D01*
X033399Y009548D01*
X033616Y009564D01*
X033833Y009569D01*
X034050Y009564D01*
X034267Y009548D01*
X034483Y009521D01*
X034697Y009484D01*
X034909Y009436D01*
X035119Y009378D01*
X035325Y009310D01*
X035528Y009232D01*
X035727Y009144D01*
X035921Y009046D01*
X036110Y008939D01*
X036294Y008823D01*
X036471Y008697D01*
X036643Y008564D01*
X036807Y008422D01*
X036965Y008272D01*
X037115Y008114D01*
X037257Y007950D01*
X037390Y007778D01*
X037516Y007601D01*
X037632Y007417D01*
X037739Y007228D01*
X037837Y007034D01*
X037925Y006835D01*
X038003Y006632D01*
X038071Y006426D01*
X038129Y006216D01*
X038177Y006004D01*
X038214Y005790D01*
X038241Y005574D01*
X038257Y005357D01*
X038262Y005140D01*
X038257Y004923D01*
X038241Y004706D01*
X038214Y004490D01*
X038177Y004276D01*
X038129Y004064D01*
X038071Y003854D01*
X038003Y003648D01*
X037925Y003445D01*
X037837Y003246D01*
X037739Y003052D01*
X037632Y002863D01*
X037516Y002679D01*
X037390Y002502D01*
X037257Y002330D01*
X037115Y002166D01*
X036965Y002008D01*
X036807Y001858D01*
X036643Y001716D01*
X036471Y001583D01*
X036294Y001457D01*
X036110Y001341D01*
X035921Y001234D01*
X035727Y001136D01*
X035528Y001048D01*
X035325Y000970D01*
X035119Y000902D01*
X034909Y000844D01*
X034697Y000796D01*
X034483Y000759D01*
X034267Y000732D01*
X034050Y000716D01*
X033833Y000711D01*
X033616Y000716D01*
X033399Y000732D01*
X033183Y000759D01*
X032969Y000796D01*
X032757Y000844D01*
X032547Y000902D01*
X032341Y000970D01*
X032138Y001048D01*
X031939Y001136D01*
X031745Y001234D01*
X031556Y001341D01*
X031372Y001457D01*
X031195Y001583D01*
X031023Y001716D01*
X030859Y001858D01*
X030701Y002008D01*
X030551Y002166D01*
X030409Y002330D01*
X030276Y002502D01*
X030150Y002679D01*
X030034Y002863D01*
X029927Y003052D01*
X029829Y003246D01*
X029741Y003445D01*
X029663Y003648D01*
X029595Y003854D01*
X029537Y004064D01*
X029489Y004276D01*
X029452Y004490D01*
X029425Y004706D01*
X029409Y004923D01*
X029404Y005140D01*
X017404Y005140D02*
X017409Y005357D01*
X017425Y005574D01*
X017452Y005790D01*
X017489Y006004D01*
X017537Y006216D01*
X017595Y006426D01*
X017663Y006632D01*
X017741Y006835D01*
X017829Y007034D01*
X017927Y007228D01*
X018034Y007417D01*
X018150Y007601D01*
X018276Y007778D01*
X018409Y007950D01*
X018551Y008114D01*
X018701Y008272D01*
X018859Y008422D01*
X019023Y008564D01*
X019195Y008697D01*
X019372Y008823D01*
X019556Y008939D01*
X019745Y009046D01*
X019939Y009144D01*
X020138Y009232D01*
X020341Y009310D01*
X020547Y009378D01*
X020757Y009436D01*
X020969Y009484D01*
X021183Y009521D01*
X021399Y009548D01*
X021616Y009564D01*
X021833Y009569D01*
X022050Y009564D01*
X022267Y009548D01*
X022483Y009521D01*
X022697Y009484D01*
X022909Y009436D01*
X023119Y009378D01*
X023325Y009310D01*
X023528Y009232D01*
X023727Y009144D01*
X023921Y009046D01*
X024110Y008939D01*
X024294Y008823D01*
X024471Y008697D01*
X024643Y008564D01*
X024807Y008422D01*
X024965Y008272D01*
X025115Y008114D01*
X025257Y007950D01*
X025390Y007778D01*
X025516Y007601D01*
X025632Y007417D01*
X025739Y007228D01*
X025837Y007034D01*
X025925Y006835D01*
X026003Y006632D01*
X026071Y006426D01*
X026129Y006216D01*
X026177Y006004D01*
X026214Y005790D01*
X026241Y005574D01*
X026257Y005357D01*
X026262Y005140D01*
X026257Y004923D01*
X026241Y004706D01*
X026214Y004490D01*
X026177Y004276D01*
X026129Y004064D01*
X026071Y003854D01*
X026003Y003648D01*
X025925Y003445D01*
X025837Y003246D01*
X025739Y003052D01*
X025632Y002863D01*
X025516Y002679D01*
X025390Y002502D01*
X025257Y002330D01*
X025115Y002166D01*
X024965Y002008D01*
X024807Y001858D01*
X024643Y001716D01*
X024471Y001583D01*
X024294Y001457D01*
X024110Y001341D01*
X023921Y001234D01*
X023727Y001136D01*
X023528Y001048D01*
X023325Y000970D01*
X023119Y000902D01*
X022909Y000844D01*
X022697Y000796D01*
X022483Y000759D01*
X022267Y000732D01*
X022050Y000716D01*
X021833Y000711D01*
X021616Y000716D01*
X021399Y000732D01*
X021183Y000759D01*
X020969Y000796D01*
X020757Y000844D01*
X020547Y000902D01*
X020341Y000970D01*
X020138Y001048D01*
X019939Y001136D01*
X019745Y001234D01*
X019556Y001341D01*
X019372Y001457D01*
X019195Y001583D01*
X019023Y001716D01*
X018859Y001858D01*
X018701Y002008D01*
X018551Y002166D01*
X018409Y002330D01*
X018276Y002502D01*
X018150Y002679D01*
X018034Y002863D01*
X017927Y003052D01*
X017829Y003246D01*
X017741Y003445D01*
X017663Y003648D01*
X017595Y003854D01*
X017537Y004064D01*
X017489Y004276D01*
X017452Y004490D01*
X017425Y004706D01*
X017409Y004923D01*
X017404Y005140D01*
X005404Y005140D02*
X005409Y005357D01*
X005425Y005574D01*
X005452Y005790D01*
X005489Y006004D01*
X005537Y006216D01*
X005595Y006426D01*
X005663Y006632D01*
X005741Y006835D01*
X005829Y007034D01*
X005927Y007228D01*
X006034Y007417D01*
X006150Y007601D01*
X006276Y007778D01*
X006409Y007950D01*
X006551Y008114D01*
X006701Y008272D01*
X006859Y008422D01*
X007023Y008564D01*
X007195Y008697D01*
X007372Y008823D01*
X007556Y008939D01*
X007745Y009046D01*
X007939Y009144D01*
X008138Y009232D01*
X008341Y009310D01*
X008547Y009378D01*
X008757Y009436D01*
X008969Y009484D01*
X009183Y009521D01*
X009399Y009548D01*
X009616Y009564D01*
X009833Y009569D01*
X010050Y009564D01*
X010267Y009548D01*
X010483Y009521D01*
X010697Y009484D01*
X010909Y009436D01*
X011119Y009378D01*
X011325Y009310D01*
X011528Y009232D01*
X011727Y009144D01*
X011921Y009046D01*
X012110Y008939D01*
X012294Y008823D01*
X012471Y008697D01*
X012643Y008564D01*
X012807Y008422D01*
X012965Y008272D01*
X013115Y008114D01*
X013257Y007950D01*
X013390Y007778D01*
X013516Y007601D01*
X013632Y007417D01*
X013739Y007228D01*
X013837Y007034D01*
X013925Y006835D01*
X014003Y006632D01*
X014071Y006426D01*
X014129Y006216D01*
X014177Y006004D01*
X014214Y005790D01*
X014241Y005574D01*
X014257Y005357D01*
X014262Y005140D01*
X014257Y004923D01*
X014241Y004706D01*
X014214Y004490D01*
X014177Y004276D01*
X014129Y004064D01*
X014071Y003854D01*
X014003Y003648D01*
X013925Y003445D01*
X013837Y003246D01*
X013739Y003052D01*
X013632Y002863D01*
X013516Y002679D01*
X013390Y002502D01*
X013257Y002330D01*
X013115Y002166D01*
X012965Y002008D01*
X012807Y001858D01*
X012643Y001716D01*
X012471Y001583D01*
X012294Y001457D01*
X012110Y001341D01*
X011921Y001234D01*
X011727Y001136D01*
X011528Y001048D01*
X011325Y000970D01*
X011119Y000902D01*
X010909Y000844D01*
X010697Y000796D01*
X010483Y000759D01*
X010267Y000732D01*
X010050Y000716D01*
X009833Y000711D01*
X009616Y000716D01*
X009399Y000732D01*
X009183Y000759D01*
X008969Y000796D01*
X008757Y000844D01*
X008547Y000902D01*
X008341Y000970D01*
X008138Y001048D01*
X007939Y001136D01*
X007745Y001234D01*
X007556Y001341D01*
X007372Y001457D01*
X007195Y001583D01*
X007023Y001716D01*
X006859Y001858D01*
X006701Y002008D01*
X006551Y002166D01*
X006409Y002330D01*
X006276Y002502D01*
X006150Y002679D01*
X006034Y002863D01*
X005927Y003052D01*
X005829Y003246D01*
X005741Y003445D01*
X005663Y003648D01*
X005595Y003854D01*
X005537Y004064D01*
X005489Y004276D01*
X005452Y004490D01*
X005425Y004706D01*
X005409Y004923D01*
X005404Y005140D01*
X018133Y029190D02*
X018133Y029750D01*
X018414Y029750D01*
X018507Y029657D01*
X018507Y029470D01*
X018414Y029377D01*
X018133Y029377D01*
X018741Y029190D02*
X018928Y029377D01*
X019115Y029190D01*
X019115Y029750D01*
X019349Y029750D02*
X019536Y029564D01*
X019722Y029750D01*
X019722Y029190D01*
X019349Y029190D02*
X019349Y029750D01*
X018741Y029750D02*
X018741Y029190D01*
D14*
X040563Y031527D02*
X040620Y031470D01*
X040733Y031470D01*
X040790Y031527D01*
X040790Y031640D01*
X040733Y031697D01*
X040677Y031697D01*
X040563Y031640D01*
X040563Y031810D01*
X040790Y031810D01*
X040932Y031810D02*
X040932Y031583D01*
X041045Y031470D01*
X041159Y031583D01*
X041159Y031810D01*
X038833Y004640D02*
X038835Y004703D01*
X038841Y004765D01*
X038851Y004827D01*
X038864Y004889D01*
X038882Y004949D01*
X038903Y005008D01*
X038928Y005066D01*
X038957Y005122D01*
X038989Y005176D01*
X039024Y005228D01*
X039062Y005277D01*
X039104Y005325D01*
X039148Y005369D01*
X039196Y005411D01*
X039245Y005449D01*
X039297Y005484D01*
X039351Y005516D01*
X039407Y005545D01*
X039465Y005570D01*
X039524Y005591D01*
X039584Y005609D01*
X039646Y005622D01*
X039708Y005632D01*
X039770Y005638D01*
X039833Y005640D01*
X039896Y005638D01*
X039958Y005632D01*
X040020Y005622D01*
X040082Y005609D01*
X040142Y005591D01*
X040201Y005570D01*
X040259Y005545D01*
X040315Y005516D01*
X040369Y005484D01*
X040421Y005449D01*
X040470Y005411D01*
X040518Y005369D01*
X040562Y005325D01*
X040604Y005277D01*
X040642Y005228D01*
X040677Y005176D01*
X040709Y005122D01*
X040738Y005066D01*
X040763Y005008D01*
X040784Y004949D01*
X040802Y004889D01*
X040815Y004827D01*
X040825Y004765D01*
X040831Y004703D01*
X040833Y004640D01*
X040831Y004577D01*
X040825Y004515D01*
X040815Y004453D01*
X040802Y004391D01*
X040784Y004331D01*
X040763Y004272D01*
X040738Y004214D01*
X040709Y004158D01*
X040677Y004104D01*
X040642Y004052D01*
X040604Y004003D01*
X040562Y003955D01*
X040518Y003911D01*
X040470Y003869D01*
X040421Y003831D01*
X040369Y003796D01*
X040315Y003764D01*
X040259Y003735D01*
X040201Y003710D01*
X040142Y003689D01*
X040082Y003671D01*
X040020Y003658D01*
X039958Y003648D01*
X039896Y003642D01*
X039833Y003640D01*
X039770Y003642D01*
X039708Y003648D01*
X039646Y003658D01*
X039584Y003671D01*
X039524Y003689D01*
X039465Y003710D01*
X039407Y003735D01*
X039351Y003764D01*
X039297Y003796D01*
X039245Y003831D01*
X039196Y003869D01*
X039148Y003911D01*
X039104Y003955D01*
X039062Y004003D01*
X039024Y004052D01*
X038989Y004104D01*
X038957Y004158D01*
X038928Y004214D01*
X038903Y004272D01*
X038882Y004331D01*
X038864Y004391D01*
X038851Y004453D01*
X038841Y004515D01*
X038835Y004577D01*
X038833Y004640D01*
D15*
X005087Y000695D02*
X004988Y000793D01*
X004988Y001187D01*
X005087Y001286D01*
X005284Y001286D01*
X005382Y001187D01*
X005382Y000793D01*
X005284Y000695D01*
X005087Y000695D01*
X005633Y000990D02*
X005830Y000990D01*
X005731Y001187D02*
X005830Y001286D01*
X005731Y001187D02*
X005731Y000695D01*
X006161Y000695D02*
X006161Y001187D01*
X006259Y001286D01*
X006259Y000990D02*
X006063Y000990D01*
X006183Y008795D02*
X006183Y009189D01*
X006478Y009189D01*
X006577Y009090D01*
X006577Y008795D01*
X005932Y008893D02*
X005932Y009287D01*
X005834Y009386D01*
X005637Y009386D01*
X005538Y009287D01*
X005538Y008893D01*
X005637Y008795D01*
X005834Y008795D01*
X005932Y008893D01*
X005995Y013845D02*
X005700Y013845D01*
X005602Y013943D01*
X005700Y014042D01*
X005995Y014042D01*
X005995Y014140D02*
X005995Y013845D01*
X006246Y013845D02*
X006246Y014239D01*
X006541Y014239D01*
X006640Y014140D01*
X006640Y013845D01*
X006891Y013943D02*
X006891Y014337D01*
X006989Y014436D01*
X007186Y014436D01*
X007284Y014337D01*
X007284Y014140D01*
X007186Y014042D01*
X007186Y014239D01*
X006989Y014239D01*
X006989Y014042D01*
X007186Y014042D01*
X007284Y013943D02*
X007186Y013845D01*
X006989Y013845D01*
X006891Y013943D01*
X007535Y013845D02*
X007831Y013845D01*
X007929Y013943D01*
X007831Y014042D01*
X007634Y014042D01*
X007535Y014140D01*
X007634Y014239D01*
X007929Y014239D01*
X008180Y014239D02*
X008180Y013648D01*
X008180Y013845D02*
X008475Y013845D01*
X008574Y013943D01*
X008574Y014140D01*
X008475Y014239D01*
X008180Y014239D01*
X008824Y013943D02*
X008923Y014042D01*
X009218Y014042D01*
X009218Y014140D02*
X009218Y013845D01*
X008923Y013845D01*
X008824Y013943D01*
X008923Y014239D02*
X009120Y014239D01*
X009218Y014140D01*
X009469Y014042D02*
X009666Y014239D01*
X009764Y014239D01*
X009469Y014239D02*
X009469Y013845D01*
X010006Y013845D02*
X010006Y014436D01*
X010301Y014239D02*
X010006Y014042D01*
X010301Y013845D01*
X010642Y013845D02*
X010642Y014337D01*
X010740Y014436D01*
X010740Y014140D02*
X010543Y014140D01*
X010973Y014239D02*
X010973Y013943D01*
X011071Y013845D01*
X011367Y013845D01*
X011367Y014239D01*
X011617Y014239D02*
X011617Y013845D01*
X011617Y014239D02*
X011913Y014239D01*
X012011Y014140D01*
X012011Y013845D01*
X012262Y013845D02*
X012360Y013845D01*
X012360Y013943D01*
X012262Y013943D01*
X012262Y013845D01*
X012584Y013943D02*
X012584Y014140D01*
X012683Y014239D01*
X012978Y014239D01*
X013229Y014140D02*
X013229Y013943D01*
X013327Y013845D01*
X013524Y013845D01*
X013623Y013943D01*
X013623Y014140D01*
X013524Y014239D01*
X013327Y014239D01*
X013229Y014140D01*
X012978Y013845D02*
X012683Y013845D01*
X012584Y013943D01*
X013873Y013845D02*
X013873Y014239D01*
X013972Y014239D01*
X014070Y014140D01*
X014169Y014239D01*
X014267Y014140D01*
X014267Y013845D01*
X014070Y013845D02*
X014070Y014140D01*
X014631Y009934D02*
X014631Y009836D01*
X014631Y009639D02*
X014631Y009245D01*
X014533Y009245D02*
X014730Y009245D01*
X014963Y009343D02*
X015061Y009245D01*
X015356Y009245D01*
X015356Y009147D02*
X015356Y009639D01*
X015061Y009639D01*
X014963Y009540D01*
X014963Y009343D01*
X015159Y009048D02*
X015258Y009048D01*
X015356Y009147D01*
X015607Y009245D02*
X015607Y009836D01*
X015706Y009639D02*
X015902Y009639D01*
X016001Y009540D01*
X016001Y009245D01*
X016350Y009343D02*
X016350Y009737D01*
X016252Y009639D02*
X016449Y009639D01*
X016681Y009540D02*
X016780Y009639D01*
X017075Y009639D01*
X016977Y009442D02*
X016780Y009442D01*
X016681Y009540D01*
X016681Y009245D02*
X016977Y009245D01*
X017075Y009343D01*
X016977Y009442D01*
X017194Y008931D02*
X017095Y008833D01*
X017095Y008439D01*
X017194Y008341D01*
X017391Y008341D01*
X017489Y008439D01*
X017489Y008833D01*
X017391Y008931D01*
X017194Y008931D01*
X016449Y009245D02*
X016350Y009343D01*
X016101Y008734D02*
X016200Y008636D01*
X016200Y008538D01*
X015806Y008538D01*
X015806Y008636D02*
X015806Y008439D01*
X015905Y008341D01*
X016101Y008341D01*
X016101Y008734D02*
X015905Y008734D01*
X015806Y008636D01*
X015555Y008636D02*
X015555Y008341D01*
X015359Y008341D02*
X015359Y008636D01*
X015457Y008734D01*
X015555Y008636D01*
X015359Y008636D02*
X015260Y008734D01*
X015162Y008734D01*
X015162Y008341D01*
X014911Y008341D02*
X014911Y008636D01*
X014812Y008734D01*
X014616Y008734D01*
X014616Y008538D02*
X014911Y008538D01*
X014911Y008341D02*
X014616Y008341D01*
X014517Y008439D01*
X014616Y008538D01*
X014266Y008439D02*
X014266Y008636D01*
X014069Y008636D01*
X013873Y008833D02*
X013873Y008439D01*
X013971Y008341D01*
X014168Y008341D01*
X014266Y008439D01*
X014266Y008833D02*
X014168Y008931D01*
X013971Y008931D01*
X013873Y008833D01*
X013888Y009245D02*
X014282Y009245D01*
X013888Y009245D02*
X013888Y009836D01*
X014533Y009639D02*
X014631Y009639D01*
X015607Y009540D02*
X015706Y009639D01*
X017970Y009540D02*
X017970Y009343D01*
X018069Y009245D01*
X018266Y009245D01*
X018364Y009343D01*
X018364Y009540D01*
X018266Y009639D01*
X018069Y009639D01*
X017970Y009540D01*
X017937Y008931D02*
X017838Y008833D01*
X017838Y008341D01*
X017740Y008636D02*
X017937Y008636D01*
X018170Y008636D02*
X018366Y008636D01*
X018268Y008833D02*
X018366Y008931D01*
X018268Y008833D02*
X018268Y008341D01*
X018615Y009245D02*
X018615Y009639D01*
X018910Y009639D01*
X019009Y009540D01*
X019009Y009245D01*
X018206Y001336D02*
X018009Y001336D01*
X017911Y001237D01*
X017911Y000843D01*
X018009Y000745D01*
X018206Y000745D01*
X018305Y000843D01*
X018305Y001237D01*
X018206Y001336D01*
X018556Y001139D02*
X018556Y000745D01*
X018949Y000745D02*
X018949Y001040D01*
X018851Y001139D01*
X018556Y001139D01*
X017016Y001040D02*
X017016Y000942D01*
X016622Y000942D01*
X016622Y001040D02*
X016720Y001139D01*
X016917Y001139D01*
X017016Y001040D01*
X016917Y000745D02*
X016720Y000745D01*
X016622Y000843D01*
X016622Y001040D01*
X016371Y001040D02*
X016371Y000745D01*
X016174Y000745D02*
X016174Y001040D01*
X016273Y001139D01*
X016371Y001040D01*
X016174Y001040D02*
X016076Y001139D01*
X015977Y001139D01*
X015977Y000745D01*
X015727Y000745D02*
X015727Y001040D01*
X015628Y001139D01*
X015431Y001139D01*
X015431Y000942D02*
X015727Y000942D01*
X015727Y000745D02*
X015431Y000745D01*
X015333Y000843D01*
X015431Y000942D01*
X015082Y001040D02*
X014885Y001040D01*
X015082Y001040D02*
X015082Y000843D01*
X014984Y000745D01*
X014787Y000745D01*
X014688Y000843D01*
X014688Y001237D01*
X014787Y001336D01*
X014984Y001336D01*
X015082Y001237D01*
X005351Y013845D02*
X005351Y014140D01*
X005252Y014239D01*
X005056Y014239D01*
X004957Y014140D01*
X004724Y014239D02*
X004527Y014239D01*
X004626Y014337D02*
X004626Y013943D01*
X004724Y013845D01*
X004957Y013845D02*
X004957Y014436D01*
X004277Y014140D02*
X004277Y013845D01*
X003981Y013845D01*
X003883Y013943D01*
X003981Y014042D01*
X004277Y014042D01*
X004277Y014140D02*
X004178Y014239D01*
X003981Y014239D01*
X003632Y014140D02*
X003632Y013845D01*
X003632Y014140D02*
X003534Y014239D01*
X003238Y014239D01*
X003238Y013845D01*
X005700Y014239D02*
X005897Y014239D01*
X005995Y014140D01*
X005938Y017995D02*
X005938Y018290D01*
X006036Y018389D01*
X006233Y018389D01*
X006331Y018290D01*
X006331Y017995D01*
X006331Y018192D02*
X006528Y018389D01*
X006430Y018640D02*
X006233Y018640D01*
X006135Y018738D01*
X006135Y018935D01*
X006233Y019033D01*
X006331Y019033D01*
X006331Y018640D01*
X006430Y018640D02*
X006528Y018738D01*
X006528Y018935D01*
X006528Y019284D02*
X006528Y019579D01*
X006430Y019678D01*
X006331Y019579D01*
X006331Y019383D01*
X006233Y019284D01*
X006135Y019383D01*
X006135Y019678D01*
X006233Y019929D02*
X006135Y020027D01*
X006135Y020224D01*
X006233Y020322D01*
X006331Y020322D01*
X006331Y019929D01*
X006233Y019929D02*
X006430Y019929D01*
X006528Y020027D01*
X006528Y020224D01*
X006430Y020672D02*
X006528Y020770D01*
X006430Y020672D02*
X006036Y020672D01*
X006135Y020770D02*
X006135Y020573D01*
X005938Y017995D02*
X006528Y017995D01*
X005513Y032448D02*
X005513Y033039D01*
X005808Y033039D01*
X005906Y032940D01*
X005906Y032743D01*
X005808Y032645D01*
X005513Y032645D01*
X005280Y032645D02*
X005083Y032645D01*
X005181Y032645D02*
X005181Y033039D01*
X005083Y033039D01*
X005181Y033236D02*
X005181Y033334D01*
X004988Y033495D02*
X004988Y034086D01*
X005284Y034086D01*
X005382Y033987D01*
X005382Y033790D01*
X005284Y033692D01*
X004988Y033692D01*
X005185Y033692D02*
X005382Y033495D01*
X005633Y033593D02*
X005633Y033790D01*
X005731Y033889D01*
X005928Y033889D01*
X006027Y033790D01*
X006027Y033692D01*
X005633Y033692D01*
X005633Y033593D02*
X005731Y033495D01*
X005928Y033495D01*
X006277Y033593D02*
X006277Y033790D01*
X006376Y033889D01*
X006671Y033889D01*
X006671Y034086D02*
X006671Y033495D01*
X006376Y033495D01*
X006277Y033593D01*
X006256Y033039D02*
X006452Y033039D01*
X006551Y032940D01*
X006551Y032842D01*
X006157Y032842D01*
X006157Y032940D02*
X006157Y032743D01*
X006256Y032645D01*
X006452Y032645D01*
X006802Y032743D02*
X006900Y032645D01*
X007097Y032645D01*
X007195Y032743D01*
X007195Y032940D01*
X007097Y033039D01*
X006999Y033039D01*
X006802Y032940D01*
X006802Y033236D01*
X007195Y033236D01*
X006256Y033039D02*
X006157Y032940D01*
X004832Y032940D02*
X004734Y032842D01*
X004438Y032842D01*
X004438Y032645D02*
X004438Y033236D01*
X004734Y033236D01*
X004832Y033137D01*
X004832Y032940D01*
X010738Y033987D02*
X010935Y033790D01*
X010935Y033495D01*
X010988Y033236D02*
X011284Y033236D01*
X011382Y033137D01*
X011382Y032940D01*
X011284Y032842D01*
X010988Y032842D01*
X010988Y032645D02*
X010988Y033236D01*
X011383Y033593D02*
X011383Y033790D01*
X011481Y033889D01*
X011678Y033889D01*
X011777Y033790D01*
X011777Y033692D01*
X011383Y033692D01*
X011383Y033593D02*
X011481Y033495D01*
X011678Y033495D01*
X011731Y033334D02*
X011731Y033236D01*
X011731Y033039D02*
X011731Y032645D01*
X011633Y032645D02*
X011830Y032645D01*
X012063Y032645D02*
X012358Y032645D01*
X012456Y032743D01*
X012456Y032940D01*
X012358Y033039D01*
X012063Y033039D01*
X012063Y032448D01*
X011731Y033039D02*
X011633Y033039D01*
X012027Y033495D02*
X012224Y033495D01*
X012126Y033495D02*
X012126Y034086D01*
X012027Y034086D01*
X012457Y034086D02*
X012556Y034086D01*
X012556Y033495D01*
X012654Y033495D02*
X012457Y033495D01*
X012887Y033593D02*
X012887Y033790D01*
X012985Y033889D01*
X013182Y033889D01*
X013281Y033790D01*
X013281Y033593D01*
X013182Y033495D01*
X012985Y033495D01*
X012887Y033593D01*
X012806Y033039D02*
X013002Y033039D01*
X013101Y032940D01*
X013101Y032842D01*
X012707Y032842D01*
X012707Y032940D02*
X012707Y032743D01*
X012806Y032645D01*
X013002Y032645D01*
X012707Y032940D02*
X012806Y033039D01*
X013352Y032940D02*
X013745Y032940D01*
X013647Y032645D02*
X013647Y033236D01*
X013352Y032940D01*
X013630Y033495D02*
X013728Y033593D01*
X013827Y033495D01*
X013925Y033593D01*
X013925Y033889D01*
X013531Y033889D02*
X013531Y033593D01*
X013630Y033495D01*
X011132Y033987D02*
X011132Y034086D01*
X011132Y033987D02*
X010935Y033790D01*
X010738Y033987D02*
X010738Y034086D01*
X017438Y033236D02*
X017438Y032645D01*
X017438Y032842D02*
X017734Y032842D01*
X017832Y032940D01*
X017832Y033137D01*
X017734Y033236D01*
X017438Y033236D01*
X017838Y033495D02*
X017838Y034086D01*
X018134Y034086D01*
X018232Y033987D01*
X018232Y033790D01*
X018134Y033692D01*
X017838Y033692D01*
X018181Y033334D02*
X018181Y033236D01*
X018181Y033039D02*
X018181Y032645D01*
X018083Y032645D02*
X018280Y032645D01*
X018513Y032645D02*
X018808Y032645D01*
X018906Y032743D01*
X018906Y032940D01*
X018808Y033039D01*
X018513Y033039D01*
X018513Y032448D01*
X018181Y033039D02*
X018083Y033039D01*
X018483Y033495D02*
X018680Y033495D01*
X018581Y033495D02*
X018581Y033889D01*
X018483Y033889D01*
X018581Y034086D02*
X018581Y034184D01*
X018913Y033889D02*
X019208Y033889D01*
X019306Y033790D01*
X019306Y033495D01*
X019557Y033495D02*
X019557Y034086D01*
X019852Y033889D02*
X019557Y033692D01*
X019852Y033495D01*
X019900Y033236D02*
X020097Y033236D01*
X020195Y033137D01*
X020195Y033039D01*
X020097Y032940D01*
X020195Y032842D01*
X020195Y032743D01*
X020097Y032645D01*
X019900Y032645D01*
X019802Y032743D01*
X019551Y032842D02*
X019551Y032940D01*
X019452Y033039D01*
X019256Y033039D01*
X019157Y032940D01*
X019157Y032743D01*
X019256Y032645D01*
X019452Y032645D01*
X019551Y032842D02*
X019157Y032842D01*
X018913Y033495D02*
X018913Y033889D01*
X019802Y033137D02*
X019900Y033236D01*
X019999Y032940D02*
X020097Y032940D01*
X023538Y033643D02*
X023637Y033545D01*
X023834Y033545D01*
X023932Y033643D01*
X023932Y034037D01*
X023834Y034136D01*
X023637Y034136D01*
X023538Y034037D01*
X023538Y033643D01*
X023938Y033236D02*
X024234Y033236D01*
X024332Y033137D01*
X024332Y032940D01*
X024234Y032842D01*
X023938Y032842D01*
X023938Y032645D02*
X023938Y033236D01*
X024183Y033545D02*
X024183Y033939D01*
X024380Y033939D02*
X024478Y033939D01*
X024380Y033939D02*
X024183Y033742D01*
X024720Y033643D02*
X024818Y033742D01*
X025114Y033742D01*
X025114Y033840D02*
X025114Y033545D01*
X024818Y033545D01*
X024720Y033643D01*
X024681Y033334D02*
X024681Y033236D01*
X024681Y033039D02*
X024681Y032645D01*
X024583Y032645D02*
X024780Y032645D01*
X025013Y032645D02*
X025308Y032645D01*
X025406Y032743D01*
X025406Y032940D01*
X025308Y033039D01*
X025013Y033039D01*
X025013Y032448D01*
X024681Y033039D02*
X024583Y033039D01*
X025365Y033545D02*
X025365Y033939D01*
X025660Y033939D01*
X025758Y033840D01*
X025758Y033545D01*
X026009Y033643D02*
X026009Y033840D01*
X026108Y033939D01*
X026403Y033939D01*
X026403Y033447D01*
X026304Y033348D01*
X026206Y033348D01*
X026108Y033545D02*
X026403Y033545D01*
X026654Y033643D02*
X026654Y033840D01*
X026752Y033939D01*
X026949Y033939D01*
X027047Y033840D01*
X027047Y033742D01*
X026654Y033742D01*
X026654Y033643D02*
X026752Y033545D01*
X026949Y033545D01*
X026597Y033236D02*
X026400Y033236D01*
X026302Y033137D01*
X026597Y033236D02*
X026695Y033137D01*
X026695Y033039D01*
X026302Y032645D01*
X026695Y032645D01*
X026051Y032842D02*
X025657Y032842D01*
X025657Y032940D02*
X025657Y032743D01*
X025756Y032645D01*
X025952Y032645D01*
X026051Y032842D02*
X026051Y032940D01*
X025952Y033039D01*
X025756Y033039D01*
X025657Y032940D01*
X026108Y033545D02*
X026009Y033643D01*
X025114Y033840D02*
X025015Y033939D01*
X024818Y033939D01*
X030388Y034037D02*
X030388Y033643D01*
X030487Y033545D01*
X030684Y033545D01*
X030782Y033643D01*
X030782Y033840D01*
X030585Y033840D01*
X030388Y034037D02*
X030487Y034136D01*
X030684Y034136D01*
X030782Y034037D01*
X031033Y033939D02*
X031033Y033545D01*
X031033Y033742D02*
X031230Y033939D01*
X031328Y033939D01*
X031570Y033840D02*
X031570Y033643D01*
X031668Y033545D01*
X031865Y033545D01*
X031964Y033742D02*
X031570Y033742D01*
X031570Y033840D02*
X031668Y033939D01*
X031865Y033939D01*
X031964Y033840D01*
X031964Y033742D01*
X032215Y033742D02*
X032608Y033742D01*
X032608Y033840D01*
X032510Y033939D01*
X032313Y033939D01*
X032215Y033840D01*
X032215Y033643D01*
X032313Y033545D01*
X032510Y033545D01*
X032859Y033545D02*
X032859Y033939D01*
X033154Y033939D01*
X033253Y033840D01*
X033253Y033545D01*
X033049Y033236D02*
X033049Y032645D01*
X033245Y032645D02*
X032852Y032645D01*
X032601Y032842D02*
X032601Y032940D01*
X032502Y033039D01*
X032306Y033039D01*
X032207Y032940D01*
X032207Y032743D01*
X032306Y032645D01*
X032502Y032645D01*
X032601Y032842D02*
X032207Y032842D01*
X031956Y032940D02*
X031956Y032743D01*
X031858Y032645D01*
X031563Y032645D01*
X031563Y032448D02*
X031563Y033039D01*
X031858Y033039D01*
X031956Y032940D01*
X031330Y032645D02*
X031133Y032645D01*
X031231Y032645D02*
X031231Y033039D01*
X031133Y033039D01*
X031231Y033236D02*
X031231Y033334D01*
X030882Y033137D02*
X030882Y032940D01*
X030784Y032842D01*
X030488Y032842D01*
X030488Y032645D02*
X030488Y033236D01*
X030784Y033236D01*
X030882Y033137D01*
X032852Y033039D02*
X033049Y033236D01*
X036988Y033236D02*
X036988Y032645D01*
X036988Y032842D02*
X037284Y032842D01*
X037382Y032940D01*
X037382Y033137D01*
X037284Y033236D01*
X036988Y033236D01*
X037338Y033495D02*
X037634Y033495D01*
X037732Y033593D01*
X037732Y033692D01*
X037634Y033790D01*
X037338Y033790D01*
X037338Y033495D02*
X037338Y034086D01*
X037634Y034086D01*
X037732Y033987D01*
X037732Y033889D01*
X037634Y033790D01*
X037983Y033495D02*
X038180Y033495D01*
X038081Y033495D02*
X038081Y034086D01*
X037983Y034086D01*
X038413Y033889D02*
X038413Y033593D01*
X038511Y033495D01*
X038806Y033495D01*
X038806Y033889D01*
X039057Y033790D02*
X039156Y033889D01*
X039352Y033889D01*
X039451Y033790D01*
X039451Y033692D01*
X039057Y033692D01*
X039057Y033790D02*
X039057Y033593D01*
X039156Y033495D01*
X039352Y033495D01*
X039450Y033236D02*
X039647Y033236D01*
X039745Y033137D01*
X039352Y032743D01*
X039450Y032645D01*
X039647Y032645D01*
X039745Y032743D01*
X039745Y033137D01*
X039450Y033236D02*
X039352Y033137D01*
X039352Y032743D01*
X039101Y032842D02*
X039101Y032940D01*
X039002Y033039D01*
X038806Y033039D01*
X038707Y032940D01*
X038707Y032743D01*
X038806Y032645D01*
X039002Y032645D01*
X039101Y032842D02*
X038707Y032842D01*
X038456Y032940D02*
X038456Y032743D01*
X038358Y032645D01*
X038063Y032645D01*
X038063Y032448D02*
X038063Y033039D01*
X038358Y033039D01*
X038456Y032940D01*
X037830Y032645D02*
X037633Y032645D01*
X037731Y032645D02*
X037731Y033039D01*
X037633Y033039D01*
X037731Y033236D02*
X037731Y033334D01*
X036580Y028294D02*
X036186Y028294D01*
X036088Y028196D01*
X036088Y027900D01*
X036678Y027900D01*
X036678Y028196D01*
X036580Y028294D01*
X036580Y027650D02*
X036186Y027650D01*
X036088Y027551D01*
X036088Y027354D01*
X036186Y027256D01*
X036580Y027256D01*
X036678Y027354D01*
X036678Y027551D01*
X036580Y027650D01*
X036580Y027005D02*
X036186Y027005D01*
X036088Y026907D01*
X036088Y026710D01*
X036186Y026611D01*
X036580Y026611D01*
X036678Y026710D01*
X036678Y026907D01*
X036580Y027005D01*
X036383Y026164D02*
X036383Y025967D01*
X036088Y025967D02*
X036088Y026360D01*
X036088Y025967D02*
X036678Y025967D01*
X036678Y024162D02*
X036678Y023965D01*
X036678Y024064D02*
X036088Y024064D01*
X036088Y024162D02*
X036088Y023965D01*
X036186Y023714D02*
X036088Y023616D01*
X036088Y023321D01*
X036678Y023321D01*
X036481Y023321D02*
X036481Y023616D01*
X036383Y023714D01*
X036186Y023714D01*
X036186Y023070D02*
X036088Y022971D01*
X036088Y022775D01*
X036186Y022676D01*
X036285Y022676D01*
X036383Y022775D01*
X036383Y022971D01*
X036481Y023070D01*
X036580Y023070D01*
X036678Y022971D01*
X036678Y022775D01*
X036580Y022676D01*
X036383Y022425D02*
X036383Y022032D01*
X036285Y021781D02*
X036383Y021682D01*
X036481Y021781D01*
X036580Y021781D01*
X036678Y021682D01*
X036678Y021486D01*
X036580Y021387D01*
X036383Y021584D02*
X036383Y021682D01*
X036285Y021781D02*
X036186Y021781D01*
X036088Y021682D01*
X036088Y021486D01*
X036186Y021387D01*
X036186Y021136D02*
X036088Y021038D01*
X036088Y020743D01*
X036678Y020743D01*
X036481Y020743D02*
X036481Y021038D01*
X036383Y021136D01*
X036186Y021136D01*
X036088Y020492D02*
X036678Y020492D01*
X036678Y020098D02*
X036088Y020098D01*
X036285Y020295D01*
X036088Y020492D01*
X036186Y019244D02*
X036088Y019146D01*
X036088Y018949D01*
X036186Y018850D01*
X036580Y018850D01*
X036678Y018949D01*
X036678Y019146D01*
X036580Y019244D01*
X036186Y019244D01*
X036186Y018600D02*
X036088Y018501D01*
X036088Y018206D01*
X036678Y018206D01*
X036678Y018501D01*
X036580Y018600D01*
X036186Y018600D01*
X036285Y017955D02*
X036088Y017758D01*
X036285Y017561D01*
X036678Y017561D01*
X036383Y017561D02*
X036383Y017955D01*
X036285Y017955D02*
X036678Y017955D01*
X036383Y017310D02*
X036383Y016917D01*
X036285Y016666D02*
X036383Y016567D01*
X036481Y016666D01*
X036580Y016666D01*
X036678Y016567D01*
X036678Y016371D01*
X036580Y016272D01*
X036383Y016469D02*
X036383Y016567D01*
X036285Y016666D02*
X036186Y016666D01*
X036088Y016567D01*
X036088Y016371D01*
X036186Y016272D01*
X036186Y016021D02*
X036088Y015923D01*
X036088Y015628D01*
X036678Y015628D01*
X036481Y015628D02*
X036481Y015923D01*
X036383Y016021D01*
X036186Y016021D01*
X036088Y015377D02*
X036678Y015377D01*
X036678Y014983D02*
X036088Y014983D01*
X036285Y015180D01*
X036088Y015377D01*
X030778Y009239D02*
X030483Y009239D01*
X030483Y008845D01*
X030232Y008943D02*
X030232Y009337D01*
X030134Y009436D01*
X029937Y009436D01*
X029838Y009337D01*
X029838Y008943D01*
X029937Y008845D01*
X030134Y008845D01*
X030232Y008943D01*
X030778Y009239D02*
X030877Y009140D01*
X030877Y008845D01*
X030859Y001286D02*
X030761Y001187D01*
X030761Y000695D01*
X030663Y000990D02*
X030859Y000990D01*
X030430Y000990D02*
X030233Y000990D01*
X030331Y001187D02*
X030430Y001286D01*
X030331Y001187D02*
X030331Y000695D01*
X029982Y000793D02*
X029982Y001187D01*
X029884Y001286D01*
X029687Y001286D01*
X029588Y001187D01*
X029588Y000793D01*
X029687Y000695D01*
X029884Y000695D01*
X029982Y000793D01*
X038638Y002843D02*
X038737Y002745D01*
X038934Y002745D01*
X039032Y002843D01*
X039032Y002942D01*
X038934Y003040D01*
X038737Y003040D01*
X038638Y003139D01*
X038638Y003237D01*
X038737Y003336D01*
X038934Y003336D01*
X039032Y003237D01*
X039283Y003336D02*
X039677Y003336D01*
X039480Y003336D02*
X039480Y002745D01*
X039927Y002745D02*
X039927Y003139D01*
X040124Y003336D01*
X040321Y003139D01*
X040321Y002745D01*
X040321Y003040D02*
X039927Y003040D01*
X040572Y003336D02*
X040966Y003336D01*
X040769Y003336D02*
X040769Y002745D01*
D16*
X036970Y010105D02*
X036335Y010105D01*
X036123Y010317D01*
X036123Y010741D01*
X036335Y010952D01*
X036970Y010952D01*
X036970Y011376D02*
X036970Y010105D01*
X035589Y010105D02*
X035589Y010741D01*
X035377Y010952D01*
X034742Y010952D01*
X034742Y010105D01*
X034208Y010105D02*
X034208Y010952D01*
X034208Y010105D02*
X033573Y010105D01*
X033361Y010317D01*
X033361Y010952D01*
X032827Y010741D02*
X032615Y010952D01*
X032191Y010952D01*
X031980Y010741D01*
X031980Y010317D01*
X032191Y010105D01*
X032615Y010105D01*
X032827Y010317D01*
X032827Y010741D01*
X031446Y010529D02*
X031446Y010317D01*
X031234Y010105D01*
X030810Y010105D01*
X030598Y010317D01*
X030810Y010741D02*
X031234Y010741D01*
X031446Y010529D01*
X031446Y011164D02*
X031234Y011376D01*
X030810Y011376D01*
X030598Y011164D01*
X030598Y010952D01*
X030810Y010741D01*
X024339Y010691D02*
X024339Y010479D01*
X023492Y010479D01*
X023492Y010691D02*
X023704Y010902D01*
X024127Y010902D01*
X024339Y010691D01*
X024127Y010055D02*
X023704Y010055D01*
X023492Y010267D01*
X023492Y010691D01*
X022958Y010691D02*
X022958Y010055D01*
X022534Y010055D02*
X022534Y010691D01*
X022746Y010902D01*
X022958Y010691D01*
X022534Y010691D02*
X022323Y010902D01*
X022111Y010902D01*
X022111Y010055D01*
X021577Y010055D02*
X021577Y010691D01*
X021365Y010902D01*
X020941Y010902D01*
X020941Y010479D02*
X021577Y010479D01*
X021577Y010055D02*
X020941Y010055D01*
X020730Y010267D01*
X020941Y010479D01*
X020196Y010267D02*
X020196Y010691D01*
X019772Y010691D01*
X019348Y011114D02*
X019348Y010267D01*
X019560Y010055D01*
X019984Y010055D01*
X020196Y010267D01*
X020196Y011114D02*
X019984Y011326D01*
X019560Y011326D01*
X019348Y011114D01*
X012709Y010952D02*
X012497Y010952D01*
X012073Y010529D01*
X012073Y010952D02*
X012073Y010105D01*
X011539Y010529D02*
X010692Y010529D01*
X010692Y010741D02*
X010904Y010952D01*
X011327Y010952D01*
X011539Y010741D01*
X011539Y010529D01*
X011327Y010105D02*
X010904Y010105D01*
X010692Y010317D01*
X010692Y010741D01*
X010158Y010952D02*
X010158Y010317D01*
X009946Y010105D01*
X009734Y010317D01*
X009523Y010105D01*
X009311Y010317D01*
X009311Y010952D01*
X008777Y010741D02*
X008565Y010952D01*
X008141Y010952D01*
X007930Y010741D01*
X007930Y010317D01*
X008141Y010105D01*
X008565Y010105D01*
X008777Y010317D01*
X008777Y010741D01*
X007396Y010741D02*
X007184Y010529D01*
X006548Y010529D01*
X006548Y010105D02*
X006548Y011376D01*
X007184Y011376D01*
X007396Y011164D01*
X007396Y010741D01*
D17*
X007146Y014965D02*
X006721Y015249D01*
X007146Y015532D01*
X007488Y015390D02*
X008055Y015390D01*
X008409Y015390D02*
X008976Y015390D01*
X008976Y015532D02*
X008976Y014965D01*
X009330Y015390D02*
X009897Y015390D01*
X010250Y015249D02*
X010818Y015816D01*
X011313Y015532D02*
X011597Y015532D01*
X011738Y015390D01*
X011738Y014965D01*
X011313Y014965D01*
X011171Y015107D01*
X011313Y015249D01*
X011738Y015249D01*
X012092Y015532D02*
X012376Y015532D01*
X012234Y015674D02*
X012234Y015107D01*
X012376Y014965D01*
X012848Y015107D02*
X012848Y015674D01*
X012706Y015532D02*
X012989Y015532D01*
X012848Y015107D02*
X012989Y014965D01*
X010818Y014965D02*
X010392Y015390D01*
X010250Y014965D02*
X010250Y015816D01*
X008976Y015532D02*
X008692Y015816D01*
X008409Y015532D01*
X008409Y014965D01*
X006721Y014965D02*
X006721Y015816D01*
X006367Y015532D02*
X005942Y015532D01*
X005800Y015390D01*
X005800Y015107D01*
X005942Y014965D01*
X006367Y014965D01*
X005446Y014965D02*
X005021Y014965D01*
X004879Y015107D01*
X005021Y015249D01*
X005446Y015249D01*
X005446Y015390D02*
X005446Y014965D01*
X005446Y015390D02*
X005304Y015532D01*
X005021Y015532D01*
X004525Y015816D02*
X004525Y014965D01*
X004242Y015249D01*
X003958Y014965D01*
X003958Y015816D01*
D18*
X004923Y016550D02*
X004939Y016529D01*
X004959Y016512D01*
X005006Y016482D01*
X005040Y016466D01*
X005076Y016458D01*
X005177Y016451D01*
X005230Y016453D01*
X005281Y016460D01*
X005321Y016471D01*
X005358Y016489D01*
X005391Y016513D01*
X005419Y016542D01*
X005434Y016564D01*
X005445Y016589D01*
X005450Y016615D01*
X005453Y016656D01*
X005450Y016698D01*
X005343Y016698D01*
X005346Y016706D02*
X005233Y016706D01*
X005213Y016715D02*
X005331Y016715D01*
X005327Y016706D02*
X005447Y016706D01*
X005450Y016698D02*
X005436Y016737D01*
X005426Y016753D01*
X005413Y016767D01*
X005386Y016787D01*
X005356Y016803D01*
X005291Y016827D01*
X005223Y016842D01*
X005143Y016858D01*
X005113Y016869D01*
X005085Y016886D01*
X005073Y016899D01*
X005065Y016914D01*
X005063Y016930D01*
X005065Y016946D01*
X005071Y016961D01*
X005081Y016973D01*
X005094Y016981D01*
X005112Y016987D01*
X005130Y016991D01*
X005164Y016993D01*
X005198Y016991D01*
X005219Y016987D01*
X005238Y016979D01*
X005255Y016968D01*
X005267Y016957D01*
X005276Y016944D01*
X005282Y016929D01*
X005285Y016919D01*
X005437Y016919D01*
X005436Y016927D02*
X005283Y016927D01*
X005285Y016919D02*
X005285Y016908D01*
X005438Y016908D01*
X005435Y016936D01*
X005354Y016987D01*
X005175Y017039D01*
X005010Y016996D01*
X005031Y016876D01*
X005204Y016773D01*
X005371Y016682D01*
X005328Y016554D01*
X005173Y016519D01*
X004951Y016519D01*
X004961Y016511D02*
X005388Y016511D01*
X005397Y016519D02*
X005174Y016519D01*
X005173Y016519D02*
X004888Y016660D01*
X005169Y016512D01*
X005331Y016548D01*
X005375Y016679D01*
X005368Y016693D01*
X005043Y016882D01*
X005024Y016990D01*
X005173Y017035D01*
X005339Y016982D01*
X005416Y016925D01*
X005435Y016939D01*
X005427Y016961D01*
X005367Y016961D01*
X005356Y016970D02*
X005423Y016970D01*
X005420Y016978D02*
X005345Y016978D01*
X005355Y016987D02*
X005219Y016987D01*
X005239Y016978D02*
X005368Y016978D01*
X005382Y016970D02*
X005253Y016970D01*
X005262Y016961D02*
X005395Y016961D01*
X005409Y016953D02*
X005270Y016953D01*
X005276Y016944D02*
X005422Y016944D01*
X005433Y016944D02*
X005390Y016944D01*
X005379Y016953D02*
X005430Y016953D01*
X005427Y016961D02*
X005413Y016992D01*
X005402Y017009D01*
X005388Y017025D01*
X005351Y017055D01*
X004980Y017055D01*
X004967Y017048D02*
X004949Y017033D01*
X004933Y017016D01*
X004921Y016995D01*
X004907Y016952D01*
X004902Y016908D01*
X004906Y016863D01*
X004912Y016844D01*
X004922Y016826D01*
X004935Y016811D01*
X004962Y016790D01*
X004992Y016773D01*
X005023Y016761D01*
X005166Y016727D01*
X005213Y016715D01*
X005257Y016696D01*
X005272Y016686D01*
X005283Y016673D01*
X005290Y016658D01*
X005294Y016641D01*
X005293Y016624D01*
X005288Y016608D01*
X005280Y016593D01*
X005267Y016581D01*
X005246Y016568D01*
X005223Y016560D01*
X005198Y016557D01*
X005145Y016557D01*
X005122Y016560D01*
X005098Y016569D01*
X005077Y016583D01*
X005058Y016601D01*
X005048Y016618D01*
X005042Y016638D01*
X004930Y016638D01*
X004933Y016638D02*
X004891Y016638D01*
X004889Y016646D02*
X004893Y016623D01*
X004910Y016573D01*
X004923Y016550D01*
X004921Y016553D02*
X005104Y016553D01*
X005107Y016545D02*
X005316Y016545D01*
X005324Y016553D02*
X005427Y016553D01*
X005421Y016545D02*
X005287Y016545D01*
X005278Y016536D02*
X005123Y016536D01*
X005122Y016545D02*
X004926Y016545D01*
X004933Y016536D02*
X005139Y016536D01*
X005140Y016528D02*
X005240Y016528D01*
X005249Y016536D02*
X005414Y016536D01*
X005405Y016528D02*
X005212Y016528D01*
X005201Y016519D02*
X005156Y016519D01*
X005156Y016528D02*
X004941Y016528D01*
X004916Y016562D02*
X005087Y016562D01*
X005091Y016553D02*
X005333Y016553D01*
X005331Y016562D02*
X005433Y016562D01*
X005437Y016570D02*
X005334Y016570D01*
X005339Y016570D02*
X005250Y016570D01*
X005264Y016579D02*
X005342Y016579D01*
X005337Y016579D02*
X005440Y016579D01*
X005444Y016587D02*
X005339Y016587D01*
X005344Y016587D02*
X005274Y016587D01*
X005281Y016596D02*
X005347Y016596D01*
X005342Y016596D02*
X005446Y016596D01*
X005448Y016604D02*
X005345Y016604D01*
X005350Y016604D02*
X005286Y016604D01*
X005290Y016613D02*
X005353Y016613D01*
X005348Y016613D02*
X005450Y016613D01*
X005451Y016621D02*
X005351Y016621D01*
X005356Y016621D02*
X005292Y016621D01*
X005294Y016630D02*
X005359Y016630D01*
X005354Y016630D02*
X005451Y016630D01*
X005452Y016638D02*
X005357Y016638D01*
X005362Y016638D02*
X005294Y016638D01*
X005293Y016647D02*
X005364Y016647D01*
X005359Y016647D02*
X005453Y016647D01*
X005453Y016655D02*
X005362Y016655D01*
X005367Y016655D02*
X005291Y016655D01*
X005288Y016664D02*
X005370Y016664D01*
X005365Y016664D02*
X005453Y016664D01*
X005452Y016672D02*
X005368Y016672D01*
X005373Y016672D02*
X005283Y016672D01*
X005276Y016681D02*
X005375Y016681D01*
X005371Y016681D02*
X005451Y016681D01*
X005450Y016689D02*
X005358Y016689D01*
X005360Y016698D02*
X005253Y016698D01*
X005267Y016689D02*
X005370Y016689D01*
X005316Y016723D02*
X005181Y016723D01*
X005147Y016732D02*
X005302Y016732D01*
X005296Y016723D02*
X005441Y016723D01*
X005444Y016715D02*
X005311Y016715D01*
X005287Y016740D02*
X005111Y016740D01*
X005075Y016749D02*
X005273Y016749D01*
X005265Y016740D02*
X005434Y016740D01*
X005438Y016732D02*
X005280Y016732D01*
X005258Y016757D02*
X005039Y016757D01*
X005011Y016766D02*
X005243Y016766D01*
X005233Y016757D02*
X005423Y016757D01*
X005429Y016749D02*
X005249Y016749D01*
X005229Y016774D02*
X004990Y016774D01*
X004975Y016783D02*
X005214Y016783D01*
X005202Y016774D02*
X005404Y016774D01*
X005415Y016766D02*
X005218Y016766D01*
X005200Y016791D02*
X004960Y016791D01*
X004950Y016800D02*
X005185Y016800D01*
X005174Y016791D02*
X005378Y016791D01*
X005392Y016783D02*
X005188Y016783D01*
X005170Y016808D02*
X004939Y016808D01*
X004930Y016817D02*
X005156Y016817D01*
X005145Y016808D02*
X005342Y016808D01*
X005363Y016800D02*
X005160Y016800D01*
X005141Y016825D02*
X004923Y016825D01*
X004918Y016834D02*
X005126Y016834D01*
X005117Y016825D02*
X005296Y016825D01*
X005319Y016817D02*
X005131Y016817D01*
X005112Y016842D02*
X004913Y016842D01*
X004910Y016851D02*
X005097Y016851D01*
X005088Y016842D02*
X005223Y016842D01*
X005261Y016834D02*
X005102Y016834D01*
X005083Y016859D02*
X004908Y016859D01*
X004906Y016868D02*
X005068Y016868D01*
X005060Y016859D02*
X005140Y016859D01*
X005117Y016868D02*
X005045Y016868D01*
X005053Y016876D02*
X004905Y016876D01*
X004904Y016885D02*
X005043Y016885D01*
X005041Y016893D02*
X004904Y016893D01*
X004903Y016902D02*
X005040Y016902D01*
X005038Y016910D02*
X004902Y016910D01*
X004903Y016919D02*
X005037Y016919D01*
X005035Y016927D02*
X004904Y016927D01*
X004905Y016936D02*
X005034Y016936D01*
X005032Y016944D02*
X004906Y016944D01*
X004907Y016953D02*
X005031Y016953D01*
X005029Y016961D02*
X004910Y016961D01*
X004913Y016970D02*
X005028Y016970D01*
X005026Y016978D02*
X004916Y016978D01*
X004919Y016987D02*
X005025Y016987D01*
X005012Y016987D02*
X005110Y016987D01*
X005090Y016978D02*
X005013Y016978D01*
X005015Y016970D02*
X005079Y016970D01*
X005071Y016961D02*
X005016Y016961D01*
X005018Y016953D02*
X005068Y016953D01*
X005064Y016944D02*
X005019Y016944D01*
X005021Y016936D02*
X005063Y016936D01*
X005063Y016927D02*
X005022Y016927D01*
X005024Y016919D02*
X005065Y016919D01*
X005067Y016910D02*
X005025Y016910D01*
X005027Y016902D02*
X005072Y016902D01*
X005078Y016893D02*
X005028Y016893D01*
X005030Y016885D02*
X005088Y016885D01*
X005101Y016876D02*
X005031Y016876D01*
X005074Y016851D02*
X005180Y016851D01*
X005285Y016910D02*
X005438Y016910D01*
X005419Y016927D02*
X005413Y016927D01*
X005402Y016936D02*
X005431Y016936D01*
X005435Y016936D02*
X005280Y016936D01*
X005298Y016995D02*
X005411Y016995D01*
X005416Y016987D02*
X005325Y016987D01*
X005326Y016995D02*
X005010Y016995D01*
X005040Y017004D02*
X005297Y017004D01*
X005272Y017004D02*
X005406Y017004D01*
X005400Y017012D02*
X005245Y017012D01*
X005239Y017021D02*
X005105Y017021D01*
X005098Y017012D02*
X004931Y017012D01*
X004926Y017004D02*
X005070Y017004D01*
X005072Y017012D02*
X005268Y017012D01*
X005218Y017021D02*
X005392Y017021D01*
X005383Y017029D02*
X005192Y017029D01*
X005180Y017038D02*
X005170Y017038D01*
X005154Y017029D02*
X004945Y017029D01*
X004938Y017021D02*
X005126Y017021D01*
X005138Y017029D02*
X005209Y017029D01*
X005199Y017096D02*
X005128Y017096D01*
X005072Y017090D01*
X005018Y017074D01*
X004967Y017048D01*
X004965Y017046D02*
X005362Y017046D01*
X005372Y017038D02*
X004954Y017038D01*
X004997Y017063D02*
X005334Y017063D01*
X005351Y017055D02*
X005307Y017076D01*
X005254Y017090D01*
X005199Y017096D01*
X005261Y017089D02*
X005068Y017089D01*
X005039Y017080D02*
X005292Y017080D01*
X005316Y017072D02*
X005014Y017072D01*
X005041Y016995D02*
X004921Y016995D01*
X004888Y016660D02*
X005040Y016660D01*
X005040Y016658D01*
X005042Y016638D01*
X005044Y016630D02*
X004946Y016630D01*
X004950Y016630D02*
X004892Y016630D01*
X004894Y016621D02*
X004967Y016621D01*
X004962Y016621D02*
X005047Y016621D01*
X005051Y016613D02*
X004978Y016613D01*
X004984Y016613D02*
X004897Y016613D01*
X004900Y016604D02*
X005001Y016604D01*
X004994Y016604D02*
X005056Y016604D01*
X005064Y016596D02*
X005011Y016596D01*
X005018Y016596D02*
X004903Y016596D01*
X004906Y016587D02*
X005036Y016587D01*
X005027Y016587D02*
X005072Y016587D01*
X005083Y016579D02*
X005043Y016579D01*
X005053Y016579D02*
X004908Y016579D01*
X004912Y016570D02*
X005070Y016570D01*
X005075Y016562D02*
X005118Y016562D01*
X005096Y016570D02*
X005059Y016570D01*
X005041Y016647D02*
X004914Y016647D01*
X004915Y016647D02*
X004889Y016647D01*
X004889Y016646D02*
X004888Y016660D01*
X004889Y016655D02*
X004898Y016655D01*
X005041Y016655D01*
X004975Y016502D02*
X005376Y016502D01*
X005364Y016494D02*
X004988Y016494D01*
X005001Y016485D02*
X005350Y016485D01*
X005332Y016477D02*
X005018Y016477D01*
X005036Y016468D02*
X005310Y016468D01*
X005279Y016460D02*
X005069Y016460D01*
X005175Y016451D02*
X005182Y016451D01*
X005228Y016562D02*
X005336Y016562D01*
X005535Y016562D02*
X005698Y016562D01*
X005698Y016570D02*
X005535Y016570D01*
X005535Y016579D02*
X005698Y016579D01*
X005698Y016587D02*
X005535Y016587D01*
X005535Y016596D02*
X005698Y016596D01*
X005698Y016604D02*
X005535Y016604D01*
X005535Y016613D02*
X005698Y016613D01*
X005698Y016621D02*
X005535Y016621D01*
X005535Y016630D02*
X005698Y016630D01*
X005698Y016638D02*
X005535Y016638D01*
X005535Y016647D02*
X005698Y016647D01*
X005698Y016655D02*
X005535Y016655D01*
X005535Y016664D02*
X005706Y016664D01*
X005707Y016663D01*
X005706Y016661D01*
X005705Y016660D01*
X005703Y016660D01*
X005698Y016660D01*
X005698Y016097D01*
X005535Y016244D01*
X005535Y017054D01*
X005688Y017083D01*
X005687Y017004D01*
X005690Y017001D01*
X005692Y017000D01*
X005701Y017010D01*
X005736Y017048D01*
X005750Y017060D01*
X005765Y017069D01*
X005817Y017090D01*
X005836Y017094D01*
X005914Y017095D01*
X005957Y017088D01*
X005997Y017072D01*
X006033Y017051D01*
X006065Y017025D01*
X006096Y016990D01*
X006119Y016949D01*
X006146Y016866D01*
X006157Y016779D01*
X006152Y016692D01*
X006140Y016638D01*
X005970Y016638D01*
X005971Y016639D02*
X005982Y016670D01*
X005994Y016748D01*
X005994Y016826D01*
X005987Y016865D01*
X005970Y016902D01*
X005946Y016933D01*
X005915Y016959D01*
X005895Y016970D01*
X006108Y016970D01*
X006103Y016978D02*
X005535Y016978D01*
X005535Y016970D02*
X005784Y016970D01*
X005791Y016973D02*
X005776Y016966D01*
X005747Y016943D01*
X005723Y016916D01*
X005707Y016887D01*
X005696Y016856D01*
X005691Y016823D01*
X005692Y016722D01*
X005697Y016691D01*
X005706Y016664D01*
X005710Y016657D02*
X005710Y016655D01*
X005711Y016651D01*
X005713Y016648D01*
X005715Y016645D01*
X005727Y016622D01*
X005744Y016603D01*
X005765Y016588D01*
X005793Y016576D01*
X005822Y016570D01*
X005859Y016570D01*
X005895Y016577D01*
X005926Y016591D01*
X005951Y016612D01*
X005971Y016639D01*
X005973Y016647D02*
X006142Y016647D01*
X006144Y016655D02*
X005977Y016655D01*
X005980Y016664D02*
X006146Y016664D01*
X006148Y016672D02*
X005983Y016672D01*
X005984Y016681D02*
X006150Y016681D01*
X006152Y016689D02*
X005985Y016689D01*
X005987Y016698D02*
X006153Y016698D01*
X006153Y016706D02*
X005988Y016706D01*
X005989Y016715D02*
X006154Y016715D01*
X006154Y016723D02*
X005991Y016723D01*
X005992Y016732D02*
X006154Y016732D01*
X006155Y016740D02*
X005993Y016740D01*
X005994Y016749D02*
X006155Y016749D01*
X006156Y016757D02*
X005994Y016757D01*
X005994Y016766D02*
X006156Y016766D01*
X006157Y016774D02*
X005994Y016774D01*
X005994Y016783D02*
X006157Y016783D01*
X006155Y016791D02*
X005994Y016791D01*
X005994Y016800D02*
X006154Y016800D01*
X006153Y016808D02*
X005994Y016808D01*
X005994Y016817D02*
X006152Y016817D01*
X006151Y016825D02*
X005994Y016825D01*
X005993Y016834D02*
X006150Y016834D01*
X006149Y016842D02*
X005991Y016842D01*
X005989Y016851D02*
X006148Y016851D01*
X006147Y016859D02*
X005988Y016859D01*
X005986Y016868D02*
X006145Y016868D01*
X006143Y016876D02*
X005982Y016876D01*
X005978Y016885D02*
X006140Y016885D01*
X006137Y016893D02*
X005974Y016893D01*
X005970Y016902D02*
X006134Y016902D01*
X006132Y016910D02*
X005964Y016910D01*
X005957Y016919D02*
X006129Y016919D01*
X006126Y016927D02*
X005951Y016927D01*
X005943Y016936D02*
X006124Y016936D01*
X006121Y016944D02*
X005933Y016944D01*
X005923Y016953D02*
X006117Y016953D01*
X006113Y016961D02*
X005911Y016961D01*
X005895Y016970D02*
X005872Y016976D01*
X005849Y016978D01*
X005806Y016976D01*
X005791Y016973D01*
X005770Y016961D02*
X005535Y016961D01*
X005535Y016953D02*
X005759Y016953D01*
X005748Y016944D02*
X005535Y016944D01*
X005535Y016936D02*
X005741Y016936D01*
X005733Y016927D02*
X005535Y016927D01*
X005535Y016919D02*
X005726Y016919D01*
X005720Y016910D02*
X005535Y016910D01*
X005535Y016902D02*
X005715Y016902D01*
X005710Y016893D02*
X005535Y016893D01*
X005535Y016885D02*
X005706Y016885D01*
X005703Y016876D02*
X005535Y016876D01*
X005535Y016868D02*
X005700Y016868D01*
X005697Y016859D02*
X005535Y016859D01*
X005535Y016851D02*
X005695Y016851D01*
X005694Y016842D02*
X005535Y016842D01*
X005535Y016834D02*
X005693Y016834D01*
X005692Y016825D02*
X005535Y016825D01*
X005535Y016817D02*
X005691Y016817D01*
X005691Y016808D02*
X005535Y016808D01*
X005535Y016800D02*
X005692Y016800D01*
X005692Y016791D02*
X005535Y016791D01*
X005535Y016783D02*
X005692Y016783D01*
X005692Y016774D02*
X005535Y016774D01*
X005535Y016766D02*
X005692Y016766D01*
X005692Y016757D02*
X005535Y016757D01*
X005535Y016749D02*
X005692Y016749D01*
X005692Y016740D02*
X005535Y016740D01*
X005535Y016732D02*
X005692Y016732D01*
X005692Y016723D02*
X005535Y016723D01*
X005535Y016715D02*
X005694Y016715D01*
X005695Y016706D02*
X005535Y016706D01*
X005535Y016698D02*
X005696Y016698D01*
X005698Y016689D02*
X005535Y016689D01*
X005535Y016681D02*
X005701Y016681D01*
X005704Y016672D02*
X005535Y016672D01*
X005535Y016553D02*
X005698Y016553D01*
X005698Y016545D02*
X005535Y016545D01*
X005535Y016536D02*
X005698Y016536D01*
X005698Y016528D02*
X005535Y016528D01*
X005535Y016519D02*
X005698Y016519D01*
X005698Y016511D02*
X005535Y016511D01*
X005535Y016502D02*
X005698Y016502D01*
X005698Y016494D02*
X005535Y016494D01*
X005535Y016485D02*
X005698Y016485D01*
X005698Y016477D02*
X005535Y016477D01*
X005535Y016468D02*
X005698Y016468D01*
X005698Y016460D02*
X005535Y016460D01*
X005535Y016451D02*
X005698Y016451D01*
X005698Y016443D02*
X005535Y016443D01*
X005535Y016434D02*
X005698Y016434D01*
X005698Y016426D02*
X005535Y016426D01*
X005535Y016417D02*
X005698Y016417D01*
X005698Y016409D02*
X005535Y016409D01*
X005535Y016400D02*
X005698Y016400D01*
X005698Y016392D02*
X005535Y016392D01*
X005535Y016383D02*
X005698Y016383D01*
X005698Y016375D02*
X005535Y016375D01*
X005535Y016366D02*
X005698Y016366D01*
X005698Y016358D02*
X005535Y016358D01*
X005535Y016349D02*
X005698Y016349D01*
X005698Y016341D02*
X005535Y016341D01*
X005535Y016332D02*
X005698Y016332D01*
X005698Y016324D02*
X005535Y016324D01*
X005535Y016315D02*
X005698Y016315D01*
X005698Y016307D02*
X005535Y016307D01*
X005535Y016298D02*
X005698Y016298D01*
X005698Y016290D02*
X005535Y016290D01*
X005535Y016281D02*
X005698Y016281D01*
X005698Y016273D02*
X005535Y016273D01*
X005535Y016264D02*
X005698Y016264D01*
X005698Y016256D02*
X005535Y016256D01*
X005535Y016247D02*
X005698Y016247D01*
X005698Y016239D02*
X005541Y016239D01*
X005551Y016230D02*
X005698Y016230D01*
X005698Y016222D02*
X005560Y016222D01*
X005570Y016213D02*
X005698Y016213D01*
X005698Y016205D02*
X005579Y016205D01*
X005588Y016196D02*
X005698Y016196D01*
X005698Y016188D02*
X005598Y016188D01*
X005607Y016179D02*
X005698Y016179D01*
X005698Y016171D02*
X005617Y016171D01*
X005626Y016162D02*
X005698Y016162D01*
X005698Y016154D02*
X005636Y016154D01*
X005645Y016145D02*
X005698Y016145D01*
X005698Y016137D02*
X005654Y016137D01*
X005664Y016128D02*
X005698Y016128D01*
X005698Y016120D02*
X005673Y016120D01*
X005683Y016111D02*
X005698Y016111D01*
X005698Y016103D02*
X005692Y016103D01*
X005812Y016460D02*
X005959Y016460D01*
X005961Y016460D02*
X005914Y016453D01*
X005865Y016452D01*
X005817Y016458D01*
X005784Y016468D01*
X005754Y016486D01*
X005728Y016509D01*
X005707Y016537D01*
X005707Y016654D01*
X005710Y016657D01*
X005708Y016655D02*
X005710Y016655D01*
X005707Y016647D02*
X005714Y016647D01*
X005719Y016638D02*
X005707Y016638D01*
X005707Y016630D02*
X005724Y016630D01*
X005728Y016621D02*
X005707Y016621D01*
X005707Y016613D02*
X005736Y016613D01*
X005743Y016604D02*
X005707Y016604D01*
X005707Y016596D02*
X005755Y016596D01*
X005767Y016587D02*
X005707Y016587D01*
X005707Y016579D02*
X005787Y016579D01*
X005822Y016570D02*
X005707Y016570D01*
X005707Y016562D02*
X006101Y016562D01*
X006107Y016570D02*
X005861Y016570D01*
X005899Y016579D02*
X006113Y016579D01*
X006118Y016587D02*
X006087Y016540D01*
X006061Y016512D01*
X006031Y016489D01*
X005998Y016472D01*
X005961Y016460D01*
X005987Y016468D02*
X005785Y016468D01*
X005770Y016477D02*
X006007Y016477D01*
X006024Y016485D02*
X005755Y016485D01*
X005745Y016494D02*
X006037Y016494D01*
X006048Y016502D02*
X005735Y016502D01*
X005727Y016511D02*
X006059Y016511D01*
X006068Y016519D02*
X005720Y016519D01*
X005714Y016528D02*
X006076Y016528D01*
X006084Y016536D02*
X005708Y016536D01*
X005707Y016545D02*
X006090Y016545D01*
X006096Y016553D02*
X005707Y016553D01*
X005917Y016587D02*
X006118Y016587D01*
X006140Y016638D01*
X006136Y016630D02*
X005964Y016630D01*
X005958Y016621D02*
X006133Y016621D01*
X006129Y016613D02*
X005952Y016613D01*
X005942Y016604D02*
X006125Y016604D01*
X006122Y016596D02*
X005931Y016596D01*
X006219Y016617D02*
X006227Y016576D01*
X006241Y016537D01*
X006253Y016518D01*
X006268Y016501D01*
X006285Y016488D01*
X006335Y016464D01*
X006389Y016452D01*
X006454Y016451D01*
X006517Y016460D01*
X006558Y016474D01*
X006596Y016495D01*
X006628Y016523D01*
X006630Y016524D01*
X006633Y016525D01*
X006635Y016524D01*
X006637Y016522D01*
X006638Y016520D01*
X006647Y016479D01*
X006650Y016468D01*
X006813Y016468D01*
X006813Y016466D02*
X006810Y016474D01*
X006796Y016526D01*
X006792Y016579D01*
X006793Y016750D01*
X006632Y016750D01*
X006632Y016717D01*
X006630Y016674D01*
X006621Y016631D01*
X006619Y016624D01*
X006615Y016613D01*
X006608Y016604D01*
X006578Y016575D01*
X006566Y016567D01*
X006552Y016562D01*
X006510Y016556D01*
X006449Y016558D01*
X006430Y016562D01*
X006412Y016571D01*
X006397Y016583D01*
X006389Y016594D01*
X006383Y016606D01*
X006380Y016619D01*
X006380Y016643D01*
X006384Y016667D01*
X006393Y016689D01*
X006402Y016702D01*
X006413Y016712D01*
X006433Y016724D01*
X006454Y016732D01*
X006476Y016736D01*
X006533Y016742D01*
X006572Y016749D01*
X006260Y016749D01*
X006264Y016754D02*
X006244Y016730D01*
X006227Y016696D01*
X006219Y016659D01*
X006219Y016617D01*
X006219Y016621D02*
X006380Y016621D01*
X006382Y016613D02*
X006220Y016613D01*
X006222Y016604D02*
X006384Y016604D01*
X006388Y016596D02*
X006223Y016596D01*
X006225Y016587D02*
X006394Y016587D01*
X006403Y016579D02*
X006226Y016579D01*
X006229Y016570D02*
X006413Y016570D01*
X006432Y016562D02*
X006232Y016562D01*
X006235Y016553D02*
X006794Y016553D01*
X006795Y016545D02*
X006238Y016545D01*
X006242Y016536D02*
X006796Y016536D01*
X006796Y016528D02*
X006247Y016528D01*
X006252Y016519D02*
X006624Y016519D01*
X006614Y016511D02*
X006259Y016511D01*
X006267Y016502D02*
X006604Y016502D01*
X006593Y016494D02*
X006278Y016494D01*
X006291Y016485D02*
X006578Y016485D01*
X006563Y016477D02*
X006309Y016477D01*
X006327Y016468D02*
X006541Y016468D01*
X006515Y016460D02*
X006355Y016460D01*
X006427Y016451D02*
X006458Y016451D01*
X006550Y016562D02*
X006794Y016562D01*
X006793Y016570D02*
X006571Y016570D01*
X006582Y016579D02*
X006792Y016579D01*
X006792Y016587D02*
X006591Y016587D01*
X006600Y016596D02*
X006792Y016596D01*
X006792Y016604D02*
X006608Y016604D01*
X006614Y016613D02*
X006793Y016613D01*
X006793Y016621D02*
X006618Y016621D01*
X006621Y016630D02*
X006793Y016630D01*
X006793Y016638D02*
X006623Y016638D01*
X006624Y016647D02*
X006793Y016647D01*
X006793Y016655D02*
X006626Y016655D01*
X006628Y016664D02*
X006793Y016664D01*
X006793Y016672D02*
X006629Y016672D01*
X006630Y016681D02*
X006793Y016681D01*
X006793Y016689D02*
X006631Y016689D01*
X006631Y016698D02*
X006793Y016698D01*
X006793Y016706D02*
X006632Y016706D01*
X006632Y016715D02*
X006793Y016715D01*
X006793Y016723D02*
X006632Y016723D01*
X006632Y016732D02*
X006793Y016732D01*
X006793Y016740D02*
X006632Y016740D01*
X006632Y016749D02*
X006793Y016749D01*
X006792Y016754D02*
X006792Y016944D01*
X006789Y016973D01*
X006778Y017000D01*
X006761Y017024D01*
X006739Y017043D01*
X006688Y017070D01*
X006632Y017087D01*
X006564Y017096D01*
X006495Y017096D01*
X006426Y017088D01*
X006378Y017075D01*
X006332Y017054D01*
X006300Y017031D01*
X006273Y017003D01*
X006253Y016969D01*
X006240Y016932D01*
X006234Y016893D01*
X006234Y016893D01*
X006233Y016894D01*
X006400Y016894D01*
X006400Y016896D01*
X006403Y016918D01*
X006411Y016938D01*
X006423Y016957D01*
X006439Y016971D01*
X006458Y016982D01*
X006481Y016989D01*
X006505Y016991D01*
X006559Y016989D01*
X006575Y016986D01*
X006589Y016981D01*
X006602Y016973D01*
X006613Y016963D01*
X006621Y016951D01*
X006627Y016938D01*
X006632Y016916D01*
X006632Y016894D01*
X006627Y016873D01*
X006625Y016868D01*
X006792Y016868D01*
X006792Y016876D02*
X006628Y016876D01*
X006625Y016868D02*
X006622Y016864D01*
X006610Y016853D01*
X006593Y016843D01*
X006573Y016836D01*
X006521Y016827D01*
X006434Y016818D01*
X006374Y016807D01*
X006315Y016788D01*
X006288Y016774D01*
X006264Y016754D01*
X006268Y016757D02*
X006601Y016757D01*
X006610Y016760D02*
X006618Y016764D01*
X006625Y016770D01*
X006630Y016778D01*
X006632Y016778D01*
X006632Y016754D01*
X006792Y016754D01*
X006792Y016757D02*
X006632Y016757D01*
X006632Y016766D02*
X006792Y016766D01*
X006792Y016774D02*
X006632Y016774D01*
X006628Y016774D02*
X006289Y016774D01*
X006278Y016766D02*
X006620Y016766D01*
X006610Y016760D02*
X006572Y016749D01*
X006516Y016740D02*
X006253Y016740D01*
X006246Y016732D02*
X006454Y016732D01*
X006432Y016723D02*
X006241Y016723D01*
X006237Y016715D02*
X006418Y016715D01*
X006407Y016706D02*
X006232Y016706D01*
X006228Y016698D02*
X006399Y016698D01*
X006393Y016689D02*
X006226Y016689D01*
X006224Y016681D02*
X006390Y016681D01*
X006386Y016672D02*
X006222Y016672D01*
X006220Y016664D02*
X006384Y016664D01*
X006382Y016655D02*
X006219Y016655D01*
X006219Y016647D02*
X006381Y016647D01*
X006380Y016638D02*
X006219Y016638D01*
X006219Y016630D02*
X006380Y016630D01*
X006305Y016783D02*
X006792Y016783D01*
X006792Y016791D02*
X006325Y016791D01*
X006351Y016800D02*
X006792Y016800D01*
X006792Y016808D02*
X006380Y016808D01*
X006427Y016817D02*
X006792Y016817D01*
X006792Y016825D02*
X006503Y016825D01*
X006560Y016834D02*
X006792Y016834D01*
X006792Y016842D02*
X006591Y016842D01*
X006606Y016851D02*
X006792Y016851D01*
X006792Y016859D02*
X006617Y016859D01*
X006630Y016885D02*
X006792Y016885D01*
X006792Y016893D02*
X006632Y016893D01*
X006632Y016902D02*
X006792Y016902D01*
X006792Y016910D02*
X006632Y016910D01*
X006631Y016919D02*
X006792Y016919D01*
X006792Y016927D02*
X006630Y016927D01*
X006628Y016936D02*
X006792Y016936D01*
X006792Y016944D02*
X006625Y016944D01*
X006620Y016953D02*
X006791Y016953D01*
X006790Y016961D02*
X006614Y016961D01*
X006606Y016970D02*
X006789Y016970D01*
X006787Y016978D02*
X006594Y016978D01*
X006574Y016987D02*
X006783Y016987D01*
X006780Y016995D02*
X006269Y016995D01*
X006264Y016987D02*
X006474Y016987D01*
X006451Y016978D02*
X006258Y016978D01*
X006253Y016970D02*
X006437Y016970D01*
X006428Y016961D02*
X006250Y016961D01*
X006247Y016953D02*
X006420Y016953D01*
X006414Y016944D02*
X006244Y016944D01*
X006241Y016936D02*
X006410Y016936D01*
X006406Y016927D02*
X006239Y016927D01*
X006238Y016919D02*
X006403Y016919D01*
X006402Y016910D02*
X006237Y016910D01*
X006235Y016902D02*
X006401Y016902D01*
X006282Y017012D02*
X006770Y017012D01*
X006776Y017004D02*
X006274Y017004D01*
X006290Y017021D02*
X006764Y017021D01*
X006755Y017029D02*
X006298Y017029D01*
X006309Y017038D02*
X006746Y017038D01*
X006733Y017046D02*
X006321Y017046D01*
X006334Y017055D02*
X006717Y017055D01*
X006701Y017063D02*
X006352Y017063D01*
X006371Y017072D02*
X006683Y017072D01*
X006655Y017080D02*
X006398Y017080D01*
X006432Y017089D02*
X006620Y017089D01*
X006900Y017052D02*
X006899Y016466D01*
X007063Y016466D01*
X007063Y016774D01*
X007066Y016808D01*
X007074Y016841D01*
X007089Y016873D01*
X007110Y016901D01*
X007137Y016924D01*
X007157Y016935D01*
X007178Y016942D01*
X007200Y016946D01*
X007261Y016946D01*
X007285Y016941D01*
X007291Y016940D01*
X007292Y016940D01*
X007292Y017092D01*
X007238Y017095D01*
X007211Y017092D01*
X007184Y017083D01*
X007160Y017069D01*
X007125Y017046D01*
X007110Y017034D01*
X007097Y017019D01*
X007070Y016978D01*
X007062Y016966D01*
X007056Y016964D01*
X007052Y016966D01*
X007052Y017079D01*
X006900Y017052D01*
X006900Y017046D02*
X007052Y017046D01*
X007052Y017038D02*
X006900Y017038D01*
X006900Y017029D02*
X007052Y017029D01*
X007052Y017021D02*
X006900Y017021D01*
X006900Y017012D02*
X007052Y017012D01*
X007052Y017004D02*
X006900Y017004D01*
X006900Y016995D02*
X007052Y016995D01*
X007052Y016987D02*
X006900Y016987D01*
X006900Y016978D02*
X007052Y016978D01*
X007052Y016970D02*
X006900Y016970D01*
X006900Y016961D02*
X007292Y016961D01*
X007292Y016953D02*
X006900Y016953D01*
X006900Y016944D02*
X007190Y016944D01*
X007159Y016936D02*
X006900Y016936D01*
X006900Y016927D02*
X007143Y016927D01*
X007131Y016919D02*
X006900Y016919D01*
X006900Y016910D02*
X007121Y016910D01*
X007111Y016902D02*
X006900Y016902D01*
X006900Y016893D02*
X007104Y016893D01*
X007098Y016885D02*
X006900Y016885D01*
X006900Y016876D02*
X007091Y016876D01*
X007086Y016868D02*
X006900Y016868D01*
X006900Y016859D02*
X007083Y016859D01*
X007079Y016851D02*
X006900Y016851D01*
X006900Y016842D02*
X007075Y016842D01*
X007073Y016834D02*
X006900Y016834D01*
X006900Y016825D02*
X007070Y016825D01*
X007068Y016817D02*
X006900Y016817D01*
X006900Y016808D02*
X007066Y016808D01*
X007066Y016800D02*
X006900Y016800D01*
X006900Y016791D02*
X007065Y016791D01*
X007064Y016783D02*
X006900Y016783D01*
X006900Y016774D02*
X007063Y016774D01*
X007063Y016766D02*
X006900Y016766D01*
X006900Y016757D02*
X007063Y016757D01*
X007063Y016749D02*
X006900Y016749D01*
X006900Y016740D02*
X007063Y016740D01*
X007063Y016732D02*
X006900Y016732D01*
X006900Y016723D02*
X007063Y016723D01*
X007063Y016715D02*
X006900Y016715D01*
X006900Y016706D02*
X007063Y016706D01*
X007063Y016698D02*
X006900Y016698D01*
X006900Y016689D02*
X007063Y016689D01*
X007063Y016681D02*
X006900Y016681D01*
X006900Y016672D02*
X007063Y016672D01*
X007063Y016664D02*
X006900Y016664D01*
X006900Y016655D02*
X007063Y016655D01*
X007063Y016647D02*
X006900Y016647D01*
X006900Y016638D02*
X007063Y016638D01*
X007063Y016630D02*
X006900Y016630D01*
X006900Y016621D02*
X007063Y016621D01*
X007063Y016613D02*
X006900Y016613D01*
X006900Y016604D02*
X007063Y016604D01*
X007063Y016596D02*
X006900Y016596D01*
X006900Y016587D02*
X007063Y016587D01*
X007063Y016579D02*
X006900Y016579D01*
X006899Y016570D02*
X007063Y016570D01*
X007063Y016562D02*
X006899Y016562D01*
X006899Y016553D02*
X007063Y016553D01*
X007063Y016545D02*
X006899Y016545D01*
X006899Y016536D02*
X007063Y016536D01*
X007063Y016528D02*
X006899Y016528D01*
X006899Y016519D02*
X007063Y016519D01*
X007063Y016511D02*
X006899Y016511D01*
X006899Y016502D02*
X007063Y016502D01*
X007063Y016494D02*
X006899Y016494D01*
X006899Y016485D02*
X007063Y016485D01*
X007063Y016477D02*
X006899Y016477D01*
X006899Y016468D02*
X007063Y016468D01*
X006813Y016466D02*
X006654Y016466D01*
X006653Y016466D01*
X006651Y016467D01*
X006650Y016468D01*
X006648Y016477D02*
X006810Y016477D01*
X006807Y016485D02*
X006646Y016485D01*
X006644Y016494D02*
X006805Y016494D01*
X006803Y016502D02*
X006642Y016502D01*
X006640Y016511D02*
X006800Y016511D01*
X006798Y016519D02*
X006639Y016519D01*
X006915Y017055D02*
X007052Y017055D01*
X007052Y017063D02*
X006963Y017063D01*
X007011Y017072D02*
X007052Y017072D01*
X007106Y017029D02*
X007292Y017029D01*
X007292Y017021D02*
X007099Y017021D01*
X007093Y017012D02*
X007292Y017012D01*
X007292Y017004D02*
X007087Y017004D01*
X007082Y016995D02*
X007292Y016995D01*
X007292Y016987D02*
X007076Y016987D01*
X007070Y016978D02*
X007292Y016978D01*
X007292Y016970D02*
X007065Y016970D01*
X007114Y017038D02*
X007292Y017038D01*
X007292Y017046D02*
X007126Y017046D01*
X007139Y017055D02*
X007292Y017055D01*
X007292Y017063D02*
X007151Y017063D01*
X007165Y017072D02*
X007292Y017072D01*
X007292Y017080D02*
X007180Y017080D01*
X007202Y017089D02*
X007292Y017089D01*
X007366Y017089D02*
X007529Y017089D01*
X007529Y017097D02*
X007366Y017097D01*
X007366Y017106D02*
X007529Y017106D01*
X007529Y017114D02*
X007366Y017114D01*
X007366Y017123D02*
X007529Y017123D01*
X007529Y017131D02*
X007366Y017131D01*
X007366Y017140D02*
X007529Y017140D01*
X007529Y017148D02*
X007366Y017148D01*
X007366Y017157D02*
X007529Y017157D01*
X007529Y017165D02*
X007366Y017165D01*
X007366Y017174D02*
X007529Y017174D01*
X007529Y017182D02*
X007366Y017182D01*
X007366Y017191D02*
X007529Y017191D01*
X007529Y017199D02*
X007366Y017199D01*
X007366Y017208D02*
X007529Y017208D01*
X007529Y017216D02*
X007366Y017216D01*
X007366Y017224D02*
X007529Y017317D01*
X007529Y016855D01*
X007753Y017079D01*
X007937Y017079D01*
X007710Y016857D01*
X007972Y016464D01*
X007772Y016465D01*
X007604Y016742D01*
X007602Y016745D01*
X007531Y016676D01*
X007531Y016461D01*
X007368Y016461D01*
X007366Y016463D01*
X007366Y017224D01*
X007367Y017225D02*
X007529Y017225D01*
X007529Y017233D02*
X007382Y017233D01*
X007397Y017242D02*
X007529Y017242D01*
X007529Y017250D02*
X007412Y017250D01*
X007427Y017259D02*
X007529Y017259D01*
X007529Y017267D02*
X007442Y017267D01*
X007457Y017276D02*
X007529Y017276D01*
X007529Y017284D02*
X007472Y017284D01*
X007487Y017293D02*
X007529Y017293D01*
X007529Y017301D02*
X007502Y017301D01*
X007516Y017310D02*
X007529Y017310D01*
X007722Y017310D02*
X007797Y017310D01*
X007804Y017318D02*
X007722Y017318D01*
X007722Y017327D02*
X007812Y017327D01*
X007819Y017335D02*
X007722Y017335D01*
X007722Y017344D02*
X007827Y017344D01*
X007834Y017352D02*
X007722Y017352D01*
X007722Y017361D02*
X007842Y017361D01*
X007850Y017369D02*
X007722Y017369D01*
X007722Y017378D02*
X007857Y017378D01*
X007865Y017386D02*
X007722Y017386D01*
X007722Y017395D02*
X007872Y017395D01*
X007880Y017403D02*
X007722Y017403D01*
X007722Y017412D02*
X007887Y017412D01*
X007895Y017420D02*
X007722Y017420D01*
X007722Y017429D02*
X007902Y017429D01*
X007910Y017437D02*
X007722Y017437D01*
X007722Y017446D02*
X007918Y017446D01*
X007914Y017442D02*
X007948Y017473D01*
X007988Y017497D01*
X008003Y017502D01*
X008018Y017505D01*
X008108Y017505D01*
X008162Y017510D01*
X008214Y017524D01*
X008262Y017548D01*
X008308Y017580D01*
X008349Y017618D01*
X008383Y017662D01*
X008421Y017728D01*
X008445Y017800D01*
X008457Y017875D01*
X008454Y017951D01*
X008446Y017992D01*
X008432Y018031D01*
X008412Y018068D01*
X008377Y018113D01*
X008332Y018149D01*
X008332Y018114D01*
X008332Y018108D01*
X008329Y018103D01*
X008318Y018089D01*
X008302Y018078D01*
X008294Y018075D01*
X008272Y018073D01*
X008249Y018077D01*
X008229Y018087D01*
X008193Y018113D01*
X008177Y018127D01*
X008162Y018144D01*
X008151Y018163D01*
X008142Y018183D01*
X008140Y018196D01*
X008140Y018209D01*
X008147Y018231D01*
X008159Y018250D01*
X008175Y018265D01*
X008195Y018276D01*
X008216Y018282D01*
X008236Y018284D01*
X008260Y018284D01*
X008259Y018285D01*
X008242Y018298D01*
X008222Y018307D01*
X008208Y018313D01*
X008199Y018317D01*
X008165Y018326D01*
X008129Y018329D01*
X008095Y018326D01*
X008062Y018317D01*
X008031Y018302D01*
X008001Y018280D01*
X007973Y018254D01*
X007956Y018230D01*
X007946Y018203D01*
X007942Y018174D01*
X007946Y018145D01*
X007957Y018118D01*
X008004Y018049D01*
X008061Y017988D01*
X008076Y017970D01*
X008086Y017949D01*
X008091Y017926D01*
X008089Y017903D01*
X008081Y017881D01*
X008068Y017862D01*
X008050Y017847D01*
X008028Y017835D01*
X008004Y017827D01*
X007979Y017823D01*
X007950Y017824D01*
X007922Y017833D01*
X007897Y017848D01*
X007884Y017862D01*
X007875Y017879D01*
X007871Y017897D01*
X007871Y017914D01*
X007875Y017932D01*
X007879Y017939D01*
X007884Y017944D01*
X007917Y017968D01*
X007924Y017971D01*
X007930Y017973D01*
X007937Y017972D01*
X007918Y017975D01*
X007881Y017978D01*
X007844Y017975D01*
X007817Y017968D01*
X007791Y017955D01*
X007769Y017938D01*
X007750Y017916D01*
X007735Y017887D01*
X007725Y017856D01*
X007722Y017823D01*
X007722Y017226D01*
X007914Y017442D01*
X007928Y017454D02*
X007722Y017454D01*
X007722Y017463D02*
X007937Y017463D01*
X007946Y017471D02*
X007722Y017471D01*
X007722Y017480D02*
X007959Y017480D01*
X007973Y017488D02*
X007722Y017488D01*
X007722Y017497D02*
X007988Y017497D01*
X008110Y017505D02*
X007722Y017505D01*
X007722Y017514D02*
X008176Y017514D01*
X008206Y017522D02*
X007722Y017522D01*
X007722Y017531D02*
X008227Y017531D01*
X008244Y017539D02*
X007722Y017539D01*
X007722Y017548D02*
X008262Y017548D01*
X008274Y017556D02*
X007722Y017556D01*
X007722Y017565D02*
X008286Y017565D01*
X008298Y017573D02*
X007722Y017573D01*
X007722Y017582D02*
X008310Y017582D01*
X008319Y017590D02*
X007722Y017590D01*
X007722Y017599D02*
X008328Y017599D01*
X008337Y017607D02*
X007722Y017607D01*
X007722Y017616D02*
X008346Y017616D01*
X008353Y017624D02*
X007722Y017624D01*
X007722Y017633D02*
X008360Y017633D01*
X008367Y017641D02*
X007722Y017641D01*
X007722Y017650D02*
X008373Y017650D01*
X008380Y017658D02*
X007722Y017658D01*
X007722Y017667D02*
X008386Y017667D01*
X008391Y017675D02*
X007722Y017675D01*
X007722Y017684D02*
X008396Y017684D01*
X008400Y017692D02*
X007722Y017692D01*
X007722Y017701D02*
X008405Y017701D01*
X008410Y017709D02*
X007722Y017709D01*
X007722Y017718D02*
X008415Y017718D01*
X008419Y017726D02*
X007722Y017726D01*
X007722Y017735D02*
X008423Y017735D01*
X008426Y017743D02*
X007722Y017743D01*
X007722Y017752D02*
X008429Y017752D01*
X008432Y017760D02*
X007722Y017760D01*
X007722Y017769D02*
X008435Y017769D01*
X008437Y017777D02*
X007722Y017777D01*
X007722Y017786D02*
X008440Y017786D01*
X008443Y017794D02*
X007722Y017794D01*
X007722Y017803D02*
X008446Y017803D01*
X008447Y017811D02*
X007722Y017811D01*
X007722Y017820D02*
X008448Y017820D01*
X008450Y017828D02*
X008008Y017828D01*
X008031Y017837D02*
X008451Y017837D01*
X008452Y017845D02*
X008047Y017845D01*
X008058Y017854D02*
X008453Y017854D01*
X008455Y017862D02*
X008068Y017862D01*
X008074Y017871D02*
X008456Y017871D01*
X008457Y017879D02*
X008080Y017879D01*
X008083Y017888D02*
X008456Y017888D01*
X008456Y017896D02*
X008086Y017896D01*
X008089Y017905D02*
X008456Y017905D01*
X008456Y017913D02*
X008090Y017913D01*
X008090Y017922D02*
X008455Y017922D01*
X008455Y017930D02*
X008090Y017930D01*
X008088Y017939D02*
X008455Y017939D01*
X008454Y017947D02*
X008087Y017947D01*
X008083Y017956D02*
X008453Y017956D01*
X008452Y017964D02*
X008079Y017964D01*
X008074Y017973D02*
X008450Y017973D01*
X008448Y017981D02*
X008067Y017981D01*
X008060Y017990D02*
X008447Y017990D01*
X008444Y017998D02*
X008052Y017998D01*
X008044Y018007D02*
X008441Y018007D01*
X008438Y018015D02*
X008036Y018015D01*
X008028Y018024D02*
X008435Y018024D01*
X008432Y018032D02*
X008020Y018032D01*
X008012Y018041D02*
X008427Y018041D01*
X008422Y018049D02*
X008004Y018049D01*
X007998Y018058D02*
X008418Y018058D01*
X008413Y018066D02*
X007992Y018066D01*
X007987Y018075D02*
X008260Y018075D01*
X008237Y018083D02*
X007981Y018083D01*
X007975Y018092D02*
X008223Y018092D01*
X008211Y018100D02*
X007969Y018100D01*
X007964Y018109D02*
X008199Y018109D01*
X008188Y018117D02*
X007958Y018117D01*
X007954Y018126D02*
X008179Y018126D01*
X008171Y018134D02*
X007951Y018134D01*
X007947Y018143D02*
X008163Y018143D01*
X008158Y018151D02*
X007946Y018151D01*
X007944Y018160D02*
X008153Y018160D01*
X008149Y018168D02*
X007943Y018168D01*
X007943Y018177D02*
X008145Y018177D01*
X008142Y018185D02*
X007944Y018185D01*
X007945Y018194D02*
X008140Y018194D01*
X008140Y018202D02*
X007946Y018202D01*
X007949Y018211D02*
X008141Y018211D01*
X008143Y018219D02*
X007952Y018219D01*
X007955Y018228D02*
X008146Y018228D01*
X008150Y018236D02*
X007961Y018236D01*
X007967Y018245D02*
X008156Y018245D01*
X008162Y018253D02*
X007973Y018253D01*
X007981Y018262D02*
X008171Y018262D01*
X008184Y018270D02*
X007990Y018270D01*
X007999Y018279D02*
X008205Y018279D01*
X008209Y018313D02*
X008053Y018313D01*
X008036Y018304D02*
X008229Y018304D01*
X008246Y018296D02*
X008023Y018296D01*
X008011Y018287D02*
X008256Y018287D01*
X008260Y018284D02*
X008260Y018284D01*
X008183Y018321D02*
X008076Y018321D01*
X008332Y018143D02*
X008340Y018143D01*
X008332Y018134D02*
X008350Y018134D01*
X008361Y018126D02*
X008332Y018126D01*
X008332Y018117D02*
X008371Y018117D01*
X008380Y018109D02*
X008332Y018109D01*
X008327Y018100D02*
X008387Y018100D01*
X008393Y018092D02*
X008320Y018092D01*
X008310Y018083D02*
X008400Y018083D01*
X008407Y018075D02*
X008291Y018075D01*
X007933Y017973D02*
X007836Y017973D01*
X007810Y017964D02*
X007912Y017964D01*
X007900Y017956D02*
X007792Y017956D01*
X007781Y017947D02*
X007889Y017947D01*
X007879Y017939D02*
X007770Y017939D01*
X007762Y017930D02*
X007875Y017930D01*
X007873Y017922D02*
X007755Y017922D01*
X007749Y017913D02*
X007871Y017913D01*
X007871Y017905D02*
X007744Y017905D01*
X007739Y017896D02*
X007872Y017896D01*
X007873Y017888D02*
X007735Y017888D01*
X007732Y017879D02*
X007875Y017879D01*
X007880Y017871D02*
X007730Y017871D01*
X007727Y017862D02*
X007884Y017862D01*
X007892Y017854D02*
X007725Y017854D01*
X007724Y017845D02*
X007902Y017845D01*
X007916Y017837D02*
X007723Y017837D01*
X007723Y017828D02*
X007938Y017828D01*
X007789Y017301D02*
X007722Y017301D01*
X007722Y017293D02*
X007782Y017293D01*
X007774Y017284D02*
X007722Y017284D01*
X007722Y017276D02*
X007766Y017276D01*
X007759Y017267D02*
X007722Y017267D01*
X007722Y017259D02*
X007751Y017259D01*
X007744Y017250D02*
X007722Y017250D01*
X007722Y017242D02*
X007736Y017242D01*
X007729Y017233D02*
X007722Y017233D01*
X007746Y017072D02*
X007930Y017072D01*
X007921Y017063D02*
X007737Y017063D01*
X007729Y017055D02*
X007912Y017055D01*
X007904Y017046D02*
X007720Y017046D01*
X007712Y017038D02*
X007895Y017038D01*
X007886Y017029D02*
X007703Y017029D01*
X007695Y017021D02*
X007878Y017021D01*
X007869Y017012D02*
X007686Y017012D01*
X007678Y017004D02*
X007860Y017004D01*
X007852Y016995D02*
X007669Y016995D01*
X007661Y016987D02*
X007843Y016987D01*
X007834Y016978D02*
X007652Y016978D01*
X007644Y016970D02*
X007826Y016970D01*
X007817Y016961D02*
X007635Y016961D01*
X007627Y016953D02*
X007808Y016953D01*
X007799Y016944D02*
X007618Y016944D01*
X007610Y016936D02*
X007791Y016936D01*
X007782Y016927D02*
X007601Y016927D01*
X007593Y016919D02*
X007773Y016919D01*
X007765Y016910D02*
X007584Y016910D01*
X007576Y016902D02*
X007756Y016902D01*
X007747Y016893D02*
X007567Y016893D01*
X007559Y016885D02*
X007739Y016885D01*
X007730Y016876D02*
X007550Y016876D01*
X007542Y016868D02*
X007721Y016868D01*
X007713Y016859D02*
X007533Y016859D01*
X007529Y016859D02*
X007366Y016859D01*
X007366Y016851D02*
X007715Y016851D01*
X007720Y016842D02*
X007366Y016842D01*
X007366Y016834D02*
X007726Y016834D01*
X007732Y016825D02*
X007366Y016825D01*
X007366Y016817D02*
X007737Y016817D01*
X007743Y016808D02*
X007366Y016808D01*
X007366Y016800D02*
X007749Y016800D01*
X007754Y016791D02*
X007366Y016791D01*
X007366Y016783D02*
X007760Y016783D01*
X007766Y016774D02*
X007366Y016774D01*
X007366Y016766D02*
X007771Y016766D01*
X007777Y016757D02*
X007366Y016757D01*
X007366Y016749D02*
X007783Y016749D01*
X007788Y016740D02*
X007605Y016740D01*
X007597Y016740D02*
X007366Y016740D01*
X007366Y016732D02*
X007589Y016732D01*
X007580Y016723D02*
X007366Y016723D01*
X007366Y016715D02*
X007571Y016715D01*
X007562Y016706D02*
X007366Y016706D01*
X007366Y016698D02*
X007554Y016698D01*
X007545Y016689D02*
X007366Y016689D01*
X007366Y016681D02*
X007536Y016681D01*
X007531Y016672D02*
X007366Y016672D01*
X007366Y016664D02*
X007531Y016664D01*
X007531Y016655D02*
X007366Y016655D01*
X007366Y016647D02*
X007531Y016647D01*
X007531Y016638D02*
X007366Y016638D01*
X007366Y016630D02*
X007531Y016630D01*
X007531Y016621D02*
X007366Y016621D01*
X007366Y016613D02*
X007531Y016613D01*
X007531Y016604D02*
X007366Y016604D01*
X007366Y016596D02*
X007531Y016596D01*
X007531Y016587D02*
X007366Y016587D01*
X007366Y016579D02*
X007531Y016579D01*
X007531Y016570D02*
X007366Y016570D01*
X007366Y016562D02*
X007531Y016562D01*
X007531Y016553D02*
X007366Y016553D01*
X007366Y016545D02*
X007531Y016545D01*
X007531Y016536D02*
X007366Y016536D01*
X007366Y016528D02*
X007531Y016528D01*
X007531Y016519D02*
X007366Y016519D01*
X007366Y016511D02*
X007531Y016511D01*
X007531Y016502D02*
X007366Y016502D01*
X007366Y016494D02*
X007531Y016494D01*
X007531Y016485D02*
X007366Y016485D01*
X007366Y016477D02*
X007531Y016477D01*
X007531Y016468D02*
X007366Y016468D01*
X007662Y016647D02*
X007851Y016647D01*
X007845Y016655D02*
X007657Y016655D01*
X007652Y016664D02*
X007839Y016664D01*
X007834Y016672D02*
X007647Y016672D01*
X007642Y016681D02*
X007828Y016681D01*
X007822Y016689D02*
X007636Y016689D01*
X007631Y016698D02*
X007817Y016698D01*
X007811Y016706D02*
X007626Y016706D01*
X007621Y016715D02*
X007805Y016715D01*
X007800Y016723D02*
X007616Y016723D01*
X007611Y016732D02*
X007794Y016732D01*
X007856Y016638D02*
X007667Y016638D01*
X007672Y016630D02*
X007862Y016630D01*
X007868Y016621D02*
X007678Y016621D01*
X007683Y016613D02*
X007873Y016613D01*
X007879Y016604D02*
X007688Y016604D01*
X007693Y016596D02*
X007885Y016596D01*
X007890Y016587D02*
X007698Y016587D01*
X007703Y016579D02*
X007896Y016579D01*
X007902Y016570D02*
X007709Y016570D01*
X007714Y016562D02*
X007907Y016562D01*
X007913Y016553D02*
X007719Y016553D01*
X007724Y016545D02*
X007919Y016545D01*
X007924Y016536D02*
X007729Y016536D01*
X007734Y016528D02*
X007930Y016528D01*
X007936Y016519D02*
X007740Y016519D01*
X007745Y016511D02*
X007941Y016511D01*
X007947Y016502D02*
X007750Y016502D01*
X007755Y016494D02*
X007953Y016494D01*
X007958Y016485D02*
X007760Y016485D01*
X007765Y016477D02*
X007964Y016477D01*
X007970Y016468D02*
X007770Y016468D01*
X008085Y016468D02*
X008249Y016468D01*
X008249Y016462D02*
X008085Y016462D01*
X008085Y016974D01*
X007928Y016975D01*
X008033Y017080D01*
X008087Y017080D01*
X008087Y017098D01*
X008094Y017182D01*
X008100Y017204D01*
X008110Y017225D01*
X008123Y017244D01*
X008153Y017272D01*
X008187Y017294D01*
X008224Y017308D01*
X008264Y017315D01*
X008325Y017315D01*
X008377Y017312D01*
X008378Y017312D01*
X008378Y017193D01*
X008375Y017193D01*
X008364Y017194D01*
X008328Y017197D01*
X008291Y017194D01*
X008279Y017190D01*
X008268Y017182D01*
X008094Y017182D01*
X008094Y017174D02*
X008262Y017174D01*
X008260Y017172D02*
X008253Y017154D01*
X008250Y017135D01*
X008250Y017080D01*
X008367Y017080D01*
X008367Y016975D01*
X008249Y016975D01*
X008249Y016462D01*
X008249Y016477D02*
X008085Y016477D01*
X008085Y016485D02*
X008249Y016485D01*
X008249Y016494D02*
X008085Y016494D01*
X008085Y016502D02*
X008249Y016502D01*
X008249Y016511D02*
X008085Y016511D01*
X008085Y016519D02*
X008249Y016519D01*
X008249Y016528D02*
X008085Y016528D01*
X008085Y016536D02*
X008249Y016536D01*
X008249Y016545D02*
X008085Y016545D01*
X008085Y016553D02*
X008249Y016553D01*
X008249Y016562D02*
X008085Y016562D01*
X008085Y016570D02*
X008249Y016570D01*
X008249Y016579D02*
X008085Y016579D01*
X008085Y016587D02*
X008249Y016587D01*
X008249Y016596D02*
X008085Y016596D01*
X008085Y016604D02*
X008249Y016604D01*
X008249Y016613D02*
X008085Y016613D01*
X008085Y016621D02*
X008249Y016621D01*
X008249Y016630D02*
X008085Y016630D01*
X008085Y016638D02*
X008249Y016638D01*
X008249Y016647D02*
X008085Y016647D01*
X008085Y016655D02*
X008249Y016655D01*
X008249Y016664D02*
X008085Y016664D01*
X008085Y016672D02*
X008249Y016672D01*
X008249Y016681D02*
X008085Y016681D01*
X008085Y016689D02*
X008249Y016689D01*
X008249Y016698D02*
X008085Y016698D01*
X008085Y016706D02*
X008249Y016706D01*
X008249Y016715D02*
X008085Y016715D01*
X008085Y016723D02*
X008249Y016723D01*
X008249Y016732D02*
X008085Y016732D01*
X008085Y016740D02*
X008249Y016740D01*
X008249Y016749D02*
X008085Y016749D01*
X008085Y016757D02*
X008249Y016757D01*
X008249Y016766D02*
X008085Y016766D01*
X008085Y016774D02*
X008249Y016774D01*
X008249Y016783D02*
X008085Y016783D01*
X008085Y016791D02*
X008249Y016791D01*
X008249Y016800D02*
X008085Y016800D01*
X008085Y016808D02*
X008249Y016808D01*
X008249Y016817D02*
X008085Y016817D01*
X008085Y016825D02*
X008249Y016825D01*
X008249Y016834D02*
X008085Y016834D01*
X008085Y016842D02*
X008249Y016842D01*
X008249Y016851D02*
X008085Y016851D01*
X008085Y016859D02*
X008249Y016859D01*
X008249Y016868D02*
X008085Y016868D01*
X008085Y016876D02*
X008249Y016876D01*
X008249Y016885D02*
X008085Y016885D01*
X008085Y016893D02*
X008249Y016893D01*
X008249Y016902D02*
X008085Y016902D01*
X008085Y016910D02*
X008249Y016910D01*
X008249Y016919D02*
X008085Y016919D01*
X008085Y016927D02*
X008249Y016927D01*
X008249Y016936D02*
X008085Y016936D01*
X008085Y016944D02*
X008249Y016944D01*
X008249Y016953D02*
X008085Y016953D01*
X008085Y016961D02*
X008249Y016961D01*
X008249Y016970D02*
X008085Y016970D01*
X008087Y017080D02*
X008250Y017080D01*
X008250Y017089D02*
X008087Y017089D01*
X008087Y017097D02*
X008250Y017097D01*
X008250Y017106D02*
X008088Y017106D01*
X008089Y017114D02*
X008250Y017114D01*
X008250Y017123D02*
X008089Y017123D01*
X008090Y017131D02*
X008250Y017131D01*
X008251Y017140D02*
X008091Y017140D01*
X008092Y017148D02*
X008252Y017148D01*
X008254Y017157D02*
X008092Y017157D01*
X008093Y017165D02*
X008258Y017165D01*
X008260Y017172D02*
X008268Y017182D01*
X008282Y017191D02*
X008097Y017191D01*
X008099Y017199D02*
X008378Y017199D01*
X008378Y017208D02*
X008102Y017208D01*
X008106Y017216D02*
X008378Y017216D01*
X008378Y017225D02*
X008110Y017225D01*
X008116Y017233D02*
X008378Y017233D01*
X008378Y017242D02*
X008122Y017242D01*
X008130Y017250D02*
X008378Y017250D01*
X008378Y017259D02*
X008139Y017259D01*
X008148Y017267D02*
X008378Y017267D01*
X008378Y017276D02*
X008158Y017276D01*
X008172Y017284D02*
X008378Y017284D01*
X008378Y017293D02*
X008185Y017293D01*
X008206Y017301D02*
X008378Y017301D01*
X008378Y017310D02*
X008233Y017310D01*
X008367Y017072D02*
X008025Y017072D01*
X008016Y017063D02*
X008367Y017063D01*
X008367Y017055D02*
X008008Y017055D01*
X007999Y017046D02*
X008367Y017046D01*
X008367Y017038D02*
X007991Y017038D01*
X007982Y017029D02*
X008367Y017029D01*
X008367Y017021D02*
X007974Y017021D01*
X007965Y017012D02*
X008367Y017012D01*
X008367Y017004D02*
X007957Y017004D01*
X007948Y016995D02*
X008367Y016995D01*
X008367Y016987D02*
X007940Y016987D01*
X007931Y016978D02*
X008367Y016978D01*
X008425Y016978D02*
X008588Y016978D01*
X008588Y016970D02*
X008425Y016970D01*
X008425Y016961D02*
X008588Y016961D01*
X008588Y016953D02*
X008425Y016953D01*
X008425Y016944D02*
X008588Y016944D01*
X008588Y016936D02*
X008425Y016936D01*
X008425Y016927D02*
X008588Y016927D01*
X008588Y016919D02*
X008425Y016919D01*
X008425Y016910D02*
X008588Y016910D01*
X008588Y016902D02*
X008425Y016902D01*
X008425Y016893D02*
X008588Y016893D01*
X008588Y016885D02*
X008425Y016885D01*
X008425Y016876D02*
X008588Y016876D01*
X008588Y016868D02*
X008425Y016868D01*
X008425Y016859D02*
X008588Y016859D01*
X008588Y016851D02*
X008425Y016851D01*
X008425Y016842D02*
X008588Y016842D01*
X008588Y016834D02*
X008425Y016834D01*
X008425Y016825D02*
X008588Y016825D01*
X008588Y016817D02*
X008425Y016817D01*
X008425Y016808D02*
X008588Y016808D01*
X008588Y016800D02*
X008425Y016800D01*
X008425Y016791D02*
X008588Y016791D01*
X008588Y016783D02*
X008425Y016783D01*
X008425Y016774D02*
X008588Y016774D01*
X008588Y016766D02*
X008425Y016766D01*
X008425Y016757D02*
X008588Y016757D01*
X008588Y016749D02*
X008425Y016749D01*
X008425Y016740D02*
X008588Y016740D01*
X008588Y016732D02*
X008425Y016732D01*
X008425Y016723D02*
X008588Y016723D01*
X008588Y016715D02*
X008425Y016715D01*
X008425Y016706D02*
X008588Y016706D01*
X008588Y016698D02*
X008425Y016698D01*
X008425Y016689D02*
X008588Y016689D01*
X008588Y016688D02*
X008588Y017082D01*
X008425Y017082D01*
X008425Y016657D01*
X008429Y016614D01*
X008441Y016572D01*
X008460Y016533D01*
X008486Y016498D01*
X008496Y016489D01*
X008532Y016468D01*
X008750Y016468D01*
X008748Y016467D02*
X008785Y016493D01*
X008818Y016524D01*
X008845Y016559D01*
X008846Y016559D01*
X008846Y016465D01*
X009004Y016465D01*
X009004Y017080D01*
X008838Y017080D01*
X008838Y016753D01*
X008835Y016704D01*
X008826Y016656D01*
X008818Y016633D01*
X008804Y016613D01*
X008786Y016597D01*
X008765Y016585D01*
X008737Y016576D01*
X008708Y016574D01*
X008678Y016577D01*
X008650Y016586D01*
X008634Y016595D01*
X008620Y016608D01*
X008608Y016623D01*
X008594Y016654D01*
X008588Y016688D01*
X008590Y016681D02*
X008425Y016681D01*
X008425Y016672D02*
X008591Y016672D01*
X008593Y016664D02*
X008425Y016664D01*
X008426Y016655D02*
X008594Y016655D01*
X008598Y016647D02*
X008426Y016647D01*
X008427Y016638D02*
X008602Y016638D01*
X008605Y016630D02*
X008428Y016630D01*
X008429Y016621D02*
X008610Y016621D01*
X008616Y016613D02*
X008430Y016613D01*
X008432Y016604D02*
X008624Y016604D01*
X008634Y016596D02*
X008434Y016596D01*
X008437Y016587D02*
X008648Y016587D01*
X008673Y016579D02*
X008439Y016579D01*
X008442Y016570D02*
X009004Y016570D01*
X009004Y016562D02*
X008446Y016562D01*
X008450Y016553D02*
X008841Y016553D01*
X008846Y016553D02*
X009004Y016553D01*
X009004Y016545D02*
X008846Y016545D01*
X008846Y016536D02*
X009004Y016536D01*
X009004Y016528D02*
X008846Y016528D01*
X008846Y016519D02*
X009004Y016519D01*
X009004Y016511D02*
X008846Y016511D01*
X008846Y016502D02*
X009004Y016502D01*
X009004Y016494D02*
X008846Y016494D01*
X008846Y016485D02*
X009004Y016485D01*
X009004Y016477D02*
X008846Y016477D01*
X008846Y016468D02*
X009004Y016468D01*
X009102Y016468D02*
X009268Y016468D01*
X009268Y016462D02*
X009102Y016462D01*
X009102Y017081D01*
X009261Y017081D01*
X009261Y016994D01*
X009264Y016994D01*
X009268Y016995D01*
X009271Y016997D01*
X009276Y017003D01*
X009287Y017018D01*
X009303Y017037D01*
X009321Y017053D01*
X009357Y017075D01*
X009396Y017090D01*
X009437Y017096D01*
X009516Y017094D01*
X009555Y017086D01*
X009590Y017069D01*
X009621Y017045D01*
X009641Y017022D01*
X009656Y016997D01*
X009666Y016969D01*
X009676Y016925D01*
X009679Y016881D01*
X009679Y016466D01*
X009518Y016466D01*
X009518Y016846D01*
X009516Y016875D01*
X009508Y016903D01*
X009495Y016929D01*
X009483Y016945D01*
X009467Y016958D01*
X009449Y016967D01*
X009437Y016970D01*
X009423Y016971D01*
X009379Y016969D01*
X009357Y016965D01*
X009335Y016957D01*
X009316Y016944D01*
X009295Y016921D01*
X009280Y016893D01*
X009272Y016863D01*
X009268Y016831D01*
X009268Y016462D01*
X009102Y016462D01*
X009102Y017081D01*
X009261Y017081D01*
X009261Y016994D01*
X009264Y016994D01*
X009261Y016995D02*
X009102Y016995D01*
X009102Y016987D02*
X009660Y016987D01*
X009656Y016995D02*
X009269Y016995D01*
X009271Y016997D02*
X009268Y016995D01*
X009264Y016994D01*
X009261Y017004D02*
X009102Y017004D01*
X009102Y017012D02*
X009261Y017012D01*
X009261Y017021D02*
X009102Y017021D01*
X009102Y017029D02*
X009261Y017029D01*
X009261Y017038D02*
X009102Y017038D01*
X009102Y017046D02*
X009261Y017046D01*
X009261Y017055D02*
X009102Y017055D01*
X009102Y017063D02*
X009261Y017063D01*
X009261Y017072D02*
X009102Y017072D01*
X009102Y017080D02*
X009261Y017080D01*
X009277Y017002D02*
X009272Y016996D01*
X009277Y017004D02*
X009652Y017004D01*
X009647Y017012D02*
X009283Y017012D01*
X009290Y017021D02*
X009642Y017021D01*
X009635Y017029D02*
X009297Y017029D01*
X009304Y017038D02*
X009628Y017038D01*
X009620Y017046D02*
X009314Y017046D01*
X009324Y017055D02*
X009609Y017055D01*
X009598Y017063D02*
X009337Y017063D01*
X009351Y017072D02*
X009585Y017072D01*
X009567Y017080D02*
X009370Y017080D01*
X009393Y017089D02*
X009542Y017089D01*
X009461Y016961D02*
X009668Y016961D01*
X009670Y016953D02*
X009474Y016953D01*
X009484Y016944D02*
X009672Y016944D01*
X009674Y016936D02*
X009490Y016936D01*
X009496Y016927D02*
X009675Y016927D01*
X009676Y016919D02*
X009500Y016919D01*
X009666Y016969D02*
X009659Y016990D01*
X009649Y017010D01*
X009636Y017029D01*
X009621Y017045D01*
X009663Y016978D02*
X009102Y016978D01*
X009102Y016970D02*
X009394Y016970D01*
X009439Y016970D02*
X009666Y016970D01*
X009677Y016910D02*
X009504Y016910D01*
X009508Y016902D02*
X009678Y016902D01*
X009678Y016893D02*
X009511Y016893D01*
X009513Y016885D02*
X009679Y016885D01*
X009679Y016881D02*
X009679Y016466D01*
X009518Y016466D01*
X009518Y016846D01*
X009518Y016842D02*
X009679Y016842D01*
X009679Y016834D02*
X009518Y016834D01*
X009518Y016825D02*
X009679Y016825D01*
X009679Y016817D02*
X009518Y016817D01*
X009518Y016808D02*
X009679Y016808D01*
X009679Y016800D02*
X009518Y016800D01*
X009518Y016791D02*
X009679Y016791D01*
X009679Y016783D02*
X009518Y016783D01*
X009518Y016774D02*
X009679Y016774D01*
X009679Y016766D02*
X009518Y016766D01*
X009518Y016757D02*
X009679Y016757D01*
X009679Y016749D02*
X009518Y016749D01*
X009518Y016740D02*
X009679Y016740D01*
X009679Y016732D02*
X009518Y016732D01*
X009518Y016723D02*
X009679Y016723D01*
X009679Y016715D02*
X009518Y016715D01*
X009518Y016706D02*
X009679Y016706D01*
X009679Y016698D02*
X009518Y016698D01*
X009518Y016689D02*
X009679Y016689D01*
X009679Y016681D02*
X009518Y016681D01*
X009518Y016672D02*
X009679Y016672D01*
X009679Y016664D02*
X009518Y016664D01*
X009518Y016655D02*
X009679Y016655D01*
X009679Y016647D02*
X009518Y016647D01*
X009518Y016638D02*
X009679Y016638D01*
X009679Y016630D02*
X009518Y016630D01*
X009518Y016621D02*
X009679Y016621D01*
X009679Y016613D02*
X009518Y016613D01*
X009518Y016604D02*
X009679Y016604D01*
X009679Y016596D02*
X009518Y016596D01*
X009518Y016587D02*
X009679Y016587D01*
X009679Y016579D02*
X009518Y016579D01*
X009518Y016570D02*
X009679Y016570D01*
X009679Y016562D02*
X009518Y016562D01*
X009518Y016553D02*
X009679Y016553D01*
X009679Y016545D02*
X009518Y016545D01*
X009518Y016536D02*
X009679Y016536D01*
X009679Y016528D02*
X009518Y016528D01*
X009518Y016519D02*
X009679Y016519D01*
X009679Y016511D02*
X009518Y016511D01*
X009518Y016502D02*
X009679Y016502D01*
X009679Y016494D02*
X009518Y016494D01*
X009518Y016485D02*
X009679Y016485D01*
X009679Y016477D02*
X009518Y016477D01*
X009518Y016468D02*
X009679Y016468D01*
X009516Y017095D02*
X009477Y017097D01*
X009437Y017096D01*
X009346Y016961D02*
X009102Y016961D01*
X009102Y016953D02*
X009329Y016953D01*
X009317Y016944D02*
X009102Y016944D01*
X009102Y016936D02*
X009309Y016936D01*
X009301Y016927D02*
X009102Y016927D01*
X009102Y016919D02*
X009294Y016919D01*
X009290Y016910D02*
X009102Y016910D01*
X009102Y016902D02*
X009285Y016902D01*
X009280Y016893D02*
X009102Y016893D01*
X009102Y016885D02*
X009278Y016885D01*
X009275Y016876D02*
X009102Y016876D01*
X009102Y016868D02*
X009273Y016868D01*
X009271Y016859D02*
X009102Y016859D01*
X009102Y016851D02*
X009270Y016851D01*
X009269Y016842D02*
X009102Y016842D01*
X009102Y016834D02*
X009269Y016834D01*
X009268Y016825D02*
X009102Y016825D01*
X009102Y016817D02*
X009268Y016817D01*
X009268Y016808D02*
X009102Y016808D01*
X009102Y016800D02*
X009268Y016800D01*
X009268Y016804D02*
X009268Y016462D01*
X009268Y016477D02*
X009102Y016477D01*
X009102Y016485D02*
X009268Y016485D01*
X009268Y016494D02*
X009102Y016494D01*
X009102Y016502D02*
X009268Y016502D01*
X009268Y016511D02*
X009102Y016511D01*
X009102Y016519D02*
X009268Y016519D01*
X009268Y016528D02*
X009102Y016528D01*
X009102Y016536D02*
X009268Y016536D01*
X009268Y016545D02*
X009102Y016545D01*
X009102Y016553D02*
X009268Y016553D01*
X009268Y016562D02*
X009102Y016562D01*
X009102Y016570D02*
X009268Y016570D01*
X009268Y016579D02*
X009102Y016579D01*
X009102Y016587D02*
X009268Y016587D01*
X009268Y016596D02*
X009102Y016596D01*
X009102Y016604D02*
X009268Y016604D01*
X009268Y016613D02*
X009102Y016613D01*
X009102Y016621D02*
X009268Y016621D01*
X009268Y016630D02*
X009102Y016630D01*
X009102Y016638D02*
X009268Y016638D01*
X009268Y016647D02*
X009102Y016647D01*
X009102Y016655D02*
X009268Y016655D01*
X009268Y016664D02*
X009102Y016664D01*
X009102Y016672D02*
X009268Y016672D01*
X009268Y016681D02*
X009102Y016681D01*
X009102Y016689D02*
X009268Y016689D01*
X009268Y016698D02*
X009102Y016698D01*
X009102Y016706D02*
X009268Y016706D01*
X009268Y016715D02*
X009102Y016715D01*
X009102Y016723D02*
X009268Y016723D01*
X009268Y016732D02*
X009102Y016732D01*
X009102Y016740D02*
X009268Y016740D01*
X009268Y016749D02*
X009102Y016749D01*
X009102Y016757D02*
X009268Y016757D01*
X009268Y016766D02*
X009102Y016766D01*
X009102Y016774D02*
X009268Y016774D01*
X009268Y016783D02*
X009102Y016783D01*
X009102Y016791D02*
X009268Y016791D01*
X009518Y016846D02*
X009517Y016868D01*
X009512Y016889D01*
X009505Y016909D01*
X009495Y016929D01*
X009517Y017093D02*
X009540Y017089D01*
X009562Y017083D01*
X009584Y017073D01*
X009604Y017060D01*
X009621Y017044D01*
X009679Y016876D02*
X009515Y016876D01*
X009516Y016868D02*
X009679Y016868D01*
X009679Y016859D02*
X009517Y016859D01*
X009518Y016851D02*
X009679Y016851D01*
X009280Y016893D02*
X009274Y016873D01*
X009270Y016852D01*
X009268Y016831D01*
X009680Y016881D02*
X009678Y016911D01*
X009674Y016941D01*
X009667Y016970D01*
X009438Y017096D02*
X009413Y017093D01*
X009388Y017087D01*
X009365Y017079D01*
X009342Y017067D01*
X009322Y017053D01*
X009423Y016971D02*
X009436Y016970D01*
X009449Y016967D01*
X009321Y017053D02*
X009303Y017037D01*
X009287Y017018D01*
X009317Y016944D02*
X009331Y016954D01*
X009346Y016962D01*
X009362Y016967D01*
X009380Y016969D01*
X009449Y016967D02*
X009463Y016960D01*
X009476Y016952D01*
X009486Y016941D01*
X009495Y016929D01*
X009317Y016944D02*
X009302Y016929D01*
X009290Y016912D01*
X009281Y016893D01*
X009004Y016893D02*
X008838Y016893D01*
X008838Y016885D02*
X009004Y016885D01*
X009004Y016876D02*
X008838Y016876D01*
X008838Y016868D02*
X009004Y016868D01*
X009004Y016859D02*
X008838Y016859D01*
X008838Y016851D02*
X009004Y016851D01*
X009004Y016842D02*
X008838Y016842D01*
X008838Y016834D02*
X009004Y016834D01*
X009004Y016825D02*
X008838Y016825D01*
X008838Y016817D02*
X009004Y016817D01*
X009004Y016808D02*
X008838Y016808D01*
X008838Y016800D02*
X009004Y016800D01*
X009004Y016791D02*
X008838Y016791D01*
X008838Y016783D02*
X009004Y016783D01*
X009004Y016774D02*
X008838Y016774D01*
X008838Y016766D02*
X009004Y016766D01*
X009004Y016757D02*
X008838Y016757D01*
X008838Y016749D02*
X009004Y016749D01*
X009004Y016740D02*
X008838Y016740D01*
X008837Y016732D02*
X009004Y016732D01*
X009004Y016723D02*
X008836Y016723D01*
X008836Y016715D02*
X009004Y016715D01*
X009004Y016706D02*
X008835Y016706D01*
X008834Y016698D02*
X009004Y016698D01*
X009004Y016689D02*
X008833Y016689D01*
X008831Y016681D02*
X009004Y016681D01*
X009004Y016672D02*
X008829Y016672D01*
X008828Y016664D02*
X009004Y016664D01*
X009004Y016655D02*
X008826Y016655D01*
X008823Y016647D02*
X009004Y016647D01*
X009004Y016638D02*
X008820Y016638D01*
X008815Y016630D02*
X009004Y016630D01*
X009004Y016621D02*
X008809Y016621D01*
X008803Y016613D02*
X009004Y016613D01*
X009004Y016604D02*
X008794Y016604D01*
X008784Y016596D02*
X009004Y016596D01*
X009004Y016587D02*
X008769Y016587D01*
X008745Y016579D02*
X009004Y016579D01*
X008834Y016545D02*
X008455Y016545D01*
X008459Y016536D02*
X008827Y016536D01*
X008821Y016528D02*
X008464Y016528D01*
X008471Y016519D02*
X008813Y016519D01*
X008804Y016511D02*
X008477Y016511D01*
X008483Y016502D02*
X008795Y016502D01*
X008786Y016494D02*
X008491Y016494D01*
X008503Y016485D02*
X008774Y016485D01*
X008762Y016477D02*
X008518Y016477D01*
X008532Y016468D02*
X008571Y016455D01*
X008611Y016449D01*
X008670Y016450D01*
X008728Y016459D01*
X008739Y016462D01*
X008748Y016467D01*
X008730Y016460D02*
X008557Y016460D01*
X008596Y016451D02*
X008676Y016451D01*
X008838Y016902D02*
X009004Y016902D01*
X009004Y016910D02*
X008838Y016910D01*
X008838Y016919D02*
X009004Y016919D01*
X009004Y016927D02*
X008838Y016927D01*
X008838Y016936D02*
X009004Y016936D01*
X009004Y016944D02*
X008838Y016944D01*
X008838Y016953D02*
X009004Y016953D01*
X009004Y016961D02*
X008838Y016961D01*
X008838Y016970D02*
X009004Y016970D01*
X009004Y016978D02*
X008838Y016978D01*
X008838Y016987D02*
X009004Y016987D01*
X009004Y016995D02*
X008838Y016995D01*
X008838Y017004D02*
X009004Y017004D01*
X009004Y017012D02*
X008838Y017012D01*
X008838Y017021D02*
X009004Y017021D01*
X009004Y017029D02*
X008838Y017029D01*
X008838Y017038D02*
X009004Y017038D01*
X009004Y017046D02*
X008838Y017046D01*
X008838Y017055D02*
X009004Y017055D01*
X009004Y017063D02*
X008838Y017063D01*
X008838Y017072D02*
X009004Y017072D01*
X008588Y017072D02*
X008425Y017072D01*
X008425Y017080D02*
X008588Y017080D01*
X008588Y017063D02*
X008425Y017063D01*
X008425Y017055D02*
X008588Y017055D01*
X008588Y017046D02*
X008425Y017046D01*
X008425Y017038D02*
X008588Y017038D01*
X008588Y017029D02*
X008425Y017029D01*
X008425Y017021D02*
X008588Y017021D01*
X008588Y017012D02*
X008425Y017012D01*
X008425Y017004D02*
X008588Y017004D01*
X008588Y016995D02*
X008425Y016995D01*
X008425Y016987D02*
X008588Y016987D01*
X007529Y016987D02*
X007366Y016987D01*
X007366Y016995D02*
X007529Y016995D01*
X007529Y017004D02*
X007366Y017004D01*
X007366Y017012D02*
X007529Y017012D01*
X007529Y017021D02*
X007366Y017021D01*
X007366Y017029D02*
X007529Y017029D01*
X007529Y017038D02*
X007366Y017038D01*
X007366Y017046D02*
X007529Y017046D01*
X007529Y017055D02*
X007366Y017055D01*
X007366Y017063D02*
X007529Y017063D01*
X007529Y017072D02*
X007366Y017072D01*
X007366Y017080D02*
X007529Y017080D01*
X007529Y016978D02*
X007366Y016978D01*
X007366Y016970D02*
X007529Y016970D01*
X007529Y016961D02*
X007366Y016961D01*
X007366Y016953D02*
X007529Y016953D01*
X007529Y016944D02*
X007366Y016944D01*
X007366Y016936D02*
X007529Y016936D01*
X007529Y016927D02*
X007366Y016927D01*
X007366Y016919D02*
X007529Y016919D01*
X007529Y016910D02*
X007366Y016910D01*
X007366Y016902D02*
X007529Y016902D01*
X007529Y016893D02*
X007366Y016893D01*
X007366Y016885D02*
X007529Y016885D01*
X007529Y016876D02*
X007366Y016876D01*
X007366Y016868D02*
X007529Y016868D01*
X007292Y016944D02*
X007270Y016944D01*
X006098Y016987D02*
X005535Y016987D01*
X005535Y016995D02*
X006092Y016995D01*
X006084Y017004D02*
X005696Y017004D01*
X005688Y017004D02*
X005535Y017004D01*
X005535Y017012D02*
X005687Y017012D01*
X005688Y017021D02*
X005535Y017021D01*
X005535Y017029D02*
X005688Y017029D01*
X005688Y017038D02*
X005535Y017038D01*
X005535Y017046D02*
X005688Y017046D01*
X005688Y017055D02*
X005539Y017055D01*
X005584Y017063D02*
X005688Y017063D01*
X005688Y017072D02*
X005628Y017072D01*
X005673Y017080D02*
X005688Y017080D01*
X005727Y017038D02*
X006049Y017038D01*
X006039Y017046D02*
X005735Y017046D01*
X005744Y017055D02*
X006026Y017055D01*
X006012Y017063D02*
X005755Y017063D01*
X005772Y017072D02*
X005998Y017072D01*
X005976Y017080D02*
X005793Y017080D01*
X005814Y017089D02*
X005952Y017089D01*
X006060Y017029D02*
X005719Y017029D01*
X005711Y017021D02*
X006069Y017021D01*
X006077Y017012D02*
X005703Y017012D01*
X010016Y016836D02*
X010028Y016895D01*
X010051Y016950D01*
X010084Y017000D01*
X010125Y017043D01*
X010175Y017077D01*
X010229Y017101D01*
X010289Y017114D01*
X010349Y017115D01*
X010406Y017108D01*
X010461Y017095D01*
X010507Y017077D01*
X010547Y017050D01*
X010581Y017014D01*
X010606Y016972D01*
X010623Y016927D01*
X010456Y016927D01*
X010457Y016926D02*
X010444Y016946D01*
X010427Y016963D01*
X010406Y016975D01*
X010374Y016986D01*
X010340Y016989D01*
X010306Y016986D01*
X010273Y016979D01*
X010256Y016971D01*
X010241Y016959D01*
X010214Y016922D01*
X010193Y016881D01*
X010181Y016837D01*
X010177Y016791D01*
X010183Y016729D01*
X010196Y016668D01*
X010209Y016639D01*
X010229Y016613D01*
X010253Y016593D01*
X010282Y016580D01*
X010314Y016573D01*
X010346Y016571D01*
X010370Y016574D01*
X010394Y016581D01*
X010415Y016592D01*
X010434Y016606D01*
X010448Y016624D01*
X010461Y016648D01*
X010470Y016674D01*
X010474Y016701D01*
X010634Y016701D01*
X010634Y016699D01*
X010633Y016680D01*
X010629Y016662D01*
X010608Y016607D01*
X010576Y016558D01*
X010534Y016516D01*
X010485Y016484D01*
X010442Y016466D01*
X010397Y016455D01*
X010350Y016451D01*
X010288Y016455D01*
X010226Y016466D01*
X010184Y016480D01*
X010145Y016501D01*
X010110Y016528D01*
X010546Y016528D01*
X010554Y016536D02*
X010102Y016536D01*
X010110Y016528D02*
X010079Y016560D01*
X010052Y016600D01*
X010032Y016644D01*
X010019Y016690D01*
X010013Y016738D01*
X010016Y016836D01*
X010016Y016834D02*
X010181Y016834D01*
X010183Y016842D02*
X010018Y016842D01*
X010019Y016851D02*
X010185Y016851D01*
X010187Y016859D02*
X010021Y016859D01*
X010023Y016868D02*
X010190Y016868D01*
X010192Y016876D02*
X010024Y016876D01*
X010026Y016885D02*
X010195Y016885D01*
X010199Y016893D02*
X010028Y016893D01*
X010031Y016902D02*
X010203Y016902D01*
X010208Y016910D02*
X010034Y016910D01*
X010038Y016919D02*
X010212Y016919D01*
X010217Y016927D02*
X010041Y016927D01*
X010045Y016936D02*
X010224Y016936D01*
X010230Y016944D02*
X010048Y016944D01*
X010052Y016953D02*
X010237Y016953D01*
X010244Y016961D02*
X010058Y016961D01*
X010064Y016970D02*
X010254Y016970D01*
X010271Y016978D02*
X010069Y016978D01*
X010075Y016987D02*
X010311Y016987D01*
X010364Y016987D02*
X010598Y016987D01*
X010592Y016995D02*
X010080Y016995D01*
X010087Y017004D02*
X010587Y017004D01*
X010582Y017012D02*
X010095Y017012D01*
X010104Y017021D02*
X010575Y017021D01*
X010567Y017029D02*
X010112Y017029D01*
X010120Y017038D02*
X010559Y017038D01*
X010551Y017046D02*
X010130Y017046D01*
X010142Y017055D02*
X010540Y017055D01*
X010527Y017063D02*
X010155Y017063D01*
X010167Y017072D02*
X010515Y017072D01*
X010499Y017080D02*
X010182Y017080D01*
X010201Y017089D02*
X010477Y017089D01*
X010452Y017097D02*
X010221Y017097D01*
X010250Y017106D02*
X010414Y017106D01*
X010356Y017114D02*
X010295Y017114D01*
X010397Y016978D02*
X010603Y016978D01*
X010607Y016970D02*
X010415Y016970D01*
X010428Y016961D02*
X010610Y016961D01*
X010613Y016953D02*
X010437Y016953D01*
X010445Y016944D02*
X010617Y016944D01*
X010620Y016936D02*
X010450Y016936D01*
X010457Y016926D02*
X010465Y016904D01*
X010467Y016880D01*
X010467Y016879D01*
X010632Y016879D01*
X010623Y016927D01*
X010625Y016919D02*
X010459Y016919D01*
X010462Y016910D02*
X010626Y016910D01*
X010628Y016902D02*
X010465Y016902D01*
X010466Y016893D02*
X010630Y016893D01*
X010631Y016885D02*
X010467Y016885D01*
X009268Y016831D02*
X009268Y016805D01*
X010015Y016783D02*
X010178Y016783D01*
X010177Y016791D02*
X010015Y016791D01*
X010015Y016800D02*
X010178Y016800D01*
X010179Y016808D02*
X010015Y016808D01*
X010016Y016817D02*
X010179Y016817D01*
X010180Y016825D02*
X010016Y016825D01*
X010014Y016774D02*
X010179Y016774D01*
X010179Y016766D02*
X010014Y016766D01*
X010014Y016757D02*
X010180Y016757D01*
X010181Y016749D02*
X010014Y016749D01*
X010013Y016740D02*
X010182Y016740D01*
X010182Y016732D02*
X010014Y016732D01*
X010015Y016723D02*
X010184Y016723D01*
X010186Y016715D02*
X010016Y016715D01*
X010017Y016706D02*
X010188Y016706D01*
X010190Y016698D02*
X010018Y016698D01*
X010019Y016689D02*
X010192Y016689D01*
X010193Y016681D02*
X010022Y016681D01*
X010024Y016672D02*
X010195Y016672D01*
X010198Y016664D02*
X010027Y016664D01*
X010029Y016655D02*
X010202Y016655D01*
X010206Y016647D02*
X010031Y016647D01*
X010035Y016638D02*
X010210Y016638D01*
X010216Y016630D02*
X010039Y016630D01*
X010043Y016621D02*
X010223Y016621D01*
X010230Y016613D02*
X010047Y016613D01*
X010051Y016604D02*
X010240Y016604D01*
X010251Y016596D02*
X010055Y016596D01*
X010061Y016587D02*
X010267Y016587D01*
X010288Y016579D02*
X010067Y016579D01*
X010073Y016570D02*
X010584Y016570D01*
X010578Y016562D02*
X010078Y016562D01*
X010086Y016553D02*
X010571Y016553D01*
X010563Y016545D02*
X010094Y016545D01*
X010121Y016519D02*
X010537Y016519D01*
X010526Y016511D02*
X010132Y016511D01*
X010143Y016502D02*
X010513Y016502D01*
X010500Y016494D02*
X010158Y016494D01*
X010174Y016485D02*
X010487Y016485D01*
X010468Y016477D02*
X010194Y016477D01*
X010220Y016468D02*
X010448Y016468D01*
X010417Y016460D02*
X010261Y016460D01*
X010348Y016451D02*
X010352Y016451D01*
X010386Y016579D02*
X010589Y016579D01*
X010595Y016587D02*
X010406Y016587D01*
X010420Y016596D02*
X010600Y016596D01*
X010606Y016604D02*
X010431Y016604D01*
X010439Y016613D02*
X010610Y016613D01*
X010613Y016621D02*
X010446Y016621D01*
X010451Y016630D02*
X010617Y016630D01*
X010620Y016638D02*
X010456Y016638D01*
X010461Y016647D02*
X010623Y016647D01*
X010627Y016655D02*
X010464Y016655D01*
X010467Y016664D02*
X010630Y016664D01*
X010631Y016672D02*
X010470Y016672D01*
X010471Y016681D02*
X010633Y016681D01*
X010634Y016689D02*
X010472Y016689D01*
X010474Y016698D02*
X010634Y016698D01*
X010700Y016706D02*
X010855Y016706D01*
X010855Y016704D02*
X010870Y016658D01*
X010892Y016616D01*
X010959Y016575D01*
X011030Y016566D01*
X011101Y016590D01*
X011145Y016630D01*
X011167Y016679D01*
X011182Y016741D01*
X011182Y016798D01*
X011172Y016875D01*
X011142Y016940D01*
X011108Y016973D01*
X011069Y016994D01*
X011021Y016998D01*
X011017Y016998D01*
X011019Y017115D01*
X011098Y017105D01*
X011162Y017083D01*
X011240Y017029D01*
X011018Y017029D01*
X011018Y017021D02*
X011248Y017021D01*
X011240Y017029D02*
X011283Y016979D01*
X011324Y016887D01*
X011335Y016801D01*
X011325Y016718D01*
X011298Y016621D01*
X011266Y016570D01*
X011219Y016525D01*
X011175Y016494D01*
X011102Y016469D01*
X011003Y016459D01*
X010885Y016475D01*
X010773Y016545D01*
X010710Y016643D01*
X010686Y016796D01*
X010718Y016936D01*
X010802Y017043D01*
X010935Y017109D01*
X010993Y017116D01*
X010995Y017116D01*
X011000Y017114D01*
X010978Y017114D01*
X011000Y017114D02*
X011000Y016999D01*
X010956Y016993D01*
X010909Y016967D01*
X010877Y016923D01*
X010861Y016887D01*
X010850Y016828D01*
X010848Y016754D01*
X010855Y016704D01*
X010857Y016698D02*
X010702Y016698D01*
X010703Y016689D02*
X010860Y016689D01*
X010863Y016681D02*
X010704Y016681D01*
X010706Y016672D02*
X010866Y016672D01*
X010868Y016664D02*
X010707Y016664D01*
X010708Y016655D02*
X010872Y016655D01*
X010876Y016647D02*
X010710Y016647D01*
X010713Y016638D02*
X010881Y016638D01*
X010885Y016630D02*
X010719Y016630D01*
X010724Y016621D02*
X010890Y016621D01*
X010898Y016613D02*
X010730Y016613D01*
X010735Y016604D02*
X010912Y016604D01*
X010926Y016596D02*
X010741Y016596D01*
X010746Y016587D02*
X010939Y016587D01*
X010953Y016579D02*
X010752Y016579D01*
X010757Y016570D02*
X010998Y016570D01*
X011043Y016570D02*
X011266Y016570D01*
X011272Y016579D02*
X011068Y016579D01*
X011093Y016587D02*
X011277Y016587D01*
X011282Y016596D02*
X011108Y016596D01*
X011117Y016604D02*
X011288Y016604D01*
X011293Y016613D02*
X011126Y016613D01*
X011136Y016621D02*
X011298Y016621D01*
X011301Y016630D02*
X011145Y016630D01*
X011149Y016638D02*
X011303Y016638D01*
X011305Y016647D02*
X011153Y016647D01*
X011157Y016655D02*
X011308Y016655D01*
X011310Y016664D02*
X011160Y016664D01*
X011164Y016672D02*
X011313Y016672D01*
X011315Y016681D02*
X011168Y016681D01*
X011170Y016689D02*
X011317Y016689D01*
X011320Y016698D02*
X011172Y016698D01*
X011174Y016706D02*
X011322Y016706D01*
X011324Y016715D02*
X011176Y016715D01*
X011178Y016723D02*
X011326Y016723D01*
X011327Y016732D02*
X011180Y016732D01*
X011182Y016740D02*
X011328Y016740D01*
X011329Y016749D02*
X011182Y016749D01*
X011182Y016757D02*
X011330Y016757D01*
X011331Y016766D02*
X011182Y016766D01*
X011182Y016774D02*
X011332Y016774D01*
X011333Y016783D02*
X011182Y016783D01*
X011182Y016791D02*
X011334Y016791D01*
X011335Y016800D02*
X011182Y016800D01*
X011181Y016808D02*
X011334Y016808D01*
X011333Y016817D02*
X011180Y016817D01*
X011179Y016825D02*
X011332Y016825D01*
X011331Y016834D02*
X011178Y016834D01*
X011177Y016842D02*
X011330Y016842D01*
X011329Y016851D02*
X011176Y016851D01*
X011174Y016859D02*
X011328Y016859D01*
X011327Y016868D02*
X011173Y016868D01*
X011172Y016876D02*
X011326Y016876D01*
X011325Y016885D02*
X011168Y016885D01*
X011164Y016893D02*
X011322Y016893D01*
X011318Y016902D02*
X011160Y016902D01*
X011156Y016910D02*
X011314Y016910D01*
X011310Y016919D02*
X011152Y016919D01*
X011148Y016927D02*
X011306Y016927D01*
X011303Y016936D02*
X011144Y016936D01*
X011138Y016944D02*
X011299Y016944D01*
X011295Y016953D02*
X011129Y016953D01*
X011121Y016961D02*
X011291Y016961D01*
X011288Y016970D02*
X011112Y016970D01*
X011099Y016978D02*
X011284Y016978D01*
X011277Y016987D02*
X011083Y016987D01*
X011056Y016995D02*
X011269Y016995D01*
X011262Y017004D02*
X011017Y017004D01*
X011018Y017012D02*
X011255Y017012D01*
X011228Y017038D02*
X011018Y017038D01*
X011018Y017046D02*
X011216Y017046D01*
X011203Y017055D02*
X011018Y017055D01*
X011018Y017063D02*
X011191Y017063D01*
X011179Y017072D02*
X011019Y017072D01*
X011019Y017080D02*
X011166Y017080D01*
X011146Y017089D02*
X011019Y017089D01*
X011019Y017097D02*
X011121Y017097D01*
X011093Y017106D02*
X011019Y017106D01*
X011019Y017114D02*
X011026Y017114D01*
X011019Y017119D02*
X011013Y017119D01*
X011013Y016994D01*
X011005Y016992D02*
X010996Y016992D01*
X011005Y016992D02*
X011005Y017119D01*
X011000Y017106D02*
X010929Y017106D01*
X010911Y017097D02*
X011000Y017097D01*
X011000Y017089D02*
X010894Y017089D01*
X010877Y017080D02*
X011000Y017080D01*
X011000Y017072D02*
X010860Y017072D01*
X010843Y017063D02*
X011000Y017063D01*
X011000Y017055D02*
X010826Y017055D01*
X010809Y017046D02*
X011000Y017046D01*
X011000Y017038D02*
X010798Y017038D01*
X010791Y017029D02*
X011000Y017029D01*
X011000Y017021D02*
X010785Y017021D01*
X010778Y017012D02*
X011000Y017012D01*
X011000Y017004D02*
X010771Y017004D01*
X010765Y016995D02*
X010972Y016995D01*
X010945Y016987D02*
X010758Y016987D01*
X010751Y016978D02*
X010929Y016978D01*
X010914Y016970D02*
X010745Y016970D01*
X010738Y016961D02*
X010905Y016961D01*
X010899Y016953D02*
X010731Y016953D01*
X010725Y016944D02*
X010893Y016944D01*
X010887Y016936D02*
X010718Y016936D01*
X010716Y016927D02*
X010880Y016927D01*
X010875Y016919D02*
X010714Y016919D01*
X010712Y016910D02*
X010872Y016910D01*
X010868Y016902D02*
X010710Y016902D01*
X010709Y016893D02*
X010864Y016893D01*
X010861Y016885D02*
X010707Y016885D01*
X010705Y016876D02*
X010859Y016876D01*
X010858Y016868D02*
X010703Y016868D01*
X010701Y016859D02*
X010856Y016859D01*
X010855Y016851D02*
X010699Y016851D01*
X010697Y016842D02*
X010853Y016842D01*
X010851Y016834D02*
X010695Y016834D01*
X010693Y016825D02*
X010850Y016825D01*
X010850Y016817D02*
X010691Y016817D01*
X010689Y016808D02*
X010850Y016808D01*
X011308Y016628D02*
X011320Y016662D01*
X011329Y016696D01*
X011336Y016731D01*
X011340Y016767D01*
X011342Y016802D01*
X011407Y016800D02*
X011577Y016800D01*
X011577Y016808D02*
X011407Y016808D01*
X011407Y016817D02*
X011577Y016817D01*
X011577Y016825D02*
X011407Y016825D01*
X011407Y016834D02*
X011577Y016834D01*
X011577Y016842D02*
X011407Y016842D01*
X011407Y016851D02*
X011577Y016851D01*
X011577Y016852D02*
X011577Y016466D01*
X011407Y016466D01*
X011407Y017098D01*
X011564Y017098D01*
X011564Y017011D01*
X011573Y017013D01*
X011586Y017030D01*
X011616Y017061D01*
X011646Y017085D01*
X011681Y017101D01*
X011724Y017111D01*
X011778Y017116D01*
X011816Y017113D01*
X011852Y017103D01*
X011883Y017087D01*
X011911Y017066D01*
X011934Y017039D01*
X011951Y017009D01*
X011953Y017009D01*
X011955Y017010D01*
X011958Y017014D01*
X011976Y017033D01*
X012007Y017063D01*
X012042Y017088D01*
X012074Y017103D01*
X012108Y017113D01*
X012143Y017115D01*
X012194Y017111D01*
X012243Y017101D01*
X012277Y017088D01*
X012308Y017068D01*
X012333Y017042D01*
X012356Y017005D01*
X012372Y016964D01*
X012378Y016921D01*
X012378Y016465D01*
X012211Y016465D01*
X012211Y016870D01*
X012207Y016906D01*
X012194Y016939D01*
X012183Y016955D01*
X012169Y016968D01*
X012152Y016978D01*
X012133Y016983D01*
X012097Y016986D01*
X012060Y016982D01*
X012043Y016977D01*
X012028Y016968D01*
X012014Y016956D01*
X011999Y016934D01*
X011987Y016910D01*
X011981Y016884D01*
X011978Y016840D01*
X011978Y016465D01*
X011808Y016465D01*
X011808Y016881D01*
X011805Y016908D01*
X011796Y016933D01*
X011780Y016956D01*
X011766Y016969D01*
X011749Y016979D01*
X011730Y016985D01*
X011710Y016986D01*
X011676Y016984D01*
X011658Y016981D01*
X011641Y016973D01*
X011626Y016962D01*
X011593Y016924D01*
X011582Y016902D01*
X011576Y016877D01*
X011577Y016852D01*
X011577Y016859D02*
X011407Y016859D01*
X011407Y016868D02*
X011577Y016868D01*
X011576Y016876D02*
X011407Y016876D01*
X011407Y016885D02*
X011578Y016885D01*
X011580Y016893D02*
X011407Y016893D01*
X011407Y016902D02*
X011582Y016902D01*
X011586Y016910D02*
X011407Y016910D01*
X011407Y016919D02*
X011591Y016919D01*
X011596Y016927D02*
X011407Y016927D01*
X011407Y016936D02*
X011603Y016936D01*
X011611Y016944D02*
X011407Y016944D01*
X011407Y016953D02*
X011618Y016953D01*
X011626Y016961D02*
X011407Y016961D01*
X011407Y016970D02*
X011637Y016970D01*
X011653Y016978D02*
X011407Y016978D01*
X011407Y016987D02*
X012363Y016987D01*
X012360Y016995D02*
X011407Y016995D01*
X011407Y017004D02*
X012357Y017004D01*
X012352Y017012D02*
X011956Y017012D01*
X011950Y017012D02*
X011570Y017012D01*
X011564Y017012D02*
X011407Y017012D01*
X011407Y017021D02*
X011564Y017021D01*
X011564Y017029D02*
X011407Y017029D01*
X011407Y017038D02*
X011564Y017038D01*
X011564Y017046D02*
X011407Y017046D01*
X011407Y017055D02*
X011564Y017055D01*
X011564Y017063D02*
X011407Y017063D01*
X011407Y017072D02*
X011564Y017072D01*
X011564Y017080D02*
X011407Y017080D01*
X011407Y017089D02*
X011564Y017089D01*
X011564Y017097D02*
X011407Y017097D01*
X011579Y017021D02*
X011945Y017021D01*
X011940Y017029D02*
X011586Y017029D01*
X011594Y017038D02*
X011935Y017038D01*
X011928Y017046D02*
X011602Y017046D01*
X011610Y017055D02*
X011920Y017055D01*
X011913Y017063D02*
X011619Y017063D01*
X011630Y017072D02*
X011903Y017072D01*
X011892Y017080D02*
X011640Y017080D01*
X011654Y017089D02*
X011880Y017089D01*
X011864Y017097D02*
X011673Y017097D01*
X011701Y017106D02*
X011843Y017106D01*
X011803Y017114D02*
X011759Y017114D01*
X011750Y016978D02*
X012048Y016978D01*
X012031Y016970D02*
X011765Y016970D01*
X011775Y016961D02*
X012020Y016961D01*
X012012Y016953D02*
X011783Y016953D01*
X011788Y016944D02*
X012006Y016944D01*
X011999Y016936D02*
X011794Y016936D01*
X011798Y016927D02*
X011995Y016927D01*
X011991Y016919D02*
X011801Y016919D01*
X011804Y016910D02*
X011987Y016910D01*
X011985Y016902D02*
X011806Y016902D01*
X011807Y016893D02*
X011983Y016893D01*
X011981Y016885D02*
X011808Y016885D01*
X011808Y016876D02*
X011981Y016876D01*
X011980Y016868D02*
X011808Y016868D01*
X011808Y016859D02*
X011980Y016859D01*
X011979Y016851D02*
X011808Y016851D01*
X011808Y016842D02*
X011978Y016842D01*
X011978Y016834D02*
X011808Y016834D01*
X011808Y016825D02*
X011978Y016825D01*
X011978Y016817D02*
X011808Y016817D01*
X011808Y016808D02*
X011978Y016808D01*
X011978Y016800D02*
X011808Y016800D01*
X011808Y016791D02*
X011978Y016791D01*
X011978Y016783D02*
X011808Y016783D01*
X011808Y016774D02*
X011978Y016774D01*
X011978Y016766D02*
X011808Y016766D01*
X011808Y016757D02*
X011978Y016757D01*
X011978Y016749D02*
X011808Y016749D01*
X011808Y016740D02*
X011978Y016740D01*
X011978Y016732D02*
X011808Y016732D01*
X011808Y016723D02*
X011978Y016723D01*
X011978Y016715D02*
X011808Y016715D01*
X011808Y016706D02*
X011978Y016706D01*
X011978Y016698D02*
X011808Y016698D01*
X011808Y016689D02*
X011978Y016689D01*
X011978Y016681D02*
X011808Y016681D01*
X011808Y016672D02*
X011978Y016672D01*
X011978Y016664D02*
X011808Y016664D01*
X011808Y016655D02*
X011978Y016655D01*
X011978Y016647D02*
X011808Y016647D01*
X011808Y016638D02*
X011978Y016638D01*
X011978Y016630D02*
X011808Y016630D01*
X011808Y016621D02*
X011978Y016621D01*
X011978Y016613D02*
X011808Y016613D01*
X011808Y016604D02*
X011978Y016604D01*
X011978Y016596D02*
X011808Y016596D01*
X011808Y016587D02*
X011978Y016587D01*
X011978Y016579D02*
X011808Y016579D01*
X011808Y016570D02*
X011978Y016570D01*
X011978Y016562D02*
X011808Y016562D01*
X011808Y016553D02*
X011978Y016553D01*
X011978Y016545D02*
X011808Y016545D01*
X011808Y016536D02*
X011978Y016536D01*
X011978Y016528D02*
X011808Y016528D01*
X011808Y016519D02*
X011978Y016519D01*
X011978Y016511D02*
X011808Y016511D01*
X011808Y016502D02*
X011978Y016502D01*
X011978Y016494D02*
X011808Y016494D01*
X011808Y016485D02*
X011978Y016485D01*
X011978Y016477D02*
X011808Y016477D01*
X011808Y016468D02*
X011978Y016468D01*
X012211Y016468D02*
X012378Y016468D01*
X012378Y016477D02*
X012211Y016477D01*
X012211Y016485D02*
X012378Y016485D01*
X012378Y016494D02*
X012211Y016494D01*
X012211Y016502D02*
X012378Y016502D01*
X012378Y016511D02*
X012211Y016511D01*
X012211Y016519D02*
X012378Y016519D01*
X012378Y016528D02*
X012211Y016528D01*
X012211Y016536D02*
X012378Y016536D01*
X012378Y016545D02*
X012211Y016545D01*
X012211Y016553D02*
X012378Y016553D01*
X012378Y016562D02*
X012211Y016562D01*
X012211Y016570D02*
X012378Y016570D01*
X012378Y016579D02*
X012211Y016579D01*
X012211Y016587D02*
X012378Y016587D01*
X012378Y016596D02*
X012211Y016596D01*
X012211Y016604D02*
X012378Y016604D01*
X012378Y016613D02*
X012211Y016613D01*
X012211Y016621D02*
X012378Y016621D01*
X012378Y016630D02*
X012211Y016630D01*
X012211Y016638D02*
X012378Y016638D01*
X012378Y016647D02*
X012211Y016647D01*
X012211Y016655D02*
X012378Y016655D01*
X012378Y016664D02*
X012211Y016664D01*
X012211Y016672D02*
X012378Y016672D01*
X012378Y016681D02*
X012211Y016681D01*
X012211Y016689D02*
X012378Y016689D01*
X012378Y016698D02*
X012211Y016698D01*
X012211Y016706D02*
X012378Y016706D01*
X012378Y016715D02*
X012211Y016715D01*
X012211Y016723D02*
X012378Y016723D01*
X012378Y016732D02*
X012211Y016732D01*
X012211Y016740D02*
X012378Y016740D01*
X012378Y016749D02*
X012211Y016749D01*
X012211Y016757D02*
X012378Y016757D01*
X012378Y016766D02*
X012211Y016766D01*
X012211Y016774D02*
X012378Y016774D01*
X012378Y016783D02*
X012211Y016783D01*
X012211Y016791D02*
X012378Y016791D01*
X012378Y016800D02*
X012211Y016800D01*
X012211Y016808D02*
X012378Y016808D01*
X012378Y016817D02*
X012211Y016817D01*
X012211Y016825D02*
X012378Y016825D01*
X012378Y016834D02*
X012211Y016834D01*
X012211Y016842D02*
X012378Y016842D01*
X012378Y016851D02*
X012211Y016851D01*
X012211Y016859D02*
X012378Y016859D01*
X012378Y016868D02*
X012211Y016868D01*
X012211Y016876D02*
X012378Y016876D01*
X012378Y016885D02*
X012210Y016885D01*
X012209Y016893D02*
X012378Y016893D01*
X012378Y016902D02*
X012207Y016902D01*
X012205Y016910D02*
X012378Y016910D01*
X012378Y016919D02*
X012202Y016919D01*
X012199Y016927D02*
X012377Y016927D01*
X012376Y016936D02*
X012196Y016936D01*
X012191Y016944D02*
X012375Y016944D01*
X012373Y016953D02*
X012185Y016953D01*
X012177Y016961D02*
X012372Y016961D01*
X012370Y016970D02*
X012166Y016970D01*
X012150Y016978D02*
X012366Y016978D01*
X012347Y017021D02*
X011965Y017021D01*
X011973Y017029D02*
X012341Y017029D01*
X012336Y017038D02*
X011981Y017038D01*
X011990Y017046D02*
X012329Y017046D01*
X012321Y017055D02*
X011999Y017055D01*
X012008Y017063D02*
X012313Y017063D01*
X012303Y017072D02*
X012020Y017072D01*
X012031Y017080D02*
X012290Y017080D01*
X012276Y017089D02*
X012044Y017089D01*
X012061Y017097D02*
X012253Y017097D01*
X012220Y017106D02*
X012082Y017106D01*
X012131Y017114D02*
X012153Y017114D01*
X011577Y016791D02*
X011407Y016791D01*
X011407Y016783D02*
X011577Y016783D01*
X011577Y016774D02*
X011407Y016774D01*
X011407Y016766D02*
X011577Y016766D01*
X011577Y016757D02*
X011407Y016757D01*
X011407Y016749D02*
X011577Y016749D01*
X011577Y016740D02*
X011407Y016740D01*
X011407Y016732D02*
X011577Y016732D01*
X011577Y016723D02*
X011407Y016723D01*
X011407Y016715D02*
X011577Y016715D01*
X011577Y016706D02*
X011407Y016706D01*
X011407Y016698D02*
X011577Y016698D01*
X011577Y016689D02*
X011407Y016689D01*
X011407Y016681D02*
X011577Y016681D01*
X011577Y016672D02*
X011407Y016672D01*
X011407Y016664D02*
X011577Y016664D01*
X011577Y016655D02*
X011407Y016655D01*
X011407Y016647D02*
X011577Y016647D01*
X011577Y016638D02*
X011407Y016638D01*
X011407Y016630D02*
X011577Y016630D01*
X011577Y016621D02*
X011407Y016621D01*
X011407Y016613D02*
X011577Y016613D01*
X011577Y016604D02*
X011407Y016604D01*
X011407Y016596D02*
X011577Y016596D01*
X011577Y016587D02*
X011407Y016587D01*
X011407Y016579D02*
X011577Y016579D01*
X011577Y016570D02*
X011407Y016570D01*
X011407Y016562D02*
X011577Y016562D01*
X011577Y016553D02*
X011407Y016553D01*
X011407Y016545D02*
X011577Y016545D01*
X011577Y016536D02*
X011407Y016536D01*
X011407Y016528D02*
X011577Y016528D01*
X011577Y016519D02*
X011407Y016519D01*
X011407Y016511D02*
X011577Y016511D01*
X011577Y016502D02*
X011407Y016502D01*
X011407Y016494D02*
X011577Y016494D01*
X011577Y016485D02*
X011407Y016485D01*
X011407Y016477D02*
X011577Y016477D01*
X011577Y016468D02*
X011407Y016468D01*
X011258Y016562D02*
X010763Y016562D01*
X010768Y016553D02*
X011249Y016553D01*
X011240Y016545D02*
X010774Y016545D01*
X010788Y016536D02*
X011231Y016536D01*
X011222Y016528D02*
X010801Y016528D01*
X010815Y016519D02*
X011211Y016519D01*
X011199Y016511D02*
X010828Y016511D01*
X010842Y016502D02*
X011187Y016502D01*
X011174Y016494D02*
X010856Y016494D01*
X010869Y016485D02*
X011149Y016485D01*
X011125Y016477D02*
X010883Y016477D01*
X010936Y016468D02*
X011094Y016468D01*
X011010Y016460D02*
X010999Y016460D01*
X010957Y016583D02*
X010939Y016591D01*
X010922Y016601D01*
X010907Y016614D01*
X010894Y016629D01*
X010883Y016645D01*
X010854Y016715D02*
X010699Y016715D01*
X010698Y016723D02*
X010853Y016723D01*
X010851Y016732D02*
X010696Y016732D01*
X010695Y016740D02*
X010850Y016740D01*
X010849Y016749D02*
X010694Y016749D01*
X010692Y016757D02*
X010848Y016757D01*
X010849Y016766D02*
X010691Y016766D01*
X010690Y016774D02*
X010849Y016774D01*
X010849Y016783D02*
X010688Y016783D01*
X010687Y016791D02*
X010849Y016791D01*
X010850Y016800D02*
X010687Y016800D01*
X011166Y016866D02*
X011172Y016833D01*
X011176Y016800D01*
X011177Y016767D01*
X010691Y016707D02*
X010686Y016745D01*
X010685Y016783D01*
X010687Y016821D01*
X010692Y016858D01*
X011177Y016767D02*
X011175Y016735D01*
X011169Y016704D01*
X011159Y016673D01*
X011146Y016645D01*
X011307Y016628D02*
X011295Y016601D01*
X011280Y016576D01*
X011263Y016553D01*
X011243Y016532D01*
X011221Y016514D01*
X011197Y016497D01*
X011171Y016484D01*
X011144Y016473D01*
X011089Y016591D02*
X011106Y016601D01*
X011122Y016614D01*
X011135Y016629D01*
X011146Y016645D01*
X010883Y016645D02*
X010873Y016666D01*
X010865Y016688D01*
X010859Y016711D01*
X010856Y016735D01*
X010734Y016590D02*
X010748Y016568D01*
X010766Y016549D01*
X010785Y016531D01*
X010957Y016583D02*
X010979Y016577D01*
X011001Y016574D01*
X011024Y016574D01*
X011046Y016577D01*
X011068Y016583D01*
X011089Y016591D01*
X010734Y016590D02*
X010719Y016618D01*
X010707Y016647D01*
X010698Y016677D01*
X010691Y016707D01*
X011117Y016959D02*
X011134Y016938D01*
X011148Y016916D01*
X011159Y016892D01*
X011167Y016867D01*
X010898Y016944D02*
X010885Y016924D01*
X010873Y016902D01*
X010865Y016880D01*
X010859Y016856D01*
X010856Y016832D01*
X010692Y016858D02*
X010699Y016891D01*
X010710Y016922D01*
X010725Y016952D01*
X010742Y016981D01*
X010763Y017007D01*
X010786Y017031D01*
X010811Y017052D01*
X010839Y017071D01*
X011002Y016452D02*
X011038Y016453D01*
X011074Y016457D01*
X011109Y016464D01*
X011144Y016474D01*
X011107Y017108D02*
X011078Y017114D01*
X011049Y017118D01*
X011019Y017119D01*
X011076Y016984D02*
X011091Y016977D01*
X011104Y016968D01*
X011117Y016958D01*
X010996Y016992D02*
X010977Y016991D01*
X010959Y016986D01*
X010941Y016979D01*
X010925Y016970D01*
X010911Y016958D01*
X010898Y016944D01*
X010785Y016531D02*
X010812Y016511D01*
X010841Y016494D01*
X010871Y016479D01*
X010903Y016468D01*
X010935Y016459D01*
X010968Y016454D01*
X011002Y016452D01*
X010839Y017070D02*
X010870Y017086D01*
X010902Y017099D01*
X010936Y017109D01*
X010970Y017116D01*
X011005Y017119D01*
X011108Y017108D02*
X011135Y017100D01*
X011162Y017089D01*
X011187Y017076D01*
X011212Y017060D01*
X011234Y017042D01*
X011233Y017042D02*
X011257Y017018D01*
X011279Y016992D01*
X011298Y016964D01*
X011313Y016934D01*
X011326Y016902D01*
X011334Y016869D01*
X011339Y016836D01*
X011341Y016802D01*
X010856Y016832D02*
X010854Y016799D01*
X010854Y016767D01*
X010857Y016735D01*
X011013Y016994D02*
X011034Y016993D01*
X011055Y016990D01*
X011075Y016984D01*
X009287Y017018D02*
X009276Y017003D01*
X009379Y016969D02*
X009423Y016971D01*
X040613Y003608D02*
X040559Y003680D01*
X040560Y003679D02*
X040613Y003722D01*
X040664Y003767D01*
X040712Y003816D01*
X040757Y003867D01*
X040800Y003921D01*
X040839Y003977D01*
X040875Y004035D01*
X040908Y004095D01*
X040937Y004156D01*
X040962Y004220D01*
X040984Y004284D01*
X041003Y004350D01*
X041017Y004417D01*
X041028Y004484D01*
X041035Y004552D01*
X041038Y004620D01*
X041037Y004689D01*
X041032Y004757D01*
X041024Y004825D01*
X041011Y004892D01*
X040995Y004958D01*
X040975Y005023D01*
X040952Y005088D01*
X040925Y005150D01*
X040894Y005211D01*
X040860Y005270D01*
X040823Y005328D01*
X040782Y005383D01*
X040738Y005435D01*
X040692Y005485D01*
X040643Y005532D01*
X040591Y005577D01*
X040537Y005618D01*
X040480Y005657D01*
X040421Y005692D01*
X040361Y005723D01*
X040299Y005751D01*
X040235Y005776D01*
X040170Y005797D01*
X040104Y005814D01*
X040037Y005828D01*
X039969Y005837D01*
X039901Y005843D01*
X039833Y005845D01*
X039765Y005843D01*
X039697Y005837D01*
X039629Y005828D01*
X039562Y005814D01*
X039496Y005797D01*
X039431Y005776D01*
X039367Y005751D01*
X039305Y005723D01*
X039245Y005692D01*
X039186Y005657D01*
X039129Y005618D01*
X039075Y005577D01*
X039023Y005532D01*
X038974Y005485D01*
X038928Y005435D01*
X038884Y005383D01*
X038843Y005328D01*
X038806Y005270D01*
X038772Y005211D01*
X038741Y005150D01*
X038714Y005088D01*
X038691Y005023D01*
X038671Y004958D01*
X038655Y004892D01*
X038642Y004825D01*
X038634Y004757D01*
X038629Y004689D01*
X038628Y004620D01*
X038631Y004552D01*
X038638Y004484D01*
X038649Y004417D01*
X038663Y004350D01*
X038682Y004284D01*
X038704Y004220D01*
X038729Y004156D01*
X038758Y004095D01*
X038791Y004035D01*
X038827Y003977D01*
X038866Y003921D01*
X038909Y003867D01*
X038954Y003816D01*
X039002Y003767D01*
X039053Y003722D01*
X039106Y003679D01*
X039053Y003608D01*
X039052Y003607D01*
X038997Y003651D01*
X038944Y003699D01*
X038893Y003749D01*
X038846Y003802D01*
X038802Y003857D01*
X038760Y003915D01*
X038722Y003975D01*
X038687Y004036D01*
X038656Y004100D01*
X038628Y004165D01*
X038604Y004232D01*
X038583Y004300D01*
X038567Y004369D01*
X038554Y004439D01*
X038545Y004509D01*
X038539Y004580D01*
X038538Y004651D01*
X038541Y004722D01*
X038547Y004793D01*
X038557Y004863D01*
X038571Y004932D01*
X038589Y005001D01*
X038611Y005069D01*
X038636Y005135D01*
X038665Y005200D01*
X038698Y005263D01*
X038734Y005324D01*
X038773Y005383D01*
X038815Y005440D01*
X038860Y005495D01*
X038909Y005547D01*
X038960Y005596D01*
X039013Y005643D01*
X039070Y005686D01*
X039128Y005726D01*
X039189Y005763D01*
X039251Y005797D01*
X039315Y005827D01*
X039381Y005854D01*
X039448Y005877D01*
X039517Y005896D01*
X039586Y005911D01*
X039656Y005923D01*
X039727Y005931D01*
X039798Y005935D01*
X039868Y005935D01*
X039939Y005931D01*
X040010Y005923D01*
X040080Y005911D01*
X040149Y005896D01*
X040218Y005877D01*
X040285Y005854D01*
X040351Y005827D01*
X040415Y005797D01*
X040477Y005763D01*
X040538Y005726D01*
X040596Y005686D01*
X040653Y005643D01*
X040706Y005596D01*
X040757Y005547D01*
X040806Y005495D01*
X040851Y005440D01*
X040893Y005383D01*
X040932Y005324D01*
X040968Y005263D01*
X041001Y005200D01*
X041030Y005135D01*
X041055Y005069D01*
X041077Y005001D01*
X041095Y004932D01*
X041109Y004863D01*
X041119Y004793D01*
X041125Y004722D01*
X041128Y004651D01*
X041127Y004580D01*
X041121Y004509D01*
X041112Y004439D01*
X041099Y004369D01*
X041083Y004300D01*
X041062Y004232D01*
X041038Y004165D01*
X041010Y004100D01*
X040979Y004036D01*
X040944Y003975D01*
X040906Y003915D01*
X040864Y003857D01*
X040820Y003802D01*
X040773Y003749D01*
X040722Y003699D01*
X040669Y003651D01*
X040614Y003607D01*
X040609Y003614D01*
X040664Y003659D01*
X040717Y003706D01*
X040768Y003757D01*
X040815Y003810D01*
X040860Y003866D01*
X040901Y003924D01*
X040939Y003984D01*
X040974Y004046D01*
X041005Y004110D01*
X041032Y004176D01*
X041056Y004243D01*
X041076Y004312D01*
X041093Y004381D01*
X041105Y004451D01*
X041114Y004522D01*
X041118Y004593D01*
X041119Y004664D01*
X041115Y004735D01*
X041108Y004806D01*
X041097Y004877D01*
X041082Y004946D01*
X041063Y005015D01*
X041040Y005083D01*
X041014Y005149D01*
X040984Y005214D01*
X040950Y005276D01*
X040914Y005337D01*
X040873Y005396D01*
X040830Y005453D01*
X040783Y005507D01*
X040734Y005558D01*
X040681Y005606D01*
X040627Y005652D01*
X040569Y005694D01*
X040510Y005733D01*
X040448Y005769D01*
X040385Y005802D01*
X040320Y005830D01*
X040253Y005856D01*
X040185Y005877D01*
X040116Y005895D01*
X040046Y005908D01*
X039975Y005918D01*
X039904Y005924D01*
X039833Y005926D01*
X039762Y005924D01*
X039691Y005918D01*
X039620Y005908D01*
X039550Y005895D01*
X039481Y005877D01*
X039413Y005856D01*
X039346Y005830D01*
X039281Y005802D01*
X039218Y005769D01*
X039156Y005733D01*
X039097Y005694D01*
X039039Y005652D01*
X038985Y005606D01*
X038932Y005558D01*
X038883Y005507D01*
X038836Y005453D01*
X038793Y005396D01*
X038752Y005337D01*
X038716Y005276D01*
X038682Y005214D01*
X038652Y005149D01*
X038626Y005083D01*
X038603Y005015D01*
X038584Y004946D01*
X038569Y004877D01*
X038558Y004806D01*
X038551Y004735D01*
X038547Y004664D01*
X038548Y004593D01*
X038552Y004522D01*
X038561Y004451D01*
X038573Y004381D01*
X038590Y004312D01*
X038610Y004243D01*
X038634Y004176D01*
X038661Y004110D01*
X038692Y004046D01*
X038727Y003984D01*
X038765Y003924D01*
X038806Y003866D01*
X038851Y003810D01*
X038898Y003757D01*
X038949Y003706D01*
X039002Y003659D01*
X039057Y003614D01*
X039063Y003621D01*
X039008Y003666D01*
X038955Y003713D01*
X038905Y003763D01*
X038858Y003816D01*
X038814Y003871D01*
X038772Y003929D01*
X038735Y003988D01*
X038700Y004050D01*
X038669Y004114D01*
X038642Y004179D01*
X038618Y004246D01*
X038598Y004314D01*
X038582Y004383D01*
X038570Y004452D01*
X038561Y004523D01*
X038557Y004593D01*
X038556Y004664D01*
X038560Y004735D01*
X038567Y004805D01*
X038578Y004875D01*
X038593Y004944D01*
X038612Y005012D01*
X038634Y005080D01*
X038660Y005145D01*
X038690Y005210D01*
X038723Y005272D01*
X038760Y005332D01*
X038800Y005391D01*
X038843Y005447D01*
X038889Y005501D01*
X038939Y005551D01*
X038990Y005600D01*
X039045Y005645D01*
X039102Y005687D01*
X039161Y005726D01*
X039222Y005761D01*
X039285Y005794D01*
X039350Y005822D01*
X039416Y005847D01*
X039484Y005868D01*
X039552Y005886D01*
X039622Y005899D01*
X039692Y005909D01*
X039762Y005915D01*
X039833Y005917D01*
X039904Y005915D01*
X039974Y005909D01*
X040044Y005899D01*
X040114Y005886D01*
X040182Y005868D01*
X040250Y005847D01*
X040316Y005822D01*
X040381Y005794D01*
X040444Y005761D01*
X040505Y005726D01*
X040564Y005687D01*
X040621Y005645D01*
X040676Y005600D01*
X040727Y005551D01*
X040777Y005501D01*
X040823Y005447D01*
X040866Y005391D01*
X040906Y005332D01*
X040943Y005272D01*
X040976Y005210D01*
X041006Y005145D01*
X041032Y005080D01*
X041054Y005012D01*
X041073Y004944D01*
X041088Y004875D01*
X041099Y004805D01*
X041106Y004735D01*
X041110Y004664D01*
X041109Y004593D01*
X041105Y004523D01*
X041096Y004452D01*
X041084Y004383D01*
X041068Y004314D01*
X041048Y004246D01*
X041024Y004179D01*
X040997Y004114D01*
X040966Y004050D01*
X040931Y003988D01*
X040894Y003929D01*
X040852Y003871D01*
X040808Y003816D01*
X040761Y003763D01*
X040711Y003713D01*
X040658Y003666D01*
X040603Y003621D01*
X040598Y003629D01*
X040653Y003673D01*
X040706Y003721D01*
X040756Y003771D01*
X040804Y003824D01*
X040848Y003880D01*
X040889Y003938D01*
X040926Y003998D01*
X040961Y004060D01*
X040991Y004124D01*
X041018Y004190D01*
X041042Y004257D01*
X041061Y004325D01*
X041077Y004395D01*
X041089Y004465D01*
X041097Y004535D01*
X041101Y004606D01*
X041100Y004677D01*
X041096Y004748D01*
X041088Y004819D01*
X041076Y004889D01*
X041060Y004958D01*
X041041Y005026D01*
X041017Y005094D01*
X040990Y005159D01*
X040959Y005223D01*
X040925Y005285D01*
X040887Y005345D01*
X040845Y005403D01*
X040801Y005459D01*
X040754Y005512D01*
X040703Y005562D01*
X040650Y005609D01*
X040595Y005654D01*
X040537Y005695D01*
X040477Y005732D01*
X040414Y005767D01*
X040350Y005798D01*
X040285Y005825D01*
X040218Y005848D01*
X040149Y005868D01*
X040080Y005884D01*
X040010Y005896D01*
X039939Y005904D01*
X039869Y005908D01*
X039797Y005908D01*
X039727Y005904D01*
X039656Y005896D01*
X039586Y005884D01*
X039517Y005868D01*
X039448Y005848D01*
X039381Y005825D01*
X039316Y005798D01*
X039252Y005767D01*
X039189Y005732D01*
X039129Y005695D01*
X039071Y005654D01*
X039016Y005609D01*
X038963Y005562D01*
X038912Y005512D01*
X038865Y005459D01*
X038821Y005403D01*
X038779Y005345D01*
X038741Y005285D01*
X038707Y005223D01*
X038676Y005159D01*
X038649Y005094D01*
X038625Y005026D01*
X038606Y004958D01*
X038590Y004889D01*
X038578Y004819D01*
X038570Y004748D01*
X038566Y004677D01*
X038565Y004606D01*
X038569Y004535D01*
X038577Y004465D01*
X038589Y004395D01*
X038605Y004325D01*
X038624Y004257D01*
X038648Y004190D01*
X038675Y004124D01*
X038705Y004060D01*
X038740Y003998D01*
X038777Y003938D01*
X038818Y003880D01*
X038862Y003824D01*
X038910Y003771D01*
X038960Y003721D01*
X039013Y003673D01*
X039068Y003629D01*
X039074Y003636D01*
X039019Y003680D01*
X038966Y003727D01*
X038916Y003777D01*
X038869Y003830D01*
X038825Y003885D01*
X038785Y003943D01*
X038747Y004002D01*
X038713Y004064D01*
X038683Y004128D01*
X038656Y004193D01*
X038633Y004260D01*
X038613Y004328D01*
X038598Y004396D01*
X038586Y004466D01*
X038578Y004536D01*
X038574Y004607D01*
X038575Y004677D01*
X038579Y004748D01*
X038587Y004818D01*
X038599Y004887D01*
X038614Y004956D01*
X038634Y005024D01*
X038657Y005090D01*
X038684Y005155D01*
X038715Y005219D01*
X038749Y005281D01*
X038787Y005340D01*
X038828Y005398D01*
X038872Y005453D01*
X038919Y005506D01*
X038969Y005555D01*
X039021Y005602D01*
X039077Y005646D01*
X039134Y005687D01*
X039194Y005725D01*
X039256Y005759D01*
X039319Y005789D01*
X039384Y005816D01*
X039451Y005840D01*
X039519Y005859D01*
X039588Y005875D01*
X039657Y005887D01*
X039727Y005895D01*
X039798Y005899D01*
X039868Y005899D01*
X039939Y005895D01*
X040009Y005887D01*
X040078Y005875D01*
X040147Y005859D01*
X040215Y005840D01*
X040282Y005816D01*
X040347Y005789D01*
X040410Y005759D01*
X040472Y005725D01*
X040532Y005687D01*
X040589Y005646D01*
X040645Y005602D01*
X040697Y005555D01*
X040747Y005506D01*
X040794Y005453D01*
X040838Y005398D01*
X040879Y005340D01*
X040917Y005281D01*
X040951Y005219D01*
X040982Y005155D01*
X041009Y005090D01*
X041032Y005024D01*
X041052Y004956D01*
X041067Y004887D01*
X041079Y004818D01*
X041087Y004748D01*
X041091Y004677D01*
X041092Y004607D01*
X041088Y004536D01*
X041080Y004466D01*
X041068Y004396D01*
X041053Y004328D01*
X041033Y004260D01*
X041010Y004193D01*
X040983Y004128D01*
X040953Y004064D01*
X040919Y004002D01*
X040881Y003943D01*
X040841Y003885D01*
X040797Y003830D01*
X040750Y003777D01*
X040700Y003727D01*
X040647Y003680D01*
X040592Y003636D01*
X040587Y003643D01*
X040642Y003687D01*
X040694Y003734D01*
X040743Y003783D01*
X040790Y003836D01*
X040833Y003890D01*
X040874Y003948D01*
X040911Y004007D01*
X040945Y004068D01*
X040975Y004132D01*
X041002Y004196D01*
X041025Y004263D01*
X041044Y004330D01*
X041059Y004398D01*
X041071Y004467D01*
X041079Y004537D01*
X041083Y004607D01*
X041082Y004677D01*
X041078Y004747D01*
X041070Y004816D01*
X041059Y004885D01*
X041043Y004954D01*
X041024Y005021D01*
X041000Y005087D01*
X040973Y005152D01*
X040943Y005215D01*
X040909Y005276D01*
X040872Y005335D01*
X040831Y005393D01*
X040787Y005447D01*
X040741Y005499D01*
X040691Y005549D01*
X040639Y005596D01*
X040584Y005639D01*
X040527Y005680D01*
X040468Y005717D01*
X040406Y005751D01*
X040343Y005781D01*
X040278Y005808D01*
X040212Y005831D01*
X040145Y005850D01*
X040077Y005866D01*
X040008Y005878D01*
X039938Y005886D01*
X039868Y005890D01*
X039798Y005890D01*
X039728Y005886D01*
X039658Y005878D01*
X039589Y005866D01*
X039521Y005850D01*
X039454Y005831D01*
X039388Y005808D01*
X039323Y005781D01*
X039260Y005751D01*
X039198Y005717D01*
X039139Y005680D01*
X039082Y005639D01*
X039027Y005596D01*
X038975Y005549D01*
X038925Y005499D01*
X038879Y005447D01*
X038835Y005393D01*
X038794Y005335D01*
X038757Y005276D01*
X038723Y005215D01*
X038693Y005152D01*
X038666Y005087D01*
X038642Y005021D01*
X038623Y004954D01*
X038607Y004885D01*
X038596Y004816D01*
X038588Y004747D01*
X038584Y004677D01*
X038583Y004607D01*
X038587Y004537D01*
X038595Y004467D01*
X038607Y004398D01*
X038622Y004330D01*
X038641Y004263D01*
X038664Y004196D01*
X038691Y004132D01*
X038721Y004068D01*
X038755Y004007D01*
X038792Y003948D01*
X038833Y003890D01*
X038876Y003836D01*
X038923Y003783D01*
X038972Y003734D01*
X039024Y003687D01*
X039079Y003643D01*
X039084Y003650D01*
X039030Y003694D01*
X038978Y003740D01*
X038929Y003789D01*
X038883Y003841D01*
X038840Y003896D01*
X038800Y003953D01*
X038763Y004012D01*
X038729Y004073D01*
X038699Y004135D01*
X038673Y004200D01*
X038650Y004265D01*
X038631Y004332D01*
X038615Y004400D01*
X038604Y004469D01*
X038596Y004538D01*
X038592Y004607D01*
X038593Y004677D01*
X038597Y004746D01*
X038604Y004815D01*
X038616Y004884D01*
X038632Y004951D01*
X038651Y005018D01*
X038674Y005084D01*
X038701Y005148D01*
X038731Y005211D01*
X038765Y005272D01*
X038802Y005330D01*
X038842Y005387D01*
X038885Y005441D01*
X038932Y005493D01*
X038981Y005542D01*
X039033Y005589D01*
X039087Y005632D01*
X039144Y005672D01*
X039203Y005709D01*
X039264Y005743D01*
X039327Y005773D01*
X039391Y005800D01*
X039456Y005823D01*
X039523Y005842D01*
X039591Y005857D01*
X039660Y005869D01*
X039729Y005877D01*
X039798Y005881D01*
X039868Y005881D01*
X039937Y005877D01*
X040006Y005869D01*
X040075Y005857D01*
X040143Y005842D01*
X040210Y005823D01*
X040275Y005800D01*
X040339Y005773D01*
X040402Y005743D01*
X040463Y005709D01*
X040522Y005672D01*
X040579Y005632D01*
X040633Y005589D01*
X040685Y005542D01*
X040734Y005493D01*
X040781Y005441D01*
X040824Y005387D01*
X040864Y005330D01*
X040901Y005272D01*
X040935Y005211D01*
X040965Y005148D01*
X040992Y005084D01*
X041015Y005018D01*
X041034Y004951D01*
X041050Y004884D01*
X041062Y004815D01*
X041069Y004746D01*
X041073Y004677D01*
X041074Y004607D01*
X041070Y004538D01*
X041062Y004469D01*
X041051Y004400D01*
X041035Y004332D01*
X041016Y004265D01*
X040993Y004200D01*
X040967Y004135D01*
X040937Y004073D01*
X040903Y004012D01*
X040866Y003953D01*
X040826Y003896D01*
X040783Y003841D01*
X040737Y003789D01*
X040688Y003740D01*
X040636Y003694D01*
X040582Y003650D01*
X040576Y003657D01*
X040630Y003701D01*
X040681Y003747D01*
X040730Y003796D01*
X040776Y003847D01*
X040819Y003901D01*
X040859Y003958D01*
X040895Y004016D01*
X040929Y004077D01*
X040959Y004139D01*
X040985Y004203D01*
X041007Y004268D01*
X041026Y004334D01*
X041042Y004402D01*
X041053Y004470D01*
X041061Y004538D01*
X041065Y004607D01*
X041064Y004676D01*
X041060Y004745D01*
X041053Y004814D01*
X041041Y004882D01*
X041026Y004949D01*
X041006Y005016D01*
X040983Y005081D01*
X040957Y005144D01*
X040927Y005207D01*
X040894Y005267D01*
X040857Y005325D01*
X040817Y005382D01*
X040774Y005436D01*
X040728Y005487D01*
X040679Y005536D01*
X040627Y005582D01*
X040573Y005625D01*
X040517Y005665D01*
X040458Y005701D01*
X040398Y005735D01*
X040336Y005765D01*
X040272Y005791D01*
X040207Y005814D01*
X040140Y005833D01*
X040073Y005848D01*
X040005Y005860D01*
X039936Y005868D01*
X039868Y005872D01*
X039798Y005872D01*
X039730Y005868D01*
X039661Y005860D01*
X039593Y005848D01*
X039526Y005833D01*
X039459Y005814D01*
X039394Y005791D01*
X039330Y005765D01*
X039268Y005735D01*
X039208Y005701D01*
X039149Y005665D01*
X039093Y005625D01*
X039039Y005582D01*
X038987Y005536D01*
X038938Y005487D01*
X038892Y005436D01*
X038849Y005382D01*
X038809Y005325D01*
X038772Y005267D01*
X038739Y005207D01*
X038709Y005144D01*
X038683Y005081D01*
X038660Y005016D01*
X038640Y004949D01*
X038625Y004882D01*
X038613Y004814D01*
X038606Y004745D01*
X038602Y004676D01*
X038601Y004607D01*
X038605Y004538D01*
X038613Y004470D01*
X038624Y004402D01*
X038640Y004334D01*
X038659Y004268D01*
X038681Y004203D01*
X038707Y004139D01*
X038737Y004077D01*
X038771Y004016D01*
X038807Y003958D01*
X038847Y003901D01*
X038890Y003847D01*
X038936Y003796D01*
X038985Y003747D01*
X039036Y003701D01*
X039090Y003657D01*
X039095Y003665D01*
X039041Y003708D01*
X038990Y003754D01*
X038941Y003804D01*
X038895Y003855D01*
X038852Y003910D01*
X038812Y003967D01*
X038776Y004025D01*
X038742Y004086D01*
X038713Y004149D01*
X038687Y004213D01*
X038665Y004279D01*
X038646Y004346D01*
X038631Y004413D01*
X038620Y004482D01*
X038613Y004551D01*
X038610Y004620D01*
X038611Y004689D01*
X038616Y004759D01*
X038624Y004827D01*
X038637Y004895D01*
X038653Y004963D01*
X038674Y005029D01*
X038697Y005094D01*
X038725Y005158D01*
X038756Y005220D01*
X038791Y005280D01*
X038829Y005338D01*
X038870Y005394D01*
X038914Y005447D01*
X038961Y005498D01*
X039011Y005546D01*
X039064Y005591D01*
X039119Y005633D01*
X039176Y005672D01*
X039236Y005707D01*
X039297Y005739D01*
X039360Y005768D01*
X039425Y005793D01*
X039491Y005814D01*
X039558Y005832D01*
X039626Y005845D01*
X039695Y005855D01*
X039764Y005861D01*
X039833Y005863D01*
X039902Y005861D01*
X039971Y005855D01*
X040040Y005845D01*
X040108Y005832D01*
X040175Y005814D01*
X040241Y005793D01*
X040306Y005768D01*
X040369Y005739D01*
X040430Y005707D01*
X040490Y005672D01*
X040547Y005633D01*
X040602Y005591D01*
X040655Y005546D01*
X040705Y005498D01*
X040752Y005447D01*
X040796Y005394D01*
X040837Y005338D01*
X040875Y005280D01*
X040910Y005220D01*
X040941Y005158D01*
X040969Y005094D01*
X040992Y005029D01*
X041013Y004963D01*
X041029Y004895D01*
X041042Y004827D01*
X041050Y004759D01*
X041055Y004689D01*
X041056Y004620D01*
X041053Y004551D01*
X041046Y004482D01*
X041035Y004413D01*
X041020Y004346D01*
X041001Y004279D01*
X040979Y004213D01*
X040953Y004149D01*
X040924Y004086D01*
X040890Y004025D01*
X040854Y003967D01*
X040814Y003910D01*
X040771Y003855D01*
X040725Y003804D01*
X040676Y003754D01*
X040625Y003708D01*
X040571Y003665D01*
X040565Y003672D01*
X040619Y003715D01*
X040670Y003761D01*
X040719Y003810D01*
X040764Y003861D01*
X040807Y003915D01*
X040846Y003972D01*
X040883Y004030D01*
X040916Y004090D01*
X040945Y004153D01*
X040971Y004216D01*
X040993Y004282D01*
X041011Y004348D01*
X041026Y004415D01*
X041037Y004483D01*
X041044Y004552D01*
X041047Y004620D01*
X041046Y004689D01*
X041041Y004758D01*
X041033Y004826D01*
X041020Y004894D01*
X041004Y004960D01*
X040984Y005026D01*
X040960Y005091D01*
X040933Y005154D01*
X040902Y005215D01*
X040868Y005275D01*
X040830Y005333D01*
X040789Y005388D01*
X040745Y005441D01*
X040698Y005491D01*
X040649Y005539D01*
X040597Y005584D01*
X040542Y005626D01*
X040485Y005664D01*
X040426Y005699D01*
X040365Y005731D01*
X040302Y005760D01*
X040238Y005784D01*
X040172Y005806D01*
X040106Y005823D01*
X040038Y005836D01*
X039970Y005846D01*
X039902Y005852D01*
X039833Y005854D01*
X039764Y005852D01*
X039696Y005846D01*
X039628Y005836D01*
X039560Y005823D01*
X039494Y005806D01*
X039428Y005784D01*
X039364Y005760D01*
X039301Y005731D01*
X039240Y005699D01*
X039181Y005664D01*
X039124Y005626D01*
X039069Y005584D01*
X039017Y005539D01*
X038968Y005491D01*
X038921Y005441D01*
X038877Y005388D01*
X038836Y005333D01*
X038798Y005275D01*
X038764Y005215D01*
X038733Y005154D01*
X038706Y005091D01*
X038682Y005026D01*
X038662Y004960D01*
X038646Y004894D01*
X038633Y004826D01*
X038625Y004758D01*
X038620Y004689D01*
X038619Y004620D01*
X038622Y004552D01*
X038629Y004483D01*
X038640Y004415D01*
X038655Y004348D01*
X038673Y004282D01*
X038695Y004216D01*
X038721Y004153D01*
X038750Y004090D01*
X038783Y004030D01*
X038820Y003972D01*
X038859Y003915D01*
X038902Y003861D01*
X038947Y003810D01*
X038996Y003761D01*
X039047Y003715D01*
X039101Y003672D01*
D19*
X009873Y016558D03*
D20*
X011958Y034515D02*
X012138Y034515D01*
X012048Y034515D02*
X012048Y034785D01*
X011958Y034695D01*
X012253Y034740D02*
X012253Y034560D01*
X012433Y034740D01*
X012433Y034560D01*
X012388Y034515D01*
X012298Y034515D01*
X012253Y034560D01*
X012253Y034740D02*
X012298Y034785D01*
X012388Y034785D01*
X012433Y034740D01*
X012548Y034785D02*
X012548Y034515D01*
X012548Y034605D02*
X012728Y034785D01*
X012593Y034650D02*
X012728Y034515D01*
X012683Y035515D02*
X012593Y035515D01*
X012548Y035560D01*
X012728Y035740D01*
X012728Y035560D01*
X012683Y035515D01*
X012548Y035560D02*
X012548Y035740D01*
X012593Y035785D01*
X012683Y035785D01*
X012728Y035740D01*
X012433Y035740D02*
X012433Y035695D01*
X012388Y035650D01*
X012433Y035605D01*
X012433Y035560D01*
X012388Y035515D01*
X012298Y035515D01*
X012253Y035560D01*
X012138Y035560D02*
X012093Y035515D01*
X012003Y035515D01*
X011958Y035560D01*
X012048Y035650D02*
X012093Y035650D01*
X012138Y035605D01*
X012138Y035560D01*
X012093Y035650D02*
X012138Y035695D01*
X012138Y035740D01*
X012093Y035785D01*
X012003Y035785D01*
X011958Y035740D01*
X012253Y035740D02*
X012298Y035785D01*
X012388Y035785D01*
X012433Y035740D01*
X012388Y035650D02*
X012343Y035650D01*
X006228Y035560D02*
X006183Y035515D01*
X006093Y035515D01*
X006048Y035560D01*
X006228Y035740D01*
X006228Y035560D01*
X006228Y035740D02*
X006183Y035785D01*
X006093Y035785D01*
X006048Y035740D01*
X006048Y035560D01*
X005933Y035560D02*
X005933Y035605D01*
X005888Y035650D01*
X005843Y035650D01*
X005888Y035650D02*
X005933Y035695D01*
X005933Y035740D01*
X005888Y035785D01*
X005798Y035785D01*
X005753Y035740D01*
X005638Y035740D02*
X005638Y035695D01*
X005593Y035650D01*
X005638Y035605D01*
X005638Y035560D01*
X005593Y035515D01*
X005503Y035515D01*
X005458Y035560D01*
X005548Y035650D02*
X005593Y035650D01*
X005638Y035740D02*
X005593Y035785D01*
X005503Y035785D01*
X005458Y035740D01*
X005753Y035560D02*
X005798Y035515D01*
X005888Y035515D01*
X005933Y035560D01*
X005888Y034785D02*
X005933Y034740D01*
X005753Y034560D01*
X005798Y034515D01*
X005888Y034515D01*
X005933Y034560D01*
X005933Y034740D01*
X005888Y034785D02*
X005798Y034785D01*
X005753Y034740D01*
X005753Y034560D01*
X005638Y034515D02*
X005458Y034515D01*
X005548Y034515D02*
X005548Y034785D01*
X005458Y034695D01*
X006048Y034605D02*
X006228Y034785D01*
X006048Y034785D02*
X006048Y034515D01*
X006093Y034650D02*
X006228Y034515D01*
X018458Y034515D02*
X018638Y034515D01*
X018548Y034515D02*
X018548Y034785D01*
X018458Y034695D01*
X018753Y034740D02*
X018753Y034560D01*
X018933Y034740D01*
X018933Y034560D01*
X018888Y034515D01*
X018798Y034515D01*
X018753Y034560D01*
X018753Y034740D02*
X018798Y034785D01*
X018888Y034785D01*
X018933Y034740D01*
X019048Y034785D02*
X019048Y034515D01*
X019048Y034605D02*
X019228Y034785D01*
X019093Y034650D02*
X019228Y034515D01*
X019183Y035515D02*
X019093Y035515D01*
X019048Y035560D01*
X019228Y035740D01*
X019228Y035560D01*
X019183Y035515D01*
X019048Y035560D02*
X019048Y035740D01*
X019093Y035785D01*
X019183Y035785D01*
X019228Y035740D01*
X018933Y035740D02*
X018933Y035695D01*
X018888Y035650D01*
X018933Y035605D01*
X018933Y035560D01*
X018888Y035515D01*
X018798Y035515D01*
X018753Y035560D01*
X018638Y035560D02*
X018593Y035515D01*
X018503Y035515D01*
X018458Y035560D01*
X018548Y035650D02*
X018593Y035650D01*
X018638Y035605D01*
X018638Y035560D01*
X018593Y035650D02*
X018638Y035695D01*
X018638Y035740D01*
X018593Y035785D01*
X018503Y035785D01*
X018458Y035740D01*
X018753Y035740D02*
X018798Y035785D01*
X018888Y035785D01*
X018933Y035740D01*
X018888Y035650D02*
X018843Y035650D01*
X024958Y035560D02*
X025003Y035515D01*
X025093Y035515D01*
X025138Y035560D01*
X025138Y035605D01*
X025093Y035650D01*
X025048Y035650D01*
X025093Y035650D02*
X025138Y035695D01*
X025138Y035740D01*
X025093Y035785D01*
X025003Y035785D01*
X024958Y035740D01*
X025253Y035740D02*
X025298Y035785D01*
X025388Y035785D01*
X025433Y035740D01*
X025433Y035695D01*
X025388Y035650D01*
X025433Y035605D01*
X025433Y035560D01*
X025388Y035515D01*
X025298Y035515D01*
X025253Y035560D01*
X025343Y035650D02*
X025388Y035650D01*
X025548Y035560D02*
X025728Y035740D01*
X025728Y035560D01*
X025683Y035515D01*
X025593Y035515D01*
X025548Y035560D01*
X025548Y035740D01*
X025593Y035785D01*
X025683Y035785D01*
X025728Y035740D01*
X025728Y034785D02*
X025548Y034605D01*
X025593Y034650D02*
X025728Y034515D01*
X025548Y034515D02*
X025548Y034785D01*
X025433Y034740D02*
X025253Y034560D01*
X025298Y034515D01*
X025388Y034515D01*
X025433Y034560D01*
X025433Y034740D01*
X025388Y034785D01*
X025298Y034785D01*
X025253Y034740D01*
X025253Y034560D01*
X025138Y034515D02*
X024958Y034515D01*
X025048Y034515D02*
X025048Y034785D01*
X024958Y034695D01*
X031458Y034695D02*
X031548Y034785D01*
X031548Y034515D01*
X031458Y034515D02*
X031638Y034515D01*
X031753Y034560D02*
X031933Y034740D01*
X031933Y034560D01*
X031888Y034515D01*
X031798Y034515D01*
X031753Y034560D01*
X031753Y034740D01*
X031798Y034785D01*
X031888Y034785D01*
X031933Y034740D01*
X032048Y034785D02*
X032048Y034515D01*
X032048Y034605D02*
X032228Y034785D01*
X032093Y034650D02*
X032228Y034515D01*
X032183Y035515D02*
X032093Y035515D01*
X032048Y035560D01*
X032228Y035740D01*
X032228Y035560D01*
X032183Y035515D01*
X032048Y035560D02*
X032048Y035740D01*
X032093Y035785D01*
X032183Y035785D01*
X032228Y035740D01*
X031933Y035740D02*
X031933Y035695D01*
X031888Y035650D01*
X031933Y035605D01*
X031933Y035560D01*
X031888Y035515D01*
X031798Y035515D01*
X031753Y035560D01*
X031638Y035560D02*
X031593Y035515D01*
X031503Y035515D01*
X031458Y035560D01*
X031548Y035650D02*
X031593Y035650D01*
X031638Y035605D01*
X031638Y035560D01*
X031593Y035650D02*
X031638Y035695D01*
X031638Y035740D01*
X031593Y035785D01*
X031503Y035785D01*
X031458Y035740D01*
X031753Y035740D02*
X031798Y035785D01*
X031888Y035785D01*
X031933Y035740D01*
X031888Y035650D02*
X031843Y035650D01*
X037958Y035560D02*
X038003Y035515D01*
X038093Y035515D01*
X038138Y035560D01*
X038138Y035605D01*
X038093Y035650D01*
X038048Y035650D01*
X038093Y035650D02*
X038138Y035695D01*
X038138Y035740D01*
X038093Y035785D01*
X038003Y035785D01*
X037958Y035740D01*
X038253Y035740D02*
X038298Y035785D01*
X038388Y035785D01*
X038433Y035740D01*
X038433Y035695D01*
X038388Y035650D01*
X038433Y035605D01*
X038433Y035560D01*
X038388Y035515D01*
X038298Y035515D01*
X038253Y035560D01*
X038343Y035650D02*
X038388Y035650D01*
X038548Y035560D02*
X038548Y035740D01*
X038593Y035785D01*
X038683Y035785D01*
X038728Y035740D01*
X038548Y035560D01*
X038593Y035515D01*
X038683Y035515D01*
X038728Y035560D01*
X038728Y035740D01*
X038728Y034785D02*
X038548Y034605D01*
X038593Y034650D02*
X038728Y034515D01*
X038548Y034515D02*
X038548Y034785D01*
X038433Y034740D02*
X038253Y034560D01*
X038298Y034515D01*
X038388Y034515D01*
X038433Y034560D01*
X038433Y034740D01*
X038388Y034785D01*
X038298Y034785D01*
X038253Y034740D01*
X038253Y034560D01*
X038138Y034515D02*
X037958Y034515D01*
X038048Y034515D02*
X038048Y034785D01*
X037958Y034695D01*
X039733Y008534D02*
X039913Y008354D01*
X039958Y008399D01*
X039958Y008489D01*
X039913Y008534D01*
X039733Y008534D01*
X039688Y008489D01*
X039688Y008399D01*
X039733Y008354D01*
X039913Y008354D01*
X039913Y008240D02*
X039958Y008195D01*
X039958Y008105D01*
X039913Y008060D01*
X039913Y007945D02*
X039958Y007900D01*
X039958Y007810D01*
X039913Y007765D01*
X039823Y007855D02*
X039823Y007900D01*
X039868Y007945D01*
X039913Y007945D01*
X039823Y007900D02*
X039778Y007945D01*
X039733Y007945D01*
X039688Y007900D01*
X039688Y007810D01*
X039733Y007765D01*
X039733Y008060D02*
X039688Y008105D01*
X039688Y008195D01*
X039733Y008240D01*
X039778Y008240D01*
X039823Y008195D01*
X039868Y008240D01*
X039913Y008240D01*
X039823Y008195D02*
X039823Y008150D01*
M02*
